G04*
G04 #@! TF.GenerationSoftware,Altium Limited,Altium Designer,26.7.1 (11)*
G04*
G04 Layer_Physical_Order=2*
G04 Layer_Color=32768*
G04 Board_Origin=22600000|47050000*
%FSLAX25Y25*%
%MOIN*%
G70*
G04*
G04 #@! TF.SameCoordinates,1440CDCE-C3DE-49C4-9650-C7B8FDE588B4*
G04*
G04*
G04 #@! TF.FilePolarity,Negative*
G04*
G01*
G75*
%ADD14C,0.01000*%
%ADD109C,0.04000*%
%ADD110C,0.07099*%
%ADD111C,0.04895*%
G04:AMPARAMS|DCode=112|XSize=72.567mil|YSize=72.567mil|CornerRadius=0mil|HoleSize=0mil|Usage=FLASHONLY|Rotation=0.000|XOffset=0mil|YOffset=0mil|HoleType=Round|Shape=Relief|Width=4mil|Gap=4mil|Entries=4|*
%AMTHD112*
7,0,0,0.07257,0.06457,0.00400,45*
%
%ADD112THD112*%
G04:AMPARAMS|DCode=113|XSize=94.614mil|YSize=94.614mil|CornerRadius=0mil|HoleSize=0mil|Usage=FLASHONLY|Rotation=0.000|XOffset=0mil|YOffset=0mil|HoleType=Round|Shape=Relief|Width=4mil|Gap=4mil|Entries=4|*
%AMTHD113*
7,0,0,0.09461,0.08661,0.00400,45*
%
%ADD113THD113*%
G04:AMPARAMS|DCode=114|XSize=117.843mil|YSize=117.843mil|CornerRadius=0mil|HoleSize=0mil|Usage=FLASHONLY|Rotation=0.000|XOffset=0mil|YOffset=0mil|HoleType=Round|Shape=Relief|Width=4mil|Gap=4mil|Entries=4|*
%AMTHD114*
7,0,0,0.11784,0.10984,0.00400,45*
%
%ADD114THD114*%
%ADD115C,0.05721*%
%ADD116C,0.01587*%
%ADD117C,0.02800*%
%ADD118C,0.03600*%
G36*
X-12600Y-305401D02*
X-12808D01*
X-13102Y-305108D01*
Y-304692D01*
X-12808Y-304398D01*
X-12600D01*
D01*
X104800D01*
X104900D01*
X105084Y-304475D01*
X105225Y-304616D01*
X105301Y-304800D01*
Y-304900D01*
D01*
Y-353100D01*
Y-353308D01*
X105008Y-353602D01*
X104592D01*
X104298Y-353308D01*
Y-353100D01*
D01*
Y-305401D01*
X-12600D01*
D02*
G37*
D14*
X19100Y-253500D02*
X63900D01*
X19100Y-170000D02*
X63900D01*
Y-253500D02*
Y-170000D01*
X19100Y-253500D02*
Y-170000D01*
X165000Y-246800D02*
X165200D01*
X25100Y-42600D02*
Y13400D01*
X190100Y-102600D02*
Y-43200D01*
X141600Y-102600D02*
X190100D01*
X25000Y13500D02*
X225000D01*
X104800Y-353100D02*
Y-304900D01*
X-12600D02*
X104800D01*
X141600Y-102600D02*
Y-42600D01*
X190600Y-42700D02*
X224800D01*
X25100Y-42600D02*
X141600D01*
X225000Y-42500D02*
Y13500D01*
D109*
X-4921Y13681D02*
G03*
X-12500Y6004I49J-7628D01*
G01*
X262402Y5709D02*
G03*
X254429Y13681I-7972J0D01*
G01*
X254134Y-353445D02*
G03*
X262402Y-345177I0J8268D01*
G01*
X-12500Y-345965D02*
G03*
X-5020Y-353445I7480J0D01*
G01*
X-12500Y-345965D02*
Y6004D01*
X-4921Y13681D02*
X254429D01*
X262402Y-345177D02*
Y5709D01*
X-5020Y-353445D02*
X254134D01*
D110*
X194500Y-215500D02*
D03*
X113900Y-51700D02*
D03*
X204700Y-189100D02*
D03*
X80000Y-179500D02*
D03*
X224300Y-61100D02*
D03*
X27800Y-60500D02*
D03*
D111*
X240000Y-98D02*
D03*
X250000D02*
D03*
X240000Y-10098D02*
D03*
X250000D02*
D03*
X240000Y-20098D02*
D03*
X250000D02*
D03*
X240000Y-30098D02*
D03*
X250000D02*
D03*
Y-40098D02*
D03*
X240000Y-50098D02*
D03*
X250000D02*
D03*
X240000Y-60098D02*
D03*
X250000D02*
D03*
X240000Y-70098D02*
D03*
X250000D02*
D03*
Y-80098D02*
D03*
X240000Y-100098D02*
D03*
Y-110098D02*
D03*
X250000D02*
D03*
Y-120098D02*
D03*
X240000Y-130098D02*
D03*
X250000D02*
D03*
X240000Y-140098D02*
D03*
X250000D02*
D03*
X240000Y-150098D02*
D03*
X250000D02*
D03*
X240000Y-160098D02*
D03*
X250000D02*
D03*
X240000Y-170098D02*
D03*
X250000D02*
D03*
X240000Y-180098D02*
D03*
X250000D02*
D03*
Y-190098D02*
D03*
X240000Y-200098D02*
D03*
X250000D02*
D03*
X240000Y-210098D02*
D03*
X250000D02*
D03*
X240000Y-220098D02*
D03*
X250000D02*
D03*
X240000Y-230098D02*
D03*
X250000D02*
D03*
X240000Y-240098D02*
D03*
X250000D02*
D03*
X240000Y-250098D02*
D03*
X250000D02*
D03*
X240000Y-260098D02*
D03*
Y-270098D02*
D03*
X250000D02*
D03*
X240000Y-280098D02*
D03*
X250000D02*
D03*
X240000Y-290098D02*
D03*
X250000D02*
D03*
X240000Y-300098D02*
D03*
X250000D02*
D03*
Y-310098D02*
D03*
X240000Y-320098D02*
D03*
X250000D02*
D03*
X240000Y-330098D02*
D03*
X250000D02*
D03*
X240000Y-340098D02*
D03*
X250000D02*
D03*
X240000Y-120098D02*
D03*
Y-80098D02*
D03*
X250000Y-100098D02*
D03*
X240000Y-90098D02*
D03*
X10000Y-150000D02*
D03*
Y0D02*
D03*
X0D02*
D03*
Y-10000D02*
D03*
X10000D02*
D03*
X0Y-20000D02*
D03*
X10000D02*
D03*
X0Y-30000D02*
D03*
Y-40000D02*
D03*
X10000D02*
D03*
X0Y-50000D02*
D03*
X10000D02*
D03*
X0Y-60000D02*
D03*
X10000D02*
D03*
X0Y-70000D02*
D03*
X10000D02*
D03*
X0Y-80000D02*
D03*
Y-100000D02*
D03*
Y-110000D02*
D03*
X10000D02*
D03*
X0Y-120000D02*
D03*
X10000D02*
D03*
X0Y-130000D02*
D03*
X10000D02*
D03*
X0Y-140000D02*
D03*
X10000D02*
D03*
X0Y-150000D02*
D03*
Y-160000D02*
D03*
X10000D02*
D03*
X0Y-170000D02*
D03*
X10000D02*
D03*
X0Y-180000D02*
D03*
X10000D02*
D03*
X0Y-190000D02*
D03*
X10000D02*
D03*
X0Y-200000D02*
D03*
X10000D02*
D03*
X0Y-210000D02*
D03*
X10000D02*
D03*
X0Y-220000D02*
D03*
X10000D02*
D03*
X0Y-230000D02*
D03*
X10000D02*
D03*
Y-240000D02*
D03*
X0Y-250000D02*
D03*
X10000D02*
D03*
X0Y-260000D02*
D03*
X10000D02*
D03*
X0Y-270000D02*
D03*
X10000D02*
D03*
X0Y-280000D02*
D03*
X10000D02*
D03*
X0Y-290000D02*
D03*
Y-300000D02*
D03*
X10000D02*
D03*
X0Y-310000D02*
D03*
X10000D02*
D03*
X0Y-320000D02*
D03*
X10000D02*
D03*
X0Y-330000D02*
D03*
X10000D02*
D03*
X0Y-340000D02*
D03*
X10000D02*
D03*
Y-80000D02*
D03*
D112*
X240000Y-310098D02*
D03*
X250000Y-260098D02*
D03*
X240000Y-190098D02*
D03*
X250000Y-90098D02*
D03*
X240000Y-40098D02*
D03*
X10000Y-290000D02*
D03*
X0Y-240000D02*
D03*
X10000Y-90000D02*
D03*
X0D02*
D03*
X10000Y-30000D02*
D03*
Y-100000D02*
D03*
D113*
X185000Y-189400D02*
D03*
D114*
X70202Y-313308D02*
D03*
X96187D02*
D03*
Y-339292D02*
D03*
X70202D02*
D03*
X202992Y-2008D02*
D03*
X177008Y-27992D02*
D03*
X202992D02*
D03*
X177008Y-2008D02*
D03*
X72992D02*
D03*
Y-27992D02*
D03*
X47008Y-2008D02*
D03*
Y-27992D02*
D03*
D115*
X83194Y-326300D02*
D03*
X190000Y-15000D02*
D03*
X60000D02*
D03*
D116*
X113400Y-125600D02*
D03*
X103000Y-212500D02*
D03*
X148200Y-189100D02*
D03*
X149300Y-191091D02*
D03*
X148293Y-193059D02*
D03*
X101800Y-254106D02*
D03*
X206100Y-279353D02*
D03*
X109700Y-147200D02*
D03*
X92800Y-144900D02*
D03*
X113500Y-144800D02*
D03*
X96600D02*
D03*
X93000Y-248300D02*
D03*
X80079Y-248500D02*
D03*
X197400Y-259400D02*
D03*
X184700Y-259900D02*
D03*
X131030Y-173018D02*
D03*
X206100Y-275416D02*
D03*
X139275Y-272498D02*
D03*
X173200Y-271479D02*
D03*
X162662Y-248951D02*
D03*
X148293Y-200933D02*
D03*
X101800Y-275927D02*
D03*
X173200Y-275416D02*
D03*
X160725Y-250902D02*
D03*
X190613Y-292834D02*
D03*
X148963Y-262743D02*
D03*
X80100Y-281800D02*
D03*
X173319Y-267542D02*
D03*
X164600Y-247000D02*
D03*
X149300Y-202900D02*
D03*
X101800Y-268053D02*
D03*
X83856Y-281800D02*
D03*
X206100Y-267542D02*
D03*
X135400Y-276400D02*
D03*
X173200Y-279353D02*
D03*
X158787Y-252853D02*
D03*
X148293Y-204870D02*
D03*
X101800Y-264116D02*
D03*
X149300Y-195028D02*
D03*
X85984Y-281800D02*
D03*
X156850Y-254804D02*
D03*
X173200Y-287227D02*
D03*
X141213Y-270547D02*
D03*
X149300Y-206839D02*
D03*
X101800Y-260179D02*
D03*
X148293Y-196996D02*
D03*
X89921Y-281800D02*
D03*
X145088Y-266645D02*
D03*
X198500Y-292800D02*
D03*
X134967Y-175100D02*
D03*
X188485Y-292834D02*
D03*
X151037Y-260657D02*
D03*
X194550Y-292800D02*
D03*
X147026Y-264694D02*
D03*
X180800Y-292800D02*
D03*
X154912Y-256755D02*
D03*
X184800Y-292800D02*
D03*
X152974Y-258706D02*
D03*
X206100Y-287227D02*
D03*
X143150Y-268596D02*
D03*
X149300Y-198965D02*
D03*
X93858Y-281800D02*
D03*
X206100Y-271479D02*
D03*
X137338Y-274449D02*
D03*
D117*
X181800Y-252700D02*
D03*
X158109Y-180513D02*
D03*
X102144Y-181997D02*
D03*
X125404Y-66100D02*
D03*
X124996Y-168097D02*
D03*
X97600Y-241000D02*
D03*
X201400Y-252500D02*
D03*
X77300Y-241100D02*
D03*
X174000Y-66200D02*
D03*
D118*
X201100Y-160000D02*
D03*
X178100Y-159600D02*
D03*
X115300Y-66799D02*
D03*
X106100Y-61300D02*
D03*
X153000Y-125900D02*
D03*
X30184Y-110097D02*
D03*
X53300Y-149100D02*
D03*
X33800Y-204300D02*
D03*
X45300Y-205300D02*
D03*
X53383Y-194900D02*
D03*
X26300Y-246100D02*
D03*
X153100Y-80200D02*
D03*
M02*
