G04*
G04 #@! TF.GenerationSoftware,Altium Limited,Altium Designer,26.7.1 (11)*
G04*
G04 Layer_Color=8388736*
G04 Board_Origin=22600000|47050000*
%FSLAX25Y25*%
%MOIN*%
G70*
G04*
G04 #@! TF.SameCoordinates,7F35501D-8451-418E-9A1C-AEB09D659892*
G04*
G04*
G04 #@! TF.FilePolarity,Negative*
G04*
G01*
G75*
%ADD39R,0.01772X0.03937*%
%ADD40R,0.03937X0.01772*%
%ADD41R,0.22638X0.22638*%
%ADD42R,0.06299X0.03347*%
%ADD43R,0.11512X0.05370*%
%ADD44R,0.09858X0.03953*%
G04:AMPARAMS|DCode=45|XSize=61.97mil|YSize=115.12mil|CornerRadius=10.76mil|HoleSize=0mil|Usage=FLASHONLY|Rotation=270.000|XOffset=0mil|YOffset=0mil|HoleType=Round|Shape=RoundedRectangle|*
%AMROUNDEDRECTD45*
21,1,0.06197,0.09360,0,0,270.0*
21,1,0.04045,0.11512,0,0,270.0*
1,1,0.02152,-0.04680,-0.02023*
1,1,0.02152,-0.04680,0.02023*
1,1,0.02152,0.04680,0.02023*
1,1,0.02152,0.04680,-0.02023*
%
%ADD45ROUNDEDRECTD45*%
%ADD46O,0.01378X0.03543*%
%ADD47R,0.06591X0.05370*%
%ADD48O,0.03543X0.01378*%
%ADD49R,0.06394X0.04425*%
%ADD50R,0.06378X0.05158*%
%ADD51R,0.02953X0.05315*%
%ADD52R,0.24606X0.24606*%
%ADD53R,0.05370X0.11512*%
%ADD54R,0.09134X0.06772*%
%ADD55R,0.06024X0.04213*%
G04:AMPARAMS|DCode=56|XSize=55.28mil|YSize=63.94mil|CornerRadius=9.92mil|HoleSize=0mil|Usage=FLASHONLY|Rotation=180.000|XOffset=0mil|YOffset=0mil|HoleType=Round|Shape=RoundedRectangle|*
%AMROUNDEDRECTD56*
21,1,0.05528,0.04409,0,0,180.0*
21,1,0.03543,0.06394,0,0,180.0*
1,1,0.01984,-0.01772,0.02205*
1,1,0.01984,0.01772,0.02205*
1,1,0.01984,0.01772,-0.02205*
1,1,0.01984,-0.01772,-0.02205*
%
%ADD56ROUNDEDRECTD56*%
%ADD57R,0.05079X0.25157*%
%ADD58R,0.01772X0.06890*%
%ADD59R,0.06181X0.04095*%
%ADD60R,0.09410X0.12874*%
G04:AMPARAMS|DCode=61|XSize=31.5mil|YSize=45.28mil|CornerRadius=6.15mil|HoleSize=0mil|Usage=FLASHONLY|Rotation=0.000|XOffset=0mil|YOffset=0mil|HoleType=Round|Shape=RoundedRectangle|*
%AMROUNDEDRECTD61*
21,1,0.03150,0.03297,0,0,0.0*
21,1,0.01919,0.04528,0,0,0.0*
1,1,0.01230,0.00960,-0.01649*
1,1,0.01230,-0.00960,-0.01649*
1,1,0.01230,-0.00960,0.01649*
1,1,0.01230,0.00960,0.01649*
%
%ADD61ROUNDEDRECTD61*%
G04:AMPARAMS|DCode=62|XSize=55.67mil|YSize=31.26mil|CornerRadius=9.82mil|HoleSize=0mil|Usage=FLASHONLY|Rotation=180.000|XOffset=0mil|YOffset=0mil|HoleType=Round|Shape=RoundedRectangle|*
%AMROUNDEDRECTD62*
21,1,0.05567,0.01161,0,0,180.0*
21,1,0.03602,0.03126,0,0,180.0*
1,1,0.01965,-0.01801,0.00581*
1,1,0.01965,0.01801,0.00581*
1,1,0.01965,0.01801,-0.00581*
1,1,0.01965,-0.01801,-0.00581*
%
%ADD62ROUNDEDRECTD62*%
%ADD63R,0.06496X0.13189*%
%ADD64C,0.06063*%
%ADD65C,0.10039*%
%ADD66R,0.06063X0.06063*%
%ADD67C,0.13543*%
%ADD68C,0.07992*%
%ADD69C,0.02559*%
%ADD70C,0.03591*%
%ADD71C,0.05591*%
G36*
X86498Y-75046D02*
X86518D01*
X86538Y-75050D01*
X86558Y-75054D01*
X86577Y-75058D01*
X86593Y-75065D01*
X86613Y-75073D01*
X86628Y-75081D01*
X86648Y-75089D01*
X86664Y-75101D01*
X86680Y-75109D01*
X86695Y-75121D01*
X86711Y-75132D01*
X86739Y-75160D01*
X86762Y-75191D01*
X86774Y-75207D01*
X86786Y-75223D01*
X86794Y-75239D01*
X86802Y-75258D01*
X86809Y-75274D01*
X86817Y-75294D01*
X86825Y-75309D01*
X86829Y-75329D01*
X86833Y-75349D01*
X86837Y-75368D01*
Y-76424D01*
X87821D01*
X87841Y-76420D01*
X87861D01*
X87876Y-76424D01*
X87896D01*
X87916Y-76428D01*
X87935Y-76432D01*
X87955Y-76435D01*
X87971Y-76443D01*
X87990Y-76451D01*
X88006Y-76459D01*
X88026Y-76467D01*
X88042Y-76479D01*
X88058Y-76487D01*
X88073Y-76498D01*
X88089Y-76510D01*
X88117Y-76538D01*
X88128Y-76553D01*
X88164Y-76601D01*
X88172Y-76617D01*
X88179Y-76636D01*
X88187Y-76652D01*
X88195Y-76672D01*
X88203Y-76687D01*
X88207Y-76707D01*
X88211Y-76727D01*
X88215Y-76746D01*
Y-77278D01*
X88211Y-77298D01*
X88207Y-77317D01*
X88203Y-77337D01*
X88195Y-77353D01*
X88187Y-77372D01*
X88179Y-77388D01*
X88172Y-77408D01*
X88164Y-77424D01*
X88128Y-77471D01*
X88117Y-77487D01*
X88089Y-77514D01*
X88073Y-77526D01*
X88058Y-77538D01*
X88042Y-77546D01*
X88026Y-77557D01*
X88006Y-77565D01*
X87990Y-77573D01*
X87971Y-77581D01*
X87955Y-77589D01*
X87935Y-77593D01*
X87916Y-77597D01*
X87896Y-77601D01*
X87876D01*
X87861Y-77605D01*
X87841D01*
X87821Y-77601D01*
X85262D01*
X85242Y-77605D01*
X85223D01*
X85207Y-77601D01*
X85187D01*
X85168Y-77597D01*
X85148Y-77593D01*
X85128Y-77589D01*
X85113Y-77581D01*
X85093Y-77573D01*
X85077Y-77565D01*
X85057Y-77557D01*
X85042Y-77546D01*
X85026Y-77538D01*
X85010Y-77526D01*
X84995Y-77514D01*
X84979Y-77498D01*
X84967Y-77487D01*
X84955Y-77471D01*
X84920Y-77424D01*
X84912Y-77408D01*
X84904Y-77388D01*
X84896Y-77372D01*
X84888Y-77353D01*
X84880Y-77337D01*
X84876Y-77317D01*
X84872Y-77298D01*
X84869Y-77278D01*
Y-75368D01*
X84872Y-75349D01*
X84876Y-75329D01*
X84880Y-75309D01*
X84888Y-75294D01*
X84896Y-75274D01*
X84904Y-75258D01*
X84912Y-75239D01*
X84920Y-75223D01*
X84931Y-75207D01*
X84967Y-75160D01*
X84995Y-75132D01*
X85010Y-75121D01*
X85026Y-75109D01*
X85042Y-75101D01*
X85057Y-75089D01*
X85077Y-75081D01*
X85093Y-75073D01*
X85113Y-75065D01*
X85128Y-75058D01*
X85148Y-75054D01*
X85168Y-75050D01*
X85187Y-75046D01*
X85207D01*
X85223Y-75042D01*
X85262D01*
X86443Y-75044D01*
X86483Y-75042D01*
X86498Y-75046D01*
D02*
G37*
G36*
X80593D02*
X80613D01*
X80632Y-75050D01*
X80652Y-75054D01*
X80672Y-75058D01*
X80687Y-75065D01*
X80707Y-75073D01*
X80723Y-75081D01*
X80743Y-75089D01*
X80758Y-75101D01*
X80774Y-75109D01*
X80790Y-75121D01*
X80805Y-75132D01*
X80833Y-75160D01*
X80869Y-75207D01*
X80880Y-75223D01*
X80888Y-75239D01*
X80896Y-75258D01*
X80904Y-75274D01*
X80912Y-75294D01*
X80920Y-75309D01*
X80924Y-75329D01*
X80928Y-75349D01*
X80932Y-75368D01*
Y-77278D01*
X80928Y-77298D01*
X80924Y-77317D01*
X80920Y-77337D01*
X80912Y-77353D01*
X80904Y-77372D01*
X80896Y-77388D01*
X80888Y-77408D01*
X80880Y-77424D01*
X80845Y-77471D01*
X80833Y-77487D01*
X80821Y-77498D01*
X80805Y-77514D01*
X80790Y-77526D01*
X80774Y-77538D01*
X80758Y-77546D01*
X80743Y-77557D01*
X80723Y-77565D01*
X80707Y-77573D01*
X80687Y-77581D01*
X80672Y-77589D01*
X80652Y-77593D01*
X80632Y-77597D01*
X80613Y-77601D01*
X80593D01*
X80577Y-77605D01*
X80558D01*
X80538Y-77601D01*
X77979D01*
X77959Y-77605D01*
X77939D01*
X77924Y-77601D01*
X77904D01*
X77884Y-77597D01*
X77865Y-77593D01*
X77845Y-77589D01*
X77829Y-77581D01*
X77810Y-77573D01*
X77794Y-77565D01*
X77774Y-77557D01*
X77758Y-77546D01*
X77742Y-77538D01*
X77727Y-77526D01*
X77711Y-77514D01*
X77684Y-77487D01*
X77672Y-77471D01*
X77636Y-77424D01*
X77628Y-77408D01*
X77621Y-77388D01*
X77613Y-77372D01*
X77605Y-77353D01*
X77597Y-77337D01*
X77593Y-77317D01*
X77589Y-77298D01*
X77585Y-77278D01*
Y-76746D01*
X77589Y-76727D01*
X77593Y-76707D01*
X77597Y-76687D01*
X77605Y-76672D01*
X77613Y-76652D01*
X77621Y-76636D01*
X77628Y-76617D01*
X77636Y-76601D01*
X77672Y-76553D01*
X77684Y-76538D01*
X77711Y-76510D01*
X77727Y-76498D01*
X77742Y-76487D01*
X77758Y-76479D01*
X77774Y-76467D01*
X77794Y-76459D01*
X77810Y-76451D01*
X77829Y-76443D01*
X77845Y-76435D01*
X77865Y-76432D01*
X77884Y-76428D01*
X77904Y-76424D01*
X77924D01*
X77939Y-76420D01*
X77959D01*
X77979Y-76424D01*
X78963D01*
Y-75368D01*
X78967Y-75349D01*
X78971Y-75329D01*
X78975Y-75309D01*
X78983Y-75294D01*
X78991Y-75274D01*
X78998Y-75258D01*
X79006Y-75239D01*
X79014Y-75223D01*
X79026Y-75207D01*
X79038Y-75191D01*
X79061Y-75160D01*
X79089Y-75132D01*
X79105Y-75121D01*
X79120Y-75109D01*
X79136Y-75101D01*
X79152Y-75089D01*
X79172Y-75081D01*
X79187Y-75073D01*
X79207Y-75065D01*
X79223Y-75058D01*
X79242Y-75054D01*
X79262Y-75050D01*
X79282Y-75046D01*
X79302D01*
X79317Y-75042D01*
X80577D01*
X80593Y-75046D01*
D02*
G37*
G36*
X83235Y-74998D02*
X83258D01*
X83278Y-75002D01*
X83298Y-75006D01*
X83317Y-75014D01*
X83337Y-75022D01*
X83357Y-75030D01*
X83372Y-75038D01*
X83392Y-75046D01*
X83408Y-75058D01*
X83428Y-75069D01*
X83443Y-75081D01*
X83459Y-75097D01*
X83475Y-75109D01*
X83487Y-75124D01*
X83502Y-75140D01*
X83514Y-75156D01*
X83526Y-75176D01*
X83538Y-75191D01*
X83546Y-75211D01*
X83553Y-75227D01*
X83561Y-75247D01*
X83569Y-75266D01*
X83577Y-75286D01*
X83581Y-75305D01*
X83585Y-75325D01*
Y-75349D01*
X83589Y-75368D01*
Y-75388D01*
Y-77357D01*
Y-77376D01*
X83585Y-77396D01*
Y-77420D01*
X83581Y-77439D01*
X83577Y-77459D01*
X83569Y-77479D01*
X83561Y-77498D01*
X83553Y-77518D01*
X83546Y-77534D01*
X83538Y-77553D01*
X83526Y-77569D01*
X83514Y-77589D01*
X83502Y-77605D01*
X83487Y-77621D01*
X83475Y-77636D01*
X83459Y-77648D01*
X83443Y-77664D01*
X83428Y-77676D01*
X83408Y-77687D01*
X83392Y-77699D01*
X83372Y-77707D01*
X83357Y-77715D01*
X83337Y-77723D01*
X83317Y-77731D01*
X83298Y-77739D01*
X83278Y-77742D01*
X83258Y-77746D01*
X83235D01*
X83215Y-77750D01*
X82585D01*
X82565Y-77746D01*
X82542D01*
X82522Y-77742D01*
X82502Y-77739D01*
X82483Y-77731D01*
X82463Y-77723D01*
X82443Y-77715D01*
X82428Y-77707D01*
X82408Y-77699D01*
X82392Y-77687D01*
X82372Y-77676D01*
X82357Y-77664D01*
X82341Y-77648D01*
X82325Y-77636D01*
X82313Y-77621D01*
X82298Y-77605D01*
X82286Y-77589D01*
X82274Y-77569D01*
X82262Y-77553D01*
X82254Y-77534D01*
X82247Y-77518D01*
X82239Y-77498D01*
X82231Y-77479D01*
X82223Y-77459D01*
X82219Y-77439D01*
X82215Y-77420D01*
Y-77396D01*
X82211Y-77376D01*
Y-77357D01*
Y-75388D01*
Y-75368D01*
X82215Y-75349D01*
Y-75325D01*
X82219Y-75305D01*
X82223Y-75286D01*
X82231Y-75266D01*
X82239Y-75247D01*
X82247Y-75227D01*
X82254Y-75211D01*
X82262Y-75191D01*
X82274Y-75176D01*
X82286Y-75156D01*
X82298Y-75140D01*
X82313Y-75124D01*
X82325Y-75109D01*
X82341Y-75097D01*
X82357Y-75081D01*
X82372Y-75069D01*
X82392Y-75058D01*
X82408Y-75046D01*
X82428Y-75038D01*
X82443Y-75030D01*
X82463Y-75022D01*
X82483Y-75014D01*
X82502Y-75006D01*
X82522Y-75002D01*
X82542Y-74998D01*
X82565D01*
X82585Y-74994D01*
X83215D01*
X83235Y-74998D01*
D02*
G37*
G36*
X87861Y-78246D02*
X87884D01*
X87904Y-78250D01*
X87924Y-78254D01*
X87943Y-78262D01*
X87963Y-78270D01*
X87983Y-78278D01*
X87998Y-78286D01*
X88018Y-78294D01*
X88034Y-78306D01*
X88054Y-78317D01*
X88069Y-78329D01*
X88085Y-78345D01*
X88101Y-78357D01*
X88113Y-78372D01*
X88128Y-78388D01*
X88140Y-78404D01*
X88152Y-78424D01*
X88164Y-78439D01*
X88172Y-78459D01*
X88179Y-78475D01*
X88187Y-78495D01*
X88195Y-78514D01*
X88203Y-78534D01*
X88207Y-78553D01*
X88211Y-78573D01*
Y-78597D01*
X88215Y-78616D01*
Y-78636D01*
Y-79227D01*
Y-79246D01*
X88211Y-79266D01*
Y-79290D01*
X88207Y-79309D01*
X88203Y-79329D01*
X88195Y-79349D01*
X88187Y-79369D01*
X88179Y-79388D01*
X88172Y-79404D01*
X88164Y-79424D01*
X88152Y-79439D01*
X88140Y-79459D01*
X88128Y-79475D01*
X88113Y-79491D01*
X88101Y-79506D01*
X88085Y-79518D01*
X88069Y-79534D01*
X88054Y-79546D01*
X88034Y-79558D01*
X88018Y-79569D01*
X87998Y-79577D01*
X87983Y-79585D01*
X87963Y-79593D01*
X87943Y-79601D01*
X87924Y-79609D01*
X87904Y-79613D01*
X87884Y-79616D01*
X87861D01*
X87841Y-79620D01*
X84061D01*
X84042Y-79616D01*
X84018D01*
X83998Y-79613D01*
X83979Y-79609D01*
X83959Y-79601D01*
X83939Y-79593D01*
X83920Y-79585D01*
X83904Y-79577D01*
X83884Y-79569D01*
X83868Y-79558D01*
X83849Y-79546D01*
X83833Y-79534D01*
X83817Y-79518D01*
X83802Y-79506D01*
X83790Y-79491D01*
X83774Y-79475D01*
X83762Y-79459D01*
X83750Y-79439D01*
X83739Y-79424D01*
X83731Y-79404D01*
X83723Y-79388D01*
X83715Y-79369D01*
X83707Y-79349D01*
X83699Y-79329D01*
X83695Y-79309D01*
X83691Y-79290D01*
Y-79266D01*
X83687Y-79246D01*
Y-79227D01*
Y-78636D01*
Y-78616D01*
X83691Y-78597D01*
Y-78573D01*
X83695Y-78553D01*
X83699Y-78534D01*
X83707Y-78514D01*
X83715Y-78495D01*
X83723Y-78475D01*
X83731Y-78459D01*
X83739Y-78439D01*
X83750Y-78424D01*
X83762Y-78404D01*
X83774Y-78388D01*
X83790Y-78372D01*
X83802Y-78357D01*
X83817Y-78345D01*
X83833Y-78329D01*
X83849Y-78317D01*
X83868Y-78306D01*
X83884Y-78294D01*
X83904Y-78286D01*
X83920Y-78278D01*
X83939Y-78270D01*
X83959Y-78262D01*
X83979Y-78254D01*
X83998Y-78250D01*
X84018Y-78246D01*
X84042D01*
X84061Y-78242D01*
X87841D01*
X87861Y-78246D01*
D02*
G37*
G36*
X81758D02*
X81782D01*
X81802Y-78250D01*
X81821Y-78254D01*
X81841Y-78262D01*
X81861Y-78270D01*
X81880Y-78278D01*
X81896Y-78286D01*
X81916Y-78294D01*
X81932Y-78306D01*
X81951Y-78317D01*
X81967Y-78329D01*
X81983Y-78345D01*
X81998Y-78357D01*
X82010Y-78372D01*
X82026Y-78388D01*
X82038Y-78404D01*
X82050Y-78424D01*
X82061Y-78439D01*
X82069Y-78459D01*
X82077Y-78475D01*
X82085Y-78495D01*
X82093Y-78514D01*
X82101Y-78534D01*
X82105Y-78553D01*
X82109Y-78573D01*
Y-78597D01*
X82113Y-78616D01*
Y-78636D01*
Y-79227D01*
Y-79246D01*
X82109Y-79266D01*
Y-79290D01*
X82105Y-79309D01*
X82101Y-79329D01*
X82093Y-79349D01*
X82085Y-79369D01*
X82077Y-79388D01*
X82069Y-79404D01*
X82061Y-79424D01*
X82050Y-79439D01*
X82038Y-79459D01*
X82026Y-79475D01*
X82010Y-79491D01*
X81998Y-79506D01*
X81983Y-79518D01*
X81967Y-79534D01*
X81951Y-79546D01*
X81932Y-79558D01*
X81916Y-79569D01*
X81896Y-79577D01*
X81880Y-79585D01*
X81861Y-79593D01*
X81841Y-79601D01*
X81821Y-79609D01*
X81802Y-79613D01*
X81782Y-79616D01*
X81758D01*
X81739Y-79620D01*
X77959D01*
X77939Y-79616D01*
X77916D01*
X77896Y-79613D01*
X77876Y-79609D01*
X77857Y-79601D01*
X77837Y-79593D01*
X77817Y-79585D01*
X77802Y-79577D01*
X77782Y-79569D01*
X77766Y-79558D01*
X77746Y-79546D01*
X77731Y-79534D01*
X77715Y-79518D01*
X77699Y-79506D01*
X77687Y-79491D01*
X77672Y-79475D01*
X77660Y-79459D01*
X77648Y-79439D01*
X77636Y-79424D01*
X77628Y-79404D01*
X77621Y-79388D01*
X77613Y-79369D01*
X77605Y-79349D01*
X77597Y-79329D01*
X77593Y-79309D01*
X77589Y-79290D01*
Y-79266D01*
X77585Y-79246D01*
Y-79227D01*
Y-78636D01*
Y-78616D01*
X77589Y-78597D01*
Y-78573D01*
X77593Y-78553D01*
X77597Y-78534D01*
X77605Y-78514D01*
X77613Y-78495D01*
X77621Y-78475D01*
X77628Y-78459D01*
X77636Y-78439D01*
X77648Y-78424D01*
X77660Y-78404D01*
X77672Y-78388D01*
X77687Y-78372D01*
X77699Y-78357D01*
X77715Y-78345D01*
X77731Y-78329D01*
X77746Y-78317D01*
X77766Y-78306D01*
X77782Y-78294D01*
X77802Y-78286D01*
X77817Y-78278D01*
X77837Y-78270D01*
X77857Y-78262D01*
X77876Y-78254D01*
X77896Y-78250D01*
X77916Y-78246D01*
X77939D01*
X77959Y-78242D01*
X81739D01*
X81758Y-78246D01*
D02*
G37*
G36*
X87861Y-80215D02*
X87884D01*
X87904Y-80219D01*
X87924Y-80223D01*
X87943Y-80231D01*
X87963Y-80239D01*
X87983Y-80247D01*
X87998Y-80254D01*
X88018Y-80262D01*
X88034Y-80274D01*
X88054Y-80286D01*
X88069Y-80298D01*
X88085Y-80313D01*
X88101Y-80325D01*
X88113Y-80341D01*
X88128Y-80357D01*
X88140Y-80372D01*
X88152Y-80392D01*
X88164Y-80408D01*
X88172Y-80428D01*
X88179Y-80443D01*
X88187Y-80463D01*
X88195Y-80483D01*
X88203Y-80502D01*
X88207Y-80522D01*
X88211Y-80542D01*
Y-80565D01*
X88215Y-80585D01*
Y-80605D01*
Y-81195D01*
Y-81215D01*
X88211Y-81235D01*
Y-81258D01*
X88207Y-81278D01*
X88203Y-81298D01*
X88195Y-81317D01*
X88187Y-81337D01*
X88179Y-81357D01*
X88172Y-81372D01*
X88164Y-81392D01*
X88152Y-81408D01*
X88140Y-81428D01*
X88128Y-81443D01*
X88113Y-81459D01*
X88101Y-81475D01*
X88085Y-81487D01*
X88069Y-81502D01*
X88054Y-81514D01*
X88034Y-81526D01*
X88018Y-81538D01*
X87998Y-81546D01*
X87983Y-81554D01*
X87963Y-81561D01*
X87943Y-81569D01*
X87924Y-81577D01*
X87904Y-81581D01*
X87884Y-81585D01*
X87861D01*
X87841Y-81589D01*
X85833D01*
X85813Y-81585D01*
X85790D01*
X85770Y-81581D01*
X85750Y-81577D01*
X85731Y-81569D01*
X85711Y-81561D01*
X85691Y-81554D01*
X85676Y-81546D01*
X85656Y-81538D01*
X85640Y-81526D01*
X85620Y-81514D01*
X85605Y-81502D01*
X85589Y-81487D01*
X85573Y-81475D01*
X85561Y-81459D01*
X85546Y-81443D01*
X85534Y-81428D01*
X85522Y-81408D01*
X85510Y-81392D01*
X85502Y-81372D01*
X85495Y-81357D01*
X85487Y-81337D01*
X85479Y-81317D01*
X85471Y-81298D01*
X85467Y-81278D01*
X85463Y-81258D01*
Y-81235D01*
X85459Y-81215D01*
Y-81195D01*
Y-80605D01*
Y-80585D01*
X85463Y-80565D01*
Y-80542D01*
X85467Y-80522D01*
X85471Y-80502D01*
X85479Y-80483D01*
X85487Y-80463D01*
X85495Y-80443D01*
X85502Y-80428D01*
X85510Y-80408D01*
X85522Y-80392D01*
X85534Y-80372D01*
X85546Y-80357D01*
X85561Y-80341D01*
X85573Y-80325D01*
X85589Y-80313D01*
X85605Y-80298D01*
X85620Y-80286D01*
X85640Y-80274D01*
X85656Y-80262D01*
X85676Y-80254D01*
X85691Y-80247D01*
X85711Y-80239D01*
X85731Y-80231D01*
X85750Y-80223D01*
X85770Y-80219D01*
X85790Y-80215D01*
X85813D01*
X85833Y-80211D01*
X87841D01*
X87861Y-80215D01*
D02*
G37*
G36*
X79987D02*
X80010D01*
X80030Y-80219D01*
X80050Y-80223D01*
X80069Y-80231D01*
X80089Y-80239D01*
X80109Y-80247D01*
X80124Y-80254D01*
X80144Y-80262D01*
X80160Y-80274D01*
X80180Y-80286D01*
X80195Y-80298D01*
X80211Y-80313D01*
X80227Y-80325D01*
X80239Y-80341D01*
X80254Y-80357D01*
X80266Y-80372D01*
X80278Y-80392D01*
X80290Y-80408D01*
X80298Y-80428D01*
X80305Y-80443D01*
X80313Y-80463D01*
X80321Y-80483D01*
X80329Y-80502D01*
X80333Y-80522D01*
X80337Y-80542D01*
Y-80565D01*
X80341Y-80585D01*
Y-80605D01*
Y-81195D01*
Y-81215D01*
X80337Y-81235D01*
Y-81258D01*
X80333Y-81278D01*
X80329Y-81298D01*
X80321Y-81317D01*
X80313Y-81337D01*
X80305Y-81357D01*
X80298Y-81372D01*
X80290Y-81392D01*
X80278Y-81408D01*
X80266Y-81428D01*
X80254Y-81443D01*
X80239Y-81459D01*
X80227Y-81475D01*
X80211Y-81487D01*
X80195Y-81502D01*
X80180Y-81514D01*
X80160Y-81526D01*
X80144Y-81538D01*
X80124Y-81546D01*
X80109Y-81554D01*
X80089Y-81561D01*
X80069Y-81569D01*
X80050Y-81577D01*
X80030Y-81581D01*
X80010Y-81585D01*
X79987D01*
X79967Y-81589D01*
X77959D01*
X77939Y-81585D01*
X77916D01*
X77896Y-81581D01*
X77876Y-81577D01*
X77857Y-81569D01*
X77837Y-81561D01*
X77817Y-81554D01*
X77802Y-81546D01*
X77782Y-81538D01*
X77766Y-81526D01*
X77746Y-81514D01*
X77731Y-81502D01*
X77715Y-81487D01*
X77699Y-81475D01*
X77687Y-81459D01*
X77672Y-81443D01*
X77660Y-81428D01*
X77648Y-81408D01*
X77636Y-81392D01*
X77628Y-81372D01*
X77621Y-81357D01*
X77613Y-81337D01*
X77605Y-81317D01*
X77597Y-81298D01*
X77593Y-81278D01*
X77589Y-81258D01*
Y-81235D01*
X77585Y-81215D01*
Y-81195D01*
Y-80605D01*
Y-80585D01*
X77589Y-80565D01*
Y-80542D01*
X77593Y-80522D01*
X77597Y-80502D01*
X77605Y-80483D01*
X77613Y-80463D01*
X77621Y-80443D01*
X77628Y-80428D01*
X77636Y-80408D01*
X77648Y-80392D01*
X77660Y-80372D01*
X77672Y-80357D01*
X77687Y-80341D01*
X77699Y-80325D01*
X77715Y-80313D01*
X77731Y-80298D01*
X77746Y-80286D01*
X77766Y-80274D01*
X77782Y-80262D01*
X77802Y-80254D01*
X77817Y-80247D01*
X77837Y-80239D01*
X77857Y-80231D01*
X77876Y-80223D01*
X77896Y-80219D01*
X77916Y-80215D01*
X77939D01*
X77959Y-80211D01*
X79967D01*
X79987Y-80215D01*
D02*
G37*
G36*
X87861Y-82183D02*
X87884D01*
X87904Y-82187D01*
X87924Y-82191D01*
X87943Y-82199D01*
X87963Y-82207D01*
X87983Y-82215D01*
X87998Y-82223D01*
X88018Y-82231D01*
X88034Y-82243D01*
X88054Y-82254D01*
X88069Y-82266D01*
X88085Y-82282D01*
X88101Y-82294D01*
X88113Y-82310D01*
X88128Y-82325D01*
X88140Y-82341D01*
X88152Y-82361D01*
X88164Y-82376D01*
X88172Y-82396D01*
X88179Y-82412D01*
X88187Y-82432D01*
X88195Y-82451D01*
X88203Y-82471D01*
X88207Y-82490D01*
X88211Y-82510D01*
Y-82534D01*
X88215Y-82553D01*
Y-82573D01*
Y-83164D01*
Y-83183D01*
X88211Y-83203D01*
Y-83227D01*
X88207Y-83246D01*
X88203Y-83266D01*
X88195Y-83286D01*
X88187Y-83306D01*
X88179Y-83325D01*
X88172Y-83341D01*
X88164Y-83361D01*
X88152Y-83376D01*
X88140Y-83396D01*
X88128Y-83412D01*
X88113Y-83428D01*
X88101Y-83443D01*
X88085Y-83455D01*
X88069Y-83471D01*
X88054Y-83483D01*
X88034Y-83495D01*
X88018Y-83506D01*
X87998Y-83514D01*
X87983Y-83522D01*
X87963Y-83530D01*
X87943Y-83538D01*
X87924Y-83546D01*
X87904Y-83550D01*
X87884Y-83553D01*
X87861D01*
X87841Y-83557D01*
X85833D01*
X85813Y-83553D01*
X85790D01*
X85770Y-83550D01*
X85750Y-83546D01*
X85731Y-83538D01*
X85711Y-83530D01*
X85691Y-83522D01*
X85676Y-83514D01*
X85656Y-83506D01*
X85640Y-83495D01*
X85620Y-83483D01*
X85605Y-83471D01*
X85589Y-83455D01*
X85573Y-83443D01*
X85561Y-83428D01*
X85546Y-83412D01*
X85534Y-83396D01*
X85522Y-83376D01*
X85510Y-83361D01*
X85502Y-83341D01*
X85495Y-83325D01*
X85487Y-83306D01*
X85479Y-83286D01*
X85471Y-83266D01*
X85467Y-83246D01*
X85463Y-83227D01*
Y-83203D01*
X85459Y-83183D01*
Y-83164D01*
Y-82573D01*
Y-82553D01*
X85463Y-82534D01*
Y-82510D01*
X85467Y-82490D01*
X85471Y-82471D01*
X85479Y-82451D01*
X85487Y-82432D01*
X85495Y-82412D01*
X85502Y-82396D01*
X85510Y-82376D01*
X85522Y-82361D01*
X85534Y-82341D01*
X85546Y-82325D01*
X85561Y-82310D01*
X85573Y-82294D01*
X85589Y-82282D01*
X85605Y-82266D01*
X85620Y-82254D01*
X85640Y-82243D01*
X85656Y-82231D01*
X85676Y-82223D01*
X85691Y-82215D01*
X85711Y-82207D01*
X85731Y-82199D01*
X85750Y-82191D01*
X85770Y-82187D01*
X85790Y-82183D01*
X85813D01*
X85833Y-82179D01*
X87841D01*
X87861Y-82183D01*
D02*
G37*
G36*
X79987D02*
X80010D01*
X80030Y-82187D01*
X80050Y-82191D01*
X80069Y-82199D01*
X80089Y-82207D01*
X80109Y-82215D01*
X80124Y-82223D01*
X80144Y-82231D01*
X80160Y-82243D01*
X80180Y-82254D01*
X80195Y-82266D01*
X80211Y-82282D01*
X80227Y-82294D01*
X80239Y-82310D01*
X80254Y-82325D01*
X80266Y-82341D01*
X80278Y-82361D01*
X80290Y-82376D01*
X80298Y-82396D01*
X80305Y-82412D01*
X80313Y-82432D01*
X80321Y-82451D01*
X80329Y-82471D01*
X80333Y-82490D01*
X80337Y-82510D01*
Y-82534D01*
X80341Y-82553D01*
Y-82573D01*
Y-83164D01*
Y-83183D01*
X80337Y-83203D01*
Y-83227D01*
X80333Y-83246D01*
X80329Y-83266D01*
X80321Y-83286D01*
X80313Y-83306D01*
X80305Y-83325D01*
X80298Y-83341D01*
X80290Y-83361D01*
X80278Y-83376D01*
X80266Y-83396D01*
X80254Y-83412D01*
X80239Y-83428D01*
X80227Y-83443D01*
X80211Y-83455D01*
X80195Y-83471D01*
X80180Y-83483D01*
X80160Y-83495D01*
X80144Y-83506D01*
X80124Y-83514D01*
X80109Y-83522D01*
X80089Y-83530D01*
X80069Y-83538D01*
X80050Y-83546D01*
X80030Y-83550D01*
X80010Y-83553D01*
X79987D01*
X79967Y-83557D01*
X77959D01*
X77939Y-83553D01*
X77916D01*
X77896Y-83550D01*
X77876Y-83546D01*
X77857Y-83538D01*
X77837Y-83530D01*
X77817Y-83522D01*
X77802Y-83514D01*
X77782Y-83506D01*
X77766Y-83495D01*
X77746Y-83483D01*
X77731Y-83471D01*
X77715Y-83455D01*
X77699Y-83443D01*
X77687Y-83428D01*
X77672Y-83412D01*
X77660Y-83396D01*
X77648Y-83376D01*
X77636Y-83361D01*
X77628Y-83341D01*
X77621Y-83325D01*
X77613Y-83306D01*
X77605Y-83286D01*
X77597Y-83266D01*
X77593Y-83246D01*
X77589Y-83227D01*
Y-83203D01*
X77585Y-83183D01*
Y-83164D01*
Y-82573D01*
Y-82553D01*
X77589Y-82534D01*
Y-82510D01*
X77593Y-82490D01*
X77597Y-82471D01*
X77605Y-82451D01*
X77613Y-82432D01*
X77621Y-82412D01*
X77628Y-82396D01*
X77636Y-82376D01*
X77648Y-82361D01*
X77660Y-82341D01*
X77672Y-82325D01*
X77687Y-82310D01*
X77699Y-82294D01*
X77715Y-82282D01*
X77731Y-82266D01*
X77746Y-82254D01*
X77766Y-82243D01*
X77782Y-82231D01*
X77802Y-82223D01*
X77817Y-82215D01*
X77837Y-82207D01*
X77857Y-82199D01*
X77876Y-82191D01*
X77896Y-82187D01*
X77916Y-82183D01*
X77939D01*
X77959Y-82179D01*
X79967D01*
X79987Y-82183D01*
D02*
G37*
G36*
X87876Y-84199D02*
X87896D01*
X87916Y-84203D01*
X87935Y-84207D01*
X87955Y-84211D01*
X87971Y-84219D01*
X87990Y-84227D01*
X88006Y-84235D01*
X88026Y-84242D01*
X88042Y-84254D01*
X88058Y-84262D01*
X88073Y-84274D01*
X88089Y-84286D01*
X88117Y-84313D01*
X88128Y-84329D01*
X88164Y-84376D01*
X88172Y-84392D01*
X88179Y-84412D01*
X88187Y-84428D01*
X88195Y-84447D01*
X88203Y-84463D01*
X88207Y-84483D01*
X88211Y-84502D01*
X88215Y-84522D01*
Y-85053D01*
X88211Y-85073D01*
X88207Y-85093D01*
X88203Y-85113D01*
X88195Y-85128D01*
X88187Y-85148D01*
X88179Y-85164D01*
X88172Y-85184D01*
X88164Y-85199D01*
X88128Y-85246D01*
X88117Y-85262D01*
X88089Y-85290D01*
X88073Y-85302D01*
X88058Y-85313D01*
X88042Y-85321D01*
X88026Y-85333D01*
X88006Y-85341D01*
X87990Y-85349D01*
X87971Y-85357D01*
X87955Y-85365D01*
X87935Y-85369D01*
X87916Y-85372D01*
X87896Y-85376D01*
X87876D01*
X87861Y-85380D01*
X87841D01*
X87821Y-85376D01*
X86837D01*
Y-86431D01*
X86833Y-86451D01*
X86829Y-86471D01*
X86825Y-86490D01*
X86817Y-86506D01*
X86809Y-86526D01*
X86802Y-86542D01*
X86794Y-86561D01*
X86786Y-86577D01*
X86774Y-86593D01*
X86762Y-86609D01*
X86739Y-86640D01*
X86711Y-86668D01*
X86695Y-86680D01*
X86680Y-86691D01*
X86664Y-86699D01*
X86648Y-86711D01*
X86628Y-86719D01*
X86613Y-86727D01*
X86593Y-86735D01*
X86577Y-86743D01*
X86558Y-86747D01*
X86538Y-86750D01*
X86518Y-86754D01*
X86498D01*
X86483Y-86758D01*
X85223D01*
X85207Y-86754D01*
X85187D01*
X85168Y-86750D01*
X85148Y-86747D01*
X85128Y-86743D01*
X85113Y-86735D01*
X85093Y-86727D01*
X85077Y-86719D01*
X85057Y-86711D01*
X85042Y-86699D01*
X85026Y-86691D01*
X85010Y-86680D01*
X84995Y-86668D01*
X84967Y-86640D01*
X84931Y-86593D01*
X84920Y-86577D01*
X84912Y-86561D01*
X84904Y-86542D01*
X84896Y-86526D01*
X84888Y-86506D01*
X84880Y-86490D01*
X84876Y-86471D01*
X84872Y-86451D01*
X84869Y-86431D01*
Y-84522D01*
X84872Y-84502D01*
X84876Y-84483D01*
X84880Y-84463D01*
X84888Y-84447D01*
X84896Y-84428D01*
X84904Y-84412D01*
X84912Y-84392D01*
X84920Y-84376D01*
X84955Y-84329D01*
X84967Y-84313D01*
X84979Y-84302D01*
X84995Y-84286D01*
X85010Y-84274D01*
X85026Y-84262D01*
X85042Y-84254D01*
X85057Y-84242D01*
X85077Y-84235D01*
X85093Y-84227D01*
X85113Y-84219D01*
X85128Y-84211D01*
X85148Y-84207D01*
X85168Y-84203D01*
X85187Y-84199D01*
X85207D01*
X85223Y-84195D01*
X85242D01*
X85262Y-84199D01*
X87821D01*
X87841Y-84195D01*
X87861D01*
X87876Y-84199D01*
D02*
G37*
G36*
X80593D02*
X80613D01*
X80632Y-84203D01*
X80652Y-84207D01*
X80672Y-84211D01*
X80687Y-84219D01*
X80707Y-84227D01*
X80723Y-84235D01*
X80743Y-84242D01*
X80758Y-84254D01*
X80774Y-84262D01*
X80790Y-84274D01*
X80805Y-84286D01*
X80821Y-84302D01*
X80833Y-84313D01*
X80845Y-84329D01*
X80880Y-84376D01*
X80888Y-84392D01*
X80896Y-84412D01*
X80904Y-84428D01*
X80912Y-84447D01*
X80920Y-84463D01*
X80924Y-84483D01*
X80928Y-84502D01*
X80932Y-84522D01*
Y-86431D01*
X80928Y-86451D01*
X80924Y-86471D01*
X80920Y-86490D01*
X80912Y-86506D01*
X80904Y-86526D01*
X80896Y-86542D01*
X80888Y-86561D01*
X80880Y-86577D01*
X80869Y-86593D01*
X80833Y-86640D01*
X80805Y-86668D01*
X80790Y-86680D01*
X80774Y-86691D01*
X80758Y-86699D01*
X80743Y-86711D01*
X80723Y-86719D01*
X80707Y-86727D01*
X80687Y-86735D01*
X80672Y-86743D01*
X80652Y-86747D01*
X80632Y-86750D01*
X80613Y-86754D01*
X80593D01*
X80577Y-86758D01*
X80538D01*
X79357Y-86756D01*
X79317Y-86758D01*
X79302Y-86754D01*
X79282D01*
X79262Y-86750D01*
X79242Y-86747D01*
X79223Y-86743D01*
X79207Y-86735D01*
X79187Y-86727D01*
X79172Y-86719D01*
X79152Y-86711D01*
X79136Y-86699D01*
X79120Y-86691D01*
X79105Y-86680D01*
X79089Y-86668D01*
X79061Y-86640D01*
X79038Y-86609D01*
X79026Y-86593D01*
X79014Y-86577D01*
X79006Y-86561D01*
X78998Y-86542D01*
X78991Y-86526D01*
X78983Y-86506D01*
X78975Y-86490D01*
X78971Y-86471D01*
X78967Y-86451D01*
X78963Y-86431D01*
Y-85376D01*
X77979D01*
X77959Y-85380D01*
X77939D01*
X77924Y-85376D01*
X77904D01*
X77884Y-85372D01*
X77865Y-85369D01*
X77845Y-85365D01*
X77829Y-85357D01*
X77810Y-85349D01*
X77794Y-85341D01*
X77774Y-85333D01*
X77758Y-85321D01*
X77742Y-85313D01*
X77727Y-85302D01*
X77711Y-85290D01*
X77684Y-85262D01*
X77672Y-85246D01*
X77636Y-85199D01*
X77628Y-85184D01*
X77621Y-85164D01*
X77613Y-85148D01*
X77605Y-85128D01*
X77597Y-85113D01*
X77593Y-85093D01*
X77589Y-85073D01*
X77585Y-85053D01*
Y-84522D01*
X77589Y-84502D01*
X77593Y-84483D01*
X77597Y-84463D01*
X77605Y-84447D01*
X77613Y-84428D01*
X77621Y-84412D01*
X77628Y-84392D01*
X77636Y-84376D01*
X77672Y-84329D01*
X77684Y-84313D01*
X77711Y-84286D01*
X77727Y-84274D01*
X77742Y-84262D01*
X77758Y-84254D01*
X77774Y-84242D01*
X77794Y-84235D01*
X77810Y-84227D01*
X77829Y-84219D01*
X77845Y-84211D01*
X77865Y-84207D01*
X77884Y-84203D01*
X77904Y-84199D01*
X77924D01*
X77939Y-84195D01*
X77959D01*
X77979Y-84199D01*
X80538D01*
X80558Y-84195D01*
X80577D01*
X80593Y-84199D01*
D02*
G37*
G36*
X83235Y-83266D02*
X83258D01*
X83278Y-83270D01*
X83298Y-83274D01*
X83317Y-83282D01*
X83337Y-83290D01*
X83357Y-83298D01*
X83372Y-83306D01*
X83392Y-83313D01*
X83408Y-83325D01*
X83428Y-83337D01*
X83443Y-83349D01*
X83459Y-83365D01*
X83475Y-83376D01*
X83487Y-83392D01*
X83502Y-83408D01*
X83514Y-83424D01*
X83526Y-83443D01*
X83538Y-83459D01*
X83546Y-83479D01*
X83553Y-83495D01*
X83561Y-83514D01*
X83569Y-83534D01*
X83577Y-83553D01*
X83581Y-83573D01*
X83585Y-83593D01*
Y-83617D01*
X83589Y-83636D01*
Y-83656D01*
Y-86412D01*
Y-86431D01*
X83585Y-86451D01*
Y-86475D01*
X83581Y-86494D01*
X83577Y-86514D01*
X83569Y-86534D01*
X83561Y-86554D01*
X83553Y-86573D01*
X83546Y-86589D01*
X83538Y-86609D01*
X83526Y-86624D01*
X83514Y-86644D01*
X83502Y-86660D01*
X83487Y-86676D01*
X83475Y-86691D01*
X83459Y-86703D01*
X83443Y-86719D01*
X83428Y-86731D01*
X83408Y-86743D01*
X83392Y-86754D01*
X83372Y-86762D01*
X83357Y-86770D01*
X83337Y-86778D01*
X83317Y-86786D01*
X83298Y-86794D01*
X83278Y-86798D01*
X83258Y-86802D01*
X83235D01*
X83215Y-86805D01*
X82585D01*
X82565Y-86802D01*
X82542D01*
X82522Y-86798D01*
X82502Y-86794D01*
X82483Y-86786D01*
X82463Y-86778D01*
X82443Y-86770D01*
X82428Y-86762D01*
X82408Y-86754D01*
X82392Y-86743D01*
X82372Y-86731D01*
X82357Y-86719D01*
X82341Y-86703D01*
X82325Y-86691D01*
X82313Y-86676D01*
X82298Y-86660D01*
X82286Y-86644D01*
X82274Y-86624D01*
X82262Y-86609D01*
X82254Y-86589D01*
X82247Y-86573D01*
X82239Y-86554D01*
X82231Y-86534D01*
X82223Y-86514D01*
X82219Y-86494D01*
X82215Y-86475D01*
Y-86451D01*
X82211Y-86431D01*
Y-86412D01*
Y-83656D01*
Y-83636D01*
X82215Y-83617D01*
Y-83593D01*
X82219Y-83573D01*
X82223Y-83553D01*
X82231Y-83534D01*
X82239Y-83514D01*
X82247Y-83495D01*
X82254Y-83479D01*
X82262Y-83459D01*
X82274Y-83443D01*
X82286Y-83424D01*
X82298Y-83408D01*
X82313Y-83392D01*
X82325Y-83376D01*
X82341Y-83365D01*
X82357Y-83349D01*
X82372Y-83337D01*
X82392Y-83325D01*
X82408Y-83313D01*
X82428Y-83306D01*
X82443Y-83298D01*
X82463Y-83290D01*
X82483Y-83282D01*
X82502Y-83274D01*
X82522Y-83270D01*
X82542Y-83266D01*
X82565D01*
X82585Y-83262D01*
X83215D01*
X83235Y-83266D01*
D02*
G37*
D39*
X180770Y-262817D02*
D03*
X196518D02*
D03*
X200455Y-289983D02*
D03*
X196518D02*
D03*
X192581D02*
D03*
X186676D02*
D03*
X182739D02*
D03*
X178802D02*
D03*
X188644Y-262817D02*
D03*
X184707Y-289983D02*
D03*
X180770D02*
D03*
X194550D02*
D03*
X188644D02*
D03*
X198487D02*
D03*
X190613D02*
D03*
X182739Y-262817D02*
D03*
X184707D02*
D03*
X186676D02*
D03*
X194550D02*
D03*
X198487D02*
D03*
X178802D02*
D03*
X192581D02*
D03*
X200455D02*
D03*
X190613D02*
D03*
X95827Y-251517D02*
D03*
X87953D02*
D03*
X74173D02*
D03*
X85984D02*
D03*
X76142Y-278683D02*
D03*
X74173D02*
D03*
X93858Y-251517D02*
D03*
X89921D02*
D03*
X82047D02*
D03*
X80079D02*
D03*
X78110D02*
D03*
X84016D02*
D03*
X80079Y-278683D02*
D03*
X84016D02*
D03*
X85984D02*
D03*
X89921D02*
D03*
X93858D02*
D03*
X76142Y-251517D02*
D03*
X82047Y-278683D02*
D03*
X95827D02*
D03*
X91890D02*
D03*
X78110D02*
D03*
X91890Y-251517D02*
D03*
X87953Y-278683D02*
D03*
D40*
X176046Y-265573D02*
D03*
X203211Y-277384D02*
D03*
X176046Y-285258D02*
D03*
X203211Y-269510D02*
D03*
X176046Y-277384D02*
D03*
X203211Y-273447D02*
D03*
Y-285258D02*
D03*
X176046Y-269510D02*
D03*
X203211Y-265573D02*
D03*
X176046Y-273447D02*
D03*
X203211Y-271479D02*
D03*
Y-287227D02*
D03*
Y-279353D02*
D03*
X176046Y-287227D02*
D03*
Y-279353D02*
D03*
X203211Y-267542D02*
D03*
X176046D02*
D03*
Y-275416D02*
D03*
Y-271479D02*
D03*
X203211Y-275416D02*
D03*
X176046Y-281321D02*
D03*
Y-283290D02*
D03*
X203211D02*
D03*
Y-281321D02*
D03*
X98583Y-270021D02*
D03*
Y-271990D02*
D03*
X71417Y-256242D02*
D03*
Y-254273D02*
D03*
Y-258210D02*
D03*
Y-262147D02*
D03*
Y-260179D02*
D03*
Y-264116D02*
D03*
Y-268053D02*
D03*
Y-266084D02*
D03*
Y-271990D02*
D03*
Y-270021D02*
D03*
Y-273958D02*
D03*
Y-275927D02*
D03*
X98583D02*
D03*
Y-256242D02*
D03*
Y-268053D02*
D03*
Y-264116D02*
D03*
Y-260179D02*
D03*
Y-258210D02*
D03*
Y-254273D02*
D03*
Y-266084D02*
D03*
Y-273958D02*
D03*
Y-262147D02*
D03*
D41*
X189628Y-276400D02*
D03*
X85000Y-265100D02*
D03*
D42*
X201132Y-56100D02*
D03*
X130675Y-51100D02*
D03*
Y-66100D02*
D03*
Y-56100D02*
D03*
X179675Y-51100D02*
D03*
X152132Y-56100D02*
D03*
X179675Y-66100D02*
D03*
Y-61100D02*
D03*
Y-56100D02*
D03*
X201132Y-51100D02*
D03*
Y-61100D02*
D03*
Y-66100D02*
D03*
X152132Y-61100D02*
D03*
X130675D02*
D03*
X152132Y-51100D02*
D03*
Y-66100D02*
D03*
D43*
X210400Y-168207D02*
D03*
X191650D02*
D03*
X40982Y-118314D02*
D03*
X191650Y-156593D02*
D03*
X210400D02*
D03*
X40982Y-106700D02*
D03*
D44*
X177902Y-113100D02*
D03*
Y-118100D02*
D03*
X28580Y-157000D02*
D03*
Y-162000D02*
D03*
X53383D02*
D03*
Y-157000D02*
D03*
X153098Y-118100D02*
D03*
Y-113100D02*
D03*
X177902Y-88100D02*
D03*
Y-93100D02*
D03*
X153098Y-88100D02*
D03*
X28580Y-182000D02*
D03*
Y-187000D02*
D03*
X53383D02*
D03*
D45*
X169500Y-167994D02*
D03*
X57000Y-97094D02*
D03*
X169500Y-156806D02*
D03*
X57000Y-85906D02*
D03*
D46*
X138904Y-178493D02*
D03*
X121187D02*
D03*
X142841D02*
D03*
X140872D02*
D03*
X138904Y-209595D02*
D03*
X127093Y-178493D02*
D03*
X134967D02*
D03*
X136935D02*
D03*
X132998D02*
D03*
X131030D02*
D03*
X129061D02*
D03*
X125124D02*
D03*
X123156D02*
D03*
X119219D02*
D03*
X117250D02*
D03*
X142841Y-209595D02*
D03*
X132998D02*
D03*
X127093D02*
D03*
X140872D02*
D03*
X119219D02*
D03*
X123156D02*
D03*
X134967D02*
D03*
X125124D02*
D03*
X121187D02*
D03*
X136935D02*
D03*
X117250D02*
D03*
X131030D02*
D03*
X129061D02*
D03*
D47*
X151900Y-184645D02*
D03*
X119100Y-162755D02*
D03*
X108191Y-176198D02*
D03*
X195800Y-247355D02*
D03*
X187400D02*
D03*
X70700Y-91545D02*
D03*
X82700Y-235755D02*
D03*
X91700D02*
D03*
X151900Y-177755D02*
D03*
X195800Y-254245D02*
D03*
X119100Y-169645D02*
D03*
X108191Y-183087D02*
D03*
X91700Y-242645D02*
D03*
X187400Y-254245D02*
D03*
X82700Y-242645D02*
D03*
X70700Y-84655D02*
D03*
D48*
X145597Y-187154D02*
D03*
Y-185185D02*
D03*
X114494Y-183217D02*
D03*
Y-181248D02*
D03*
Y-193059D02*
D03*
Y-191091D02*
D03*
Y-196996D02*
D03*
Y-195028D02*
D03*
Y-198965D02*
D03*
Y-200933D02*
D03*
Y-202902D02*
D03*
X145597Y-181248D02*
D03*
Y-183217D02*
D03*
X114494Y-185185D02*
D03*
Y-187154D02*
D03*
X145597Y-189122D02*
D03*
X114494D02*
D03*
Y-206839D02*
D03*
X145597Y-191091D02*
D03*
Y-200933D02*
D03*
Y-198965D02*
D03*
Y-196996D02*
D03*
Y-206839D02*
D03*
Y-195028D02*
D03*
Y-204870D02*
D03*
X114494D02*
D03*
X145597Y-193059D02*
D03*
Y-202902D02*
D03*
D49*
X106200Y-72663D02*
D03*
X95800D02*
D03*
X106200Y-80537D02*
D03*
X95800D02*
D03*
D50*
X111400Y-162755D02*
D03*
X115300Y-73281D02*
D03*
X111400Y-169645D02*
D03*
X115300Y-80171D02*
D03*
D51*
X109700Y-130328D02*
D03*
X105960D02*
D03*
X92847D02*
D03*
X113440D02*
D03*
X109700Y-140171D02*
D03*
X92847D02*
D03*
X96587Y-130328D02*
D03*
X105960Y-140171D02*
D03*
X113440D02*
D03*
X96587D02*
D03*
X89107D02*
D03*
Y-130328D02*
D03*
D52*
X130046Y-194044D02*
D03*
D53*
X84693Y-62100D02*
D03*
X96307D02*
D03*
D54*
X71330Y-59900D02*
D03*
X55070D02*
D03*
D55*
X26100Y-305788D02*
D03*
Y-313308D02*
D03*
X54700Y-218560D02*
D03*
Y-211040D02*
D03*
X45400D02*
D03*
Y-218560D02*
D03*
D56*
X37596Y-96500D02*
D03*
X44368D02*
D03*
D57*
X98889Y-212500D02*
D03*
X72511D02*
D03*
D58*
X178865Y-319272D02*
D03*
X176897D02*
D03*
X170991D02*
D03*
X172960D02*
D03*
X182802D02*
D03*
X180834D02*
D03*
X198550D02*
D03*
X169023D02*
D03*
X186739D02*
D03*
X192645D02*
D03*
X196582D02*
D03*
X174928D02*
D03*
X194613D02*
D03*
X190676D02*
D03*
X188708D02*
D03*
X184771D02*
D03*
X167054D02*
D03*
X165086D02*
D03*
X163117D02*
D03*
X161149D02*
D03*
X159180D02*
D03*
X157212D02*
D03*
X155243D02*
D03*
X153275D02*
D03*
X151306D02*
D03*
D59*
X37900Y-313308D02*
D03*
Y-305670D02*
D03*
D60*
X205035Y-327068D02*
D03*
X144822D02*
D03*
D61*
X33916Y-210076D02*
D03*
X25884D02*
D03*
X29900Y-219524D02*
D03*
D62*
X43270Y-246189D02*
D03*
Y-242449D02*
D03*
Y-238708D02*
D03*
X33388D02*
D03*
Y-246189D02*
D03*
D63*
X27832Y-80000D02*
D03*
X44368D02*
D03*
D64*
X240000Y-40098D02*
D03*
X250000Y-90098D02*
D03*
X240000Y-190098D02*
D03*
X250000Y-260098D02*
D03*
X240000Y-310098D02*
D03*
X10000Y-100000D02*
D03*
Y-30000D02*
D03*
X0Y-90000D02*
D03*
X10000D02*
D03*
X0Y-240000D02*
D03*
X10000Y-290000D02*
D03*
X250000Y-98D02*
D03*
X240000Y-10098D02*
D03*
X250000D02*
D03*
X240000Y-20098D02*
D03*
X250000D02*
D03*
X240000Y-30098D02*
D03*
X250000D02*
D03*
Y-40098D02*
D03*
X240000Y-50098D02*
D03*
X250000D02*
D03*
X240000Y-60098D02*
D03*
X250000D02*
D03*
X240000Y-70098D02*
D03*
X250000D02*
D03*
Y-80098D02*
D03*
X240000Y-100098D02*
D03*
Y-110098D02*
D03*
X250000D02*
D03*
Y-120098D02*
D03*
X240000Y-130098D02*
D03*
X250000D02*
D03*
X240000Y-140098D02*
D03*
X250000D02*
D03*
X240000Y-150098D02*
D03*
X250000D02*
D03*
X240000Y-160098D02*
D03*
X250000D02*
D03*
X240000Y-170098D02*
D03*
X250000D02*
D03*
X240000Y-180098D02*
D03*
X250000D02*
D03*
Y-190098D02*
D03*
X240000Y-200098D02*
D03*
X250000D02*
D03*
X240000Y-210098D02*
D03*
X250000D02*
D03*
X240000Y-220098D02*
D03*
X250000D02*
D03*
X240000Y-230098D02*
D03*
X250000D02*
D03*
X240000Y-240098D02*
D03*
X250000D02*
D03*
X240000Y-250098D02*
D03*
X250000D02*
D03*
X240000Y-260098D02*
D03*
Y-270098D02*
D03*
X250000D02*
D03*
X240000Y-280098D02*
D03*
X250000D02*
D03*
X240000Y-290098D02*
D03*
X250000D02*
D03*
X240000Y-300098D02*
D03*
X250000D02*
D03*
Y-310098D02*
D03*
X240000Y-320098D02*
D03*
X250000D02*
D03*
X240000Y-330098D02*
D03*
X250000D02*
D03*
X240000Y-340098D02*
D03*
X250000D02*
D03*
X240000Y-120098D02*
D03*
Y-80098D02*
D03*
X250000Y-100098D02*
D03*
X240000Y-90098D02*
D03*
X10000Y-150000D02*
D03*
Y0D02*
D03*
X0Y-10000D02*
D03*
X10000D02*
D03*
X0Y-20000D02*
D03*
X10000D02*
D03*
X0Y-30000D02*
D03*
Y-40000D02*
D03*
X10000D02*
D03*
X0Y-50000D02*
D03*
X10000D02*
D03*
X0Y-60000D02*
D03*
X10000D02*
D03*
X0Y-70000D02*
D03*
X10000D02*
D03*
X0Y-80000D02*
D03*
Y-100000D02*
D03*
Y-110000D02*
D03*
X10000D02*
D03*
X0Y-120000D02*
D03*
X10000D02*
D03*
X0Y-130000D02*
D03*
X10000D02*
D03*
X0Y-140000D02*
D03*
X10000D02*
D03*
X0Y-150000D02*
D03*
Y-160000D02*
D03*
X10000D02*
D03*
X0Y-170000D02*
D03*
X10000D02*
D03*
X0Y-180000D02*
D03*
X10000D02*
D03*
X0Y-190000D02*
D03*
X10000D02*
D03*
X0Y-200000D02*
D03*
X10000D02*
D03*
X0Y-210000D02*
D03*
X10000D02*
D03*
X0Y-220000D02*
D03*
X10000D02*
D03*
X0Y-230000D02*
D03*
X10000D02*
D03*
Y-240000D02*
D03*
X0Y-250000D02*
D03*
X10000D02*
D03*
X0Y-260000D02*
D03*
X10000D02*
D03*
X0Y-270000D02*
D03*
X10000D02*
D03*
X0Y-280000D02*
D03*
X10000D02*
D03*
X0Y-290000D02*
D03*
Y-300000D02*
D03*
X10000D02*
D03*
X0Y-310000D02*
D03*
X10000D02*
D03*
X0Y-320000D02*
D03*
X10000D02*
D03*
X0Y-330000D02*
D03*
X10000D02*
D03*
X0Y-340000D02*
D03*
X10000D02*
D03*
Y-80000D02*
D03*
D65*
X185000Y-189400D02*
D03*
X204700Y-189100D02*
D03*
X194500Y-215500D02*
D03*
X113900Y-51700D02*
D03*
X80000Y-179500D02*
D03*
X224300Y-61100D02*
D03*
X27800Y-60500D02*
D03*
D66*
X240000Y-98D02*
D03*
X0Y0D02*
D03*
D67*
X70202Y-313308D02*
D03*
X96187D02*
D03*
Y-339292D02*
D03*
X70202D02*
D03*
X202992Y-2008D02*
D03*
X177008Y-27992D02*
D03*
X202992D02*
D03*
X177008Y-2008D02*
D03*
X72992D02*
D03*
Y-27992D02*
D03*
X47008Y-2008D02*
D03*
Y-27992D02*
D03*
D68*
X83194Y-326300D02*
D03*
X190000Y-15000D02*
D03*
X60000D02*
D03*
D69*
X254315Y1941D02*
D03*
X258252Y-5933D02*
D03*
X254315Y-13807D02*
D03*
X258252Y-21681D02*
D03*
X254315Y-29555D02*
D03*
X258252Y-37429D02*
D03*
X254315Y-61051D02*
D03*
X258252Y-68925D02*
D03*
X254315Y-76799D02*
D03*
X258252Y-84673D02*
D03*
Y-100421D02*
D03*
X254315Y-108295D02*
D03*
X258252Y-116169D02*
D03*
X254315Y-124043D02*
D03*
X258252Y-131917D02*
D03*
X254315Y-139791D02*
D03*
X258252Y-147665D02*
D03*
X254315Y-155539D02*
D03*
X258252Y-163413D02*
D03*
X254315Y-171287D02*
D03*
X258252Y-179161D02*
D03*
X254315Y-187035D02*
D03*
X258252Y-194909D02*
D03*
X254315Y-202783D02*
D03*
X258252Y-210657D02*
D03*
X254315Y-218531D02*
D03*
X258252Y-226405D02*
D03*
X254315Y-234279D02*
D03*
X258252Y-242153D02*
D03*
X254315Y-250027D02*
D03*
X258252Y-257902D02*
D03*
X254315Y-265775D02*
D03*
X258252Y-273650D02*
D03*
X254315Y-281523D02*
D03*
X258252Y-289398D02*
D03*
X254315Y-297272D02*
D03*
X258252Y-305146D02*
D03*
X254315Y-313020D02*
D03*
X258252Y-320894D02*
D03*
X254315Y-328768D02*
D03*
X258252Y-336642D02*
D03*
X254315Y-344516D02*
D03*
X246441Y-13807D02*
D03*
Y-76799D02*
D03*
X250378Y-194909D02*
D03*
Y-305146D02*
D03*
X242504Y-5933D02*
D03*
Y-116169D02*
D03*
X238567Y-155539D02*
D03*
X242504Y-226405D02*
D03*
X238567Y-234279D02*
D03*
Y-265775D02*
D03*
X242504Y-273650D02*
D03*
X238567Y-344516D02*
D03*
X230693Y1941D02*
D03*
X234630Y-5933D02*
D03*
X230693Y-13807D02*
D03*
X234630Y-21681D02*
D03*
X230693Y-29555D02*
D03*
X234630Y-37429D02*
D03*
Y-53177D02*
D03*
X230693Y-61051D02*
D03*
X234630Y-84673D02*
D03*
X230693Y-108295D02*
D03*
X234630Y-116169D02*
D03*
X230693Y-124043D02*
D03*
X234630Y-131917D02*
D03*
X230693Y-139791D02*
D03*
X234630Y-147665D02*
D03*
X230693Y-155539D02*
D03*
X234630Y-163413D02*
D03*
X230693Y-171287D02*
D03*
X234630Y-179161D02*
D03*
X230693Y-187035D02*
D03*
X234630Y-194909D02*
D03*
X230693Y-202783D02*
D03*
X234630Y-210657D02*
D03*
X230693Y-218531D02*
D03*
X234630Y-226405D02*
D03*
X230693Y-234279D02*
D03*
X234630Y-242153D02*
D03*
X230693Y-250027D02*
D03*
X234630Y-257902D02*
D03*
X230693Y-265775D02*
D03*
X234630Y-273650D02*
D03*
X230693Y-281523D02*
D03*
X234630Y-289398D02*
D03*
X230693Y-297272D02*
D03*
X234630Y-305146D02*
D03*
X230693Y-313020D02*
D03*
X234630Y-320894D02*
D03*
X230693Y-328768D02*
D03*
X234630Y-336642D02*
D03*
X230693Y-344516D02*
D03*
X222819Y-45303D02*
D03*
X226756Y-53177D02*
D03*
Y-68925D02*
D03*
X222819Y-92547D02*
D03*
X226756Y-100421D02*
D03*
X222819Y-108295D02*
D03*
Y-124043D02*
D03*
Y-139791D02*
D03*
Y-155539D02*
D03*
Y-171287D02*
D03*
Y-187035D02*
D03*
Y-202783D02*
D03*
X226756Y-210657D02*
D03*
X222819Y-218531D02*
D03*
X226756Y-226405D02*
D03*
X222819Y-234279D02*
D03*
X226756Y-242153D02*
D03*
X222819Y-250027D02*
D03*
X226756Y-257902D02*
D03*
X222819Y-265775D02*
D03*
X226756Y-273650D02*
D03*
X222819Y-281523D02*
D03*
X226756Y-289398D02*
D03*
X222819Y-297272D02*
D03*
X226756Y-305146D02*
D03*
X222819Y-313020D02*
D03*
X226756Y-320894D02*
D03*
X222819Y-328768D02*
D03*
X226756Y-336642D02*
D03*
X222819Y-344516D02*
D03*
X214945Y-45303D02*
D03*
X218882Y-68925D02*
D03*
X214945Y-76799D02*
D03*
X218882Y-100421D02*
D03*
Y-116169D02*
D03*
X214945Y-124043D02*
D03*
X218882Y-131917D02*
D03*
X214945Y-139791D02*
D03*
X218882Y-147665D02*
D03*
Y-163413D02*
D03*
Y-179161D02*
D03*
X214945Y-187035D02*
D03*
X218882Y-194909D02*
D03*
X214945Y-202783D02*
D03*
X218882Y-210657D02*
D03*
X214945Y-218531D02*
D03*
X218882Y-226405D02*
D03*
X214945Y-234279D02*
D03*
X218882Y-242153D02*
D03*
X214945Y-250027D02*
D03*
X218882Y-257902D02*
D03*
X214945Y-265775D02*
D03*
X218882Y-273650D02*
D03*
Y-305146D02*
D03*
X214945Y-313020D02*
D03*
X218882Y-320894D02*
D03*
X214945Y-328768D02*
D03*
X218882Y-336642D02*
D03*
X214945Y-344516D02*
D03*
X207071Y-45303D02*
D03*
X211008Y-53177D02*
D03*
Y-68925D02*
D03*
X207071Y-76799D02*
D03*
X211008Y-84673D02*
D03*
X207071Y-108295D02*
D03*
X211008Y-116169D02*
D03*
X207071Y-124043D02*
D03*
X211008Y-131917D02*
D03*
X207071Y-139791D02*
D03*
X211008Y-147665D02*
D03*
Y-179161D02*
D03*
Y-194909D02*
D03*
X207071Y-202783D02*
D03*
Y-218531D02*
D03*
X211008Y-226405D02*
D03*
X207071Y-234279D02*
D03*
X211008Y-242153D02*
D03*
X207071Y-250027D02*
D03*
X211008Y-257902D02*
D03*
X207071Y-313020D02*
D03*
X211008Y-336642D02*
D03*
X207071Y-344516D02*
D03*
X199197Y-45303D02*
D03*
Y-76799D02*
D03*
X203134Y-84673D02*
D03*
X199197Y-92547D02*
D03*
X203134Y-116169D02*
D03*
Y-131917D02*
D03*
X199197Y-139791D02*
D03*
X203134Y-147665D02*
D03*
X199197Y-155539D02*
D03*
X203134Y-179161D02*
D03*
X199197Y-202783D02*
D03*
X203134Y-210657D02*
D03*
Y-226405D02*
D03*
X199197Y-234279D02*
D03*
X203134Y-242153D02*
D03*
Y-289398D02*
D03*
Y-336642D02*
D03*
X199197Y-344516D02*
D03*
X195260Y-53177D02*
D03*
Y-68925D02*
D03*
Y-84673D02*
D03*
Y-100421D02*
D03*
Y-116169D02*
D03*
X191323Y-124043D02*
D03*
X195260Y-131917D02*
D03*
X191323Y-139791D02*
D03*
X195260Y-147665D02*
D03*
Y-179161D02*
D03*
Y-194909D02*
D03*
X191323Y-202783D02*
D03*
Y-234279D02*
D03*
Y-328768D02*
D03*
X195260Y-336642D02*
D03*
X191323Y-344516D02*
D03*
X187386Y-116169D02*
D03*
Y-131917D02*
D03*
X183449Y-139791D02*
D03*
X187386Y-147665D02*
D03*
X183449Y-155539D02*
D03*
Y-171287D02*
D03*
X187386Y-179161D02*
D03*
X183449Y-202783D02*
D03*
X187386Y-210657D02*
D03*
X183449Y-218531D02*
D03*
X187386Y-226405D02*
D03*
X183449Y-234279D02*
D03*
Y-328768D02*
D03*
X187386Y-336642D02*
D03*
X183449Y-344516D02*
D03*
X179512Y-131917D02*
D03*
X175575Y-139791D02*
D03*
X179512Y-147665D02*
D03*
Y-179161D02*
D03*
X175575Y-187035D02*
D03*
X179512Y-194909D02*
D03*
X175575Y-202783D02*
D03*
X179512Y-210657D02*
D03*
X175575Y-218531D02*
D03*
X179512Y-226405D02*
D03*
X175575Y-234279D02*
D03*
Y-328768D02*
D03*
X179512Y-336642D02*
D03*
X175575Y-344516D02*
D03*
X167701Y-124043D02*
D03*
X171638Y-131917D02*
D03*
X167701Y-139791D02*
D03*
X171638Y-147665D02*
D03*
Y-179161D02*
D03*
X167701Y-187035D02*
D03*
X171638Y-194909D02*
D03*
Y-242153D02*
D03*
X167701Y-328768D02*
D03*
X171638Y-336642D02*
D03*
X167701Y-344516D02*
D03*
X159827Y-124043D02*
D03*
X163764Y-131917D02*
D03*
Y-147665D02*
D03*
X159827Y-155539D02*
D03*
Y-171287D02*
D03*
X163764Y-179161D02*
D03*
Y-242153D02*
D03*
X159827Y-328768D02*
D03*
X163764Y-336642D02*
D03*
X159827Y-344516D02*
D03*
X155890Y-131917D02*
D03*
X151953Y-139791D02*
D03*
Y-155539D02*
D03*
X155890Y-163413D02*
D03*
X151953Y-171287D02*
D03*
Y-328768D02*
D03*
X155890Y-336642D02*
D03*
X151953Y-344516D02*
D03*
X144079Y-124043D02*
D03*
X148016Y-131917D02*
D03*
X144079Y-139791D02*
D03*
X148016Y-147665D02*
D03*
Y-163413D02*
D03*
X144079Y-171287D02*
D03*
X148016Y-210657D02*
D03*
Y-336642D02*
D03*
X144079Y-344516D02*
D03*
X136205Y-45303D02*
D03*
Y-61051D02*
D03*
Y-76799D02*
D03*
Y-92547D02*
D03*
X140142Y-131917D02*
D03*
X136205Y-139791D02*
D03*
X140142Y-147665D02*
D03*
X136205Y-155539D02*
D03*
Y-328768D02*
D03*
X140142Y-336642D02*
D03*
X136205Y-344516D02*
D03*
X128331Y-45303D02*
D03*
Y-76799D02*
D03*
X132268Y-84673D02*
D03*
X128331Y-92547D02*
D03*
X132268Y-116169D02*
D03*
X128331Y-124043D02*
D03*
X132268Y-131917D02*
D03*
X128331Y-139791D02*
D03*
X132268Y-147665D02*
D03*
Y-163413D02*
D03*
Y-320894D02*
D03*
X128331Y-328768D02*
D03*
X132268Y-336642D02*
D03*
X128331Y-344516D02*
D03*
X120457Y-45303D02*
D03*
X124394Y-84673D02*
D03*
Y-100421D02*
D03*
Y-116169D02*
D03*
X120457Y-124043D02*
D03*
X124394Y-147665D02*
D03*
X120457Y-155539D02*
D03*
Y-313020D02*
D03*
X124394Y-320894D02*
D03*
X120457Y-328768D02*
D03*
X124394Y-336642D02*
D03*
X120457Y-344516D02*
D03*
X112583Y-45303D02*
D03*
Y-61051D02*
D03*
X116520Y-84673D02*
D03*
X112583Y-92547D02*
D03*
X116520Y-100421D02*
D03*
Y-116169D02*
D03*
Y-131917D02*
D03*
Y-147665D02*
D03*
X112583Y-155539D02*
D03*
X116520Y-305146D02*
D03*
X112583Y-313020D02*
D03*
X116520Y-320894D02*
D03*
X112583Y-328768D02*
D03*
Y-344516D02*
D03*
X104709Y-45303D02*
D03*
X108646Y-84673D02*
D03*
X104709Y-92547D02*
D03*
X108646Y-100421D02*
D03*
X104709Y-108295D02*
D03*
X108646Y-116169D02*
D03*
X104709Y-155539D02*
D03*
Y-202783D02*
D03*
Y-218531D02*
D03*
X108646Y-226405D02*
D03*
Y-242153D02*
D03*
Y-336642D02*
D03*
X96835Y-45303D02*
D03*
X100772Y-53177D02*
D03*
Y-68925D02*
D03*
Y-84673D02*
D03*
X96835Y-92547D02*
D03*
X100772Y-100421D02*
D03*
X96835Y-108295D02*
D03*
X100772Y-131917D02*
D03*
Y-147665D02*
D03*
X96835Y-155539D02*
D03*
X100772Y-194909D02*
D03*
Y-242153D02*
D03*
X88961Y-45303D02*
D03*
X92898Y-53177D02*
D03*
Y-84673D02*
D03*
Y-100421D02*
D03*
X88961Y-108295D02*
D03*
X92898Y-116169D02*
D03*
X88961Y-124043D02*
D03*
X92898Y-147665D02*
D03*
Y-179161D02*
D03*
X88961Y-187035D02*
D03*
X92898Y-194909D02*
D03*
X88961Y-202783D02*
D03*
X92898Y-210657D02*
D03*
X88961Y-218531D02*
D03*
X92898Y-226405D02*
D03*
X81087Y-45303D02*
D03*
X85024Y-53177D02*
D03*
Y-100421D02*
D03*
X81087Y-108295D02*
D03*
X85024Y-116169D02*
D03*
X81087Y-124043D02*
D03*
X85024Y-131917D02*
D03*
X81087Y-139791D02*
D03*
X85024Y-163413D02*
D03*
X81087Y-171287D02*
D03*
Y-187035D02*
D03*
X85024Y-194909D02*
D03*
X81087Y-202783D02*
D03*
X85024Y-210657D02*
D03*
X81087Y-218531D02*
D03*
X85024Y-226405D02*
D03*
X81087Y-297272D02*
D03*
X73213Y-45303D02*
D03*
X77150Y-53177D02*
D03*
Y-100421D02*
D03*
X73213Y-108295D02*
D03*
X77150Y-116169D02*
D03*
X73213Y-124043D02*
D03*
X77150Y-131917D02*
D03*
X73213Y-155539D02*
D03*
X77150Y-163413D02*
D03*
X73213Y-171287D02*
D03*
Y-187035D02*
D03*
X77150Y-194909D02*
D03*
Y-210657D02*
D03*
Y-226405D02*
D03*
X73213Y-234279D02*
D03*
X77150Y-289398D02*
D03*
X65339Y-45303D02*
D03*
X69276Y-53177D02*
D03*
Y-68925D02*
D03*
X65339Y-108295D02*
D03*
X69276Y-116169D02*
D03*
X65339Y-124043D02*
D03*
Y-139791D02*
D03*
X69276Y-147665D02*
D03*
X65339Y-155539D02*
D03*
X69276Y-163413D02*
D03*
Y-179161D02*
D03*
Y-194909D02*
D03*
Y-226405D02*
D03*
Y-242153D02*
D03*
X65339Y-297272D02*
D03*
X57465Y-45303D02*
D03*
X61402Y-53177D02*
D03*
Y-68925D02*
D03*
Y-116169D02*
D03*
Y-131917D02*
D03*
X57465Y-139791D02*
D03*
X61402Y-147665D02*
D03*
Y-163413D02*
D03*
Y-257902D02*
D03*
X57465Y-265775D02*
D03*
X61402Y-273650D02*
D03*
X57465Y-281523D02*
D03*
X61402Y-289398D02*
D03*
X57465Y-297272D02*
D03*
X49591Y-45303D02*
D03*
X53528Y-53177D02*
D03*
X49591Y-92547D02*
D03*
Y-108295D02*
D03*
Y-124043D02*
D03*
X53528Y-131917D02*
D03*
X49591Y-139791D02*
D03*
X53528Y-257902D02*
D03*
X49591Y-265775D02*
D03*
X53528Y-273650D02*
D03*
X49591Y-281523D02*
D03*
X53528Y-289398D02*
D03*
X49591Y-297272D02*
D03*
X41717Y-45303D02*
D03*
X45654Y-53177D02*
D03*
X41717Y-61051D02*
D03*
Y-124043D02*
D03*
X45654Y-131917D02*
D03*
X41717Y-139791D02*
D03*
X45654Y-147665D02*
D03*
X41717Y-155539D02*
D03*
X45654Y-163413D02*
D03*
Y-273650D02*
D03*
X41717Y-281523D02*
D03*
X45654Y-289398D02*
D03*
X41717Y-297272D02*
D03*
X33843Y-45303D02*
D03*
X37780Y-53177D02*
D03*
Y-68925D02*
D03*
X33843Y-76799D02*
D03*
X37780Y-84673D02*
D03*
X33843Y-92547D02*
D03*
Y-124043D02*
D03*
X37780Y-131917D02*
D03*
X33843Y-139791D02*
D03*
X37780Y-147665D02*
D03*
Y-163413D02*
D03*
Y-257902D02*
D03*
X33843Y-265775D02*
D03*
Y-281523D02*
D03*
Y-297272D02*
D03*
X25969Y-45303D02*
D03*
X29906Y-53177D02*
D03*
Y-100421D02*
D03*
X25969Y-108295D02*
D03*
Y-124043D02*
D03*
X29906Y-131917D02*
D03*
X25969Y-139791D02*
D03*
X29906Y-257902D02*
D03*
X25969Y-265775D02*
D03*
X29906Y-273650D02*
D03*
X25969Y-281523D02*
D03*
X29906Y-289398D02*
D03*
X18095Y1941D02*
D03*
X22032Y-5933D02*
D03*
Y-21681D02*
D03*
Y-37429D02*
D03*
Y-53177D02*
D03*
Y-68925D02*
D03*
X18095Y-92547D02*
D03*
X22032Y-100421D02*
D03*
X18095Y-108295D02*
D03*
X22032Y-116169D02*
D03*
X18095Y-124043D02*
D03*
X22032Y-131917D02*
D03*
X18095Y-139791D02*
D03*
X22032Y-147665D02*
D03*
X18095Y-155539D02*
D03*
X22032Y-257902D02*
D03*
X18095Y-265775D02*
D03*
X22032Y-273650D02*
D03*
X18095Y-281523D02*
D03*
X22032Y-289398D02*
D03*
X18095Y-297272D02*
D03*
X14158Y-21681D02*
D03*
Y-37429D02*
D03*
X10221Y-45303D02*
D03*
X14158Y-53177D02*
D03*
Y-84673D02*
D03*
Y-116169D02*
D03*
Y-131917D02*
D03*
X10221Y-155539D02*
D03*
X14158Y-163413D02*
D03*
Y-194909D02*
D03*
Y-226405D02*
D03*
Y-242153D02*
D03*
Y-257902D02*
D03*
Y-273650D02*
D03*
X2347Y-13807D02*
D03*
Y-45303D02*
D03*
Y-124043D02*
D03*
X6284Y-147665D02*
D03*
X2347Y-155539D02*
D03*
X6284Y-163413D02*
D03*
Y-194909D02*
D03*
Y-226405D02*
D03*
X2347Y-234279D02*
D03*
Y-265775D02*
D03*
X6284Y-273650D02*
D03*
X-5527Y1941D02*
D03*
X-1590Y-5933D02*
D03*
X-5527Y-13807D02*
D03*
Y-29555D02*
D03*
Y-45303D02*
D03*
Y-61051D02*
D03*
Y-76799D02*
D03*
Y-92547D02*
D03*
Y-108295D02*
D03*
Y-124043D02*
D03*
Y-139791D02*
D03*
Y-155539D02*
D03*
Y-171287D02*
D03*
Y-187035D02*
D03*
X-1590Y-194909D02*
D03*
X-5527Y-202783D02*
D03*
Y-218531D02*
D03*
Y-234279D02*
D03*
Y-250027D02*
D03*
Y-265775D02*
D03*
Y-281523D02*
D03*
Y-297272D02*
D03*
X101800Y-259966D02*
D03*
X206100Y-275422D02*
D03*
X207185Y-271485D02*
D03*
X206100Y-267535D02*
D03*
Y-279372D02*
D03*
X206000Y-283100D02*
D03*
X206200Y-287233D02*
D03*
X180700Y-292785D02*
D03*
X184750Y-293100D02*
D03*
X188700Y-293000D02*
D03*
X190600Y-294800D02*
D03*
X198499Y-294000D02*
D03*
X194550Y-294200D02*
D03*
X173200Y-271372D02*
D03*
Y-283077D02*
D03*
Y-287227D02*
D03*
X173207Y-279672D02*
D03*
X173200Y-275522D02*
D03*
X173207Y-267223D02*
D03*
X201100Y-259800D02*
D03*
X191600D02*
D03*
X177200D02*
D03*
X75800Y-282000D02*
D03*
X109700Y-125600D02*
D03*
X106000D02*
D03*
X92800Y-125700D02*
D03*
X110701Y-202962D02*
D03*
X110847Y-198818D02*
D03*
X110774Y-194955D02*
D03*
X110807Y-191401D02*
D03*
X101895Y-271883D02*
D03*
X97200Y-249000D02*
D03*
X87000Y-248402D02*
D03*
X72657Y-248682D02*
D03*
X68400Y-256208D02*
D03*
Y-264116D02*
D03*
Y-260179D02*
D03*
Y-271956D02*
D03*
Y-268019D02*
D03*
Y-275893D02*
D03*
X197500Y-259500D02*
D03*
X184800Y-259700D02*
D03*
X109700Y-147200D02*
D03*
X92800Y-144900D02*
D03*
X113400Y-125600D02*
D03*
X93014Y-248363D02*
D03*
X80113Y-248500D02*
D03*
X160725Y-250902D02*
D03*
X86000Y-284500D02*
D03*
X84000Y-282000D02*
D03*
X95914Y-282786D02*
D03*
X89928Y-282372D02*
D03*
X80300Y-285400D02*
D03*
X113470Y-144770D02*
D03*
X134900Y-175300D02*
D03*
X131000Y-173000D02*
D03*
X101800Y-276033D02*
D03*
Y-268265D02*
D03*
Y-264116D02*
D03*
Y-253300D02*
D03*
X135400Y-276400D02*
D03*
X148800Y-204902D02*
D03*
X103000Y-212500D02*
D03*
X151100Y-195028D02*
D03*
X148700Y-197003D02*
D03*
X148800Y-200952D02*
D03*
X151100Y-198978D02*
D03*
Y-202927D02*
D03*
X148800Y-193053D02*
D03*
X150900Y-207100D02*
D03*
X151100Y-191078D02*
D03*
X148800Y-189100D02*
D03*
X96600Y-144800D02*
D03*
X139275Y-272498D02*
D03*
X162662Y-248951D02*
D03*
X148963Y-262743D02*
D03*
X164600Y-247000D02*
D03*
X158787Y-252853D02*
D03*
X156850Y-254804D02*
D03*
X141213Y-270547D02*
D03*
X145088Y-266645D02*
D03*
X151037Y-260657D02*
D03*
X147026Y-264694D02*
D03*
X154912Y-256755D02*
D03*
X152974Y-258706D02*
D03*
X143150Y-268596D02*
D03*
X137338Y-274449D02*
D03*
D70*
X207488Y-56212D02*
D03*
X158109Y-184013D02*
D03*
X138900Y-174300D02*
D03*
X125404Y-51100D02*
D03*
X124996Y-164400D02*
D03*
X105700Y-162900D02*
D03*
X102000Y-178500D02*
D03*
X201513Y-249002D02*
D03*
X181800Y-249200D02*
D03*
X97600Y-237500D02*
D03*
X77300Y-237600D02*
D03*
X125404Y-66100D02*
D03*
X124996Y-168097D02*
D03*
X201400Y-252500D02*
D03*
X158109Y-180513D02*
D03*
X102144Y-181997D02*
D03*
X97600Y-241000D02*
D03*
X77300Y-241100D02*
D03*
X181800Y-252700D02*
D03*
X174000Y-66200D02*
D03*
X174100Y-51300D02*
D03*
X158200Y-56100D02*
D03*
D71*
X201100Y-165500D02*
D03*
X178200Y-165100D02*
D03*
X178000Y-125900D02*
D03*
X106200Y-66799D02*
D03*
X79200Y-70700D02*
D03*
X85100Y-91000D02*
D03*
X70750Y-98550D02*
D03*
X57000Y-104700D02*
D03*
X30310Y-115596D02*
D03*
X28500Y-149100D02*
D03*
X26100Y-299800D02*
D03*
X201100Y-160000D02*
D03*
X178100Y-159600D02*
D03*
X115300Y-66799D02*
D03*
X106100Y-61300D02*
D03*
X53300Y-149100D02*
D03*
X30184Y-110097D02*
D03*
X153000Y-125900D02*
D03*
X44700Y-313308D02*
D03*
X33800Y-204300D02*
D03*
X25800D02*
D03*
X54700Y-205300D02*
D03*
X45300D02*
D03*
X53383Y-194900D02*
D03*
X28600Y-195000D02*
D03*
X26300Y-246100D02*
D03*
X50300Y-242500D02*
D03*
X153100Y-80200D02*
D03*
X177902D02*
D03*
M02*
