G04*
G04 #@! TF.GenerationSoftware,Altium Limited,Altium Designer,26.7.1 (11)*
G04*
G04 Layer_Color=16711935*
G04 Board_Origin=22600000|47050000*
%FSLAX25Y25*%
%MOIN*%
G70*
G04*
G04 #@! TF.SameCoordinates,1440CDCE-C3DE-49C4-9650-C7B8FDE588B4*
G04*
G04*
G04 #@! TF.FilePolarity,Negative*
G04*
G01*
G75*
%ADD64C,0.10039*%
%ADD65R,0.06063X0.06063*%
%ADD66C,0.06063*%
%ADD67C,0.13543*%
%ADD68C,0.07992*%
%ADD69C,0.02362*%
%ADD70C,0.02091*%
%ADD71C,0.03591*%
%ADD72C,0.05591*%
D64*
X194500Y-215500D02*
D03*
X185000Y-189400D02*
D03*
X113900Y-51700D02*
D03*
X204700Y-189100D02*
D03*
X80000Y-179500D02*
D03*
X224300Y-61100D02*
D03*
X27800Y-60500D02*
D03*
D65*
X240000Y-98D02*
D03*
X0Y0D02*
D03*
D66*
X250000Y-98D02*
D03*
X240000Y-10098D02*
D03*
X250000D02*
D03*
X240000Y-20098D02*
D03*
X250000D02*
D03*
X240000Y-30098D02*
D03*
X250000D02*
D03*
Y-40098D02*
D03*
X240000Y-50098D02*
D03*
X250000D02*
D03*
X240000Y-60098D02*
D03*
X250000D02*
D03*
X240000Y-70098D02*
D03*
X250000D02*
D03*
Y-80098D02*
D03*
X240000Y-100098D02*
D03*
Y-110098D02*
D03*
X250000D02*
D03*
Y-120098D02*
D03*
X240000Y-130098D02*
D03*
X250000D02*
D03*
X240000Y-140098D02*
D03*
X250000D02*
D03*
X240000Y-150098D02*
D03*
X250000D02*
D03*
X240000Y-160098D02*
D03*
X250000D02*
D03*
X240000Y-170098D02*
D03*
X250000D02*
D03*
X240000Y-180098D02*
D03*
X250000D02*
D03*
Y-190098D02*
D03*
X240000Y-200098D02*
D03*
X250000D02*
D03*
X240000Y-210098D02*
D03*
X250000D02*
D03*
X240000Y-220098D02*
D03*
X250000D02*
D03*
X240000Y-230098D02*
D03*
X250000D02*
D03*
X240000Y-240098D02*
D03*
X250000D02*
D03*
X240000Y-250098D02*
D03*
X250000D02*
D03*
X240000Y-260098D02*
D03*
Y-270098D02*
D03*
X250000D02*
D03*
X240000Y-280098D02*
D03*
X250000D02*
D03*
X240000Y-290098D02*
D03*
X250000D02*
D03*
X240000Y-300098D02*
D03*
X250000D02*
D03*
Y-310098D02*
D03*
X240000Y-320098D02*
D03*
X250000D02*
D03*
X240000Y-330098D02*
D03*
X250000D02*
D03*
X240000Y-340098D02*
D03*
X250000D02*
D03*
X240000Y-120098D02*
D03*
Y-80098D02*
D03*
X250000Y-100098D02*
D03*
X240000Y-90098D02*
D03*
Y-310098D02*
D03*
X250000Y-260098D02*
D03*
X240000Y-190098D02*
D03*
X250000Y-90098D02*
D03*
X240000Y-40098D02*
D03*
X10000Y-290000D02*
D03*
X0Y-240000D02*
D03*
X10000Y-90000D02*
D03*
X0D02*
D03*
X10000Y-30000D02*
D03*
Y-100000D02*
D03*
Y-150000D02*
D03*
Y0D02*
D03*
X0Y-10000D02*
D03*
X10000D02*
D03*
X0Y-20000D02*
D03*
X10000D02*
D03*
X0Y-30000D02*
D03*
Y-40000D02*
D03*
X10000D02*
D03*
X0Y-50000D02*
D03*
X10000D02*
D03*
X0Y-60000D02*
D03*
X10000D02*
D03*
X0Y-70000D02*
D03*
X10000D02*
D03*
X0Y-80000D02*
D03*
Y-100000D02*
D03*
Y-110000D02*
D03*
X10000D02*
D03*
X0Y-120000D02*
D03*
X10000D02*
D03*
X0Y-130000D02*
D03*
X10000D02*
D03*
X0Y-140000D02*
D03*
X10000D02*
D03*
X0Y-150000D02*
D03*
Y-160000D02*
D03*
X10000D02*
D03*
X0Y-170000D02*
D03*
X10000D02*
D03*
X0Y-180000D02*
D03*
X10000D02*
D03*
X0Y-190000D02*
D03*
X10000D02*
D03*
X0Y-200000D02*
D03*
X10000D02*
D03*
X0Y-210000D02*
D03*
X10000D02*
D03*
X0Y-220000D02*
D03*
X10000D02*
D03*
X0Y-230000D02*
D03*
X10000D02*
D03*
Y-240000D02*
D03*
X0Y-250000D02*
D03*
X10000D02*
D03*
X0Y-260000D02*
D03*
X10000D02*
D03*
X0Y-270000D02*
D03*
X10000D02*
D03*
X0Y-280000D02*
D03*
X10000D02*
D03*
X0Y-290000D02*
D03*
Y-300000D02*
D03*
X10000D02*
D03*
X0Y-310000D02*
D03*
X10000D02*
D03*
X0Y-320000D02*
D03*
X10000D02*
D03*
X0Y-330000D02*
D03*
X10000D02*
D03*
X0Y-340000D02*
D03*
X10000D02*
D03*
Y-80000D02*
D03*
D67*
X70202Y-313308D02*
D03*
X96187D02*
D03*
Y-339292D02*
D03*
X70202D02*
D03*
X202992Y-2008D02*
D03*
X177008Y-27992D02*
D03*
X202992D02*
D03*
X177008Y-2008D02*
D03*
X72992D02*
D03*
Y-27992D02*
D03*
X47008Y-2008D02*
D03*
Y-27992D02*
D03*
D68*
X83194Y-326300D02*
D03*
X190000Y-15000D02*
D03*
X60000D02*
D03*
D69*
X259000Y-500D02*
D03*
Y-10500D02*
D03*
Y-20500D02*
D03*
Y-30500D02*
D03*
Y-40500D02*
D03*
Y-70500D02*
D03*
Y-80500D02*
D03*
Y-90500D02*
D03*
Y-100500D02*
D03*
Y-110500D02*
D03*
Y-120500D02*
D03*
Y-130500D02*
D03*
Y-140500D02*
D03*
Y-150500D02*
D03*
Y-160500D02*
D03*
Y-170500D02*
D03*
Y-180500D02*
D03*
Y-190500D02*
D03*
Y-200500D02*
D03*
Y-210500D02*
D03*
Y-220500D02*
D03*
Y-230500D02*
D03*
Y-240500D02*
D03*
Y-250500D02*
D03*
Y-260500D02*
D03*
Y-270500D02*
D03*
Y-280500D02*
D03*
Y-290500D02*
D03*
Y-300500D02*
D03*
Y-310500D02*
D03*
Y-320500D02*
D03*
Y-330500D02*
D03*
Y-340500D02*
D03*
X254000Y9500D02*
D03*
X256500Y4500D02*
D03*
Y-5500D02*
D03*
Y-15500D02*
D03*
Y-25500D02*
D03*
Y-35500D02*
D03*
Y-75500D02*
D03*
Y-85500D02*
D03*
Y-95500D02*
D03*
Y-105500D02*
D03*
Y-115500D02*
D03*
Y-125500D02*
D03*
Y-135500D02*
D03*
Y-145500D02*
D03*
Y-155500D02*
D03*
Y-165500D02*
D03*
Y-175500D02*
D03*
Y-185500D02*
D03*
Y-195500D02*
D03*
Y-205500D02*
D03*
Y-215500D02*
D03*
Y-225500D02*
D03*
Y-235500D02*
D03*
Y-245500D02*
D03*
Y-255500D02*
D03*
Y-265500D02*
D03*
Y-275500D02*
D03*
Y-285500D02*
D03*
Y-295500D02*
D03*
Y-305500D02*
D03*
Y-315500D02*
D03*
Y-325500D02*
D03*
Y-335500D02*
D03*
Y-345500D02*
D03*
X254000Y-350500D02*
D03*
X249000Y9500D02*
D03*
X251500Y4500D02*
D03*
Y-5500D02*
D03*
Y-15500D02*
D03*
Y-25500D02*
D03*
Y-35500D02*
D03*
Y-55500D02*
D03*
Y-65500D02*
D03*
Y-75500D02*
D03*
Y-85500D02*
D03*
Y-95500D02*
D03*
Y-105500D02*
D03*
Y-115500D02*
D03*
Y-125500D02*
D03*
Y-135500D02*
D03*
Y-145500D02*
D03*
Y-155500D02*
D03*
Y-165500D02*
D03*
Y-175500D02*
D03*
Y-185500D02*
D03*
Y-195500D02*
D03*
Y-205500D02*
D03*
Y-215500D02*
D03*
Y-225500D02*
D03*
Y-235500D02*
D03*
Y-245500D02*
D03*
Y-255500D02*
D03*
Y-265500D02*
D03*
Y-275500D02*
D03*
Y-285500D02*
D03*
Y-295500D02*
D03*
Y-305500D02*
D03*
Y-315500D02*
D03*
Y-325500D02*
D03*
Y-335500D02*
D03*
Y-345500D02*
D03*
X249000Y-350500D02*
D03*
X244000Y9500D02*
D03*
X246500Y4500D02*
D03*
Y-5500D02*
D03*
Y-15500D02*
D03*
Y-25500D02*
D03*
Y-35500D02*
D03*
Y-75500D02*
D03*
Y-85500D02*
D03*
Y-345500D02*
D03*
X244000Y-350500D02*
D03*
X239000Y9500D02*
D03*
X241500Y4500D02*
D03*
Y-5500D02*
D03*
Y-15500D02*
D03*
Y-25500D02*
D03*
Y-35500D02*
D03*
Y-55500D02*
D03*
Y-65500D02*
D03*
Y-105500D02*
D03*
Y-115500D02*
D03*
Y-125500D02*
D03*
Y-135500D02*
D03*
Y-145500D02*
D03*
Y-155500D02*
D03*
Y-165500D02*
D03*
Y-175500D02*
D03*
Y-185500D02*
D03*
Y-195500D02*
D03*
Y-205500D02*
D03*
Y-215500D02*
D03*
Y-225500D02*
D03*
Y-235500D02*
D03*
Y-245500D02*
D03*
Y-255500D02*
D03*
Y-265500D02*
D03*
Y-275500D02*
D03*
Y-285500D02*
D03*
Y-295500D02*
D03*
Y-305500D02*
D03*
Y-315500D02*
D03*
Y-325500D02*
D03*
Y-335500D02*
D03*
X239000Y-350500D02*
D03*
X234000Y9500D02*
D03*
X236500Y4500D02*
D03*
X234000Y-500D02*
D03*
X236500Y-5500D02*
D03*
X234000Y-10500D02*
D03*
X236500Y-15500D02*
D03*
X234000Y-20500D02*
D03*
X236500Y-25500D02*
D03*
X234000Y-30500D02*
D03*
X236500Y-35500D02*
D03*
X234000Y-40500D02*
D03*
Y-50500D02*
D03*
X236500Y-55500D02*
D03*
X234000Y-60500D02*
D03*
Y-80500D02*
D03*
Y-100500D02*
D03*
X236500Y-115500D02*
D03*
X234000Y-120500D02*
D03*
X236500Y-125500D02*
D03*
X234000Y-130500D02*
D03*
X236500Y-135500D02*
D03*
X234000Y-140500D02*
D03*
X236500Y-145500D02*
D03*
X234000Y-150500D02*
D03*
X236500Y-155500D02*
D03*
X234000Y-160500D02*
D03*
X236500Y-165500D02*
D03*
X234000Y-170500D02*
D03*
X236500Y-175500D02*
D03*
X234000Y-180500D02*
D03*
X236500Y-185500D02*
D03*
X234000Y-190500D02*
D03*
X236500Y-195500D02*
D03*
X234000Y-200500D02*
D03*
X236500Y-205500D02*
D03*
X234000Y-210500D02*
D03*
X236500Y-215500D02*
D03*
X234000Y-220500D02*
D03*
X236500Y-225500D02*
D03*
X234000Y-230500D02*
D03*
X236500Y-235500D02*
D03*
X234000Y-240500D02*
D03*
X236500Y-245500D02*
D03*
X234000Y-250500D02*
D03*
X236500Y-255500D02*
D03*
X234000Y-260500D02*
D03*
X236500Y-265500D02*
D03*
X234000Y-270500D02*
D03*
X236500Y-275500D02*
D03*
X234000Y-280500D02*
D03*
X236500Y-285500D02*
D03*
X234000Y-290500D02*
D03*
X236500Y-295500D02*
D03*
X234000Y-300500D02*
D03*
X236500Y-305500D02*
D03*
X234000Y-310500D02*
D03*
X236500Y-315500D02*
D03*
X234000Y-320500D02*
D03*
X236500Y-325500D02*
D03*
X234000Y-330500D02*
D03*
X236500Y-335500D02*
D03*
X234000Y-340500D02*
D03*
X236500Y-345500D02*
D03*
X234000Y-350500D02*
D03*
X229000Y9500D02*
D03*
X231500Y4500D02*
D03*
X229000Y-500D02*
D03*
X231500Y-5500D02*
D03*
X229000Y-10500D02*
D03*
X231500Y-15500D02*
D03*
X229000Y-20500D02*
D03*
X231500Y-25500D02*
D03*
X229000Y-30500D02*
D03*
X231500Y-35500D02*
D03*
X229000Y-40500D02*
D03*
Y-50500D02*
D03*
X231500Y-55500D02*
D03*
Y-65500D02*
D03*
Y-85500D02*
D03*
X229000Y-90500D02*
D03*
X231500Y-95500D02*
D03*
X229000Y-100500D02*
D03*
X231500Y-105500D02*
D03*
X229000Y-110500D02*
D03*
Y-120500D02*
D03*
X231500Y-125500D02*
D03*
X229000Y-130500D02*
D03*
X231500Y-135500D02*
D03*
X229000Y-140500D02*
D03*
X231500Y-145500D02*
D03*
X229000Y-150500D02*
D03*
X231500Y-155500D02*
D03*
X229000Y-160500D02*
D03*
X231500Y-165500D02*
D03*
X229000Y-170500D02*
D03*
X231500Y-175500D02*
D03*
X229000Y-180500D02*
D03*
X231500Y-185500D02*
D03*
X229000Y-190500D02*
D03*
X231500Y-195500D02*
D03*
X229000Y-200500D02*
D03*
X231500Y-205500D02*
D03*
X229000Y-210500D02*
D03*
X231500Y-215500D02*
D03*
X229000Y-220500D02*
D03*
X231500Y-225500D02*
D03*
X229000Y-230500D02*
D03*
X231500Y-235500D02*
D03*
X229000Y-240500D02*
D03*
X231500Y-245500D02*
D03*
X229000Y-250500D02*
D03*
X231500Y-255500D02*
D03*
X229000Y-260500D02*
D03*
X231500Y-265500D02*
D03*
X229000Y-270500D02*
D03*
X231500Y-275500D02*
D03*
X229000Y-280500D02*
D03*
X231500Y-285500D02*
D03*
X229000Y-290500D02*
D03*
X231500Y-295500D02*
D03*
X229000Y-300500D02*
D03*
X231500Y-305500D02*
D03*
X229000Y-310500D02*
D03*
X231500Y-315500D02*
D03*
X229000Y-320500D02*
D03*
X231500Y-325500D02*
D03*
X229000Y-330500D02*
D03*
X231500Y-335500D02*
D03*
X229000Y-340500D02*
D03*
X231500Y-345500D02*
D03*
X229000Y-350500D02*
D03*
X224000Y-70500D02*
D03*
Y-80500D02*
D03*
X226500Y-85500D02*
D03*
X224000Y-90500D02*
D03*
X226500Y-105500D02*
D03*
X224000Y-110500D02*
D03*
Y-120500D02*
D03*
Y-130500D02*
D03*
Y-140500D02*
D03*
Y-150500D02*
D03*
Y-160500D02*
D03*
Y-170500D02*
D03*
Y-180500D02*
D03*
Y-190500D02*
D03*
X226500Y-205500D02*
D03*
X224000Y-210500D02*
D03*
X226500Y-215500D02*
D03*
X224000Y-220500D02*
D03*
X226500Y-225500D02*
D03*
X224000Y-230500D02*
D03*
X226500Y-235500D02*
D03*
X224000Y-240500D02*
D03*
X226500Y-245500D02*
D03*
X224000Y-250500D02*
D03*
X226500Y-255500D02*
D03*
X224000Y-260500D02*
D03*
X226500Y-265500D02*
D03*
X224000Y-270500D02*
D03*
X226500Y-275500D02*
D03*
X224000Y-280500D02*
D03*
X226500Y-285500D02*
D03*
X224000Y-290500D02*
D03*
X226500Y-295500D02*
D03*
X224000Y-300500D02*
D03*
X226500Y-305500D02*
D03*
X224000Y-310500D02*
D03*
X226500Y-315500D02*
D03*
X224000Y-320500D02*
D03*
X226500Y-325500D02*
D03*
X224000Y-330500D02*
D03*
X226500Y-335500D02*
D03*
X224000Y-340500D02*
D03*
X226500Y-345500D02*
D03*
X224000Y-350500D02*
D03*
X221500Y-45500D02*
D03*
Y-55500D02*
D03*
X219000Y-70500D02*
D03*
X221500Y-75500D02*
D03*
Y-95500D02*
D03*
X219000Y-100500D02*
D03*
X221500Y-105500D02*
D03*
X219000Y-110500D02*
D03*
X221500Y-115500D02*
D03*
X219000Y-120500D02*
D03*
X221500Y-125500D02*
D03*
X219000Y-130500D02*
D03*
X221500Y-135500D02*
D03*
X219000Y-140500D02*
D03*
X221500Y-145500D02*
D03*
X219000Y-150500D02*
D03*
X221500Y-155500D02*
D03*
X219000Y-160500D02*
D03*
X221500Y-165500D02*
D03*
X219000Y-170500D02*
D03*
X221500Y-175500D02*
D03*
X219000Y-180500D02*
D03*
X221500Y-185500D02*
D03*
X219000Y-190500D02*
D03*
X221500Y-195500D02*
D03*
Y-205500D02*
D03*
X219000Y-210500D02*
D03*
X221500Y-215500D02*
D03*
X219000Y-220500D02*
D03*
X221500Y-225500D02*
D03*
X219000Y-230500D02*
D03*
X221500Y-235500D02*
D03*
X219000Y-240500D02*
D03*
X221500Y-245500D02*
D03*
X219000Y-250500D02*
D03*
X221500Y-255500D02*
D03*
X219000Y-260500D02*
D03*
X221500Y-265500D02*
D03*
X219000Y-270500D02*
D03*
X221500Y-275500D02*
D03*
Y-285500D02*
D03*
Y-295500D02*
D03*
X219000Y-300500D02*
D03*
X221500Y-305500D02*
D03*
X219000Y-310500D02*
D03*
X221500Y-315500D02*
D03*
X219000Y-320500D02*
D03*
X221500Y-325500D02*
D03*
X219000Y-330500D02*
D03*
X221500Y-335500D02*
D03*
X219000Y-340500D02*
D03*
X221500Y-345500D02*
D03*
X219000Y-350500D02*
D03*
X216500Y-45500D02*
D03*
X214000Y-50500D02*
D03*
X216500Y-65500D02*
D03*
X214000Y-70500D02*
D03*
X216500Y-75500D02*
D03*
X214000Y-80500D02*
D03*
Y-90500D02*
D03*
X216500Y-95500D02*
D03*
X214000Y-100500D02*
D03*
X216500Y-115500D02*
D03*
X214000Y-120500D02*
D03*
X216500Y-125500D02*
D03*
X214000Y-130500D02*
D03*
X216500Y-135500D02*
D03*
X214000Y-140500D02*
D03*
X216500Y-145500D02*
D03*
X214000Y-150500D02*
D03*
Y-160500D02*
D03*
X216500Y-175500D02*
D03*
X214000Y-180500D02*
D03*
X216500Y-185500D02*
D03*
X214000Y-190500D02*
D03*
X216500Y-195500D02*
D03*
X214000Y-200500D02*
D03*
X216500Y-215500D02*
D03*
X214000Y-220500D02*
D03*
X216500Y-225500D02*
D03*
X214000Y-230500D02*
D03*
X216500Y-235500D02*
D03*
X214000Y-240500D02*
D03*
X216500Y-245500D02*
D03*
X214000Y-250500D02*
D03*
X216500Y-255500D02*
D03*
X214000Y-260500D02*
D03*
X216500Y-265500D02*
D03*
Y-305500D02*
D03*
X214000Y-310500D02*
D03*
X216500Y-315500D02*
D03*
X214000Y-320500D02*
D03*
X216500Y-325500D02*
D03*
X214000Y-330500D02*
D03*
X216500Y-335500D02*
D03*
X214000Y-340500D02*
D03*
X216500Y-345500D02*
D03*
X214000Y-350500D02*
D03*
X211500Y-45500D02*
D03*
X209000Y-50500D02*
D03*
X211500Y-55500D02*
D03*
Y-65500D02*
D03*
X209000Y-70500D02*
D03*
X211500Y-75500D02*
D03*
X209000Y-80500D02*
D03*
X211500Y-85500D02*
D03*
Y-105500D02*
D03*
X209000Y-110500D02*
D03*
X211500Y-115500D02*
D03*
X209000Y-120500D02*
D03*
X211500Y-125500D02*
D03*
X209000Y-130500D02*
D03*
X211500Y-135500D02*
D03*
X209000Y-140500D02*
D03*
X211500Y-145500D02*
D03*
X209000Y-150500D02*
D03*
Y-160500D02*
D03*
X211500Y-175500D02*
D03*
X209000Y-180500D02*
D03*
X211500Y-185500D02*
D03*
Y-195500D02*
D03*
X209000Y-200500D02*
D03*
X211500Y-205500D02*
D03*
Y-215500D02*
D03*
X209000Y-220500D02*
D03*
X211500Y-225500D02*
D03*
X209000Y-230500D02*
D03*
X211500Y-235500D02*
D03*
X209000Y-240500D02*
D03*
X211500Y-245500D02*
D03*
X209000Y-250500D02*
D03*
X211500Y-255500D02*
D03*
X209000Y-260500D02*
D03*
X211500Y-265500D02*
D03*
Y-305500D02*
D03*
X209000Y-310500D02*
D03*
X211500Y-315500D02*
D03*
Y-325500D02*
D03*
Y-335500D02*
D03*
X209000Y-340500D02*
D03*
X211500Y-345500D02*
D03*
X209000Y-350500D02*
D03*
X206500Y-45500D02*
D03*
Y-65500D02*
D03*
X204000Y-70500D02*
D03*
X206500Y-75500D02*
D03*
X204000Y-80500D02*
D03*
X206500Y-85500D02*
D03*
X204000Y-90500D02*
D03*
Y-100500D02*
D03*
X206500Y-105500D02*
D03*
X204000Y-110500D02*
D03*
X206500Y-125500D02*
D03*
X204000Y-130500D02*
D03*
X206500Y-135500D02*
D03*
X204000Y-140500D02*
D03*
X206500Y-145500D02*
D03*
X204000Y-150500D02*
D03*
X206500Y-175500D02*
D03*
X204000Y-180500D02*
D03*
X206500Y-195500D02*
D03*
X204000Y-200500D02*
D03*
X206500Y-205500D02*
D03*
X204000Y-210500D02*
D03*
X206500Y-225500D02*
D03*
X204000Y-230500D02*
D03*
X206500Y-235500D02*
D03*
X204000Y-240500D02*
D03*
X206500Y-245500D02*
D03*
Y-255500D02*
D03*
X204000Y-260500D02*
D03*
X206500Y-315500D02*
D03*
Y-335500D02*
D03*
X204000Y-340500D02*
D03*
X206500Y-345500D02*
D03*
X204000Y-350500D02*
D03*
X201500Y-45500D02*
D03*
X199000Y-70500D02*
D03*
X201500Y-75500D02*
D03*
X199000Y-80500D02*
D03*
X201500Y-85500D02*
D03*
X199000Y-90500D02*
D03*
X201500Y-95500D02*
D03*
Y-115500D02*
D03*
X199000Y-120500D02*
D03*
X201500Y-125500D02*
D03*
X199000Y-130500D02*
D03*
X201500Y-135500D02*
D03*
X199000Y-140500D02*
D03*
X201500Y-145500D02*
D03*
X199000Y-150500D02*
D03*
X201500Y-155500D02*
D03*
X199000Y-170500D02*
D03*
X201500Y-175500D02*
D03*
X199000Y-180500D02*
D03*
X201500Y-195500D02*
D03*
X199000Y-200500D02*
D03*
X201500Y-205500D02*
D03*
X199000Y-210500D02*
D03*
X201500Y-225500D02*
D03*
X199000Y-230500D02*
D03*
X201500Y-235500D02*
D03*
X199000Y-240500D02*
D03*
X201500Y-245500D02*
D03*
Y-315500D02*
D03*
X199000Y-330500D02*
D03*
X201500Y-335500D02*
D03*
X199000Y-340500D02*
D03*
X201500Y-345500D02*
D03*
X199000Y-350500D02*
D03*
X196500Y-45500D02*
D03*
X194000Y-50500D02*
D03*
X196500Y-55500D02*
D03*
X194000Y-60500D02*
D03*
X196500Y-65500D02*
D03*
X194000Y-70500D02*
D03*
X196500Y-75500D02*
D03*
X194000Y-80500D02*
D03*
X196500Y-85500D02*
D03*
X194000Y-90500D02*
D03*
X196500Y-95500D02*
D03*
X194000Y-100500D02*
D03*
X196500Y-115500D02*
D03*
X194000Y-120500D02*
D03*
X196500Y-135500D02*
D03*
X194000Y-140500D02*
D03*
X196500Y-145500D02*
D03*
X194000Y-150500D02*
D03*
Y-160500D02*
D03*
X196500Y-175500D02*
D03*
X194000Y-180500D02*
D03*
X196500Y-185500D02*
D03*
X194000Y-190500D02*
D03*
X196500Y-195500D02*
D03*
X194000Y-200500D02*
D03*
X196500Y-205500D02*
D03*
Y-235500D02*
D03*
X194000Y-240500D02*
D03*
X196500Y-325500D02*
D03*
X194000Y-330500D02*
D03*
X196500Y-335500D02*
D03*
X194000Y-340500D02*
D03*
X196500Y-345500D02*
D03*
X194000Y-350500D02*
D03*
X191500Y-115500D02*
D03*
X189000Y-120500D02*
D03*
X191500Y-125500D02*
D03*
X189000Y-130500D02*
D03*
X191500Y-135500D02*
D03*
X189000Y-140500D02*
D03*
X191500Y-145500D02*
D03*
X189000Y-150500D02*
D03*
Y-160500D02*
D03*
X191500Y-175500D02*
D03*
X189000Y-180500D02*
D03*
X191500Y-185500D02*
D03*
Y-195500D02*
D03*
X189000Y-200500D02*
D03*
X191500Y-205500D02*
D03*
X189000Y-210500D02*
D03*
Y-220500D02*
D03*
X191500Y-225500D02*
D03*
Y-235500D02*
D03*
X189000Y-240500D02*
D03*
X191500Y-325500D02*
D03*
X189000Y-330500D02*
D03*
X191500Y-335500D02*
D03*
X189000Y-340500D02*
D03*
X191500Y-345500D02*
D03*
X189000Y-350500D02*
D03*
X184000Y-120500D02*
D03*
X186500Y-125500D02*
D03*
X184000Y-130500D02*
D03*
Y-140500D02*
D03*
X186500Y-145500D02*
D03*
X184000Y-150500D02*
D03*
Y-160500D02*
D03*
Y-170500D02*
D03*
X186500Y-175500D02*
D03*
X184000Y-180500D02*
D03*
X186500Y-195500D02*
D03*
X184000Y-200500D02*
D03*
X186500Y-205500D02*
D03*
X184000Y-210500D02*
D03*
X186500Y-215500D02*
D03*
X184000Y-220500D02*
D03*
X186500Y-225500D02*
D03*
X184000Y-230500D02*
D03*
X186500Y-325500D02*
D03*
X184000Y-330500D02*
D03*
X186500Y-335500D02*
D03*
X184000Y-340500D02*
D03*
X186500Y-345500D02*
D03*
X184000Y-350500D02*
D03*
X179000Y-130500D02*
D03*
Y-140500D02*
D03*
X181500Y-145500D02*
D03*
X179000Y-150500D02*
D03*
X181500Y-155500D02*
D03*
X179000Y-170500D02*
D03*
X181500Y-175500D02*
D03*
X179000Y-180500D02*
D03*
X181500Y-195500D02*
D03*
X179000Y-200500D02*
D03*
X181500Y-205500D02*
D03*
X179000Y-210500D02*
D03*
X181500Y-215500D02*
D03*
X179000Y-220500D02*
D03*
X181500Y-225500D02*
D03*
X179000Y-230500D02*
D03*
X181500Y-235500D02*
D03*
Y-245500D02*
D03*
Y-325500D02*
D03*
X179000Y-330500D02*
D03*
X181500Y-335500D02*
D03*
X179000Y-340500D02*
D03*
X181500Y-345500D02*
D03*
X179000Y-350500D02*
D03*
X174000Y-130500D02*
D03*
Y-140500D02*
D03*
X176500Y-145500D02*
D03*
X174000Y-150500D02*
D03*
X176500Y-175500D02*
D03*
X174000Y-180500D02*
D03*
X176500Y-185500D02*
D03*
X174000Y-190500D02*
D03*
X176500Y-195500D02*
D03*
X174000Y-200500D02*
D03*
X176500Y-205500D02*
D03*
X174000Y-210500D02*
D03*
X176500Y-215500D02*
D03*
X174000Y-220500D02*
D03*
X176500Y-225500D02*
D03*
X174000Y-230500D02*
D03*
X176500Y-235500D02*
D03*
X174000Y-240500D02*
D03*
Y-250500D02*
D03*
X176500Y-325500D02*
D03*
X174000Y-330500D02*
D03*
X176500Y-335500D02*
D03*
X174000Y-340500D02*
D03*
X176500Y-345500D02*
D03*
X174000Y-350500D02*
D03*
X169000Y-120500D02*
D03*
X171500Y-125500D02*
D03*
X169000Y-130500D02*
D03*
Y-140500D02*
D03*
X171500Y-145500D02*
D03*
X169000Y-150500D02*
D03*
X171500Y-175500D02*
D03*
X169000Y-180500D02*
D03*
X171500Y-185500D02*
D03*
X169000Y-190500D02*
D03*
X171500Y-195500D02*
D03*
Y-235500D02*
D03*
X169000Y-240500D02*
D03*
X171500Y-245500D02*
D03*
Y-325500D02*
D03*
X169000Y-330500D02*
D03*
X171500Y-335500D02*
D03*
X169000Y-340500D02*
D03*
X171500Y-345500D02*
D03*
X169000Y-350500D02*
D03*
X164000Y-120500D02*
D03*
X166500Y-125500D02*
D03*
X164000Y-130500D02*
D03*
Y-140500D02*
D03*
X166500Y-145500D02*
D03*
X164000Y-150500D02*
D03*
X166500Y-175500D02*
D03*
X164000Y-180500D02*
D03*
X166500Y-185500D02*
D03*
Y-245500D02*
D03*
Y-325500D02*
D03*
X164000Y-330500D02*
D03*
X166500Y-335500D02*
D03*
X164000Y-340500D02*
D03*
X166500Y-345500D02*
D03*
X164000Y-350500D02*
D03*
X159000Y-120500D02*
D03*
X161500Y-125500D02*
D03*
X159000Y-130500D02*
D03*
X161500Y-135500D02*
D03*
Y-145500D02*
D03*
X159000Y-150500D02*
D03*
X161500Y-155500D02*
D03*
X159000Y-160500D02*
D03*
X161500Y-165500D02*
D03*
X159000Y-170500D02*
D03*
X161500Y-175500D02*
D03*
Y-185500D02*
D03*
Y-325500D02*
D03*
X159000Y-330500D02*
D03*
X161500Y-335500D02*
D03*
X159000Y-340500D02*
D03*
X161500Y-345500D02*
D03*
X159000Y-350500D02*
D03*
X156500Y-135500D02*
D03*
X154000Y-140500D02*
D03*
Y-150500D02*
D03*
X156500Y-155500D02*
D03*
X154000Y-160500D02*
D03*
X156500Y-165500D02*
D03*
X154000Y-170500D02*
D03*
X156500Y-175500D02*
D03*
Y-325500D02*
D03*
X154000Y-330500D02*
D03*
X156500Y-335500D02*
D03*
X154000Y-340500D02*
D03*
X156500Y-345500D02*
D03*
X154000Y-350500D02*
D03*
X151500Y-135500D02*
D03*
X149000Y-140500D02*
D03*
X151500Y-145500D02*
D03*
Y-155500D02*
D03*
X149000Y-160500D02*
D03*
X151500Y-165500D02*
D03*
X149000Y-170500D02*
D03*
X151500Y-325500D02*
D03*
Y-335500D02*
D03*
X149000Y-340500D02*
D03*
X151500Y-345500D02*
D03*
X149000Y-350500D02*
D03*
X144000Y-120500D02*
D03*
X146500Y-125500D02*
D03*
X144000Y-130500D02*
D03*
X146500Y-135500D02*
D03*
X144000Y-140500D02*
D03*
X146500Y-145500D02*
D03*
X144000Y-150500D02*
D03*
Y-160500D02*
D03*
X146500Y-165500D02*
D03*
X144000Y-170500D02*
D03*
X146500Y-175500D02*
D03*
Y-335500D02*
D03*
X144000Y-340500D02*
D03*
X146500Y-345500D02*
D03*
X144000Y-350500D02*
D03*
X139000Y-50500D02*
D03*
Y-60500D02*
D03*
Y-70500D02*
D03*
Y-80500D02*
D03*
Y-90500D02*
D03*
Y-100500D02*
D03*
X141500Y-125500D02*
D03*
X139000Y-130500D02*
D03*
X141500Y-135500D02*
D03*
X139000Y-140500D02*
D03*
X141500Y-145500D02*
D03*
X139000Y-150500D02*
D03*
X141500Y-155500D02*
D03*
Y-165500D02*
D03*
X139000Y-170500D02*
D03*
Y-320500D02*
D03*
Y-330500D02*
D03*
X141500Y-335500D02*
D03*
X139000Y-340500D02*
D03*
X141500Y-345500D02*
D03*
X139000Y-350500D02*
D03*
X136500Y-45500D02*
D03*
Y-55500D02*
D03*
Y-65500D02*
D03*
X134000Y-70500D02*
D03*
X136500Y-75500D02*
D03*
X134000Y-80500D02*
D03*
X136500Y-85500D02*
D03*
X134000Y-90500D02*
D03*
X136500Y-95500D02*
D03*
X134000Y-100500D02*
D03*
X136500Y-115500D02*
D03*
X134000Y-120500D02*
D03*
X136500Y-125500D02*
D03*
X134000Y-130500D02*
D03*
X136500Y-135500D02*
D03*
X134000Y-140500D02*
D03*
X136500Y-145500D02*
D03*
X134000Y-150500D02*
D03*
X136500Y-155500D02*
D03*
X134000Y-160500D02*
D03*
Y-170500D02*
D03*
Y-320500D02*
D03*
X136500Y-325500D02*
D03*
X134000Y-330500D02*
D03*
X136500Y-335500D02*
D03*
X134000Y-340500D02*
D03*
X136500Y-345500D02*
D03*
X134000Y-350500D02*
D03*
X131500Y-45500D02*
D03*
X129000Y-70500D02*
D03*
X131500Y-75500D02*
D03*
X129000Y-80500D02*
D03*
X131500Y-85500D02*
D03*
X129000Y-90500D02*
D03*
X131500Y-95500D02*
D03*
Y-105500D02*
D03*
Y-115500D02*
D03*
X129000Y-120500D02*
D03*
X131500Y-135500D02*
D03*
X129000Y-140500D02*
D03*
X131500Y-145500D02*
D03*
Y-155500D02*
D03*
Y-165500D02*
D03*
X129000Y-320500D02*
D03*
X131500Y-325500D02*
D03*
X129000Y-330500D02*
D03*
X131500Y-335500D02*
D03*
X129000Y-340500D02*
D03*
X131500Y-345500D02*
D03*
X129000Y-350500D02*
D03*
X126500Y-45500D02*
D03*
X124000Y-70500D02*
D03*
X126500Y-75500D02*
D03*
X124000Y-80500D02*
D03*
X126500Y-85500D02*
D03*
X124000Y-90500D02*
D03*
Y-100500D02*
D03*
X126500Y-105500D02*
D03*
Y-115500D02*
D03*
X124000Y-120500D02*
D03*
X126500Y-125500D02*
D03*
X124000Y-130500D02*
D03*
X126500Y-135500D02*
D03*
Y-145500D02*
D03*
X124000Y-150500D02*
D03*
X126500Y-155500D02*
D03*
X124000Y-160500D02*
D03*
X126500Y-315500D02*
D03*
X124000Y-320500D02*
D03*
X126500Y-325500D02*
D03*
X124000Y-330500D02*
D03*
X126500Y-335500D02*
D03*
X124000Y-340500D02*
D03*
Y-350500D02*
D03*
X121500Y-45500D02*
D03*
Y-55500D02*
D03*
X119000Y-90500D02*
D03*
X121500Y-95500D02*
D03*
X119000Y-100500D02*
D03*
X121500Y-105500D02*
D03*
Y-115500D02*
D03*
X119000Y-120500D02*
D03*
X121500Y-125500D02*
D03*
X119000Y-130500D02*
D03*
X121500Y-145500D02*
D03*
X119000Y-150500D02*
D03*
X121500Y-155500D02*
D03*
X119000Y-310500D02*
D03*
X121500Y-315500D02*
D03*
X119000Y-320500D02*
D03*
X121500Y-325500D02*
D03*
X119000Y-330500D02*
D03*
X121500Y-335500D02*
D03*
Y-345500D02*
D03*
X119000Y-350500D02*
D03*
X116500Y-45500D02*
D03*
X114000Y-60500D02*
D03*
X116500Y-85500D02*
D03*
X114000Y-90500D02*
D03*
X116500Y-95500D02*
D03*
X114000Y-100500D02*
D03*
X116500Y-105500D02*
D03*
Y-115500D02*
D03*
X114000Y-120500D02*
D03*
X116500Y-125500D02*
D03*
Y-145500D02*
D03*
X114000Y-150500D02*
D03*
X116500Y-155500D02*
D03*
Y-305500D02*
D03*
X114000Y-310500D02*
D03*
X116500Y-315500D02*
D03*
X114000Y-320500D02*
D03*
X116500Y-325500D02*
D03*
X114000Y-330500D02*
D03*
Y-340500D02*
D03*
X116500Y-345500D02*
D03*
X114000Y-350500D02*
D03*
X111500Y-45500D02*
D03*
Y-65500D02*
D03*
Y-85500D02*
D03*
X109000Y-90500D02*
D03*
X111500Y-95500D02*
D03*
X109000Y-100500D02*
D03*
X111500Y-105500D02*
D03*
Y-115500D02*
D03*
X109000Y-120500D02*
D03*
Y-150500D02*
D03*
X111500Y-155500D02*
D03*
X109000Y-300500D02*
D03*
X111500Y-305500D02*
D03*
Y-315500D02*
D03*
Y-325500D02*
D03*
Y-335500D02*
D03*
X109000Y-340500D02*
D03*
X111500Y-345500D02*
D03*
X109000Y-350500D02*
D03*
X106500Y-45500D02*
D03*
X104000Y-50500D02*
D03*
X106500Y-55500D02*
D03*
Y-85500D02*
D03*
X104000Y-90500D02*
D03*
X106500Y-95500D02*
D03*
X104000Y-100500D02*
D03*
X106500Y-105500D02*
D03*
Y-115500D02*
D03*
X104000Y-120500D02*
D03*
X106500Y-155500D02*
D03*
X104000Y-170500D02*
D03*
X106500Y-195500D02*
D03*
X104000Y-200500D02*
D03*
X106500Y-205500D02*
D03*
Y-215500D02*
D03*
X104000Y-220500D02*
D03*
X106500Y-225500D02*
D03*
X101500Y-45500D02*
D03*
X99000Y-50500D02*
D03*
X101500Y-55500D02*
D03*
Y-65500D02*
D03*
Y-75500D02*
D03*
Y-85500D02*
D03*
X99000Y-90500D02*
D03*
X101500Y-95500D02*
D03*
X99000Y-100500D02*
D03*
X101500Y-105500D02*
D03*
X99000Y-110500D02*
D03*
Y-120500D02*
D03*
X101500Y-125500D02*
D03*
X99000Y-150500D02*
D03*
Y-180500D02*
D03*
X101500Y-195500D02*
D03*
X99000Y-230500D02*
D03*
X101500Y-235500D02*
D03*
Y-245500D02*
D03*
X96500Y-45500D02*
D03*
X94000Y-50500D02*
D03*
X96500Y-85500D02*
D03*
X94000Y-90500D02*
D03*
X96500Y-95500D02*
D03*
X94000Y-100500D02*
D03*
X96500Y-105500D02*
D03*
X94000Y-110500D02*
D03*
X96500Y-115500D02*
D03*
X94000Y-120500D02*
D03*
Y-150500D02*
D03*
X96500Y-155500D02*
D03*
X94000Y-160500D02*
D03*
Y-170500D02*
D03*
Y-180500D02*
D03*
X96500Y-195500D02*
D03*
X94000Y-200500D02*
D03*
Y-210500D02*
D03*
Y-220500D02*
D03*
Y-230500D02*
D03*
X96500Y-245500D02*
D03*
X91500Y-45500D02*
D03*
X89000Y-50500D02*
D03*
X91500Y-55500D02*
D03*
X89000Y-60500D02*
D03*
X91500Y-65500D02*
D03*
Y-85500D02*
D03*
Y-95500D02*
D03*
X89000Y-100500D02*
D03*
X91500Y-105500D02*
D03*
X89000Y-110500D02*
D03*
X91500Y-115500D02*
D03*
X89000Y-120500D02*
D03*
X91500Y-175500D02*
D03*
X89000Y-190500D02*
D03*
X91500Y-195500D02*
D03*
X89000Y-200500D02*
D03*
X91500Y-205500D02*
D03*
X89000Y-210500D02*
D03*
X91500Y-215500D02*
D03*
X89000Y-220500D02*
D03*
X91500Y-225500D02*
D03*
X89000Y-230500D02*
D03*
X86500Y-45500D02*
D03*
X84000Y-50500D02*
D03*
X86500Y-95500D02*
D03*
X84000Y-100500D02*
D03*
X86500Y-105500D02*
D03*
X84000Y-110500D02*
D03*
X86500Y-115500D02*
D03*
X84000Y-120500D02*
D03*
X86500Y-125500D02*
D03*
X84000Y-130500D02*
D03*
Y-140500D02*
D03*
X86500Y-145500D02*
D03*
X84000Y-150500D02*
D03*
X86500Y-155500D02*
D03*
X84000Y-160500D02*
D03*
X86500Y-165500D02*
D03*
X84000Y-170500D02*
D03*
X86500Y-185500D02*
D03*
X84000Y-190500D02*
D03*
X86500Y-195500D02*
D03*
X84000Y-200500D02*
D03*
X86500Y-205500D02*
D03*
X84000Y-210500D02*
D03*
X86500Y-215500D02*
D03*
X84000Y-220500D02*
D03*
X86500Y-225500D02*
D03*
X84000Y-230500D02*
D03*
X81500Y-45500D02*
D03*
X79000Y-50500D02*
D03*
X81500Y-55500D02*
D03*
X79000Y-60500D02*
D03*
Y-90500D02*
D03*
X81500Y-95500D02*
D03*
X79000Y-100500D02*
D03*
X81500Y-105500D02*
D03*
X79000Y-110500D02*
D03*
X81500Y-115500D02*
D03*
X79000Y-120500D02*
D03*
X81500Y-125500D02*
D03*
X79000Y-130500D02*
D03*
Y-160500D02*
D03*
X81500Y-165500D02*
D03*
X79000Y-170500D02*
D03*
X81500Y-185500D02*
D03*
X79000Y-190500D02*
D03*
X81500Y-195500D02*
D03*
X79000Y-200500D02*
D03*
X81500Y-205500D02*
D03*
X79000Y-210500D02*
D03*
X81500Y-215500D02*
D03*
X79000Y-220500D02*
D03*
X81500Y-225500D02*
D03*
X79000Y-230500D02*
D03*
Y-290500D02*
D03*
X81500Y-295500D02*
D03*
X76500Y-45500D02*
D03*
X74000Y-50500D02*
D03*
X76500Y-55500D02*
D03*
Y-65500D02*
D03*
X74000Y-70500D02*
D03*
X76500Y-85500D02*
D03*
Y-95500D02*
D03*
Y-105500D02*
D03*
X74000Y-110500D02*
D03*
X76500Y-115500D02*
D03*
X74000Y-120500D02*
D03*
X76500Y-125500D02*
D03*
X74000Y-130500D02*
D03*
Y-140500D02*
D03*
X76500Y-145500D02*
D03*
X74000Y-150500D02*
D03*
X76500Y-155500D02*
D03*
X74000Y-160500D02*
D03*
X76500Y-165500D02*
D03*
X74000Y-170500D02*
D03*
X76500Y-185500D02*
D03*
X74000Y-190500D02*
D03*
X76500Y-195500D02*
D03*
Y-205500D02*
D03*
Y-215500D02*
D03*
Y-225500D02*
D03*
X74000Y-230500D02*
D03*
Y-240500D02*
D03*
X76500Y-245500D02*
D03*
X74000Y-290500D02*
D03*
Y-300500D02*
D03*
X71500Y-45500D02*
D03*
X69000Y-50500D02*
D03*
X71500Y-65500D02*
D03*
X69000Y-70500D02*
D03*
X71500Y-105500D02*
D03*
X69000Y-110500D02*
D03*
X71500Y-115500D02*
D03*
X69000Y-120500D02*
D03*
X71500Y-125500D02*
D03*
X69000Y-150500D02*
D03*
X71500Y-155500D02*
D03*
X69000Y-160500D02*
D03*
X71500Y-165500D02*
D03*
X69000Y-170500D02*
D03*
X71500Y-175500D02*
D03*
X69000Y-180500D02*
D03*
X71500Y-185500D02*
D03*
X69000Y-190500D02*
D03*
X71500Y-195500D02*
D03*
X69000Y-230500D02*
D03*
X71500Y-235500D02*
D03*
X69000Y-240500D02*
D03*
Y-250500D02*
D03*
Y-280500D02*
D03*
Y-300500D02*
D03*
X66500Y-45500D02*
D03*
X64000Y-50500D02*
D03*
X66500Y-55500D02*
D03*
X64000Y-60500D02*
D03*
X66500Y-65500D02*
D03*
X64000Y-70500D02*
D03*
Y-90500D02*
D03*
X66500Y-95500D02*
D03*
X64000Y-100500D02*
D03*
X66500Y-105500D02*
D03*
X64000Y-110500D02*
D03*
X66500Y-115500D02*
D03*
X64000Y-120500D02*
D03*
X66500Y-125500D02*
D03*
X64000Y-130500D02*
D03*
X66500Y-145500D02*
D03*
X64000Y-150500D02*
D03*
X66500Y-155500D02*
D03*
X64000Y-160500D02*
D03*
X66500Y-165500D02*
D03*
Y-175500D02*
D03*
Y-185500D02*
D03*
Y-195500D02*
D03*
Y-205500D02*
D03*
Y-215500D02*
D03*
Y-225500D02*
D03*
Y-235500D02*
D03*
Y-245500D02*
D03*
X64000Y-290500D02*
D03*
X66500Y-295500D02*
D03*
X64000Y-300500D02*
D03*
X61500Y-45500D02*
D03*
X59000Y-50500D02*
D03*
X61500Y-55500D02*
D03*
Y-65500D02*
D03*
X59000Y-90500D02*
D03*
X61500Y-105500D02*
D03*
X59000Y-110500D02*
D03*
X61500Y-115500D02*
D03*
X59000Y-130500D02*
D03*
X61500Y-145500D02*
D03*
Y-155500D02*
D03*
Y-165500D02*
D03*
Y-255500D02*
D03*
X59000Y-260500D02*
D03*
X61500Y-265500D02*
D03*
X59000Y-270500D02*
D03*
X61500Y-275500D02*
D03*
X59000Y-280500D02*
D03*
X61500Y-285500D02*
D03*
X59000Y-290500D02*
D03*
X61500Y-295500D02*
D03*
X59000Y-300500D02*
D03*
X56500Y-45500D02*
D03*
X54000Y-50500D02*
D03*
Y-90500D02*
D03*
Y-110500D02*
D03*
X56500Y-115500D02*
D03*
X54000Y-120500D02*
D03*
X56500Y-125500D02*
D03*
X54000Y-130500D02*
D03*
X56500Y-165500D02*
D03*
Y-255500D02*
D03*
X54000Y-260500D02*
D03*
X56500Y-265500D02*
D03*
X54000Y-270500D02*
D03*
X56500Y-275500D02*
D03*
X54000Y-280500D02*
D03*
X56500Y-285500D02*
D03*
X54000Y-290500D02*
D03*
X56500Y-295500D02*
D03*
X54000Y-300500D02*
D03*
X51500Y-45500D02*
D03*
X49000Y-50500D02*
D03*
Y-90500D02*
D03*
Y-100500D02*
D03*
X51500Y-105500D02*
D03*
X49000Y-120500D02*
D03*
X51500Y-125500D02*
D03*
X49000Y-130500D02*
D03*
X51500Y-165500D02*
D03*
Y-255500D02*
D03*
X49000Y-260500D02*
D03*
X51500Y-265500D02*
D03*
X49000Y-270500D02*
D03*
X51500Y-275500D02*
D03*
X49000Y-280500D02*
D03*
X51500Y-285500D02*
D03*
X49000Y-290500D02*
D03*
X51500Y-295500D02*
D03*
X49000Y-300500D02*
D03*
X46500Y-45500D02*
D03*
X44000Y-50500D02*
D03*
X46500Y-55500D02*
D03*
X44000Y-60500D02*
D03*
Y-70500D02*
D03*
Y-110500D02*
D03*
X46500Y-125500D02*
D03*
X44000Y-130500D02*
D03*
X46500Y-145500D02*
D03*
X44000Y-150500D02*
D03*
X46500Y-155500D02*
D03*
X44000Y-160500D02*
D03*
X46500Y-165500D02*
D03*
Y-255500D02*
D03*
Y-265500D02*
D03*
Y-275500D02*
D03*
X44000Y-280500D02*
D03*
X46500Y-285500D02*
D03*
X44000Y-290500D02*
D03*
X46500Y-295500D02*
D03*
X44000Y-300500D02*
D03*
X41500Y-45500D02*
D03*
X39000Y-50500D02*
D03*
X41500Y-55500D02*
D03*
X39000Y-60500D02*
D03*
X41500Y-65500D02*
D03*
X39000Y-70500D02*
D03*
Y-80500D02*
D03*
Y-90500D02*
D03*
Y-110500D02*
D03*
X41500Y-125500D02*
D03*
X39000Y-130500D02*
D03*
X41500Y-145500D02*
D03*
X39000Y-150500D02*
D03*
X41500Y-155500D02*
D03*
X39000Y-160500D02*
D03*
X41500Y-165500D02*
D03*
X39000Y-260500D02*
D03*
X41500Y-275500D02*
D03*
Y-285500D02*
D03*
Y-295500D02*
D03*
X36500Y-45500D02*
D03*
X34000Y-50500D02*
D03*
X36500Y-55500D02*
D03*
X34000Y-60500D02*
D03*
X36500Y-65500D02*
D03*
X34000Y-70500D02*
D03*
X36500Y-75500D02*
D03*
X34000Y-80500D02*
D03*
X36500Y-85500D02*
D03*
X34000Y-90500D02*
D03*
Y-100500D02*
D03*
Y-120500D02*
D03*
X36500Y-125500D02*
D03*
X34000Y-130500D02*
D03*
X36500Y-145500D02*
D03*
X34000Y-150500D02*
D03*
X36500Y-155500D02*
D03*
Y-165500D02*
D03*
Y-255500D02*
D03*
X34000Y-260500D02*
D03*
X36500Y-265500D02*
D03*
X34000Y-270500D02*
D03*
Y-280500D02*
D03*
Y-290500D02*
D03*
Y-300500D02*
D03*
X31500Y-45500D02*
D03*
X29000Y-50500D02*
D03*
X31500Y-55500D02*
D03*
X29000Y-100500D02*
D03*
Y-120500D02*
D03*
X31500Y-125500D02*
D03*
X29000Y-130500D02*
D03*
X31500Y-145500D02*
D03*
Y-165500D02*
D03*
Y-255500D02*
D03*
X29000Y-260500D02*
D03*
X31500Y-265500D02*
D03*
X29000Y-270500D02*
D03*
X31500Y-275500D02*
D03*
X29000Y-280500D02*
D03*
X31500Y-285500D02*
D03*
X29000Y-290500D02*
D03*
X31500Y-295500D02*
D03*
X26500Y-45500D02*
D03*
X24000Y-50500D02*
D03*
Y-70500D02*
D03*
Y-90500D02*
D03*
X26500Y-95500D02*
D03*
X24000Y-100500D02*
D03*
X26500Y-105500D02*
D03*
X24000Y-110500D02*
D03*
Y-120500D02*
D03*
X26500Y-125500D02*
D03*
X24000Y-130500D02*
D03*
Y-150500D02*
D03*
X26500Y-165500D02*
D03*
Y-255500D02*
D03*
X24000Y-260500D02*
D03*
X26500Y-265500D02*
D03*
X24000Y-270500D02*
D03*
X26500Y-275500D02*
D03*
X24000Y-280500D02*
D03*
X26500Y-285500D02*
D03*
X24000Y-290500D02*
D03*
X19000Y9500D02*
D03*
X21500Y4500D02*
D03*
X19000Y-500D02*
D03*
X21500Y-5500D02*
D03*
Y-15500D02*
D03*
Y-25500D02*
D03*
Y-35500D02*
D03*
Y-45500D02*
D03*
Y-55500D02*
D03*
Y-65500D02*
D03*
Y-75500D02*
D03*
X19000Y-90500D02*
D03*
X21500Y-95500D02*
D03*
X19000Y-100500D02*
D03*
X21500Y-105500D02*
D03*
X19000Y-110500D02*
D03*
X21500Y-115500D02*
D03*
X19000Y-120500D02*
D03*
X21500Y-125500D02*
D03*
X19000Y-130500D02*
D03*
X21500Y-145500D02*
D03*
X19000Y-150500D02*
D03*
X21500Y-155500D02*
D03*
X19000Y-160500D02*
D03*
X21500Y-165500D02*
D03*
Y-255500D02*
D03*
X19000Y-260500D02*
D03*
X21500Y-265500D02*
D03*
X19000Y-270500D02*
D03*
X21500Y-275500D02*
D03*
X19000Y-280500D02*
D03*
X21500Y-285500D02*
D03*
X19000Y-290500D02*
D03*
X21500Y-295500D02*
D03*
X19000Y-300500D02*
D03*
X14000Y9500D02*
D03*
X16500Y4500D02*
D03*
Y-15500D02*
D03*
Y-25500D02*
D03*
Y-35500D02*
D03*
Y-45500D02*
D03*
Y-55500D02*
D03*
Y-65500D02*
D03*
Y-75500D02*
D03*
Y-85500D02*
D03*
Y-95500D02*
D03*
Y-105500D02*
D03*
Y-115500D02*
D03*
Y-125500D02*
D03*
Y-155500D02*
D03*
Y-165500D02*
D03*
Y-175500D02*
D03*
Y-185500D02*
D03*
Y-195500D02*
D03*
Y-205500D02*
D03*
Y-215500D02*
D03*
Y-225500D02*
D03*
Y-235500D02*
D03*
Y-245500D02*
D03*
Y-255500D02*
D03*
Y-265500D02*
D03*
Y-275500D02*
D03*
Y-285500D02*
D03*
Y-295500D02*
D03*
X9000Y9500D02*
D03*
X11500Y4500D02*
D03*
Y-15500D02*
D03*
Y-25500D02*
D03*
Y-35500D02*
D03*
Y-45500D02*
D03*
Y-55500D02*
D03*
Y-65500D02*
D03*
Y-75500D02*
D03*
Y-85500D02*
D03*
Y-95500D02*
D03*
Y-105500D02*
D03*
Y-115500D02*
D03*
Y-125500D02*
D03*
Y-145500D02*
D03*
Y-155500D02*
D03*
Y-165500D02*
D03*
Y-175500D02*
D03*
Y-185500D02*
D03*
Y-195500D02*
D03*
Y-205500D02*
D03*
Y-215500D02*
D03*
Y-225500D02*
D03*
Y-235500D02*
D03*
Y-245500D02*
D03*
Y-255500D02*
D03*
Y-265500D02*
D03*
Y-275500D02*
D03*
Y-285500D02*
D03*
Y-295500D02*
D03*
X4000Y9500D02*
D03*
X6500Y4500D02*
D03*
Y-145500D02*
D03*
Y-155500D02*
D03*
Y-165500D02*
D03*
Y-175500D02*
D03*
Y-185500D02*
D03*
Y-195500D02*
D03*
Y-205500D02*
D03*
Y-215500D02*
D03*
Y-225500D02*
D03*
Y-235500D02*
D03*
Y-245500D02*
D03*
Y-255500D02*
D03*
Y-265500D02*
D03*
Y-275500D02*
D03*
Y-285500D02*
D03*
Y-295500D02*
D03*
X-1000Y9500D02*
D03*
X1500Y4500D02*
D03*
Y-5500D02*
D03*
Y-15500D02*
D03*
Y-25500D02*
D03*
Y-35500D02*
D03*
Y-45500D02*
D03*
Y-55500D02*
D03*
Y-65500D02*
D03*
Y-75500D02*
D03*
Y-85500D02*
D03*
Y-95500D02*
D03*
Y-105500D02*
D03*
Y-115500D02*
D03*
Y-125500D02*
D03*
Y-135500D02*
D03*
Y-145500D02*
D03*
Y-155500D02*
D03*
Y-165500D02*
D03*
Y-175500D02*
D03*
Y-185500D02*
D03*
Y-195500D02*
D03*
Y-205500D02*
D03*
Y-215500D02*
D03*
Y-225500D02*
D03*
Y-235500D02*
D03*
Y-245500D02*
D03*
Y-255500D02*
D03*
Y-265500D02*
D03*
Y-275500D02*
D03*
Y-285500D02*
D03*
Y-295500D02*
D03*
X-6000Y9500D02*
D03*
X-3500Y4500D02*
D03*
X-6000Y-500D02*
D03*
X-3500Y-5500D02*
D03*
X-6000Y-10500D02*
D03*
X-3500Y-15500D02*
D03*
X-6000Y-20500D02*
D03*
X-3500Y-25500D02*
D03*
X-6000Y-30500D02*
D03*
X-3500Y-35500D02*
D03*
X-6000Y-40500D02*
D03*
X-3500Y-45500D02*
D03*
X-6000Y-50500D02*
D03*
X-3500Y-55500D02*
D03*
X-6000Y-60500D02*
D03*
X-3500Y-65500D02*
D03*
X-6000Y-70500D02*
D03*
X-3500Y-75500D02*
D03*
X-6000Y-80500D02*
D03*
X-3500Y-85500D02*
D03*
X-6000Y-90500D02*
D03*
X-3500Y-95500D02*
D03*
X-6000Y-100500D02*
D03*
X-3500Y-105500D02*
D03*
X-6000Y-110500D02*
D03*
X-3500Y-115500D02*
D03*
X-6000Y-120500D02*
D03*
X-3500Y-125500D02*
D03*
X-6000Y-130500D02*
D03*
X-3500Y-135500D02*
D03*
X-6000Y-140500D02*
D03*
X-3500Y-145500D02*
D03*
X-6000Y-150500D02*
D03*
X-3500Y-155500D02*
D03*
X-6000Y-160500D02*
D03*
X-3500Y-165500D02*
D03*
X-6000Y-170500D02*
D03*
X-3500Y-175500D02*
D03*
X-6000Y-180500D02*
D03*
X-3500Y-185500D02*
D03*
X-6000Y-190500D02*
D03*
X-3500Y-195500D02*
D03*
X-6000Y-200500D02*
D03*
X-3500Y-205500D02*
D03*
X-6000Y-210500D02*
D03*
X-3500Y-215500D02*
D03*
X-6000Y-220500D02*
D03*
X-3500Y-225500D02*
D03*
X-6000Y-230500D02*
D03*
X-3500Y-235500D02*
D03*
X-6000Y-240500D02*
D03*
X-3500Y-245500D02*
D03*
X-6000Y-250500D02*
D03*
X-3500Y-255500D02*
D03*
X-6000Y-260500D02*
D03*
X-3500Y-265500D02*
D03*
X-6000Y-270500D02*
D03*
X-3500Y-275500D02*
D03*
X-6000Y-280500D02*
D03*
X-3500Y-285500D02*
D03*
X-6000Y-290500D02*
D03*
X-3500Y-295500D02*
D03*
X-6000Y-300500D02*
D03*
X113400Y-125600D02*
D03*
X109700D02*
D03*
X106000D02*
D03*
X92800Y-125700D02*
D03*
X148200Y-189100D02*
D03*
X101800Y-254106D02*
D03*
X109700Y-147200D02*
D03*
X92800Y-144900D02*
D03*
X113500Y-144800D02*
D03*
X96600D02*
D03*
X162662Y-248951D02*
D03*
X160725Y-250902D02*
D03*
X164600Y-247000D02*
D03*
X158787Y-252853D02*
D03*
X156850Y-254804D02*
D03*
X151037Y-260657D02*
D03*
X154912Y-256755D02*
D03*
X152974Y-258706D02*
D03*
D70*
X103000Y-212500D02*
D03*
X149300Y-191091D02*
D03*
X148293Y-193059D02*
D03*
X110700Y-191204D02*
D03*
X76142Y-281800D02*
D03*
X205817Y-283178D02*
D03*
X68400Y-271990D02*
D03*
Y-275927D02*
D03*
Y-264116D02*
D03*
Y-268053D02*
D03*
Y-256242D02*
D03*
Y-260179D02*
D03*
X72657Y-248682D02*
D03*
X87000Y-248300D02*
D03*
X101800Y-272000D02*
D03*
X97200Y-249000D02*
D03*
X110700Y-198965D02*
D03*
Y-202902D02*
D03*
X111707Y-200933D02*
D03*
X110700Y-195028D02*
D03*
X111707Y-193059D02*
D03*
Y-196996D02*
D03*
X177200Y-259800D02*
D03*
X192400D02*
D03*
X200500Y-259900D02*
D03*
X173200Y-283290D02*
D03*
X206100Y-279353D02*
D03*
X93000Y-248300D02*
D03*
X80079Y-248500D02*
D03*
X197400Y-259400D02*
D03*
X184700Y-259900D02*
D03*
X131030Y-173018D02*
D03*
X206100Y-275416D02*
D03*
X139275Y-272498D02*
D03*
X173200Y-271479D02*
D03*
X148293Y-200933D02*
D03*
X101800Y-275927D02*
D03*
X173200Y-275416D02*
D03*
X190613Y-292834D02*
D03*
X148963Y-262743D02*
D03*
X80100Y-281800D02*
D03*
X173319Y-267542D02*
D03*
X149300Y-202900D02*
D03*
X101800Y-268053D02*
D03*
X83856Y-281800D02*
D03*
X206100Y-267542D02*
D03*
X135400Y-276400D02*
D03*
X173200Y-279353D02*
D03*
X148293Y-204870D02*
D03*
X101800Y-264116D02*
D03*
X149300Y-195028D02*
D03*
X85984Y-281800D02*
D03*
X173200Y-287227D02*
D03*
X141213Y-270547D02*
D03*
X149300Y-206839D02*
D03*
X101800Y-260179D02*
D03*
X148293Y-196996D02*
D03*
X89921Y-281800D02*
D03*
X145088Y-266645D02*
D03*
X198500Y-292800D02*
D03*
X134967Y-175100D02*
D03*
X188485Y-292834D02*
D03*
X194550Y-292800D02*
D03*
X147026Y-264694D02*
D03*
X180800Y-292800D02*
D03*
X184800D02*
D03*
X206100Y-287227D02*
D03*
X143150Y-268596D02*
D03*
X149300Y-198965D02*
D03*
X93858Y-281800D02*
D03*
X206100Y-271479D02*
D03*
X137338Y-274449D02*
D03*
D71*
X181800Y-249200D02*
D03*
Y-252700D02*
D03*
X158109Y-184013D02*
D03*
Y-180513D02*
D03*
X102000Y-178500D02*
D03*
X105700Y-162900D02*
D03*
X77300Y-237600D02*
D03*
X97600Y-237500D02*
D03*
X201513Y-249002D02*
D03*
X124996Y-164400D02*
D03*
X125404Y-51100D02*
D03*
X138900Y-174300D02*
D03*
X207488Y-56212D02*
D03*
X102144Y-181997D02*
D03*
X125404Y-66100D02*
D03*
X124996Y-168097D02*
D03*
X97600Y-241000D02*
D03*
X201400Y-252500D02*
D03*
X77300Y-241100D02*
D03*
X174000Y-66200D02*
D03*
X174100Y-51300D02*
D03*
X158200Y-56100D02*
D03*
D72*
X26100Y-299800D02*
D03*
X28500Y-149100D02*
D03*
X30310Y-115596D02*
D03*
X57000Y-104700D02*
D03*
X70750Y-98550D02*
D03*
X85100Y-91000D02*
D03*
X79200Y-70700D02*
D03*
X106200Y-66799D02*
D03*
X178200Y-165100D02*
D03*
X178000Y-125900D02*
D03*
X201100Y-165500D02*
D03*
Y-160000D02*
D03*
X178100Y-159600D02*
D03*
X115300Y-66799D02*
D03*
X106100Y-61300D02*
D03*
X153000Y-125900D02*
D03*
X30184Y-110097D02*
D03*
X53300Y-149100D02*
D03*
X44700Y-313308D02*
D03*
X33800Y-204300D02*
D03*
X25800D02*
D03*
X54700Y-205300D02*
D03*
X45300D02*
D03*
X53383Y-194900D02*
D03*
X28600Y-195000D02*
D03*
X26300Y-246100D02*
D03*
X50300Y-242500D02*
D03*
X153100Y-80200D02*
D03*
X177902D02*
D03*
M02*
