G04*
G04 #@! TF.GenerationSoftware,Altium Limited,Altium Designer,26.7.1 (11)*
G04*
G04 Layer_Physical_Order=4*
G04 Layer_Color=16711680*
G04 Board_Origin=22600000|47050000*
%FSLAX25Y25*%
%MOIN*%
G70*
G04*
G04 #@! TF.SameCoordinates,1440CDCE-C3DE-49C4-9650-C7B8FDE588B4*
G04*
G04*
G04 #@! TF.FilePolarity,Positive*
G04*
G01*
G75*
%ADD14C,0.01000*%
%ADD75C,0.00800*%
%ADD77C,0.01500*%
%ADD78C,0.01407*%
%ADD100C,0.09449*%
%ADD101R,0.05472X0.05472*%
%ADD102C,0.05472*%
%ADD103C,0.12953*%
%ADD104C,0.07402*%
%ADD105C,0.01772*%
%ADD106C,0.01500*%
%ADD107C,0.03000*%
%ADD108C,0.05000*%
G36*
X255135Y12878D02*
X256520Y12603D01*
X257825Y12062D01*
X258999Y11278D01*
X259998Y10279D01*
X260783Y9105D01*
X261323Y7800D01*
X261599Y6415D01*
X261599Y5709D01*
X261599Y-345177D01*
X261599Y-345912D01*
X261312Y-347355D01*
X260749Y-348713D01*
X259932Y-349936D01*
X258892Y-350976D01*
X257670Y-351793D01*
X256311Y-352355D01*
X254869Y-352642D01*
X254134Y-352642D01*
X104609D01*
Y-305346D01*
X84367D01*
Y-305225D01*
X84278Y-304776D01*
X84023Y-304396D01*
X72373Y-292745D01*
Y-279386D01*
X96480Y-255278D01*
X101013D01*
X101015Y-255281D01*
X101524Y-255492D01*
X102076D01*
X102585Y-255281D01*
X102975Y-254891D01*
X103186Y-254382D01*
Y-253830D01*
X102975Y-253321D01*
X102585Y-252931D01*
X102076Y-252720D01*
X101524D01*
X101015Y-252931D01*
X101013Y-252933D01*
X95994D01*
X95545Y-253023D01*
X95165Y-253277D01*
X70371Y-278071D01*
X70117Y-278451D01*
X70028Y-278900D01*
Y-293230D01*
X70117Y-293679D01*
X70371Y-294059D01*
X81288Y-304977D01*
X81135Y-305346D01*
X-11697D01*
Y6004D01*
X-11698Y6007D01*
X-11697Y6009D01*
X-11702Y6681D01*
X-11448Y8002D01*
X-10941Y9247D01*
X-10202Y10370D01*
X-9257Y11327D01*
X-8144Y12081D01*
X-6905Y12603D01*
X-5588Y12874D01*
X-4919Y12878D01*
X25100D01*
Y-42600D01*
X141600D01*
Y-102600D01*
X190100D01*
Y-43200D01*
X190600Y-42700D01*
X224800D01*
X225000Y-42500D01*
Y12878D01*
X254429D01*
X255135Y12878D01*
D02*
G37*
G36*
X83963Y-320739D02*
X84018Y-321031D01*
X84110Y-321331D01*
X84239Y-321639D01*
X84404Y-321955D01*
X84607Y-322279D01*
X84846Y-322611D01*
X85122Y-322952D01*
X85785Y-323657D01*
X80604D01*
X80954Y-323300D01*
X81542Y-322611D01*
X81782Y-322279D01*
X81984Y-321955D01*
X82150Y-321639D01*
X82279Y-321331D01*
X82371Y-321031D01*
X82426Y-320739D01*
X82444Y-320456D01*
X83944D01*
X83963Y-320739D01*
D02*
G37*
%LPC*%
G36*
X10413Y3136D02*
X9587D01*
X8789Y2922D01*
X8074Y2510D01*
X7490Y1926D01*
X7078Y1211D01*
X6864Y413D01*
Y-413D01*
X7078Y-1211D01*
X7490Y-1926D01*
X8074Y-2510D01*
X8789Y-2922D01*
X9587Y-3136D01*
X10413D01*
X11210Y-2922D01*
X11926Y-2510D01*
X12510Y-1926D01*
X12923Y-1211D01*
X13136Y-413D01*
Y413D01*
X12923Y1211D01*
X12510Y1926D01*
X11926Y2510D01*
X11210Y2922D01*
X10413Y3136D01*
D02*
G37*
G36*
X250413Y3038D02*
X249587D01*
X248790Y2824D01*
X248074Y2411D01*
X247490Y1827D01*
X247077Y1112D01*
X246864Y314D01*
Y-511D01*
X247077Y-1309D01*
X247490Y-2024D01*
X248074Y-2608D01*
X248790Y-3021D01*
X249587Y-3235D01*
X250413D01*
X251210Y-3021D01*
X251926Y-2608D01*
X252510Y-2024D01*
X252923Y-1309D01*
X253136Y-511D01*
Y314D01*
X252923Y1112D01*
X252510Y1827D01*
X251926Y2411D01*
X251210Y2824D01*
X250413Y3038D01*
D02*
G37*
G36*
X243136D02*
X236864D01*
Y-3235D01*
X243136D01*
Y3038D01*
D02*
G37*
G36*
X10413Y-6864D02*
X9587D01*
X8789Y-7078D01*
X8074Y-7490D01*
X7490Y-8074D01*
X7078Y-8789D01*
X6864Y-9587D01*
Y-10413D01*
X7078Y-11210D01*
X7490Y-11926D01*
X8074Y-12510D01*
X8789Y-12923D01*
X9587Y-13136D01*
X10413D01*
X11210Y-12923D01*
X11926Y-12510D01*
X12510Y-11926D01*
X12923Y-11210D01*
X13136Y-10413D01*
Y-9587D01*
X12923Y-8789D01*
X12510Y-8074D01*
X11926Y-7490D01*
X11210Y-7078D01*
X10413Y-6864D01*
D02*
G37*
G36*
X413D02*
X-413D01*
X-1211Y-7078D01*
X-1926Y-7490D01*
X-2510Y-8074D01*
X-2922Y-8789D01*
X-3136Y-9587D01*
Y-10413D01*
X-2922Y-11210D01*
X-2510Y-11926D01*
X-1926Y-12510D01*
X-1211Y-12923D01*
X-413Y-13136D01*
X413D01*
X1211Y-12923D01*
X1926Y-12510D01*
X2510Y-11926D01*
X2922Y-11210D01*
X3136Y-10413D01*
Y-9587D01*
X2922Y-8789D01*
X2510Y-8074D01*
X1926Y-7490D01*
X1211Y-7078D01*
X413Y-6864D01*
D02*
G37*
G36*
X250413Y-6962D02*
X249587D01*
X248790Y-7176D01*
X248074Y-7589D01*
X247490Y-8173D01*
X247077Y-8888D01*
X246864Y-9685D01*
Y-10511D01*
X247077Y-11309D01*
X247490Y-12024D01*
X248074Y-12608D01*
X248790Y-13021D01*
X249587Y-13235D01*
X250413D01*
X251210Y-13021D01*
X251926Y-12608D01*
X252510Y-12024D01*
X252923Y-11309D01*
X253136Y-10511D01*
Y-9685D01*
X252923Y-8888D01*
X252510Y-8173D01*
X251926Y-7589D01*
X251210Y-7176D01*
X250413Y-6962D01*
D02*
G37*
G36*
X240413D02*
X239587D01*
X238790Y-7176D01*
X238074Y-7589D01*
X237490Y-8173D01*
X237077Y-8888D01*
X236864Y-9685D01*
Y-10511D01*
X237077Y-11309D01*
X237490Y-12024D01*
X238074Y-12608D01*
X238790Y-13021D01*
X239587Y-13235D01*
X240413D01*
X241211Y-13021D01*
X241926Y-12608D01*
X242510Y-12024D01*
X242922Y-11309D01*
X243136Y-10511D01*
Y-9685D01*
X242922Y-8888D01*
X242510Y-8173D01*
X241926Y-7589D01*
X241211Y-7176D01*
X240413Y-6962D01*
D02*
G37*
G36*
X10413Y-16864D02*
X9587D01*
X8789Y-17077D01*
X8074Y-17490D01*
X7490Y-18074D01*
X7078Y-18789D01*
X6864Y-19587D01*
Y-20413D01*
X7078Y-21211D01*
X7490Y-21926D01*
X8074Y-22510D01*
X8789Y-22922D01*
X9587Y-23136D01*
X10413D01*
X11210Y-22922D01*
X11926Y-22510D01*
X12510Y-21926D01*
X12923Y-21211D01*
X13136Y-20413D01*
Y-19587D01*
X12923Y-18789D01*
X12510Y-18074D01*
X11926Y-17490D01*
X11210Y-17077D01*
X10413Y-16864D01*
D02*
G37*
G36*
X413D02*
X-413D01*
X-1211Y-17077D01*
X-1926Y-17490D01*
X-2510Y-18074D01*
X-2922Y-18789D01*
X-3136Y-19587D01*
Y-20413D01*
X-2922Y-21211D01*
X-2510Y-21926D01*
X-1926Y-22510D01*
X-1211Y-22922D01*
X-413Y-23136D01*
X413D01*
X1211Y-22922D01*
X1926Y-22510D01*
X2510Y-21926D01*
X2922Y-21211D01*
X3136Y-20413D01*
Y-19587D01*
X2922Y-18789D01*
X2510Y-18074D01*
X1926Y-17490D01*
X1211Y-17077D01*
X413Y-16864D01*
D02*
G37*
G36*
X250413Y-16962D02*
X249587D01*
X248790Y-17176D01*
X248074Y-17589D01*
X247490Y-18173D01*
X247077Y-18888D01*
X246864Y-19685D01*
Y-20511D01*
X247077Y-21309D01*
X247490Y-22024D01*
X248074Y-22608D01*
X248790Y-23021D01*
X249587Y-23235D01*
X250413D01*
X251210Y-23021D01*
X251926Y-22608D01*
X252510Y-22024D01*
X252923Y-21309D01*
X253136Y-20511D01*
Y-19685D01*
X252923Y-18888D01*
X252510Y-18173D01*
X251926Y-17589D01*
X251210Y-17176D01*
X250413Y-16962D01*
D02*
G37*
G36*
X240413D02*
X239587D01*
X238790Y-17176D01*
X238074Y-17589D01*
X237490Y-18173D01*
X237077Y-18888D01*
X236864Y-19685D01*
Y-20511D01*
X237077Y-21309D01*
X237490Y-22024D01*
X238074Y-22608D01*
X238790Y-23021D01*
X239587Y-23235D01*
X240413D01*
X241211Y-23021D01*
X241926Y-22608D01*
X242510Y-22024D01*
X242922Y-21309D01*
X243136Y-20511D01*
Y-19685D01*
X242922Y-18888D01*
X242510Y-18173D01*
X241926Y-17589D01*
X241211Y-17176D01*
X240413Y-16962D01*
D02*
G37*
G36*
X10413Y-26864D02*
X10200D01*
Y-29800D01*
X13136D01*
Y-29587D01*
X12923Y-28789D01*
X12510Y-28074D01*
X11926Y-27490D01*
X11210Y-27077D01*
X10413Y-26864D01*
D02*
G37*
G36*
X9800D02*
X9587D01*
X8789Y-27077D01*
X8074Y-27490D01*
X7490Y-28074D01*
X7078Y-28789D01*
X6864Y-29587D01*
Y-29800D01*
X9800D01*
Y-26864D01*
D02*
G37*
G36*
X13136Y-30200D02*
X10200D01*
Y-33136D01*
X10413D01*
X11210Y-32923D01*
X11926Y-32510D01*
X12510Y-31926D01*
X12923Y-31211D01*
X13136Y-30413D01*
Y-30200D01*
D02*
G37*
G36*
X9800D02*
X6864D01*
Y-30413D01*
X7078Y-31211D01*
X7490Y-31926D01*
X8074Y-32510D01*
X8789Y-32923D01*
X9587Y-33136D01*
X9800D01*
Y-30200D01*
D02*
G37*
G36*
X413Y-26864D02*
X-413D01*
X-1211Y-27077D01*
X-1926Y-27490D01*
X-2510Y-28074D01*
X-2922Y-28789D01*
X-3136Y-29587D01*
Y-30413D01*
X-2922Y-31211D01*
X-2510Y-31926D01*
X-1926Y-32510D01*
X-1211Y-32923D01*
X-413Y-33136D01*
X413D01*
X1211Y-32923D01*
X1926Y-32510D01*
X2510Y-31926D01*
X2922Y-31211D01*
X3136Y-30413D01*
Y-29587D01*
X2922Y-28789D01*
X2510Y-28074D01*
X1926Y-27490D01*
X1211Y-27077D01*
X413Y-26864D01*
D02*
G37*
G36*
X250413Y-26962D02*
X249587D01*
X248790Y-27176D01*
X248074Y-27589D01*
X247490Y-28173D01*
X247077Y-28888D01*
X246864Y-29686D01*
Y-30511D01*
X247077Y-31309D01*
X247490Y-32024D01*
X248074Y-32608D01*
X248790Y-33021D01*
X249587Y-33235D01*
X250413D01*
X251210Y-33021D01*
X251926Y-32608D01*
X252510Y-32024D01*
X252923Y-31309D01*
X253136Y-30511D01*
Y-29686D01*
X252923Y-28888D01*
X252510Y-28173D01*
X251926Y-27589D01*
X251210Y-27176D01*
X250413Y-26962D01*
D02*
G37*
G36*
X240413D02*
X239587D01*
X238790Y-27176D01*
X238074Y-27589D01*
X237490Y-28173D01*
X237077Y-28888D01*
X236864Y-29686D01*
Y-30511D01*
X237077Y-31309D01*
X237490Y-32024D01*
X238074Y-32608D01*
X238790Y-33021D01*
X239587Y-33235D01*
X240413D01*
X241211Y-33021D01*
X241926Y-32608D01*
X242510Y-32024D01*
X242922Y-31309D01*
X243136Y-30511D01*
Y-29686D01*
X242922Y-28888D01*
X242510Y-28173D01*
X241926Y-27589D01*
X241211Y-27176D01*
X240413Y-26962D01*
D02*
G37*
G36*
Y-36962D02*
X240200D01*
Y-39898D01*
X243136D01*
Y-39685D01*
X242922Y-38888D01*
X242510Y-38173D01*
X241926Y-37589D01*
X241211Y-37176D01*
X240413Y-36962D01*
D02*
G37*
G36*
X239800D02*
X239587D01*
X238790Y-37176D01*
X238074Y-37589D01*
X237490Y-38173D01*
X237077Y-38888D01*
X236864Y-39685D01*
Y-39898D01*
X239800D01*
Y-36962D01*
D02*
G37*
G36*
X10413Y-36864D02*
X9587D01*
X8789Y-37078D01*
X8074Y-37490D01*
X7490Y-38074D01*
X7078Y-38789D01*
X6864Y-39587D01*
Y-40413D01*
X7078Y-41210D01*
X7490Y-41926D01*
X8074Y-42510D01*
X8789Y-42922D01*
X9587Y-43136D01*
X10413D01*
X11210Y-42922D01*
X11926Y-42510D01*
X12510Y-41926D01*
X12923Y-41210D01*
X13136Y-40413D01*
Y-39587D01*
X12923Y-38789D01*
X12510Y-38074D01*
X11926Y-37490D01*
X11210Y-37078D01*
X10413Y-36864D01*
D02*
G37*
G36*
X413D02*
X-413D01*
X-1211Y-37078D01*
X-1926Y-37490D01*
X-2510Y-38074D01*
X-2922Y-38789D01*
X-3136Y-39587D01*
Y-40413D01*
X-2922Y-41210D01*
X-2510Y-41926D01*
X-1926Y-42510D01*
X-1211Y-42922D01*
X-413Y-43136D01*
X413D01*
X1211Y-42922D01*
X1926Y-42510D01*
X2510Y-41926D01*
X2922Y-41210D01*
X3136Y-40413D01*
Y-39587D01*
X2922Y-38789D01*
X2510Y-38074D01*
X1926Y-37490D01*
X1211Y-37078D01*
X413Y-36864D01*
D02*
G37*
G36*
X250413Y-36962D02*
X249587D01*
X248790Y-37176D01*
X248074Y-37589D01*
X247490Y-38173D01*
X247077Y-38888D01*
X246864Y-39685D01*
Y-40511D01*
X247077Y-41309D01*
X247490Y-42024D01*
X248074Y-42608D01*
X248790Y-43021D01*
X249587Y-43235D01*
X250413D01*
X251210Y-43021D01*
X251926Y-42608D01*
X252510Y-42024D01*
X252923Y-41309D01*
X253136Y-40511D01*
Y-39685D01*
X252923Y-38888D01*
X252510Y-38173D01*
X251926Y-37589D01*
X251210Y-37176D01*
X250413Y-36962D01*
D02*
G37*
G36*
X243136Y-40298D02*
X240200D01*
Y-43235D01*
X240413D01*
X241211Y-43021D01*
X241926Y-42608D01*
X242510Y-42024D01*
X242922Y-41309D01*
X243136Y-40511D01*
Y-40298D01*
D02*
G37*
G36*
X239800D02*
X236864D01*
Y-40511D01*
X237077Y-41309D01*
X237490Y-42024D01*
X238074Y-42608D01*
X238790Y-43021D01*
X239587Y-43235D01*
X239800D01*
Y-40298D01*
D02*
G37*
G36*
X125904Y-48601D02*
Y-50600D01*
X127902D01*
X127523Y-49684D01*
X126820Y-48981D01*
X125904Y-48601D01*
D02*
G37*
G36*
X124904D02*
X123987Y-48981D01*
X123284Y-49684D01*
X122905Y-50600D01*
X124904D01*
Y-48601D01*
D02*
G37*
G36*
X10413Y-46864D02*
X9587D01*
X8789Y-47078D01*
X8074Y-47490D01*
X7490Y-48074D01*
X7078Y-48790D01*
X6864Y-49587D01*
Y-50413D01*
X7078Y-51210D01*
X7490Y-51926D01*
X8074Y-52510D01*
X8789Y-52922D01*
X9587Y-53136D01*
X10413D01*
X11210Y-52922D01*
X11926Y-52510D01*
X12510Y-51926D01*
X12923Y-51210D01*
X13136Y-50413D01*
Y-49587D01*
X12923Y-48790D01*
X12510Y-48074D01*
X11926Y-47490D01*
X11210Y-47078D01*
X10413Y-46864D01*
D02*
G37*
G36*
X413D02*
X-413D01*
X-1211Y-47078D01*
X-1926Y-47490D01*
X-2510Y-48074D01*
X-2922Y-48790D01*
X-3136Y-49587D01*
Y-50413D01*
X-2922Y-51210D01*
X-2510Y-51926D01*
X-1926Y-52510D01*
X-1211Y-52922D01*
X-413Y-53136D01*
X413D01*
X1211Y-52922D01*
X1926Y-52510D01*
X2510Y-51926D01*
X2922Y-51210D01*
X3136Y-50413D01*
Y-49587D01*
X2922Y-48790D01*
X2510Y-48074D01*
X1926Y-47490D01*
X1211Y-47078D01*
X413Y-46864D01*
D02*
G37*
G36*
X250413Y-46962D02*
X249587D01*
X248790Y-47176D01*
X248074Y-47589D01*
X247490Y-48173D01*
X247077Y-48888D01*
X246864Y-49685D01*
Y-50511D01*
X247077Y-51309D01*
X247490Y-52024D01*
X248074Y-52608D01*
X248790Y-53021D01*
X249587Y-53235D01*
X250413D01*
X251210Y-53021D01*
X251926Y-52608D01*
X252510Y-52024D01*
X252923Y-51309D01*
X253136Y-50511D01*
Y-49685D01*
X252923Y-48888D01*
X252510Y-48173D01*
X251926Y-47589D01*
X251210Y-47176D01*
X250413Y-46962D01*
D02*
G37*
G36*
X240413D02*
X239587D01*
X238790Y-47176D01*
X238074Y-47589D01*
X237490Y-48173D01*
X237077Y-48888D01*
X236864Y-49685D01*
Y-50511D01*
X237077Y-51309D01*
X237490Y-52024D01*
X238074Y-52608D01*
X238790Y-53021D01*
X239587Y-53235D01*
X240413D01*
X241211Y-53021D01*
X241926Y-52608D01*
X242510Y-52024D01*
X242922Y-51309D01*
X243136Y-50511D01*
Y-49685D01*
X242922Y-48888D01*
X242510Y-48173D01*
X241926Y-47589D01*
X241211Y-47176D01*
X240413Y-46962D01*
D02*
G37*
G36*
X127902Y-51600D02*
X125904D01*
Y-53599D01*
X126820Y-53219D01*
X127523Y-52516D01*
X127902Y-51600D01*
D02*
G37*
G36*
X124904D02*
X122905D01*
X123284Y-52516D01*
X123987Y-53219D01*
X124904Y-53599D01*
Y-51600D01*
D02*
G37*
G36*
X207988Y-53713D02*
Y-55712D01*
X209987D01*
X209608Y-54796D01*
X208904Y-54092D01*
X207988Y-53713D01*
D02*
G37*
G36*
X206988D02*
X206072Y-54092D01*
X205369Y-54796D01*
X204989Y-55712D01*
X206988D01*
Y-53713D01*
D02*
G37*
G36*
X114575Y-46576D02*
X113225D01*
X111922Y-46925D01*
X110754Y-47600D01*
X109800Y-48553D01*
X109125Y-49722D01*
X108776Y-51025D01*
Y-52375D01*
X109125Y-53678D01*
X109800Y-54847D01*
X110754Y-55800D01*
X111922Y-56475D01*
X113225Y-56824D01*
X114575D01*
X115878Y-56475D01*
X117046Y-55800D01*
X118000Y-54847D01*
X118675Y-53678D01*
X119024Y-52375D01*
Y-51025D01*
X118675Y-49722D01*
X118000Y-48553D01*
X117046Y-47600D01*
X115878Y-46925D01*
X114575Y-46576D01*
D02*
G37*
G36*
X209987Y-56712D02*
X207988D01*
Y-58711D01*
X208904Y-58331D01*
X209608Y-57628D01*
X209987Y-56712D01*
D02*
G37*
G36*
X206988D02*
X204989D01*
X205369Y-57628D01*
X206072Y-58331D01*
X206988Y-58711D01*
Y-56712D01*
D02*
G37*
G36*
X10413Y-56864D02*
X9587D01*
X8789Y-57077D01*
X8074Y-57490D01*
X7490Y-58074D01*
X7078Y-58789D01*
X6864Y-59587D01*
Y-60413D01*
X7078Y-61211D01*
X7490Y-61926D01*
X8074Y-62510D01*
X8789Y-62923D01*
X9587Y-63136D01*
X10413D01*
X11210Y-62923D01*
X11926Y-62510D01*
X12510Y-61926D01*
X12923Y-61211D01*
X13136Y-60413D01*
Y-59587D01*
X12923Y-58789D01*
X12510Y-58074D01*
X11926Y-57490D01*
X11210Y-57077D01*
X10413Y-56864D01*
D02*
G37*
G36*
X413D02*
X-413D01*
X-1211Y-57077D01*
X-1926Y-57490D01*
X-2510Y-58074D01*
X-2922Y-58789D01*
X-3136Y-59587D01*
Y-60413D01*
X-2922Y-61211D01*
X-2510Y-61926D01*
X-1926Y-62510D01*
X-1211Y-62923D01*
X-413Y-63136D01*
X413D01*
X1211Y-62923D01*
X1926Y-62510D01*
X2510Y-61926D01*
X2922Y-61211D01*
X3136Y-60413D01*
Y-59587D01*
X2922Y-58789D01*
X2510Y-58074D01*
X1926Y-57490D01*
X1211Y-57077D01*
X413Y-56864D01*
D02*
G37*
G36*
X250413Y-56962D02*
X249587D01*
X248790Y-57176D01*
X248074Y-57589D01*
X247490Y-58173D01*
X247077Y-58888D01*
X246864Y-59685D01*
Y-60511D01*
X247077Y-61309D01*
X247490Y-62024D01*
X248074Y-62608D01*
X248790Y-63021D01*
X249587Y-63235D01*
X250413D01*
X251210Y-63021D01*
X251926Y-62608D01*
X252510Y-62024D01*
X252923Y-61309D01*
X253136Y-60511D01*
Y-59685D01*
X252923Y-58888D01*
X252510Y-58173D01*
X251926Y-57589D01*
X251210Y-57176D01*
X250413Y-56962D01*
D02*
G37*
G36*
X28475Y-55376D02*
X27125D01*
X25822Y-55725D01*
X24654Y-56400D01*
X23699Y-57354D01*
X23025Y-58522D01*
X22676Y-59825D01*
Y-61175D01*
X23025Y-62478D01*
X23699Y-63647D01*
X24654Y-64600D01*
X25822Y-65275D01*
X27125Y-65624D01*
X28475D01*
X29778Y-65275D01*
X30946Y-64600D01*
X31901Y-63647D01*
X32575Y-62478D01*
X32924Y-61175D01*
Y-59825D01*
X32575Y-58522D01*
X31901Y-57354D01*
X30946Y-56400D01*
X29778Y-55725D01*
X28475Y-55376D01*
D02*
G37*
G36*
X224975Y-55976D02*
X223625D01*
X222322Y-56325D01*
X221153Y-56999D01*
X220199Y-57954D01*
X219525Y-59122D01*
X219176Y-60425D01*
Y-61775D01*
X219525Y-63078D01*
X220199Y-64246D01*
X221153Y-65201D01*
X222322Y-65875D01*
X223625Y-66224D01*
X224975D01*
X226278Y-65875D01*
X227447Y-65201D01*
X228401Y-64246D01*
X229075Y-63078D01*
X229424Y-61775D01*
Y-60425D01*
X229075Y-59122D01*
X228401Y-57954D01*
X227447Y-56999D01*
X226278Y-56325D01*
X224975Y-55976D01*
D02*
G37*
G36*
X106495Y-58300D02*
X105705D01*
X104942Y-58504D01*
X104258Y-58899D01*
X103699Y-59458D01*
X103304Y-60142D01*
X103100Y-60905D01*
Y-61695D01*
X103304Y-62458D01*
X103699Y-63142D01*
X104078Y-63521D01*
X104051Y-63991D01*
X104034Y-64016D01*
X103399Y-64650D01*
X102938Y-65448D01*
X102710Y-66299D01*
X109689D01*
X109461Y-65448D01*
X109001Y-64650D01*
X108349Y-63998D01*
X108261Y-63947D01*
X108195Y-63447D01*
X108501Y-63142D01*
X108896Y-62458D01*
X109100Y-61695D01*
Y-60905D01*
X108896Y-60142D01*
X108501Y-59458D01*
X107942Y-58899D01*
X107258Y-58504D01*
X106495Y-58300D01*
D02*
G37*
G36*
X125801Y-64100D02*
X125006D01*
X124271Y-64404D01*
X123708Y-64967D01*
X123404Y-65702D01*
Y-66498D01*
X123708Y-67233D01*
X124271Y-67795D01*
X125006Y-68100D01*
X125801D01*
X126537Y-67795D01*
X127099Y-67233D01*
X127404Y-66498D01*
Y-65702D01*
X127099Y-64967D01*
X126537Y-64404D01*
X125801Y-64100D01*
D02*
G37*
G36*
X115695Y-63799D02*
X114905D01*
X114142Y-64003D01*
X113458Y-64398D01*
X112899Y-64957D01*
X112504Y-65641D01*
X112300Y-66404D01*
Y-67194D01*
X112504Y-67957D01*
X112899Y-68641D01*
X113458Y-69200D01*
X114142Y-69595D01*
X114905Y-69799D01*
X115695D01*
X116458Y-69595D01*
X117142Y-69200D01*
X117701Y-68641D01*
X118096Y-67957D01*
X118300Y-67194D01*
Y-66404D01*
X118096Y-65641D01*
X117701Y-64957D01*
X117142Y-64398D01*
X116458Y-64003D01*
X115695Y-63799D01*
D02*
G37*
G36*
X79700Y-67211D02*
Y-70200D01*
X82689D01*
X82462Y-69349D01*
X82001Y-68551D01*
X81349Y-67899D01*
X80551Y-67439D01*
X79700Y-67211D01*
D02*
G37*
G36*
X78700D02*
X77849Y-67439D01*
X77051Y-67899D01*
X76399Y-68551D01*
X75938Y-69349D01*
X75710Y-70200D01*
X78700D01*
Y-67211D01*
D02*
G37*
G36*
X109689Y-67299D02*
X106700D01*
Y-70288D01*
X107551Y-70060D01*
X108349Y-69600D01*
X109001Y-68948D01*
X109461Y-68150D01*
X109689Y-67299D01*
D02*
G37*
G36*
X105700D02*
X102710D01*
X102938Y-68150D01*
X103399Y-68948D01*
X104051Y-69600D01*
X104849Y-70060D01*
X105700Y-70288D01*
Y-67299D01*
D02*
G37*
G36*
X10413Y-66864D02*
X9587D01*
X8789Y-67077D01*
X8074Y-67490D01*
X7490Y-68074D01*
X7078Y-68789D01*
X6864Y-69587D01*
Y-70413D01*
X7078Y-71210D01*
X7490Y-71926D01*
X8074Y-72510D01*
X8789Y-72922D01*
X9587Y-73136D01*
X10413D01*
X11210Y-72922D01*
X11926Y-72510D01*
X12510Y-71926D01*
X12923Y-71210D01*
X13136Y-70413D01*
Y-69587D01*
X12923Y-68789D01*
X12510Y-68074D01*
X11926Y-67490D01*
X11210Y-67077D01*
X10413Y-66864D01*
D02*
G37*
G36*
X413D02*
X-413D01*
X-1211Y-67077D01*
X-1926Y-67490D01*
X-2510Y-68074D01*
X-2922Y-68789D01*
X-3136Y-69587D01*
Y-70413D01*
X-2922Y-71210D01*
X-2510Y-71926D01*
X-1926Y-72510D01*
X-1211Y-72922D01*
X-413Y-73136D01*
X413D01*
X1211Y-72922D01*
X1926Y-72510D01*
X2510Y-71926D01*
X2922Y-71210D01*
X3136Y-70413D01*
Y-69587D01*
X2922Y-68789D01*
X2510Y-68074D01*
X1926Y-67490D01*
X1211Y-67077D01*
X413Y-66864D01*
D02*
G37*
G36*
X250413Y-66962D02*
X249587D01*
X248790Y-67176D01*
X248074Y-67589D01*
X247490Y-68173D01*
X247077Y-68888D01*
X246864Y-69686D01*
Y-70511D01*
X247077Y-71309D01*
X247490Y-72024D01*
X248074Y-72608D01*
X248790Y-73021D01*
X249587Y-73235D01*
X250413D01*
X251210Y-73021D01*
X251926Y-72608D01*
X252510Y-72024D01*
X252923Y-71309D01*
X253136Y-70511D01*
Y-69686D01*
X252923Y-68888D01*
X252510Y-68173D01*
X251926Y-67589D01*
X251210Y-67176D01*
X250413Y-66962D01*
D02*
G37*
G36*
X240413D02*
X239587D01*
X238790Y-67176D01*
X238074Y-67589D01*
X237490Y-68173D01*
X237077Y-68888D01*
X236864Y-69686D01*
Y-70511D01*
X237077Y-71309D01*
X237490Y-72024D01*
X238074Y-72608D01*
X238790Y-73021D01*
X239587Y-73235D01*
X240413D01*
X241211Y-73021D01*
X241926Y-72608D01*
X242510Y-72024D01*
X242922Y-71309D01*
X243136Y-70511D01*
Y-69686D01*
X242922Y-68888D01*
X242510Y-68173D01*
X241926Y-67589D01*
X241211Y-67176D01*
X240413Y-66962D01*
D02*
G37*
G36*
X82689Y-71200D02*
X79700D01*
Y-74190D01*
X80551Y-73962D01*
X81349Y-73501D01*
X82001Y-72849D01*
X82462Y-72051D01*
X82689Y-71200D01*
D02*
G37*
G36*
X78700D02*
X75710D01*
X75938Y-72051D01*
X76399Y-72849D01*
X77051Y-73501D01*
X77849Y-73962D01*
X78700Y-74190D01*
Y-71200D01*
D02*
G37*
G36*
X10413Y-76864D02*
X9587D01*
X8789Y-77078D01*
X8074Y-77490D01*
X7490Y-78074D01*
X7078Y-78790D01*
X6864Y-79587D01*
Y-80413D01*
X7078Y-81211D01*
X7490Y-81926D01*
X8074Y-82510D01*
X8789Y-82923D01*
X9587Y-83136D01*
X10413D01*
X11210Y-82923D01*
X11926Y-82510D01*
X12510Y-81926D01*
X12923Y-81211D01*
X13136Y-80413D01*
Y-79587D01*
X12923Y-78790D01*
X12510Y-78074D01*
X11926Y-77490D01*
X11210Y-77078D01*
X10413Y-76864D01*
D02*
G37*
G36*
X413D02*
X-413D01*
X-1211Y-77078D01*
X-1926Y-77490D01*
X-2510Y-78074D01*
X-2922Y-78790D01*
X-3136Y-79587D01*
Y-80413D01*
X-2922Y-81211D01*
X-2510Y-81926D01*
X-1926Y-82510D01*
X-1211Y-82923D01*
X-413Y-83136D01*
X413D01*
X1211Y-82923D01*
X1926Y-82510D01*
X2510Y-81926D01*
X2922Y-81211D01*
X3136Y-80413D01*
Y-79587D01*
X2922Y-78790D01*
X2510Y-78074D01*
X1926Y-77490D01*
X1211Y-77078D01*
X413Y-76864D01*
D02*
G37*
G36*
X250413Y-76962D02*
X249587D01*
X248790Y-77176D01*
X248074Y-77589D01*
X247490Y-78173D01*
X247077Y-78888D01*
X246864Y-79685D01*
Y-80511D01*
X247077Y-81309D01*
X247490Y-82024D01*
X248074Y-82608D01*
X248790Y-83021D01*
X249587Y-83235D01*
X250413D01*
X251210Y-83021D01*
X251926Y-82608D01*
X252510Y-82024D01*
X252923Y-81309D01*
X253136Y-80511D01*
Y-79685D01*
X252923Y-78888D01*
X252510Y-78173D01*
X251926Y-77589D01*
X251210Y-77176D01*
X250413Y-76962D01*
D02*
G37*
G36*
X240413D02*
X239587D01*
X238790Y-77176D01*
X238074Y-77589D01*
X237490Y-78173D01*
X237077Y-78888D01*
X236864Y-79685D01*
Y-80511D01*
X237077Y-81309D01*
X237490Y-82024D01*
X238074Y-82608D01*
X238790Y-83021D01*
X239587Y-83235D01*
X240413D01*
X241211Y-83021D01*
X241926Y-82608D01*
X242510Y-82024D01*
X242922Y-81309D01*
X243136Y-80511D01*
Y-79685D01*
X242922Y-78888D01*
X242510Y-78173D01*
X241926Y-77589D01*
X241211Y-77176D01*
X240413Y-76962D01*
D02*
G37*
G36*
X10413Y-86864D02*
X10200D01*
Y-89800D01*
X13136D01*
Y-89587D01*
X12923Y-88789D01*
X12510Y-88074D01*
X11926Y-87490D01*
X11210Y-87077D01*
X10413Y-86864D01*
D02*
G37*
G36*
X413D02*
X200D01*
Y-89800D01*
X3136D01*
Y-89587D01*
X2922Y-88789D01*
X2510Y-88074D01*
X1926Y-87490D01*
X1211Y-87077D01*
X413Y-86864D01*
D02*
G37*
G36*
X9800D02*
X9587D01*
X8789Y-87077D01*
X8074Y-87490D01*
X7490Y-88074D01*
X7078Y-88789D01*
X6864Y-89587D01*
Y-89800D01*
X9800D01*
Y-86864D01*
D02*
G37*
G36*
X-200D02*
X-413D01*
X-1211Y-87077D01*
X-1926Y-87490D01*
X-2510Y-88074D01*
X-2922Y-88789D01*
X-3136Y-89587D01*
Y-89800D01*
X-200D01*
Y-86864D01*
D02*
G37*
G36*
X250413Y-86962D02*
X250200D01*
Y-89898D01*
X253136D01*
Y-89685D01*
X252923Y-88888D01*
X252510Y-88173D01*
X251926Y-87589D01*
X251210Y-87176D01*
X250413Y-86962D01*
D02*
G37*
G36*
X249800D02*
X249587D01*
X248790Y-87176D01*
X248074Y-87589D01*
X247490Y-88173D01*
X247077Y-88888D01*
X246864Y-89685D01*
Y-89898D01*
X249800D01*
Y-86962D01*
D02*
G37*
G36*
X85600Y-87511D02*
Y-90500D01*
X88590D01*
X88362Y-89649D01*
X87901Y-88851D01*
X87249Y-88199D01*
X86451Y-87739D01*
X85600Y-87511D01*
D02*
G37*
G36*
X84600D02*
X83749Y-87739D01*
X82951Y-88199D01*
X82299Y-88851D01*
X81839Y-89649D01*
X81611Y-90500D01*
X84600D01*
Y-87511D01*
D02*
G37*
G36*
X13136Y-90200D02*
X10200D01*
Y-93136D01*
X10413D01*
X11210Y-92923D01*
X11926Y-92510D01*
X12510Y-91926D01*
X12923Y-91211D01*
X13136Y-90413D01*
Y-90200D01*
D02*
G37*
G36*
X9800D02*
X6864D01*
Y-90413D01*
X7078Y-91211D01*
X7490Y-91926D01*
X8074Y-92510D01*
X8789Y-92923D01*
X9587Y-93136D01*
X9800D01*
Y-90200D01*
D02*
G37*
G36*
X3136D02*
X200D01*
Y-93136D01*
X413D01*
X1211Y-92923D01*
X1926Y-92510D01*
X2510Y-91926D01*
X2922Y-91211D01*
X3136Y-90413D01*
Y-90200D01*
D02*
G37*
G36*
X-200D02*
X-3136D01*
Y-90413D01*
X-2922Y-91211D01*
X-2510Y-91926D01*
X-1926Y-92510D01*
X-1211Y-92923D01*
X-413Y-93136D01*
X-200D01*
Y-90200D01*
D02*
G37*
G36*
X253136Y-90298D02*
X250200D01*
Y-93235D01*
X250413D01*
X251210Y-93021D01*
X251926Y-92608D01*
X252510Y-92024D01*
X252923Y-91309D01*
X253136Y-90511D01*
Y-90298D01*
D02*
G37*
G36*
X249800D02*
X246864D01*
Y-90511D01*
X247077Y-91309D01*
X247490Y-92024D01*
X248074Y-92608D01*
X248790Y-93021D01*
X249587Y-93235D01*
X249800D01*
Y-90298D01*
D02*
G37*
G36*
X240413Y-86962D02*
X239587D01*
X238790Y-87176D01*
X238074Y-87589D01*
X237490Y-88173D01*
X237077Y-88888D01*
X236864Y-89685D01*
Y-90511D01*
X237077Y-91309D01*
X237490Y-92024D01*
X238074Y-92608D01*
X238790Y-93021D01*
X239587Y-93235D01*
X240413D01*
X241211Y-93021D01*
X241926Y-92608D01*
X242510Y-92024D01*
X242922Y-91309D01*
X243136Y-90511D01*
Y-89685D01*
X242922Y-88888D01*
X242510Y-88173D01*
X241926Y-87589D01*
X241211Y-87176D01*
X240413Y-86962D01*
D02*
G37*
G36*
X88590Y-91500D02*
X85600D01*
Y-94490D01*
X86451Y-94261D01*
X87249Y-93801D01*
X87901Y-93149D01*
X88362Y-92351D01*
X88590Y-91500D01*
D02*
G37*
G36*
X84600D02*
X81611D01*
X81839Y-92351D01*
X82299Y-93149D01*
X82951Y-93801D01*
X83749Y-94261D01*
X84600Y-94490D01*
Y-91500D01*
D02*
G37*
G36*
X71250Y-95060D02*
Y-98050D01*
X74239D01*
X74011Y-97199D01*
X73551Y-96401D01*
X72899Y-95749D01*
X72101Y-95288D01*
X71250Y-95060D01*
D02*
G37*
G36*
X70250D02*
X69399Y-95288D01*
X68601Y-95749D01*
X67949Y-96401D01*
X67488Y-97199D01*
X67260Y-98050D01*
X70250D01*
Y-95060D01*
D02*
G37*
G36*
X10413Y-96864D02*
X10200D01*
Y-99800D01*
X13136D01*
Y-99587D01*
X12923Y-98790D01*
X12510Y-98074D01*
X11926Y-97490D01*
X11210Y-97078D01*
X10413Y-96864D01*
D02*
G37*
G36*
X9800D02*
X9587D01*
X8789Y-97078D01*
X8074Y-97490D01*
X7490Y-98074D01*
X7078Y-98790D01*
X6864Y-99587D01*
Y-99800D01*
X9800D01*
Y-96864D01*
D02*
G37*
G36*
X74239Y-99050D02*
X71250D01*
Y-102040D01*
X72101Y-101812D01*
X72899Y-101351D01*
X73551Y-100699D01*
X74011Y-99901D01*
X74239Y-99050D01*
D02*
G37*
G36*
X70250D02*
X67260D01*
X67488Y-99901D01*
X67949Y-100699D01*
X68601Y-101351D01*
X69399Y-101812D01*
X70250Y-102040D01*
Y-99050D01*
D02*
G37*
G36*
X13136Y-100200D02*
X10200D01*
Y-103136D01*
X10413D01*
X11210Y-102922D01*
X11926Y-102510D01*
X12510Y-101926D01*
X12923Y-101210D01*
X13136Y-100413D01*
Y-100200D01*
D02*
G37*
G36*
X9800D02*
X6864D01*
Y-100413D01*
X7078Y-101210D01*
X7490Y-101926D01*
X8074Y-102510D01*
X8789Y-102922D01*
X9587Y-103136D01*
X9800D01*
Y-100200D01*
D02*
G37*
G36*
X413Y-96864D02*
X-413D01*
X-1211Y-97078D01*
X-1926Y-97490D01*
X-2510Y-98074D01*
X-2922Y-98790D01*
X-3136Y-99587D01*
Y-100413D01*
X-2922Y-101210D01*
X-2510Y-101926D01*
X-1926Y-102510D01*
X-1211Y-102922D01*
X-413Y-103136D01*
X413D01*
X1211Y-102922D01*
X1926Y-102510D01*
X2510Y-101926D01*
X2922Y-101210D01*
X3136Y-100413D01*
Y-99587D01*
X2922Y-98790D01*
X2510Y-98074D01*
X1926Y-97490D01*
X1211Y-97078D01*
X413Y-96864D01*
D02*
G37*
G36*
X250413Y-96962D02*
X249587D01*
X248790Y-97176D01*
X248074Y-97589D01*
X247490Y-98173D01*
X247077Y-98888D01*
X246864Y-99686D01*
Y-100511D01*
X247077Y-101309D01*
X247490Y-102024D01*
X248074Y-102608D01*
X248790Y-103021D01*
X249587Y-103235D01*
X250413D01*
X251210Y-103021D01*
X251926Y-102608D01*
X252510Y-102024D01*
X252923Y-101309D01*
X253136Y-100511D01*
Y-99686D01*
X252923Y-98888D01*
X252510Y-98173D01*
X251926Y-97589D01*
X251210Y-97176D01*
X250413Y-96962D01*
D02*
G37*
G36*
X240413D02*
X239587D01*
X238790Y-97176D01*
X238074Y-97589D01*
X237490Y-98173D01*
X237077Y-98888D01*
X236864Y-99686D01*
Y-100511D01*
X237077Y-101309D01*
X237490Y-102024D01*
X238074Y-102608D01*
X238790Y-103021D01*
X239587Y-103235D01*
X240413D01*
X241211Y-103021D01*
X241926Y-102608D01*
X242510Y-102024D01*
X242922Y-101309D01*
X243136Y-100511D01*
Y-99686D01*
X242922Y-98888D01*
X242510Y-98173D01*
X241926Y-97589D01*
X241211Y-97176D01*
X240413Y-96962D01*
D02*
G37*
G36*
X57500Y-101210D02*
Y-104200D01*
X60489D01*
X60261Y-103349D01*
X59801Y-102551D01*
X59149Y-101899D01*
X58351Y-101438D01*
X57500Y-101210D01*
D02*
G37*
G36*
X56500D02*
X55649Y-101438D01*
X54851Y-101899D01*
X54199Y-102551D01*
X53738Y-103349D01*
X53510Y-104200D01*
X56500D01*
Y-101210D01*
D02*
G37*
G36*
X60489Y-105200D02*
X57500D01*
Y-108189D01*
X58351Y-107961D01*
X59149Y-107501D01*
X59801Y-106849D01*
X60261Y-106051D01*
X60489Y-105200D01*
D02*
G37*
G36*
X56500D02*
X53510D01*
X53738Y-106051D01*
X54199Y-106849D01*
X54851Y-107501D01*
X55649Y-107961D01*
X56500Y-108189D01*
Y-105200D01*
D02*
G37*
G36*
X10413Y-106864D02*
X9587D01*
X8789Y-107078D01*
X8074Y-107490D01*
X7490Y-108074D01*
X7078Y-108790D01*
X6864Y-109587D01*
Y-110413D01*
X7078Y-111211D01*
X7490Y-111926D01*
X8074Y-112510D01*
X8789Y-112923D01*
X9587Y-113136D01*
X10413D01*
X11210Y-112923D01*
X11926Y-112510D01*
X12510Y-111926D01*
X12923Y-111211D01*
X13136Y-110413D01*
Y-109587D01*
X12923Y-108790D01*
X12510Y-108074D01*
X11926Y-107490D01*
X11210Y-107078D01*
X10413Y-106864D01*
D02*
G37*
G36*
X413D02*
X-413D01*
X-1211Y-107078D01*
X-1926Y-107490D01*
X-2510Y-108074D01*
X-2922Y-108790D01*
X-3136Y-109587D01*
Y-110413D01*
X-2922Y-111211D01*
X-2510Y-111926D01*
X-1926Y-112510D01*
X-1211Y-112923D01*
X-413Y-113136D01*
X413D01*
X1211Y-112923D01*
X1926Y-112510D01*
X2510Y-111926D01*
X2922Y-111211D01*
X3136Y-110413D01*
Y-109587D01*
X2922Y-108790D01*
X2510Y-108074D01*
X1926Y-107490D01*
X1211Y-107078D01*
X413Y-106864D01*
D02*
G37*
G36*
X250413Y-106962D02*
X249587D01*
X248790Y-107176D01*
X248074Y-107589D01*
X247490Y-108173D01*
X247077Y-108888D01*
X246864Y-109686D01*
Y-110511D01*
X247077Y-111309D01*
X247490Y-112024D01*
X248074Y-112608D01*
X248790Y-113021D01*
X249587Y-113235D01*
X250413D01*
X251210Y-113021D01*
X251926Y-112608D01*
X252510Y-112024D01*
X252923Y-111309D01*
X253136Y-110511D01*
Y-109686D01*
X252923Y-108888D01*
X252510Y-108173D01*
X251926Y-107589D01*
X251210Y-107176D01*
X250413Y-106962D01*
D02*
G37*
G36*
X240413D02*
X239587D01*
X238790Y-107176D01*
X238074Y-107589D01*
X237490Y-108173D01*
X237077Y-108888D01*
X236864Y-109686D01*
Y-110511D01*
X237077Y-111309D01*
X237490Y-112024D01*
X238074Y-112608D01*
X238790Y-113021D01*
X239587Y-113235D01*
X240413D01*
X241211Y-113021D01*
X241926Y-112608D01*
X242510Y-112024D01*
X242922Y-111309D01*
X243136Y-110511D01*
Y-109686D01*
X242922Y-108888D01*
X242510Y-108173D01*
X241926Y-107589D01*
X241211Y-107176D01*
X240413Y-106962D01*
D02*
G37*
G36*
X30579Y-107097D02*
X29789D01*
X29026Y-107302D01*
X28342Y-107697D01*
X27783Y-108255D01*
X27388Y-108939D01*
X27184Y-109702D01*
Y-110492D01*
X27388Y-111255D01*
X27783Y-111940D01*
X28171Y-112328D01*
X28161Y-112777D01*
X28129Y-112828D01*
X27509Y-113447D01*
X27049Y-114245D01*
X26821Y-115096D01*
X33800D01*
X33572Y-114245D01*
X33111Y-113447D01*
X32459Y-112795D01*
X32355Y-112735D01*
X32289Y-112235D01*
X32584Y-111940D01*
X32979Y-111255D01*
X33184Y-110492D01*
Y-109702D01*
X32979Y-108939D01*
X32584Y-108255D01*
X32026Y-107697D01*
X31342Y-107302D01*
X30579Y-107097D01*
D02*
G37*
G36*
X33800Y-116096D02*
X30810D01*
Y-119086D01*
X31661Y-118858D01*
X32459Y-118397D01*
X33111Y-117745D01*
X33572Y-116947D01*
X33800Y-116096D01*
D02*
G37*
G36*
X29810D02*
X26821D01*
X27049Y-116947D01*
X27509Y-117745D01*
X28161Y-118397D01*
X28959Y-118858D01*
X29810Y-119086D01*
Y-116096D01*
D02*
G37*
G36*
X10413Y-116864D02*
X9587D01*
X8789Y-117078D01*
X8074Y-117490D01*
X7490Y-118074D01*
X7078Y-118790D01*
X6864Y-119587D01*
Y-120413D01*
X7078Y-121211D01*
X7490Y-121926D01*
X8074Y-122510D01*
X8789Y-122923D01*
X9587Y-123136D01*
X10413D01*
X11210Y-122923D01*
X11926Y-122510D01*
X12510Y-121926D01*
X12923Y-121211D01*
X13136Y-120413D01*
Y-119587D01*
X12923Y-118790D01*
X12510Y-118074D01*
X11926Y-117490D01*
X11210Y-117078D01*
X10413Y-116864D01*
D02*
G37*
G36*
X413D02*
X-413D01*
X-1211Y-117078D01*
X-1926Y-117490D01*
X-2510Y-118074D01*
X-2922Y-118790D01*
X-3136Y-119587D01*
Y-120413D01*
X-2922Y-121211D01*
X-2510Y-121926D01*
X-1926Y-122510D01*
X-1211Y-122923D01*
X-413Y-123136D01*
X413D01*
X1211Y-122923D01*
X1926Y-122510D01*
X2510Y-121926D01*
X2922Y-121211D01*
X3136Y-120413D01*
Y-119587D01*
X2922Y-118790D01*
X2510Y-118074D01*
X1926Y-117490D01*
X1211Y-117078D01*
X413Y-116864D01*
D02*
G37*
G36*
X250413Y-116962D02*
X249587D01*
X248790Y-117176D01*
X248074Y-117589D01*
X247490Y-118173D01*
X247077Y-118888D01*
X246864Y-119685D01*
Y-120511D01*
X247077Y-121309D01*
X247490Y-122024D01*
X248074Y-122608D01*
X248790Y-123021D01*
X249587Y-123235D01*
X250413D01*
X251210Y-123021D01*
X251926Y-122608D01*
X252510Y-122024D01*
X252923Y-121309D01*
X253136Y-120511D01*
Y-119685D01*
X252923Y-118888D01*
X252510Y-118173D01*
X251926Y-117589D01*
X251210Y-117176D01*
X250413Y-116962D01*
D02*
G37*
G36*
X240413D02*
X239587D01*
X238790Y-117176D01*
X238074Y-117589D01*
X237490Y-118173D01*
X237077Y-118888D01*
X236864Y-119685D01*
Y-120511D01*
X237077Y-121309D01*
X237490Y-122024D01*
X238074Y-122608D01*
X238790Y-123021D01*
X239587Y-123235D01*
X240413D01*
X241211Y-123021D01*
X241926Y-122608D01*
X242510Y-122024D01*
X242922Y-121309D01*
X243136Y-120511D01*
Y-119685D01*
X242922Y-118888D01*
X242510Y-118173D01*
X241926Y-117589D01*
X241211Y-117176D01*
X240413Y-116962D01*
D02*
G37*
G36*
X178500Y-122411D02*
Y-125400D01*
X181490D01*
X181262Y-124549D01*
X180801Y-123751D01*
X180149Y-123099D01*
X179351Y-122638D01*
X178500Y-122411D01*
D02*
G37*
G36*
X177500D02*
X176649Y-122638D01*
X175851Y-123099D01*
X175199Y-123751D01*
X174739Y-124549D01*
X174511Y-125400D01*
X177500D01*
Y-122411D01*
D02*
G37*
G36*
X113676Y-124214D02*
X113124D01*
X112615Y-124425D01*
X112225Y-124815D01*
X112014Y-125324D01*
Y-125876D01*
X112225Y-126385D01*
X112615Y-126775D01*
X113124Y-126986D01*
X113676D01*
X114185Y-126775D01*
X114575Y-126385D01*
X114786Y-125876D01*
Y-125324D01*
X114575Y-124815D01*
X114185Y-124425D01*
X113676Y-124214D01*
D02*
G37*
G36*
X153395Y-122900D02*
X152605D01*
X151842Y-123104D01*
X151158Y-123499D01*
X150599Y-124058D01*
X150204Y-124742D01*
X150000Y-125505D01*
Y-126295D01*
X150204Y-127058D01*
X150599Y-127742D01*
X151158Y-128301D01*
X151842Y-128696D01*
X152605Y-128900D01*
X153395D01*
X154158Y-128696D01*
X154842Y-128301D01*
X155401Y-127742D01*
X155796Y-127058D01*
X156000Y-126295D01*
Y-125505D01*
X155796Y-124742D01*
X155401Y-124058D01*
X154842Y-123499D01*
X154158Y-123104D01*
X153395Y-122900D01*
D02*
G37*
G36*
X181490Y-126400D02*
X178500D01*
Y-129390D01*
X179351Y-129162D01*
X180149Y-128701D01*
X180801Y-128049D01*
X181262Y-127251D01*
X181490Y-126400D01*
D02*
G37*
G36*
X177500D02*
X174511D01*
X174739Y-127251D01*
X175199Y-128049D01*
X175851Y-128701D01*
X176649Y-129162D01*
X177500Y-129390D01*
Y-126400D01*
D02*
G37*
G36*
X10413Y-126864D02*
X9587D01*
X8789Y-127077D01*
X8074Y-127490D01*
X7490Y-128074D01*
X7078Y-128789D01*
X6864Y-129587D01*
Y-130413D01*
X7078Y-131210D01*
X7490Y-131926D01*
X8074Y-132510D01*
X8789Y-132922D01*
X9587Y-133136D01*
X10413D01*
X11210Y-132922D01*
X11926Y-132510D01*
X12510Y-131926D01*
X12923Y-131210D01*
X13136Y-130413D01*
Y-129587D01*
X12923Y-128789D01*
X12510Y-128074D01*
X11926Y-127490D01*
X11210Y-127077D01*
X10413Y-126864D01*
D02*
G37*
G36*
X413D02*
X-413D01*
X-1211Y-127077D01*
X-1926Y-127490D01*
X-2510Y-128074D01*
X-2922Y-128789D01*
X-3136Y-129587D01*
Y-130413D01*
X-2922Y-131210D01*
X-2510Y-131926D01*
X-1926Y-132510D01*
X-1211Y-132922D01*
X-413Y-133136D01*
X413D01*
X1211Y-132922D01*
X1926Y-132510D01*
X2510Y-131926D01*
X2922Y-131210D01*
X3136Y-130413D01*
Y-129587D01*
X2922Y-128789D01*
X2510Y-128074D01*
X1926Y-127490D01*
X1211Y-127077D01*
X413Y-126864D01*
D02*
G37*
G36*
X250413Y-126962D02*
X249587D01*
X248790Y-127176D01*
X248074Y-127589D01*
X247490Y-128173D01*
X247077Y-128888D01*
X246864Y-129685D01*
Y-130511D01*
X247077Y-131309D01*
X247490Y-132024D01*
X248074Y-132608D01*
X248790Y-133021D01*
X249587Y-133235D01*
X250413D01*
X251210Y-133021D01*
X251926Y-132608D01*
X252510Y-132024D01*
X252923Y-131309D01*
X253136Y-130511D01*
Y-129685D01*
X252923Y-128888D01*
X252510Y-128173D01*
X251926Y-127589D01*
X251210Y-127176D01*
X250413Y-126962D01*
D02*
G37*
G36*
X240413D02*
X239587D01*
X238790Y-127176D01*
X238074Y-127589D01*
X237490Y-128173D01*
X237077Y-128888D01*
X236864Y-129685D01*
Y-130511D01*
X237077Y-131309D01*
X237490Y-132024D01*
X238074Y-132608D01*
X238790Y-133021D01*
X239587Y-133235D01*
X240413D01*
X241211Y-133021D01*
X241926Y-132608D01*
X242510Y-132024D01*
X242922Y-131309D01*
X243136Y-130511D01*
Y-129685D01*
X242922Y-128888D01*
X242510Y-128173D01*
X241926Y-127589D01*
X241211Y-127176D01*
X240413Y-126962D01*
D02*
G37*
G36*
X10413Y-136864D02*
X9587D01*
X8789Y-137077D01*
X8074Y-137490D01*
X7490Y-138074D01*
X7078Y-138789D01*
X6864Y-139587D01*
Y-140413D01*
X7078Y-141210D01*
X7490Y-141926D01*
X8074Y-142510D01*
X8789Y-142922D01*
X9587Y-143136D01*
X10413D01*
X11210Y-142922D01*
X11926Y-142510D01*
X12510Y-141926D01*
X12923Y-141210D01*
X13136Y-140413D01*
Y-139587D01*
X12923Y-138789D01*
X12510Y-138074D01*
X11926Y-137490D01*
X11210Y-137077D01*
X10413Y-136864D01*
D02*
G37*
G36*
X413D02*
X-413D01*
X-1211Y-137077D01*
X-1926Y-137490D01*
X-2510Y-138074D01*
X-2922Y-138789D01*
X-3136Y-139587D01*
Y-140413D01*
X-2922Y-141210D01*
X-2510Y-141926D01*
X-1926Y-142510D01*
X-1211Y-142922D01*
X-413Y-143136D01*
X413D01*
X1211Y-142922D01*
X1926Y-142510D01*
X2510Y-141926D01*
X2922Y-141210D01*
X3136Y-140413D01*
Y-139587D01*
X2922Y-138789D01*
X2510Y-138074D01*
X1926Y-137490D01*
X1211Y-137077D01*
X413Y-136864D01*
D02*
G37*
G36*
X250413Y-136962D02*
X249587D01*
X248790Y-137176D01*
X248074Y-137589D01*
X247490Y-138173D01*
X247077Y-138888D01*
X246864Y-139685D01*
Y-140511D01*
X247077Y-141309D01*
X247490Y-142024D01*
X248074Y-142608D01*
X248790Y-143021D01*
X249587Y-143235D01*
X250413D01*
X251210Y-143021D01*
X251926Y-142608D01*
X252510Y-142024D01*
X252923Y-141309D01*
X253136Y-140511D01*
Y-139685D01*
X252923Y-138888D01*
X252510Y-138173D01*
X251926Y-137589D01*
X251210Y-137176D01*
X250413Y-136962D01*
D02*
G37*
G36*
X240413D02*
X239587D01*
X238790Y-137176D01*
X238074Y-137589D01*
X237490Y-138173D01*
X237077Y-138888D01*
X236864Y-139685D01*
Y-140511D01*
X237077Y-141309D01*
X237490Y-142024D01*
X238074Y-142608D01*
X238790Y-143021D01*
X239587Y-143235D01*
X240413D01*
X241211Y-143021D01*
X241926Y-142608D01*
X242510Y-142024D01*
X242922Y-141309D01*
X243136Y-140511D01*
Y-139685D01*
X242922Y-138888D01*
X242510Y-138173D01*
X241926Y-137589D01*
X241211Y-137176D01*
X240413Y-136962D01*
D02*
G37*
G36*
Y-56962D02*
X239587D01*
X238790Y-57176D01*
X238074Y-57589D01*
X237490Y-58173D01*
X237077Y-58888D01*
X236864Y-59685D01*
Y-60043D01*
X236831Y-60119D01*
X236826Y-60438D01*
X236807Y-60726D01*
X236772Y-60994D01*
X236723Y-61242D01*
X236661Y-61469D01*
X236586Y-61677D01*
X236499Y-61865D01*
X236400Y-62035D01*
X236288Y-62188D01*
X236150Y-62342D01*
X236142Y-62365D01*
X183932Y-114575D01*
X142600D01*
X142169Y-114660D01*
X141804Y-114904D01*
X113294Y-143414D01*
X113224D01*
X112715Y-143625D01*
X112665Y-143675D01*
X97435D01*
X97385Y-143625D01*
X96876Y-143414D01*
X96324D01*
X95815Y-143625D01*
X95425Y-144015D01*
X95214Y-144524D01*
Y-145076D01*
X95425Y-145585D01*
X95815Y-145975D01*
X96324Y-146186D01*
X96876D01*
X97385Y-145975D01*
X97435Y-145925D01*
X108449D01*
X108615Y-146325D01*
X108525Y-146415D01*
X108314Y-146924D01*
Y-147476D01*
X108525Y-147985D01*
X108915Y-148375D01*
X109424Y-148586D01*
X109976D01*
X110485Y-148375D01*
X110875Y-147985D01*
X111086Y-147476D01*
Y-146924D01*
X110875Y-146415D01*
X110785Y-146325D01*
X110951Y-145925D01*
X112665D01*
X112715Y-145975D01*
X113224Y-146186D01*
X113776D01*
X114285Y-145975D01*
X114675Y-145585D01*
X114886Y-145076D01*
Y-145006D01*
X143066Y-116825D01*
X184398D01*
X184829Y-116740D01*
X185194Y-116496D01*
X237733Y-63957D01*
X237757Y-63949D01*
X237911Y-63810D01*
X238063Y-63699D01*
X238233Y-63600D01*
X238421Y-63512D01*
X238629Y-63437D01*
X238856Y-63375D01*
X239104Y-63326D01*
X239372Y-63292D01*
X239660Y-63272D01*
X239979Y-63267D01*
X240055Y-63235D01*
X240413D01*
X241211Y-63021D01*
X241926Y-62608D01*
X242510Y-62024D01*
X242922Y-61309D01*
X243136Y-60511D01*
Y-59685D01*
X242922Y-58888D01*
X242510Y-58173D01*
X241926Y-57589D01*
X241211Y-57176D01*
X240413Y-56962D01*
D02*
G37*
G36*
X93076Y-143514D02*
X92524D01*
X92015Y-143725D01*
X91625Y-144115D01*
X91414Y-144624D01*
Y-145176D01*
X91625Y-145685D01*
X92015Y-146075D01*
X92524Y-146286D01*
X93076D01*
X93585Y-146075D01*
X93975Y-145685D01*
X94186Y-145176D01*
Y-144624D01*
X93975Y-144115D01*
X93585Y-143725D01*
X93076Y-143514D01*
D02*
G37*
G36*
X29000Y-145610D02*
Y-148600D01*
X31989D01*
X31762Y-147749D01*
X31301Y-146951D01*
X30649Y-146299D01*
X29851Y-145838D01*
X29000Y-145610D01*
D02*
G37*
G36*
X28000D02*
X27149Y-145838D01*
X26351Y-146299D01*
X25699Y-146951D01*
X25238Y-147749D01*
X25010Y-148600D01*
X28000D01*
Y-145610D01*
D02*
G37*
G36*
X53695Y-146100D02*
X52905D01*
X52142Y-146304D01*
X51458Y-146699D01*
X50899Y-147258D01*
X50504Y-147942D01*
X50300Y-148705D01*
Y-149495D01*
X50504Y-150258D01*
X50899Y-150942D01*
X51458Y-151501D01*
X52142Y-151896D01*
X52905Y-152100D01*
X53695D01*
X54458Y-151896D01*
X55142Y-151501D01*
X55701Y-150942D01*
X56096Y-150258D01*
X56300Y-149495D01*
Y-148705D01*
X56096Y-147942D01*
X55701Y-147258D01*
X55142Y-146699D01*
X54458Y-146304D01*
X53695Y-146100D01*
D02*
G37*
G36*
X31989Y-149600D02*
X29000D01*
Y-152589D01*
X29851Y-152362D01*
X30649Y-151901D01*
X31301Y-151249D01*
X31762Y-150451D01*
X31989Y-149600D01*
D02*
G37*
G36*
X28000D02*
X25010D01*
X25238Y-150451D01*
X25699Y-151249D01*
X26351Y-151901D01*
X27149Y-152362D01*
X28000Y-152589D01*
Y-149600D01*
D02*
G37*
G36*
X413Y-146864D02*
X-413D01*
X-1211Y-147078D01*
X-1926Y-147490D01*
X-2510Y-148074D01*
X-2922Y-148790D01*
X-3136Y-149587D01*
Y-150413D01*
X-2922Y-151210D01*
X-2510Y-151926D01*
X-1926Y-152510D01*
X-1211Y-152922D01*
X-413Y-153136D01*
X413D01*
X1211Y-152922D01*
X1926Y-152510D01*
X2510Y-151926D01*
X2922Y-151210D01*
X3136Y-150413D01*
Y-149587D01*
X2922Y-148790D01*
X2510Y-148074D01*
X1926Y-147490D01*
X1211Y-147078D01*
X413Y-146864D01*
D02*
G37*
G36*
X250413Y-146962D02*
X249587D01*
X248790Y-147176D01*
X248074Y-147589D01*
X247490Y-148173D01*
X247077Y-148888D01*
X246864Y-149686D01*
Y-150511D01*
X247077Y-151309D01*
X247490Y-152024D01*
X248074Y-152608D01*
X248790Y-153021D01*
X249587Y-153235D01*
X250413D01*
X251210Y-153021D01*
X251926Y-152608D01*
X252510Y-152024D01*
X252923Y-151309D01*
X253136Y-150511D01*
Y-149686D01*
X252923Y-148888D01*
X252510Y-148173D01*
X251926Y-147589D01*
X251210Y-147176D01*
X250413Y-146962D01*
D02*
G37*
G36*
X240413D02*
X239587D01*
X238790Y-147176D01*
X238074Y-147589D01*
X237490Y-148173D01*
X237077Y-148888D01*
X236864Y-149686D01*
Y-150511D01*
X237077Y-151309D01*
X237490Y-152024D01*
X238074Y-152608D01*
X238790Y-153021D01*
X239587Y-153235D01*
X240413D01*
X241211Y-153021D01*
X241926Y-152608D01*
X242510Y-152024D01*
X242922Y-151309D01*
X243136Y-150511D01*
Y-149686D01*
X242922Y-148888D01*
X242510Y-148173D01*
X241926Y-147589D01*
X241211Y-147176D01*
X240413Y-146962D01*
D02*
G37*
G36*
X106200Y-160401D02*
Y-162400D01*
X108199D01*
X107819Y-161484D01*
X107116Y-160781D01*
X106200Y-160401D01*
D02*
G37*
G36*
X105200D02*
X104284Y-160781D01*
X103581Y-161484D01*
X103201Y-162400D01*
X105200D01*
Y-160401D01*
D02*
G37*
G36*
X10413Y-156864D02*
X9587D01*
X8789Y-157078D01*
X8074Y-157490D01*
X7490Y-158074D01*
X7078Y-158790D01*
X6864Y-159587D01*
Y-160413D01*
X7078Y-161211D01*
X7490Y-161926D01*
X8074Y-162510D01*
X8789Y-162923D01*
X9587Y-163136D01*
X10413D01*
X11210Y-162923D01*
X11926Y-162510D01*
X12510Y-161926D01*
X12923Y-161211D01*
X13136Y-160413D01*
Y-159587D01*
X12923Y-158790D01*
X12510Y-158074D01*
X11926Y-157490D01*
X11210Y-157078D01*
X10413Y-156864D01*
D02*
G37*
G36*
X413D02*
X-413D01*
X-1211Y-157078D01*
X-1926Y-157490D01*
X-2510Y-158074D01*
X-2922Y-158790D01*
X-3136Y-159587D01*
Y-160413D01*
X-2922Y-161211D01*
X-2510Y-161926D01*
X-1926Y-162510D01*
X-1211Y-162923D01*
X-413Y-163136D01*
X413D01*
X1211Y-162923D01*
X1926Y-162510D01*
X2510Y-161926D01*
X2922Y-161211D01*
X3136Y-160413D01*
Y-159587D01*
X2922Y-158790D01*
X2510Y-158074D01*
X1926Y-157490D01*
X1211Y-157078D01*
X413Y-156864D01*
D02*
G37*
G36*
X250413Y-156962D02*
X249587D01*
X248790Y-157176D01*
X248074Y-157589D01*
X247490Y-158173D01*
X247077Y-158888D01*
X246864Y-159686D01*
Y-160511D01*
X247077Y-161309D01*
X247490Y-162024D01*
X248074Y-162608D01*
X248790Y-163021D01*
X249587Y-163235D01*
X250413D01*
X251210Y-163021D01*
X251926Y-162608D01*
X252510Y-162024D01*
X252923Y-161309D01*
X253136Y-160511D01*
Y-159686D01*
X252923Y-158888D01*
X252510Y-158173D01*
X251926Y-157589D01*
X251210Y-157176D01*
X250413Y-156962D01*
D02*
G37*
G36*
X240413D02*
X239587D01*
X238790Y-157176D01*
X238074Y-157589D01*
X237490Y-158173D01*
X237077Y-158888D01*
X236864Y-159686D01*
Y-160511D01*
X237077Y-161309D01*
X237490Y-162024D01*
X238074Y-162608D01*
X238790Y-163021D01*
X239587Y-163235D01*
X240413D01*
X241211Y-163021D01*
X241926Y-162608D01*
X242510Y-162024D01*
X242922Y-161309D01*
X243136Y-160511D01*
Y-159686D01*
X242922Y-158888D01*
X242510Y-158173D01*
X241926Y-157589D01*
X241211Y-157176D01*
X240413Y-156962D01*
D02*
G37*
G36*
X125496Y-161901D02*
Y-163900D01*
X127495D01*
X127116Y-162984D01*
X126412Y-162281D01*
X125496Y-161901D01*
D02*
G37*
G36*
X124496D02*
X123580Y-162281D01*
X122877Y-162984D01*
X122497Y-163900D01*
X124496D01*
Y-161901D01*
D02*
G37*
G36*
X178495Y-156600D02*
X177705D01*
X176942Y-156804D01*
X176258Y-157199D01*
X175699Y-157758D01*
X175304Y-158442D01*
X175100Y-159205D01*
Y-159995D01*
X175304Y-160758D01*
X175699Y-161442D01*
X176079Y-161821D01*
X176051Y-162292D01*
X176034Y-162316D01*
X175399Y-162951D01*
X174938Y-163749D01*
X174711Y-164600D01*
X181690D01*
X181462Y-163749D01*
X181001Y-162951D01*
X180349Y-162299D01*
X180260Y-162248D01*
X180194Y-161748D01*
X180501Y-161442D01*
X180896Y-160758D01*
X181100Y-159995D01*
Y-159205D01*
X180896Y-158442D01*
X180501Y-157758D01*
X179942Y-157199D01*
X179258Y-156804D01*
X178495Y-156600D01*
D02*
G37*
G36*
X201495Y-157000D02*
X200705D01*
X199942Y-157204D01*
X199258Y-157599D01*
X198699Y-158158D01*
X198304Y-158842D01*
X198100Y-159605D01*
Y-160395D01*
X198304Y-161158D01*
X198699Y-161842D01*
X199042Y-162185D01*
X198977Y-162684D01*
X198951Y-162699D01*
X198299Y-163351D01*
X197838Y-164149D01*
X197610Y-165000D01*
X204590D01*
X204362Y-164149D01*
X203901Y-163351D01*
X203249Y-162699D01*
X203223Y-162684D01*
X203158Y-162185D01*
X203501Y-161842D01*
X203896Y-161158D01*
X204100Y-160395D01*
Y-159605D01*
X203896Y-158842D01*
X203501Y-158158D01*
X202942Y-157599D01*
X202258Y-157204D01*
X201495Y-157000D01*
D02*
G37*
G36*
X108199Y-163400D02*
X106200D01*
Y-165399D01*
X107116Y-165019D01*
X107819Y-164316D01*
X108199Y-163400D01*
D02*
G37*
G36*
X105200D02*
X103201D01*
X103581Y-164316D01*
X104284Y-165019D01*
X105200Y-165399D01*
Y-163400D01*
D02*
G37*
G36*
X181690Y-165600D02*
X178700D01*
Y-168589D01*
X179551Y-168361D01*
X180349Y-167901D01*
X181001Y-167249D01*
X181462Y-166451D01*
X181690Y-165600D01*
D02*
G37*
G36*
X177700D02*
X174711D01*
X174938Y-166451D01*
X175399Y-167249D01*
X176051Y-167901D01*
X176849Y-168361D01*
X177700Y-168589D01*
Y-165600D01*
D02*
G37*
G36*
X204590Y-166000D02*
X201600D01*
Y-168990D01*
X202451Y-168762D01*
X203249Y-168301D01*
X203901Y-167649D01*
X204362Y-166851D01*
X204590Y-166000D01*
D02*
G37*
G36*
X200600D02*
X197610D01*
X197838Y-166851D01*
X198299Y-167649D01*
X198951Y-168301D01*
X199749Y-168762D01*
X200600Y-168990D01*
Y-166000D01*
D02*
G37*
G36*
X127495Y-164900D02*
X122497D01*
X122877Y-165816D01*
X123580Y-166519D01*
X123608Y-166657D01*
X123301Y-166964D01*
X122996Y-167699D01*
Y-168495D01*
X123301Y-169230D01*
X123863Y-169793D01*
X124599Y-170097D01*
X125394D01*
X126129Y-169793D01*
X126692Y-169230D01*
X126996Y-168495D01*
Y-167699D01*
X126692Y-166964D01*
X126385Y-166657D01*
X126413Y-166519D01*
X127116Y-165816D01*
X127495Y-164900D01*
D02*
G37*
G36*
X10413Y-166864D02*
X9587D01*
X8789Y-167078D01*
X8074Y-167490D01*
X7490Y-168074D01*
X7078Y-168790D01*
X6864Y-169587D01*
Y-170413D01*
X7078Y-171211D01*
X7490Y-171926D01*
X8074Y-172510D01*
X8789Y-172923D01*
X9587Y-173136D01*
X10413D01*
X11210Y-172923D01*
X11926Y-172510D01*
X12510Y-171926D01*
X12923Y-171211D01*
X13136Y-170413D01*
Y-169587D01*
X12923Y-168790D01*
X12510Y-168074D01*
X11926Y-167490D01*
X11210Y-167078D01*
X10413Y-166864D01*
D02*
G37*
G36*
X413D02*
X-413D01*
X-1211Y-167078D01*
X-1926Y-167490D01*
X-2510Y-168074D01*
X-2922Y-168790D01*
X-3136Y-169587D01*
Y-170413D01*
X-2922Y-171211D01*
X-2510Y-171926D01*
X-1926Y-172510D01*
X-1211Y-172923D01*
X-413Y-173136D01*
X413D01*
X1211Y-172923D01*
X1926Y-172510D01*
X2510Y-171926D01*
X2922Y-171211D01*
X3136Y-170413D01*
Y-169587D01*
X2922Y-168790D01*
X2510Y-168074D01*
X1926Y-167490D01*
X1211Y-167078D01*
X413Y-166864D01*
D02*
G37*
G36*
X250413Y-166962D02*
X249587D01*
X248790Y-167176D01*
X248074Y-167589D01*
X247490Y-168173D01*
X247077Y-168888D01*
X246864Y-169685D01*
Y-170511D01*
X247077Y-171309D01*
X247490Y-172024D01*
X248074Y-172608D01*
X248790Y-173021D01*
X249587Y-173235D01*
X250413D01*
X251210Y-173021D01*
X251926Y-172608D01*
X252510Y-172024D01*
X252923Y-171309D01*
X253136Y-170511D01*
Y-169685D01*
X252923Y-168888D01*
X252510Y-168173D01*
X251926Y-167589D01*
X251210Y-167176D01*
X250413Y-166962D01*
D02*
G37*
G36*
X240413D02*
X239587D01*
X238790Y-167176D01*
X238074Y-167589D01*
X237490Y-168173D01*
X237077Y-168888D01*
X236864Y-169685D01*
Y-170511D01*
X237077Y-171309D01*
X237490Y-172024D01*
X238074Y-172608D01*
X238790Y-173021D01*
X239587Y-173235D01*
X240413D01*
X241211Y-173021D01*
X241926Y-172608D01*
X242510Y-172024D01*
X242922Y-171309D01*
X243136Y-170511D01*
Y-169685D01*
X242922Y-168888D01*
X242510Y-168173D01*
X241926Y-167589D01*
X241211Y-167176D01*
X240413Y-166962D01*
D02*
G37*
G36*
X139400Y-171801D02*
Y-173800D01*
X141399D01*
X141019Y-172884D01*
X140316Y-172181D01*
X139400Y-171801D01*
D02*
G37*
G36*
X3136Y3136D02*
X-3136D01*
Y-3136D01*
X669D01*
X712Y-3157D01*
X890Y-3165D01*
X1047Y-3189D01*
X1207Y-3229D01*
X1369Y-3286D01*
X1536Y-3361D01*
X1705Y-3454D01*
X1879Y-3567D01*
X2056Y-3700D01*
X2236Y-3852D01*
X2426Y-4033D01*
X2452Y-4043D01*
X4425Y-6017D01*
X4790Y-6261D01*
X5221Y-6346D01*
X13055D01*
X17475Y-10766D01*
Y-82102D01*
X17560Y-82532D01*
X17804Y-82898D01*
X108481Y-173575D01*
X108316Y-173975D01*
X102890D01*
X70519Y-141604D01*
X70154Y-141360D01*
X69724Y-141275D01*
X17600D01*
X17169Y-141360D01*
X16804Y-141604D01*
X12267Y-146142D01*
X12243Y-146150D01*
X12089Y-146288D01*
X11937Y-146399D01*
X11767Y-146499D01*
X11579Y-146586D01*
X11371Y-146661D01*
X11144Y-146723D01*
X10896Y-146772D01*
X10628Y-146807D01*
X10340Y-146826D01*
X10021Y-146831D01*
X9945Y-146864D01*
X9587D01*
X8789Y-147078D01*
X8074Y-147490D01*
X7490Y-148074D01*
X7078Y-148790D01*
X6864Y-149587D01*
Y-150413D01*
X7078Y-151210D01*
X7490Y-151926D01*
X8074Y-152510D01*
X8789Y-152922D01*
X9587Y-153136D01*
X10413D01*
X11210Y-152922D01*
X11926Y-152510D01*
X12510Y-151926D01*
X12923Y-151210D01*
X13136Y-150413D01*
Y-150055D01*
X13169Y-149979D01*
X13174Y-149660D01*
X13193Y-149372D01*
X13228Y-149104D01*
X13276Y-148856D01*
X13339Y-148629D01*
X13414Y-148421D01*
X13501Y-148233D01*
X13600Y-148063D01*
X13712Y-147910D01*
X13850Y-147757D01*
X13858Y-147733D01*
X18066Y-143525D01*
X69257D01*
X101363Y-175630D01*
X101265Y-176099D01*
X100584Y-176381D01*
X99881Y-177084D01*
X99501Y-178000D01*
X104499D01*
X104119Y-177084D01*
X103661Y-176625D01*
X103826Y-176225D01*
X134144D01*
X134186Y-176268D01*
X134693Y-176478D01*
X135241D01*
X135748Y-176268D01*
X136135Y-175881D01*
X136275Y-175542D01*
X136708D01*
X136781Y-175716D01*
X137484Y-176419D01*
X138400Y-176799D01*
Y-174300D01*
Y-171801D01*
X137484Y-172181D01*
X136781Y-172884D01*
X136400Y-173803D01*
Y-174019D01*
X136000Y-174184D01*
X135748Y-173932D01*
X135241Y-173722D01*
X134693D01*
X134186Y-173932D01*
X134144Y-173975D01*
X132545D01*
X132291Y-173575D01*
X132408Y-173293D01*
Y-172744D01*
X132198Y-172238D01*
X131810Y-171850D01*
X131304Y-171640D01*
X130756D01*
X130249Y-171850D01*
X130206Y-171893D01*
X109983D01*
X19725Y-81636D01*
Y-10300D01*
X19640Y-9869D01*
X19396Y-9504D01*
X14317Y-4425D01*
X13952Y-4181D01*
X13521Y-4096D01*
X5687D01*
X4043Y-2452D01*
X4033Y-2426D01*
X3853Y-2236D01*
X3700Y-2056D01*
X3567Y-1879D01*
X3454Y-1705D01*
X3361Y-1536D01*
X3286Y-1369D01*
X3229Y-1207D01*
X3189Y-1047D01*
X3165Y-890D01*
X3157Y-712D01*
X3136Y-669D01*
Y3136D01*
D02*
G37*
G36*
X141399Y-174800D02*
X139400D01*
Y-176799D01*
X140316Y-176419D01*
X141019Y-175716D01*
X141399Y-174800D01*
D02*
G37*
G36*
X10413Y-176864D02*
X9587D01*
X8789Y-177077D01*
X8074Y-177490D01*
X7490Y-178074D01*
X7078Y-178789D01*
X6864Y-179587D01*
Y-180413D01*
X7078Y-181210D01*
X7490Y-181926D01*
X8074Y-182510D01*
X8789Y-182922D01*
X9587Y-183136D01*
X10413D01*
X11210Y-182922D01*
X11926Y-182510D01*
X12510Y-181926D01*
X12923Y-181210D01*
X13136Y-180413D01*
Y-179587D01*
X12923Y-178789D01*
X12510Y-178074D01*
X11926Y-177490D01*
X11210Y-177077D01*
X10413Y-176864D01*
D02*
G37*
G36*
X413D02*
X-413D01*
X-1211Y-177077D01*
X-1926Y-177490D01*
X-2510Y-178074D01*
X-2922Y-178789D01*
X-3136Y-179587D01*
Y-180413D01*
X-2922Y-181210D01*
X-2510Y-181926D01*
X-1926Y-182510D01*
X-1211Y-182922D01*
X-413Y-183136D01*
X413D01*
X1211Y-182922D01*
X1926Y-182510D01*
X2510Y-181926D01*
X2922Y-181210D01*
X3136Y-180413D01*
Y-179587D01*
X2922Y-178789D01*
X2510Y-178074D01*
X1926Y-177490D01*
X1211Y-177077D01*
X413Y-176864D01*
D02*
G37*
G36*
X250413Y-176962D02*
X249587D01*
X248790Y-177176D01*
X248074Y-177589D01*
X247490Y-178173D01*
X247077Y-178888D01*
X246864Y-179685D01*
Y-180511D01*
X247077Y-181309D01*
X247490Y-182024D01*
X248074Y-182608D01*
X248790Y-183021D01*
X249587Y-183235D01*
X250413D01*
X251210Y-183021D01*
X251926Y-182608D01*
X252510Y-182024D01*
X252923Y-181309D01*
X253136Y-180511D01*
Y-179685D01*
X252923Y-178888D01*
X252510Y-178173D01*
X251926Y-177589D01*
X251210Y-177176D01*
X250413Y-176962D01*
D02*
G37*
G36*
X240413D02*
X239587D01*
X238790Y-177176D01*
X238074Y-177589D01*
X237490Y-178173D01*
X237077Y-178888D01*
X236864Y-179685D01*
Y-180511D01*
X237077Y-181309D01*
X237490Y-182024D01*
X238074Y-182608D01*
X238790Y-183021D01*
X239587Y-183235D01*
X240413D01*
X241211Y-183021D01*
X241926Y-182608D01*
X242510Y-182024D01*
X242922Y-181309D01*
X243136Y-180511D01*
Y-179685D01*
X242922Y-178888D01*
X242510Y-178173D01*
X241926Y-177589D01*
X241211Y-177176D01*
X240413Y-176962D01*
D02*
G37*
G36*
X158507Y-178513D02*
X157711D01*
X156976Y-178817D01*
X156413Y-179380D01*
X156109Y-180115D01*
Y-180910D01*
X156413Y-181646D01*
X156677Y-181909D01*
X155989Y-182597D01*
X155610Y-183513D01*
X160608D01*
X160228Y-182597D01*
X159541Y-181909D01*
X159804Y-181646D01*
X160109Y-180910D01*
Y-180115D01*
X159804Y-179380D01*
X159242Y-178817D01*
X158507Y-178513D01*
D02*
G37*
G36*
X104499Y-179000D02*
X99501D01*
X99881Y-179916D01*
X100584Y-180619D01*
X100602Y-180711D01*
X100449Y-180864D01*
X100144Y-181599D01*
Y-182395D01*
X100449Y-183130D01*
X101011Y-183693D01*
X101746Y-183997D01*
X102542D01*
X103277Y-183693D01*
X103840Y-183130D01*
X104144Y-182395D01*
Y-181599D01*
X103840Y-180864D01*
X103506Y-180530D01*
X104119Y-179916D01*
X104499Y-179000D01*
D02*
G37*
G36*
X80675Y-174376D02*
X79325D01*
X78022Y-174725D01*
X76854Y-175399D01*
X75899Y-176354D01*
X75225Y-177522D01*
X74876Y-178825D01*
Y-180175D01*
X75225Y-181478D01*
X75899Y-182647D01*
X76854Y-183600D01*
X78022Y-184275D01*
X79325Y-184624D01*
X80675D01*
X81978Y-184275D01*
X83147Y-183600D01*
X84101Y-182647D01*
X84775Y-181478D01*
X85124Y-180175D01*
Y-178825D01*
X84775Y-177522D01*
X84101Y-176354D01*
X83147Y-175399D01*
X81978Y-174725D01*
X80675Y-174376D01*
D02*
G37*
G36*
X160608Y-184513D02*
X158609D01*
Y-186512D01*
X159525Y-186132D01*
X160228Y-185429D01*
X160608Y-184513D01*
D02*
G37*
G36*
X157609D02*
X155610D01*
X155989Y-185429D01*
X156693Y-186132D01*
X157609Y-186512D01*
Y-184513D01*
D02*
G37*
G36*
X185675Y-184276D02*
X185200D01*
Y-189200D01*
X190124D01*
Y-188725D01*
X189775Y-187422D01*
X189101Y-186253D01*
X188146Y-185300D01*
X186978Y-184625D01*
X185675Y-184276D01*
D02*
G37*
G36*
X184800D02*
X184325D01*
X183022Y-184625D01*
X181853Y-185300D01*
X180900Y-186253D01*
X180225Y-187422D01*
X179876Y-188725D01*
Y-189200D01*
X184800D01*
Y-184276D01*
D02*
G37*
G36*
X240413Y-186962D02*
X240200D01*
Y-189898D01*
X243136D01*
Y-189685D01*
X242922Y-188888D01*
X242510Y-188173D01*
X241926Y-187589D01*
X241211Y-187176D01*
X240413Y-186962D01*
D02*
G37*
G36*
X239800D02*
X239587D01*
X238790Y-187176D01*
X238074Y-187589D01*
X237490Y-188173D01*
X237077Y-188888D01*
X236864Y-189685D01*
Y-189898D01*
X239800D01*
Y-186962D01*
D02*
G37*
G36*
X112207Y-191372D02*
Y-192559D01*
X113394D01*
X113191Y-192068D01*
X112698Y-191576D01*
X112207Y-191372D01*
D02*
G37*
G36*
X111207D02*
X110716Y-191576D01*
X110223Y-192068D01*
X110020Y-192559D01*
X111207D01*
Y-191372D01*
D02*
G37*
G36*
X10413Y-186864D02*
X9587D01*
X8789Y-187077D01*
X8074Y-187490D01*
X7490Y-188074D01*
X7078Y-188789D01*
X6864Y-189587D01*
Y-190413D01*
X7078Y-191210D01*
X7490Y-191926D01*
X8074Y-192510D01*
X8789Y-192922D01*
X9587Y-193136D01*
X10413D01*
X11210Y-192922D01*
X11926Y-192510D01*
X12510Y-191926D01*
X12923Y-191210D01*
X13136Y-190413D01*
Y-189587D01*
X12923Y-188789D01*
X12510Y-188074D01*
X11926Y-187490D01*
X11210Y-187077D01*
X10413Y-186864D01*
D02*
G37*
G36*
X413D02*
X-413D01*
X-1211Y-187077D01*
X-1926Y-187490D01*
X-2510Y-188074D01*
X-2922Y-188789D01*
X-3136Y-189587D01*
Y-190413D01*
X-2922Y-191210D01*
X-2510Y-191926D01*
X-1926Y-192510D01*
X-1211Y-192922D01*
X-413Y-193136D01*
X413D01*
X1211Y-192922D01*
X1926Y-192510D01*
X2510Y-191926D01*
X2922Y-191210D01*
X3136Y-190413D01*
Y-189587D01*
X2922Y-188789D01*
X2510Y-188074D01*
X1926Y-187490D01*
X1211Y-187077D01*
X413Y-186864D01*
D02*
G37*
G36*
X250413Y-186962D02*
X249587D01*
X248790Y-187176D01*
X248074Y-187589D01*
X247490Y-188173D01*
X247077Y-188888D01*
X246864Y-189685D01*
Y-190511D01*
X247077Y-191309D01*
X247490Y-192024D01*
X248074Y-192608D01*
X248790Y-193021D01*
X249587Y-193235D01*
X250413D01*
X251210Y-193021D01*
X251926Y-192608D01*
X252510Y-192024D01*
X252923Y-191309D01*
X253136Y-190511D01*
Y-189685D01*
X252923Y-188888D01*
X252510Y-188173D01*
X251926Y-187589D01*
X251210Y-187176D01*
X250413Y-186962D01*
D02*
G37*
G36*
X243136Y-190298D02*
X240200D01*
Y-193235D01*
X240413D01*
X241211Y-193021D01*
X241926Y-192608D01*
X242510Y-192024D01*
X242922Y-191309D01*
X243136Y-190511D01*
Y-190298D01*
D02*
G37*
G36*
X239800D02*
X236864D01*
Y-190511D01*
X237077Y-191309D01*
X237490Y-192024D01*
X238074Y-192608D01*
X238790Y-193021D01*
X239587Y-193235D01*
X239800D01*
Y-190298D01*
D02*
G37*
G36*
X205375Y-183976D02*
X204025D01*
X202722Y-184325D01*
X201554Y-185000D01*
X200600Y-185953D01*
X199925Y-187122D01*
X199576Y-188425D01*
Y-189775D01*
X199925Y-191078D01*
X200600Y-192246D01*
X201554Y-193201D01*
X202722Y-193875D01*
X204025Y-194224D01*
X205375D01*
X206678Y-193875D01*
X207846Y-193201D01*
X208801Y-192246D01*
X209475Y-191078D01*
X209824Y-189775D01*
Y-188425D01*
X209475Y-187122D01*
X208801Y-185953D01*
X207846Y-185000D01*
X206678Y-184325D01*
X205375Y-183976D01*
D02*
G37*
G36*
X190124Y-189600D02*
X185200D01*
Y-194524D01*
X185675D01*
X186978Y-194175D01*
X188146Y-193500D01*
X189101Y-192546D01*
X189775Y-191378D01*
X190124Y-190075D01*
Y-189600D01*
D02*
G37*
G36*
X184800D02*
X179876D01*
Y-190075D01*
X180225Y-191378D01*
X180900Y-192546D01*
X181853Y-193500D01*
X183022Y-194175D01*
X184325Y-194524D01*
X184800D01*
Y-189600D01*
D02*
G37*
G36*
X113394Y-193559D02*
X109694D01*
X109216Y-194037D01*
X109013Y-194528D01*
X112713D01*
X113191Y-194051D01*
X113394Y-193559D01*
D02*
G37*
G36*
X112714Y-195528D02*
X109013D01*
X109216Y-196019D01*
X109694Y-196496D01*
X113394D01*
X113191Y-196005D01*
X112714Y-195528D01*
D02*
G37*
G36*
X113394Y-197496D02*
X109694D01*
X109216Y-197974D01*
X109013Y-198465D01*
X112713D01*
X113191Y-197988D01*
X113394Y-197496D01*
D02*
G37*
G36*
X112714Y-199465D02*
X109013D01*
X109216Y-199956D01*
X109694Y-200433D01*
X113394D01*
X113191Y-199942D01*
X112714Y-199465D01*
D02*
G37*
G36*
X113394Y-201433D02*
X109694D01*
X109216Y-201911D01*
X109013Y-202402D01*
X112713D01*
X113191Y-201925D01*
X113394Y-201433D01*
D02*
G37*
G36*
X10413Y-196864D02*
X9587D01*
X8789Y-197078D01*
X8074Y-197490D01*
X7490Y-198074D01*
X7078Y-198790D01*
X6864Y-199587D01*
Y-200413D01*
X7078Y-201210D01*
X7490Y-201926D01*
X8074Y-202510D01*
X8789Y-202923D01*
X9587Y-203136D01*
X10413D01*
X11210Y-202923D01*
X11926Y-202510D01*
X12510Y-201926D01*
X12923Y-201210D01*
X13136Y-200413D01*
Y-199587D01*
X12923Y-198790D01*
X12510Y-198074D01*
X11926Y-197490D01*
X11210Y-197078D01*
X10413Y-196864D01*
D02*
G37*
G36*
X413D02*
X-413D01*
X-1211Y-197078D01*
X-1926Y-197490D01*
X-2510Y-198074D01*
X-2922Y-198790D01*
X-3136Y-199587D01*
Y-200413D01*
X-2922Y-201210D01*
X-2510Y-201926D01*
X-1926Y-202510D01*
X-1211Y-202923D01*
X-413Y-203136D01*
X413D01*
X1211Y-202923D01*
X1926Y-202510D01*
X2510Y-201926D01*
X2922Y-201210D01*
X3136Y-200413D01*
Y-199587D01*
X2922Y-198790D01*
X2510Y-198074D01*
X1926Y-197490D01*
X1211Y-197078D01*
X413Y-196864D01*
D02*
G37*
G36*
X250413Y-196962D02*
X249587D01*
X248790Y-197176D01*
X248074Y-197589D01*
X247490Y-198173D01*
X247077Y-198888D01*
X246864Y-199686D01*
Y-200511D01*
X247077Y-201309D01*
X247490Y-202024D01*
X248074Y-202608D01*
X248790Y-203021D01*
X249587Y-203235D01*
X250413D01*
X251210Y-203021D01*
X251926Y-202608D01*
X252510Y-202024D01*
X252923Y-201309D01*
X253136Y-200511D01*
Y-199686D01*
X252923Y-198888D01*
X252510Y-198173D01*
X251926Y-197589D01*
X251210Y-197176D01*
X250413Y-196962D01*
D02*
G37*
G36*
X240413D02*
X239587D01*
X238790Y-197176D01*
X238074Y-197589D01*
X237490Y-198173D01*
X237077Y-198888D01*
X236864Y-199686D01*
Y-200511D01*
X237077Y-201309D01*
X237490Y-202024D01*
X238074Y-202608D01*
X238790Y-203021D01*
X239587Y-203235D01*
X240413D01*
X241211Y-203021D01*
X241926Y-202608D01*
X242510Y-202024D01*
X242922Y-201309D01*
X243136Y-200511D01*
Y-199686D01*
X242922Y-198888D01*
X242510Y-198173D01*
X241926Y-197589D01*
X241211Y-197176D01*
X240413Y-196962D01*
D02*
G37*
G36*
X10413Y-206864D02*
X9587D01*
X8789Y-207078D01*
X8074Y-207490D01*
X7490Y-208074D01*
X7078Y-208789D01*
X6864Y-209587D01*
Y-210413D01*
X7078Y-211210D01*
X7490Y-211926D01*
X8074Y-212510D01*
X8789Y-212923D01*
X9587Y-213136D01*
X10413D01*
X11210Y-212923D01*
X11926Y-212510D01*
X12510Y-211926D01*
X12923Y-211210D01*
X13136Y-210413D01*
Y-209587D01*
X12923Y-208789D01*
X12510Y-208074D01*
X11926Y-207490D01*
X11210Y-207078D01*
X10413Y-206864D01*
D02*
G37*
G36*
X413D02*
X-413D01*
X-1211Y-207078D01*
X-1926Y-207490D01*
X-2510Y-208074D01*
X-2922Y-208789D01*
X-3136Y-209587D01*
Y-210413D01*
X-2922Y-211210D01*
X-2510Y-211926D01*
X-1926Y-212510D01*
X-1211Y-212923D01*
X-413Y-213136D01*
X413D01*
X1211Y-212923D01*
X1926Y-212510D01*
X2510Y-211926D01*
X2922Y-211210D01*
X3136Y-210413D01*
Y-209587D01*
X2922Y-208789D01*
X2510Y-208074D01*
X1926Y-207490D01*
X1211Y-207078D01*
X413Y-206864D01*
D02*
G37*
G36*
X250413Y-206962D02*
X249587D01*
X248790Y-207176D01*
X248074Y-207589D01*
X247490Y-208173D01*
X247077Y-208888D01*
X246864Y-209685D01*
Y-210511D01*
X247077Y-211309D01*
X247490Y-212024D01*
X248074Y-212608D01*
X248790Y-213021D01*
X249587Y-213235D01*
X250413D01*
X251210Y-213021D01*
X251926Y-212608D01*
X252510Y-212024D01*
X252923Y-211309D01*
X253136Y-210511D01*
Y-209685D01*
X252923Y-208888D01*
X252510Y-208173D01*
X251926Y-207589D01*
X251210Y-207176D01*
X250413Y-206962D01*
D02*
G37*
G36*
X240413D02*
X239587D01*
X238790Y-207176D01*
X238074Y-207589D01*
X237490Y-208173D01*
X237077Y-208888D01*
X236864Y-209685D01*
Y-210511D01*
X237077Y-211309D01*
X237490Y-212024D01*
X238074Y-212608D01*
X238790Y-213021D01*
X239587Y-213235D01*
X240413D01*
X241211Y-213021D01*
X241926Y-212608D01*
X242510Y-212024D01*
X242922Y-211309D01*
X243136Y-210511D01*
Y-209685D01*
X242922Y-208888D01*
X242510Y-208173D01*
X241926Y-207589D01*
X241211Y-207176D01*
X240413Y-206962D01*
D02*
G37*
G36*
X195175Y-210376D02*
X193825D01*
X192522Y-210725D01*
X191353Y-211399D01*
X190400Y-212353D01*
X189725Y-213522D01*
X189376Y-214825D01*
Y-216175D01*
X189725Y-217478D01*
X190400Y-218647D01*
X191353Y-219601D01*
X192522Y-220275D01*
X193825Y-220624D01*
X195175D01*
X196478Y-220275D01*
X197646Y-219601D01*
X198600Y-218647D01*
X199275Y-217478D01*
X199624Y-216175D01*
Y-214825D01*
X199275Y-213522D01*
X198600Y-212353D01*
X197646Y-211399D01*
X196478Y-210725D01*
X195175Y-210376D01*
D02*
G37*
G36*
X10413Y-216864D02*
X9587D01*
X8789Y-217077D01*
X8074Y-217490D01*
X7490Y-218074D01*
X7078Y-218790D01*
X6864Y-219587D01*
Y-220413D01*
X7078Y-221211D01*
X7490Y-221926D01*
X8074Y-222510D01*
X8789Y-222922D01*
X9587Y-223136D01*
X10413D01*
X11210Y-222922D01*
X11926Y-222510D01*
X12510Y-221926D01*
X12923Y-221211D01*
X13136Y-220413D01*
Y-219587D01*
X12923Y-218790D01*
X12510Y-218074D01*
X11926Y-217490D01*
X11210Y-217077D01*
X10413Y-216864D01*
D02*
G37*
G36*
X413D02*
X-413D01*
X-1211Y-217077D01*
X-1926Y-217490D01*
X-2510Y-218074D01*
X-2922Y-218790D01*
X-3136Y-219587D01*
Y-220413D01*
X-2922Y-221211D01*
X-2510Y-221926D01*
X-1926Y-222510D01*
X-1211Y-222922D01*
X-413Y-223136D01*
X413D01*
X1211Y-222922D01*
X1926Y-222510D01*
X2510Y-221926D01*
X2922Y-221211D01*
X3136Y-220413D01*
Y-219587D01*
X2922Y-218790D01*
X2510Y-218074D01*
X1926Y-217490D01*
X1211Y-217077D01*
X413Y-216864D01*
D02*
G37*
G36*
X250413Y-216962D02*
X249587D01*
X248790Y-217176D01*
X248074Y-217589D01*
X247490Y-218173D01*
X247077Y-218888D01*
X246864Y-219686D01*
Y-220511D01*
X247077Y-221309D01*
X247490Y-222024D01*
X248074Y-222608D01*
X248790Y-223021D01*
X249587Y-223235D01*
X250413D01*
X251210Y-223021D01*
X251926Y-222608D01*
X252510Y-222024D01*
X252923Y-221309D01*
X253136Y-220511D01*
Y-219686D01*
X252923Y-218888D01*
X252510Y-218173D01*
X251926Y-217589D01*
X251210Y-217176D01*
X250413Y-216962D01*
D02*
G37*
G36*
X240413D02*
X239587D01*
X238790Y-217176D01*
X238074Y-217589D01*
X237490Y-218173D01*
X237077Y-218888D01*
X236864Y-219686D01*
Y-220511D01*
X237077Y-221309D01*
X237490Y-222024D01*
X238074Y-222608D01*
X238790Y-223021D01*
X239587Y-223235D01*
X240413D01*
X241211Y-223021D01*
X241926Y-222608D01*
X242510Y-222024D01*
X242922Y-221309D01*
X243136Y-220511D01*
Y-219686D01*
X242922Y-218888D01*
X242510Y-218173D01*
X241926Y-217589D01*
X241211Y-217176D01*
X240413Y-216962D01*
D02*
G37*
G36*
X10413Y-226864D02*
X9587D01*
X8789Y-227078D01*
X8074Y-227490D01*
X7490Y-228074D01*
X7078Y-228789D01*
X6864Y-229587D01*
Y-230413D01*
X7078Y-231210D01*
X7490Y-231926D01*
X8074Y-232510D01*
X8789Y-232923D01*
X9587Y-233136D01*
X10413D01*
X11210Y-232923D01*
X11926Y-232510D01*
X12510Y-231926D01*
X12923Y-231210D01*
X13136Y-230413D01*
Y-229587D01*
X12923Y-228789D01*
X12510Y-228074D01*
X11926Y-227490D01*
X11210Y-227078D01*
X10413Y-226864D01*
D02*
G37*
G36*
X413D02*
X-413D01*
X-1211Y-227078D01*
X-1926Y-227490D01*
X-2510Y-228074D01*
X-2922Y-228789D01*
X-3136Y-229587D01*
Y-230413D01*
X-2922Y-231210D01*
X-2510Y-231926D01*
X-1926Y-232510D01*
X-1211Y-232923D01*
X-413Y-233136D01*
X413D01*
X1211Y-232923D01*
X1926Y-232510D01*
X2510Y-231926D01*
X2922Y-231210D01*
X3136Y-230413D01*
Y-229587D01*
X2922Y-228789D01*
X2510Y-228074D01*
X1926Y-227490D01*
X1211Y-227078D01*
X413Y-226864D01*
D02*
G37*
G36*
X250413Y-226962D02*
X249587D01*
X248790Y-227176D01*
X248074Y-227589D01*
X247490Y-228173D01*
X247077Y-228888D01*
X246864Y-229685D01*
Y-230511D01*
X247077Y-231309D01*
X247490Y-232024D01*
X248074Y-232608D01*
X248790Y-233021D01*
X249587Y-233235D01*
X250413D01*
X251210Y-233021D01*
X251926Y-232608D01*
X252510Y-232024D01*
X252923Y-231309D01*
X253136Y-230511D01*
Y-229685D01*
X252923Y-228888D01*
X252510Y-228173D01*
X251926Y-227589D01*
X251210Y-227176D01*
X250413Y-226962D01*
D02*
G37*
G36*
X240413D02*
X239587D01*
X238790Y-227176D01*
X238074Y-227589D01*
X237490Y-228173D01*
X237077Y-228888D01*
X236864Y-229685D01*
Y-230511D01*
X237077Y-231309D01*
X237490Y-232024D01*
X238074Y-232608D01*
X238790Y-233021D01*
X239587Y-233235D01*
X240413D01*
X241211Y-233021D01*
X241926Y-232608D01*
X242510Y-232024D01*
X242922Y-231309D01*
X243136Y-230511D01*
Y-229685D01*
X242922Y-228888D01*
X242510Y-228173D01*
X241926Y-227589D01*
X241211Y-227176D01*
X240413Y-226962D01*
D02*
G37*
G36*
X98100Y-235001D02*
Y-237000D01*
X100099D01*
X99719Y-236084D01*
X99016Y-235381D01*
X98100Y-235001D01*
D02*
G37*
G36*
X97100D02*
X96184Y-235381D01*
X95481Y-236084D01*
X95101Y-237000D01*
X97100D01*
Y-235001D01*
D02*
G37*
G36*
X77800Y-235101D02*
Y-237100D01*
X79799D01*
X79419Y-236184D01*
X78716Y-235481D01*
X77800Y-235101D01*
D02*
G37*
G36*
X76800D02*
X75884Y-235481D01*
X75181Y-236184D01*
X74801Y-237100D01*
X76800D01*
Y-235101D01*
D02*
G37*
G36*
X413Y-236864D02*
X200D01*
Y-239800D01*
X3136D01*
Y-239587D01*
X2922Y-238790D01*
X2510Y-238074D01*
X1926Y-237490D01*
X1211Y-237077D01*
X413Y-236864D01*
D02*
G37*
G36*
X-200D02*
X-413D01*
X-1211Y-237077D01*
X-1926Y-237490D01*
X-2510Y-238074D01*
X-2922Y-238790D01*
X-3136Y-239587D01*
Y-239800D01*
X-200D01*
Y-236864D01*
D02*
G37*
G36*
X100099Y-238000D02*
X95101D01*
X95481Y-238916D01*
X96168Y-239604D01*
X95904Y-239867D01*
X95600Y-240602D01*
Y-241398D01*
X95904Y-242133D01*
X96467Y-242695D01*
X97202Y-243000D01*
X97998D01*
X98733Y-242695D01*
X99296Y-242133D01*
X99600Y-241398D01*
Y-240602D01*
X99296Y-239867D01*
X99032Y-239604D01*
X99719Y-238916D01*
X100099Y-238000D01*
D02*
G37*
G36*
X79799Y-238100D02*
X74801D01*
X75181Y-239016D01*
X75868Y-239704D01*
X75604Y-239967D01*
X75300Y-240702D01*
Y-241498D01*
X75604Y-242233D01*
X76167Y-242795D01*
X76902Y-243100D01*
X77698D01*
X78433Y-242795D01*
X78996Y-242233D01*
X79300Y-241498D01*
Y-240702D01*
X78996Y-239967D01*
X78732Y-239704D01*
X79419Y-239016D01*
X79799Y-238100D01*
D02*
G37*
G36*
X10413Y-236864D02*
X9587D01*
X8789Y-237077D01*
X8074Y-237490D01*
X7490Y-238074D01*
X7078Y-238790D01*
X6864Y-239587D01*
Y-240413D01*
X7078Y-241211D01*
X7490Y-241926D01*
X8074Y-242510D01*
X8789Y-242922D01*
X9587Y-243136D01*
X10413D01*
X11210Y-242922D01*
X11926Y-242510D01*
X12510Y-241926D01*
X12923Y-241211D01*
X13136Y-240413D01*
Y-239587D01*
X12923Y-238790D01*
X12510Y-238074D01*
X11926Y-237490D01*
X11210Y-237077D01*
X10413Y-236864D01*
D02*
G37*
G36*
X3136Y-240200D02*
X200D01*
Y-243136D01*
X413D01*
X1211Y-242922D01*
X1926Y-242510D01*
X2510Y-241926D01*
X2922Y-241211D01*
X3136Y-240413D01*
Y-240200D01*
D02*
G37*
G36*
X-200D02*
X-3136D01*
Y-240413D01*
X-2922Y-241211D01*
X-2510Y-241926D01*
X-1926Y-242510D01*
X-1211Y-242922D01*
X-413Y-243136D01*
X-200D01*
Y-240200D01*
D02*
G37*
G36*
X250413Y-236962D02*
X249587D01*
X248790Y-237176D01*
X248074Y-237589D01*
X247490Y-238173D01*
X247077Y-238888D01*
X246864Y-239686D01*
Y-240511D01*
X247077Y-241309D01*
X247490Y-242024D01*
X248074Y-242608D01*
X248790Y-243021D01*
X249587Y-243235D01*
X250413D01*
X251210Y-243021D01*
X251926Y-242608D01*
X252510Y-242024D01*
X252923Y-241309D01*
X253136Y-240511D01*
Y-239686D01*
X252923Y-238888D01*
X252510Y-238173D01*
X251926Y-237589D01*
X251210Y-237176D01*
X250413Y-236962D01*
D02*
G37*
G36*
X240413D02*
X239587D01*
X238790Y-237176D01*
X238074Y-237589D01*
X237490Y-238173D01*
X237077Y-238888D01*
X236864Y-239686D01*
Y-240511D01*
X237077Y-241309D01*
X237490Y-242024D01*
X238074Y-242608D01*
X238790Y-243021D01*
X239587Y-243235D01*
X240413D01*
X241211Y-243021D01*
X241926Y-242608D01*
X242510Y-242024D01*
X242922Y-241309D01*
X243136Y-240511D01*
Y-239686D01*
X242922Y-238888D01*
X242510Y-238173D01*
X241926Y-237589D01*
X241211Y-237176D01*
X240413Y-236962D01*
D02*
G37*
G36*
X73157Y-246994D02*
Y-248182D01*
X74344D01*
X74141Y-247690D01*
X73649Y-247198D01*
X73157Y-246994D01*
D02*
G37*
G36*
X72157D02*
X71666Y-247198D01*
X71174Y-247690D01*
X70970Y-248182D01*
X72157D01*
Y-246994D01*
D02*
G37*
G36*
X97700Y-247313D02*
Y-248500D01*
X98887D01*
X98684Y-248009D01*
X98191Y-247516D01*
X97700Y-247313D01*
D02*
G37*
G36*
X96700D02*
X96209Y-247516D01*
X95716Y-248009D01*
X95513Y-248500D01*
X96700D01*
Y-247313D01*
D02*
G37*
G36*
X202013Y-246503D02*
Y-248502D01*
X204012D01*
X203632Y-247586D01*
X202929Y-246882D01*
X202013Y-246503D01*
D02*
G37*
G36*
X201013D02*
X200097Y-246882D01*
X199393Y-247586D01*
X199014Y-248502D01*
X201013D01*
Y-246503D01*
D02*
G37*
G36*
X182300Y-246701D02*
Y-248700D01*
X184299D01*
X183919Y-247784D01*
X183216Y-247081D01*
X182300Y-246701D01*
D02*
G37*
G36*
X181300D02*
X180384Y-247081D01*
X179681Y-247784D01*
X179301Y-248700D01*
X181300D01*
Y-246701D01*
D02*
G37*
G36*
X88382Y-245282D02*
X82379D01*
X82028Y-245352D01*
X81730Y-245551D01*
X80170Y-247111D01*
X80143Y-247122D01*
X79805D01*
X79298Y-247332D01*
X78911Y-247720D01*
X78701Y-248226D01*
Y-248774D01*
X78911Y-249281D01*
X79298Y-249668D01*
X79805Y-249878D01*
X80353D01*
X80859Y-249668D01*
X81247Y-249281D01*
X81457Y-248774D01*
Y-248442D01*
X81468Y-248430D01*
X81479Y-248397D01*
X82759Y-247118D01*
X85185D01*
X85430Y-247518D01*
X85313Y-247800D01*
X87000D01*
Y-248300D01*
X87500D01*
Y-249987D01*
X87991Y-249784D01*
X88484Y-249291D01*
X88750Y-248648D01*
Y-248432D01*
X89150Y-248266D01*
X89833Y-248949D01*
X90130Y-249148D01*
X90482Y-249218D01*
X91953D01*
X91980Y-249229D01*
X92219Y-249468D01*
X92726Y-249678D01*
X93274D01*
X93781Y-249468D01*
X94168Y-249080D01*
X94378Y-248574D01*
Y-248026D01*
X94168Y-247519D01*
X93781Y-247132D01*
X93274Y-246922D01*
X92726D01*
X92219Y-247132D01*
X91984Y-247367D01*
X91968Y-247368D01*
X91937Y-247382D01*
X90862D01*
X89030Y-245551D01*
X88733Y-245352D01*
X88382Y-245282D01*
D02*
G37*
G36*
X86500Y-248800D02*
X85313D01*
X85516Y-249291D01*
X86009Y-249784D01*
X86500Y-249987D01*
Y-248800D01*
D02*
G37*
G36*
X74344Y-249182D02*
X73157D01*
Y-250369D01*
X73649Y-250165D01*
X74141Y-249673D01*
X74344Y-249182D01*
D02*
G37*
G36*
X72157D02*
X70970D01*
X71174Y-249673D01*
X71666Y-250165D01*
X72157Y-250369D01*
Y-249182D01*
D02*
G37*
G36*
X98887Y-249500D02*
X97700D01*
Y-250687D01*
X98191Y-250484D01*
X98684Y-249991D01*
X98887Y-249500D01*
D02*
G37*
G36*
X96700D02*
X95513D01*
X95716Y-249991D01*
X96209Y-250484D01*
X96700Y-250687D01*
Y-249500D01*
D02*
G37*
G36*
X10413Y-246864D02*
X9587D01*
X8789Y-247077D01*
X8074Y-247490D01*
X7490Y-248074D01*
X7078Y-248790D01*
X6864Y-249587D01*
Y-250413D01*
X7078Y-251210D01*
X7490Y-251926D01*
X8074Y-252510D01*
X8789Y-252923D01*
X9587Y-253136D01*
X10413D01*
X11210Y-252923D01*
X11926Y-252510D01*
X12510Y-251926D01*
X12923Y-251210D01*
X13136Y-250413D01*
Y-249587D01*
X12923Y-248790D01*
X12510Y-248074D01*
X11926Y-247490D01*
X11210Y-247077D01*
X10413Y-246864D01*
D02*
G37*
G36*
X413D02*
X-413D01*
X-1211Y-247077D01*
X-1926Y-247490D01*
X-2510Y-248074D01*
X-2922Y-248790D01*
X-3136Y-249587D01*
Y-250413D01*
X-2922Y-251210D01*
X-2510Y-251926D01*
X-1926Y-252510D01*
X-1211Y-252923D01*
X-413Y-253136D01*
X413D01*
X1211Y-252923D01*
X1926Y-252510D01*
X2510Y-251926D01*
X2922Y-251210D01*
X3136Y-250413D01*
Y-249587D01*
X2922Y-248790D01*
X2510Y-248074D01*
X1926Y-247490D01*
X1211Y-247077D01*
X413Y-246864D01*
D02*
G37*
G36*
X250413Y-246962D02*
X249587D01*
X248790Y-247176D01*
X248074Y-247589D01*
X247490Y-248173D01*
X247077Y-248888D01*
X246864Y-249686D01*
Y-250511D01*
X247077Y-251309D01*
X247490Y-252024D01*
X248074Y-252608D01*
X248790Y-253021D01*
X249587Y-253235D01*
X250413D01*
X251210Y-253021D01*
X251926Y-252608D01*
X252510Y-252024D01*
X252923Y-251309D01*
X253136Y-250511D01*
Y-249686D01*
X252923Y-248888D01*
X252510Y-248173D01*
X251926Y-247589D01*
X251210Y-247176D01*
X250413Y-246962D01*
D02*
G37*
G36*
X240413D02*
X239587D01*
X238790Y-247176D01*
X238074Y-247589D01*
X237490Y-248173D01*
X237077Y-248888D01*
X236864Y-249686D01*
Y-250511D01*
X237077Y-251309D01*
X237490Y-252024D01*
X238074Y-252608D01*
X238790Y-253021D01*
X239587Y-253235D01*
X240413D01*
X241211Y-253021D01*
X241926Y-252608D01*
X242510Y-252024D01*
X242922Y-251309D01*
X243136Y-250511D01*
Y-249686D01*
X242922Y-248888D01*
X242510Y-248173D01*
X241926Y-247589D01*
X241211Y-247176D01*
X240413Y-246962D01*
D02*
G37*
G36*
X63800Y-170000D02*
X19000D01*
Y-253500D01*
X63800D01*
Y-170000D01*
D02*
G37*
G36*
X204012Y-249502D02*
X199014D01*
X199393Y-250418D01*
X200024Y-251048D01*
X199705Y-251367D01*
X199400Y-252102D01*
Y-252898D01*
X199705Y-253633D01*
X200267Y-254195D01*
X201002Y-254500D01*
X201798D01*
X202533Y-254195D01*
X203096Y-253633D01*
X203400Y-252898D01*
Y-252102D01*
X203096Y-251367D01*
X202916Y-251187D01*
X202929Y-251121D01*
X203632Y-250418D01*
X204012Y-249502D01*
D02*
G37*
G36*
X184299Y-249700D02*
X179301D01*
X179681Y-250616D01*
X180368Y-251304D01*
X180104Y-251567D01*
X179800Y-252302D01*
Y-253098D01*
X180104Y-253833D01*
X180667Y-254396D01*
X181402Y-254700D01*
X182198D01*
X182933Y-254396D01*
X183495Y-253833D01*
X183800Y-253098D01*
Y-252302D01*
X183495Y-251567D01*
X183232Y-251304D01*
X183919Y-250616D01*
X184299Y-249700D01*
D02*
G37*
G36*
X68900Y-254555D02*
Y-255742D01*
X70087D01*
X69884Y-255251D01*
X69391Y-254758D01*
X68900Y-254555D01*
D02*
G37*
G36*
X67900D02*
X67409Y-254758D01*
X66916Y-255251D01*
X66713Y-255742D01*
X67900D01*
Y-254555D01*
D02*
G37*
G36*
X70087Y-256742D02*
X68900D01*
Y-257929D01*
X69391Y-257725D01*
X69884Y-257233D01*
X70087Y-256742D01*
D02*
G37*
G36*
X67900D02*
X66713D01*
X66916Y-257233D01*
X67409Y-257725D01*
X67900Y-257929D01*
Y-256742D01*
D02*
G37*
G36*
X177700Y-258113D02*
Y-259300D01*
X178887D01*
X178684Y-258809D01*
X178191Y-258316D01*
X177700Y-258113D01*
D02*
G37*
G36*
X176700D02*
X176209Y-258316D01*
X175716Y-258809D01*
X175513Y-259300D01*
X176700D01*
Y-258113D01*
D02*
G37*
G36*
X201000Y-258213D02*
Y-259400D01*
X202187D01*
X201984Y-258909D01*
X201491Y-258416D01*
X201000Y-258213D01*
D02*
G37*
G36*
X68900Y-258492D02*
Y-259679D01*
X70087D01*
X69884Y-259188D01*
X69391Y-258695D01*
X68900Y-258492D01*
D02*
G37*
G36*
X67900D02*
X67409Y-258695D01*
X66916Y-259188D01*
X66713Y-259679D01*
X67900D01*
Y-258492D01*
D02*
G37*
G36*
X250413Y-256962D02*
X250200D01*
Y-259898D01*
X253136D01*
Y-259685D01*
X252923Y-258888D01*
X252510Y-258173D01*
X251926Y-257589D01*
X251210Y-257176D01*
X250413Y-256962D01*
D02*
G37*
G36*
X249800D02*
X249587D01*
X248790Y-257176D01*
X248074Y-257589D01*
X247490Y-258173D01*
X247077Y-258888D01*
X246864Y-259685D01*
Y-259898D01*
X249800D01*
Y-256962D01*
D02*
G37*
G36*
X194087Y-260300D02*
X192900D01*
Y-261487D01*
X193391Y-261284D01*
X193884Y-260791D01*
X194087Y-260300D01*
D02*
G37*
G36*
X191900D02*
X190713D01*
X190916Y-260791D01*
X191409Y-261284D01*
X191900Y-261487D01*
Y-260300D01*
D02*
G37*
G36*
X178887D02*
X177700D01*
Y-261487D01*
X178191Y-261284D01*
X178684Y-260791D01*
X178887Y-260300D01*
D02*
G37*
G36*
X176700D02*
X175513D01*
X175716Y-260791D01*
X176209Y-261284D01*
X176700Y-261487D01*
Y-260300D01*
D02*
G37*
G36*
X202187Y-260400D02*
X201000D01*
Y-261587D01*
X201491Y-261384D01*
X201984Y-260891D01*
X202187Y-260400D01*
D02*
G37*
G36*
X194622Y-257004D02*
X186678D01*
X186327Y-257074D01*
X186029Y-257273D01*
X184792Y-258511D01*
X184764Y-258522D01*
X184426D01*
X183920Y-258732D01*
X183532Y-259120D01*
X183322Y-259626D01*
Y-260174D01*
X183532Y-260681D01*
X183920Y-261068D01*
X184426Y-261278D01*
X184974D01*
X185480Y-261068D01*
X185868Y-260681D01*
X186078Y-260174D01*
Y-259842D01*
X186089Y-259830D01*
X186100Y-259797D01*
X187058Y-258840D01*
X190544D01*
X190766Y-259172D01*
X190713Y-259300D01*
X194087D01*
X194052Y-259215D01*
X194391Y-258989D01*
X195451Y-260049D01*
X195749Y-260248D01*
X196100Y-260318D01*
X196353D01*
X196380Y-260329D01*
X196619Y-260568D01*
X197126Y-260778D01*
X197674D01*
X198180Y-260568D01*
X198380Y-260368D01*
X198843Y-260472D01*
X199016Y-260891D01*
X199509Y-261384D01*
X200000Y-261587D01*
Y-259900D01*
Y-258213D01*
X199509Y-258416D01*
X199090Y-258835D01*
X198766Y-258826D01*
X198636Y-258783D01*
X198568Y-258619D01*
X198180Y-258232D01*
X197674Y-258022D01*
X197126D01*
X196619Y-258232D01*
X196424Y-258427D01*
X195271Y-257273D01*
X194973Y-257074D01*
X194622Y-257004D01*
D02*
G37*
G36*
X70087Y-260679D02*
X68900D01*
Y-261866D01*
X69391Y-261662D01*
X69884Y-261170D01*
X70087Y-260679D01*
D02*
G37*
G36*
X67900D02*
X66713D01*
X66916Y-261170D01*
X67409Y-261662D01*
X67900Y-261866D01*
Y-260679D01*
D02*
G37*
G36*
X10413Y-256864D02*
X9587D01*
X8789Y-257078D01*
X8074Y-257490D01*
X7490Y-258074D01*
X7078Y-258789D01*
X6864Y-259587D01*
Y-260413D01*
X7078Y-261210D01*
X7490Y-261926D01*
X8074Y-262510D01*
X8789Y-262923D01*
X9587Y-263136D01*
X10413D01*
X11210Y-262923D01*
X11926Y-262510D01*
X12510Y-261926D01*
X12923Y-261210D01*
X13136Y-260413D01*
Y-259587D01*
X12923Y-258789D01*
X12510Y-258074D01*
X11926Y-257490D01*
X11210Y-257078D01*
X10413Y-256864D01*
D02*
G37*
G36*
X413D02*
X-413D01*
X-1211Y-257078D01*
X-1926Y-257490D01*
X-2510Y-258074D01*
X-2922Y-258789D01*
X-3136Y-259587D01*
Y-260413D01*
X-2922Y-261210D01*
X-2510Y-261926D01*
X-1926Y-262510D01*
X-1211Y-262923D01*
X-413Y-263136D01*
X413D01*
X1211Y-262923D01*
X1926Y-262510D01*
X2510Y-261926D01*
X2922Y-261210D01*
X3136Y-260413D01*
Y-259587D01*
X2922Y-258789D01*
X2510Y-258074D01*
X1926Y-257490D01*
X1211Y-257078D01*
X413Y-256864D01*
D02*
G37*
G36*
X253136Y-260298D02*
X250200D01*
Y-263235D01*
X250413D01*
X251210Y-263021D01*
X251926Y-262608D01*
X252510Y-262024D01*
X252923Y-261309D01*
X253136Y-260511D01*
Y-260298D01*
D02*
G37*
G36*
X249800D02*
X246864D01*
Y-260511D01*
X247077Y-261309D01*
X247490Y-262024D01*
X248074Y-262608D01*
X248790Y-263021D01*
X249587Y-263235D01*
X249800D01*
Y-260298D01*
D02*
G37*
G36*
X240413Y-256962D02*
X239587D01*
X238790Y-257176D01*
X238074Y-257589D01*
X237490Y-258173D01*
X237077Y-258888D01*
X236864Y-259685D01*
Y-260511D01*
X237077Y-261309D01*
X237490Y-262024D01*
X238074Y-262608D01*
X238790Y-263021D01*
X239587Y-263235D01*
X240413D01*
X241211Y-263021D01*
X241926Y-262608D01*
X242510Y-262024D01*
X242922Y-261309D01*
X243136Y-260511D01*
Y-259685D01*
X242922Y-258888D01*
X242510Y-258173D01*
X241926Y-257589D01*
X241211Y-257176D01*
X240413Y-256962D01*
D02*
G37*
G36*
X68900Y-262429D02*
Y-263616D01*
X70087D01*
X69884Y-263124D01*
X69391Y-262632D01*
X68900Y-262429D01*
D02*
G37*
G36*
X67900D02*
X67409Y-262632D01*
X66916Y-263124D01*
X66713Y-263616D01*
X67900D01*
Y-262429D01*
D02*
G37*
G36*
X70087Y-264616D02*
X68900D01*
Y-265803D01*
X69391Y-265599D01*
X69884Y-265107D01*
X70087Y-264616D01*
D02*
G37*
G36*
X67900D02*
X66713D01*
X66916Y-265107D01*
X67409Y-265599D01*
X67900Y-265803D01*
Y-264616D01*
D02*
G37*
G36*
X68900Y-266366D02*
Y-267553D01*
X70087D01*
X69884Y-267061D01*
X69391Y-266569D01*
X68900Y-266366D01*
D02*
G37*
G36*
X67900D02*
X67409Y-266569D01*
X66916Y-267061D01*
X66713Y-267553D01*
X67900D01*
Y-266366D01*
D02*
G37*
G36*
X164876Y-245614D02*
X164324D01*
X163815Y-245825D01*
X163425Y-246215D01*
X163214Y-246724D01*
Y-247276D01*
X163216Y-247280D01*
X162901Y-247565D01*
X162387D01*
X161877Y-247776D01*
X161487Y-248166D01*
X161276Y-248675D01*
Y-249227D01*
X161278Y-249231D01*
X160963Y-249516D01*
X160449D01*
X159940Y-249727D01*
X159550Y-250117D01*
X159339Y-250626D01*
Y-251178D01*
X159341Y-251182D01*
X159026Y-251467D01*
X158511D01*
X158002Y-251678D01*
X157612Y-252068D01*
X157401Y-252577D01*
Y-253129D01*
X157403Y-253133D01*
X157088Y-253418D01*
X156574D01*
X156064Y-253629D01*
X155675Y-254019D01*
X155464Y-254528D01*
Y-255080D01*
X155466Y-255084D01*
X155151Y-255369D01*
X154636D01*
X154127Y-255580D01*
X153737Y-255970D01*
X153526Y-256479D01*
Y-257030D01*
X153528Y-257035D01*
X153213Y-257320D01*
X152699D01*
X152189Y-257531D01*
X151799Y-257921D01*
X151588Y-258430D01*
Y-258981D01*
X151590Y-258986D01*
X151275Y-259271D01*
X150761D01*
X150252Y-259482D01*
X149862Y-259872D01*
X149651Y-260381D01*
Y-260932D01*
X149737Y-261139D01*
X149431Y-261445D01*
X149237Y-261366D01*
X148689D01*
X148183Y-261575D01*
X147795Y-261963D01*
X147585Y-262469D01*
Y-263018D01*
X147594Y-263038D01*
X147311Y-263321D01*
X147300Y-263316D01*
X146752D01*
X146245Y-263526D01*
X145858Y-263914D01*
X145648Y-264420D01*
Y-264968D01*
X145656Y-264989D01*
X145373Y-265272D01*
X145362Y-265267D01*
X144814D01*
X144307Y-265477D01*
X143920Y-265865D01*
X143710Y-266371D01*
Y-266919D01*
X143719Y-266940D01*
X143436Y-267223D01*
X143424Y-267218D01*
X142876D01*
X142370Y-267428D01*
X141982Y-267816D01*
X141772Y-268322D01*
Y-268870D01*
X141781Y-268891D01*
X141498Y-269174D01*
X141487Y-269169D01*
X140939D01*
X140432Y-269379D01*
X140045Y-269767D01*
X139835Y-270273D01*
Y-270821D01*
X139843Y-270842D01*
X139561Y-271125D01*
X139549Y-271120D01*
X139001D01*
X138495Y-271330D01*
X138107Y-271718D01*
X137897Y-272224D01*
Y-272772D01*
X137906Y-272793D01*
X137623Y-273076D01*
X137612Y-273071D01*
X137064D01*
X136557Y-273281D01*
X136169Y-273669D01*
X135960Y-274175D01*
Y-274723D01*
X135968Y-274744D01*
X135685Y-275027D01*
X135674Y-275022D01*
X135126D01*
X134619Y-275232D01*
X134232Y-275620D01*
X134022Y-276126D01*
Y-276674D01*
X134232Y-277181D01*
X134584Y-277533D01*
Y-293000D01*
X134584Y-293000D01*
X134646Y-293312D01*
X134823Y-293577D01*
X160323Y-319077D01*
X160323Y-319077D01*
X160588Y-319254D01*
X160900Y-319316D01*
X160900Y-319316D01*
X194400D01*
X194400Y-319316D01*
X194712Y-319254D01*
X194977Y-319077D01*
X216377Y-297677D01*
X216554Y-297412D01*
X216616Y-297100D01*
X216616Y-297100D01*
Y-277242D01*
X216554Y-276930D01*
X216377Y-276665D01*
X216377Y-276665D01*
X207478Y-267766D01*
Y-267268D01*
X207268Y-266761D01*
X206880Y-266374D01*
X206374Y-266164D01*
X205826D01*
X205319Y-266374D01*
X204932Y-266761D01*
X204722Y-267268D01*
Y-267816D01*
X204932Y-268322D01*
X205319Y-268710D01*
X205826Y-268920D01*
X206324D01*
X214984Y-277580D01*
Y-296762D01*
X194062Y-317684D01*
X161238D01*
X136216Y-292662D01*
Y-277533D01*
X136568Y-277181D01*
X136778Y-276674D01*
Y-276126D01*
X136769Y-276105D01*
X137052Y-275822D01*
X137064Y-275827D01*
X137562D01*
X137584Y-275849D01*
Y-290900D01*
X137584Y-290900D01*
X137646Y-291212D01*
X137823Y-291477D01*
X162923Y-316577D01*
X163188Y-316754D01*
X163500Y-316816D01*
X163500Y-316816D01*
X193000D01*
X193000Y-316816D01*
X193312Y-316754D01*
X193577Y-316577D01*
X213877Y-296277D01*
X213877Y-296277D01*
X214054Y-296012D01*
X214116Y-295700D01*
X214116Y-295700D01*
Y-278679D01*
X214116Y-278679D01*
X214054Y-278367D01*
X213877Y-278102D01*
X213877Y-278102D01*
X207478Y-271703D01*
Y-271205D01*
X207268Y-270698D01*
X206880Y-270311D01*
X206374Y-270101D01*
X205826D01*
X205319Y-270311D01*
X204932Y-270698D01*
X204722Y-271205D01*
Y-271753D01*
X204932Y-272259D01*
X205319Y-272647D01*
X205826Y-272857D01*
X206324D01*
X212484Y-279017D01*
Y-295362D01*
X192662Y-315184D01*
X163838D01*
X139216Y-290562D01*
Y-275512D01*
X139216Y-275512D01*
X139154Y-275199D01*
X138977Y-274935D01*
X138977Y-274935D01*
X138716Y-274674D01*
Y-274175D01*
X138707Y-274154D01*
X138990Y-273871D01*
X139001Y-273876D01*
X139500D01*
X139884Y-274261D01*
Y-289200D01*
X139884Y-289200D01*
X139946Y-289512D01*
X140123Y-289777D01*
X164323Y-313977D01*
X164323Y-313977D01*
X164588Y-314154D01*
X164900Y-314216D01*
X191000D01*
X191000Y-314216D01*
X191312Y-314154D01*
X191577Y-313977D01*
X211377Y-294177D01*
X211377Y-294177D01*
X211554Y-293912D01*
X211616Y-293600D01*
X211616Y-293600D01*
Y-280116D01*
X211554Y-279804D01*
X211377Y-279539D01*
X211377Y-279539D01*
X207478Y-275640D01*
Y-275142D01*
X207268Y-274635D01*
X206880Y-274248D01*
X206374Y-274038D01*
X205826D01*
X205319Y-274248D01*
X204932Y-274635D01*
X204722Y-275142D01*
Y-275690D01*
X204932Y-276196D01*
X205319Y-276584D01*
X205826Y-276794D01*
X206324D01*
X209984Y-280454D01*
Y-293262D01*
X190662Y-312584D01*
X165238D01*
X141516Y-288862D01*
Y-287937D01*
X141916Y-287816D01*
X142023Y-287977D01*
X164723Y-310677D01*
X164723Y-310677D01*
X164988Y-310854D01*
X165300Y-310916D01*
X191100D01*
X191100Y-310916D01*
X191412Y-310854D01*
X191677Y-310677D01*
X208977Y-293377D01*
X208977Y-293377D01*
X209154Y-293112D01*
X209216Y-292800D01*
Y-281653D01*
X209216Y-281653D01*
X209154Y-281341D01*
X208977Y-281076D01*
X208977Y-281076D01*
X207478Y-279577D01*
Y-279079D01*
X207268Y-278572D01*
X206880Y-278185D01*
X206374Y-277975D01*
X205826D01*
X205319Y-278185D01*
X204932Y-278572D01*
X204722Y-279079D01*
Y-279627D01*
X204932Y-280133D01*
X205319Y-280521D01*
X205826Y-280731D01*
X206324D01*
X206889Y-281295D01*
X206662Y-281634D01*
X206317Y-281491D01*
Y-283178D01*
Y-284865D01*
X206808Y-284662D01*
X207184Y-284286D01*
X207584Y-284450D01*
Y-286240D01*
X207573Y-286247D01*
X207184Y-286362D01*
X206880Y-286059D01*
X206374Y-285849D01*
X205826D01*
X205319Y-286059D01*
X204932Y-286446D01*
X204722Y-286953D01*
Y-287501D01*
X204932Y-288007D01*
X205284Y-288360D01*
Y-290362D01*
X189062Y-306584D01*
X167338D01*
X145316Y-284562D01*
Y-269946D01*
X145316Y-269946D01*
X145254Y-269634D01*
X145077Y-269369D01*
X145077Y-269369D01*
X144528Y-268821D01*
Y-268322D01*
X144520Y-268301D01*
X144803Y-268019D01*
X144814Y-268023D01*
X145312D01*
X146284Y-268995D01*
Y-283900D01*
X146284Y-283900D01*
X146346Y-284212D01*
X146523Y-284477D01*
X167323Y-305277D01*
X167323Y-305277D01*
X167588Y-305454D01*
X167900Y-305516D01*
X167900Y-305516D01*
X186600D01*
X186600Y-305516D01*
X186912Y-305454D01*
X187177Y-305277D01*
X198276Y-294178D01*
X198774D01*
X199281Y-293968D01*
X199668Y-293581D01*
X199878Y-293074D01*
Y-292526D01*
X199668Y-292020D01*
X199281Y-291632D01*
X198774Y-291422D01*
X198226D01*
X197720Y-291632D01*
X197332Y-292020D01*
X197122Y-292526D01*
Y-293024D01*
X186262Y-303884D01*
X168238D01*
X147916Y-283562D01*
Y-268657D01*
X147916Y-268657D01*
X147854Y-268345D01*
X147677Y-268080D01*
X147677Y-268080D01*
X146466Y-266870D01*
Y-266371D01*
X146457Y-266351D01*
X146740Y-266068D01*
X146752Y-266072D01*
X147250D01*
X148684Y-267507D01*
Y-281800D01*
X148684Y-281800D01*
X148746Y-282112D01*
X148923Y-282377D01*
X169223Y-302677D01*
X169223Y-302677D01*
X169488Y-302854D01*
X169800Y-302916D01*
X169800Y-302916D01*
X185249D01*
X185250Y-302916D01*
X185562Y-302854D01*
X185826Y-302677D01*
X194325Y-294178D01*
X194824D01*
X195330Y-293968D01*
X195718Y-293581D01*
X195928Y-293074D01*
Y-292526D01*
X195718Y-292020D01*
X195330Y-291632D01*
X194824Y-291422D01*
X194275D01*
X193769Y-291632D01*
X193381Y-292020D01*
X193172Y-292526D01*
Y-293024D01*
X184912Y-301284D01*
X170138D01*
X150316Y-281462D01*
Y-267169D01*
X150316Y-267169D01*
X150254Y-266857D01*
X150077Y-266592D01*
X150077Y-266592D01*
X148404Y-264919D01*
Y-264420D01*
X148395Y-264400D01*
X148678Y-264117D01*
X148689Y-264121D01*
X149188D01*
X151146Y-266079D01*
Y-280461D01*
X151146Y-280462D01*
X151208Y-280774D01*
X151385Y-281038D01*
X170723Y-300377D01*
X170988Y-300554D01*
X171300Y-300616D01*
X171300Y-300616D01*
X184033D01*
X184033Y-300616D01*
X184345Y-300554D01*
X184610Y-300377D01*
X190541Y-294446D01*
X190583Y-294428D01*
X190691Y-294320D01*
X190802Y-294212D01*
X190887D01*
X191393Y-294002D01*
X191781Y-293615D01*
X191991Y-293108D01*
Y-292560D01*
X191781Y-292054D01*
X191393Y-291666D01*
X190887Y-291456D01*
X190339D01*
X189832Y-291666D01*
X189549Y-291949D01*
X189265Y-291666D01*
X188759Y-291456D01*
X188211D01*
X187704Y-291666D01*
X187317Y-292054D01*
X187107Y-292560D01*
Y-293058D01*
X183881Y-296284D01*
X172638D01*
X155678Y-279325D01*
Y-264483D01*
X155678Y-264483D01*
X155616Y-264170D01*
X155439Y-263906D01*
X155439Y-263906D01*
X152583Y-261049D01*
X152568Y-261010D01*
X152512Y-260951D01*
X152470Y-260903D01*
X152436Y-260858D01*
X152422Y-260838D01*
Y-260381D01*
X152421Y-260376D01*
X152736Y-260091D01*
X153155D01*
X153171Y-260102D01*
X153273Y-260185D01*
X153327Y-260237D01*
X153367Y-260252D01*
X156871Y-263756D01*
Y-278487D01*
X156871Y-278487D01*
X156933Y-278799D01*
X157110Y-279064D01*
X173201Y-295155D01*
X173201Y-295155D01*
X173466Y-295332D01*
X173778Y-295394D01*
X173778Y-295394D01*
X183022D01*
X183022Y-295394D01*
X183334Y-295332D01*
X183599Y-295155D01*
X184576Y-294178D01*
X185074D01*
X185581Y-293968D01*
X185968Y-293581D01*
X186178Y-293074D01*
Y-292526D01*
X185968Y-292020D01*
X185581Y-291632D01*
X185074Y-291422D01*
X184526D01*
X184019Y-291632D01*
X183632Y-292020D01*
X183422Y-292526D01*
Y-293024D01*
X182684Y-293762D01*
X182309D01*
X182059Y-293362D01*
X182178Y-293074D01*
Y-292526D01*
X181968Y-292020D01*
X181580Y-291632D01*
X181074Y-291422D01*
X180526D01*
X180019Y-291632D01*
X179667Y-291984D01*
X176138D01*
X173158Y-289005D01*
X173324Y-288605D01*
X173474D01*
X173980Y-288395D01*
X174368Y-288007D01*
X174578Y-287501D01*
Y-286953D01*
X174368Y-286446D01*
X173980Y-286059D01*
X173474Y-285849D01*
X172976D01*
X172421Y-285294D01*
X172648Y-284955D01*
X172700Y-284977D01*
Y-283790D01*
X171513D01*
X171535Y-283842D01*
X171195Y-284069D01*
X164017Y-276891D01*
Y-261156D01*
X164018Y-261156D01*
X163955Y-260844D01*
X163779Y-260579D01*
X163779Y-260579D01*
X158396Y-255196D01*
X158380Y-255157D01*
X158325Y-255098D01*
X158283Y-255050D01*
X158249Y-255006D01*
X158235Y-254985D01*
Y-254528D01*
X158233Y-254523D01*
X158548Y-254239D01*
X159063D01*
X159118Y-254216D01*
X159155Y-254243D01*
X159201Y-254282D01*
X159259Y-254337D01*
X159285Y-254347D01*
X159299Y-254371D01*
X159323Y-254376D01*
X164917Y-259971D01*
Y-271886D01*
X164917Y-271886D01*
X164979Y-272198D01*
X165156Y-272462D01*
X171822Y-279128D01*
Y-279627D01*
X172032Y-280133D01*
X172420Y-280521D01*
X172926Y-280731D01*
X173474D01*
X173980Y-280521D01*
X174368Y-280133D01*
X174578Y-279627D01*
Y-279079D01*
X174368Y-278572D01*
X173980Y-278185D01*
X173474Y-277975D01*
X172976D01*
X166549Y-271548D01*
Y-259633D01*
X166549Y-259633D01*
X166486Y-259321D01*
X166310Y-259056D01*
X166310Y-259056D01*
X160369Y-253116D01*
X160355Y-253078D01*
X160243Y-252957D01*
X160208Y-252912D01*
X160176Y-252868D01*
X160173Y-252863D01*
Y-252577D01*
X160171Y-252573D01*
X160486Y-252288D01*
X161000D01*
X161356Y-252140D01*
X161378Y-252158D01*
X161435Y-252213D01*
X161475Y-252228D01*
X167584Y-258338D01*
Y-270574D01*
X167584Y-270575D01*
X167646Y-270887D01*
X167823Y-271151D01*
X171822Y-275150D01*
Y-275690D01*
X172032Y-276196D01*
X172420Y-276584D01*
X172926Y-276794D01*
X173474D01*
X173980Y-276584D01*
X174368Y-276196D01*
X174578Y-275690D01*
Y-275142D01*
X174368Y-274635D01*
X173980Y-274248D01*
X173474Y-274038D01*
X173025D01*
X173012Y-274033D01*
X169216Y-270237D01*
Y-258000D01*
X169216Y-258000D01*
X169154Y-257688D01*
X168977Y-257423D01*
X168977Y-257423D01*
X162294Y-250740D01*
X162291Y-250726D01*
X162459Y-250366D01*
X162460Y-250365D01*
X162858Y-250356D01*
X162952Y-250433D01*
X163007Y-250485D01*
X163046Y-250500D01*
X169784Y-257238D01*
Y-268879D01*
X169784Y-268879D01*
X169846Y-269191D01*
X170023Y-269456D01*
X171822Y-271254D01*
Y-271753D01*
X172032Y-272259D01*
X172420Y-272647D01*
X172926Y-272857D01*
X173474D01*
X173980Y-272647D01*
X174368Y-272259D01*
X174578Y-271753D01*
Y-271205D01*
X174368Y-270698D01*
X173980Y-270311D01*
X173474Y-270101D01*
X172976D01*
X171416Y-268541D01*
Y-256900D01*
X171416Y-256900D01*
X171354Y-256588D01*
X171177Y-256323D01*
X171177Y-256323D01*
X164206Y-249352D01*
X164190Y-249313D01*
X164135Y-249254D01*
X164094Y-249206D01*
X164060Y-249162D01*
X164048Y-249144D01*
Y-248675D01*
X164046Y-248671D01*
X164361Y-248386D01*
X164781D01*
X164796Y-248396D01*
X164899Y-248479D01*
X164953Y-248531D01*
X164993Y-248546D01*
X172503Y-256057D01*
Y-266409D01*
X172151Y-266761D01*
X171941Y-267268D01*
Y-267816D01*
X172151Y-268322D01*
X172538Y-268710D01*
X173045Y-268920D01*
X173593D01*
X174100Y-268710D01*
X174487Y-268322D01*
X174697Y-267816D01*
Y-267268D01*
X174487Y-266761D01*
X174135Y-266409D01*
Y-255719D01*
X174135Y-255719D01*
X174073Y-255407D01*
X173896Y-255142D01*
X173896Y-255142D01*
X166146Y-247393D01*
X166131Y-247353D01*
X166075Y-247294D01*
X166034Y-247246D01*
X166000Y-247202D01*
X165986Y-247181D01*
Y-246724D01*
X165775Y-246215D01*
X165385Y-245825D01*
X164876Y-245614D01*
D02*
G37*
G36*
X70087Y-268553D02*
X68900D01*
Y-269740D01*
X69391Y-269536D01*
X69884Y-269044D01*
X70087Y-268553D01*
D02*
G37*
G36*
X67900D02*
X66713D01*
X66916Y-269044D01*
X67409Y-269536D01*
X67900Y-269740D01*
Y-268553D01*
D02*
G37*
G36*
X68900Y-270303D02*
Y-271490D01*
X70087D01*
X69884Y-270999D01*
X69391Y-270506D01*
X68900Y-270303D01*
D02*
G37*
G36*
X67900D02*
X67409Y-270506D01*
X66916Y-270999D01*
X66713Y-271490D01*
X67900D01*
Y-270303D01*
D02*
G37*
G36*
X102300Y-270313D02*
Y-271500D01*
X103487D01*
X103284Y-271009D01*
X102791Y-270516D01*
X102300Y-270313D01*
D02*
G37*
G36*
X101300D02*
X100809Y-270516D01*
X100316Y-271009D01*
X100113Y-271500D01*
X101300D01*
Y-270313D01*
D02*
G37*
G36*
X10413Y-266864D02*
X9587D01*
X8789Y-267077D01*
X8074Y-267490D01*
X7490Y-268074D01*
X7078Y-268790D01*
X6864Y-269587D01*
Y-270413D01*
X7078Y-271211D01*
X7490Y-271926D01*
X8074Y-272510D01*
X8789Y-272922D01*
X9587Y-273136D01*
X10413D01*
X11210Y-272922D01*
X11926Y-272510D01*
X12510Y-271926D01*
X12923Y-271211D01*
X13136Y-270413D01*
Y-269587D01*
X12923Y-268790D01*
X12510Y-268074D01*
X11926Y-267490D01*
X11210Y-267077D01*
X10413Y-266864D01*
D02*
G37*
G36*
X413D02*
X-413D01*
X-1211Y-267077D01*
X-1926Y-267490D01*
X-2510Y-268074D01*
X-2922Y-268790D01*
X-3136Y-269587D01*
Y-270413D01*
X-2922Y-271211D01*
X-2510Y-271926D01*
X-1926Y-272510D01*
X-1211Y-272922D01*
X-413Y-273136D01*
X413D01*
X1211Y-272922D01*
X1926Y-272510D01*
X2510Y-271926D01*
X2922Y-271211D01*
X3136Y-270413D01*
Y-269587D01*
X2922Y-268790D01*
X2510Y-268074D01*
X1926Y-267490D01*
X1211Y-267077D01*
X413Y-266864D01*
D02*
G37*
G36*
X250413Y-266962D02*
X249587D01*
X248790Y-267176D01*
X248074Y-267589D01*
X247490Y-268173D01*
X247077Y-268888D01*
X246864Y-269686D01*
Y-270511D01*
X247077Y-271309D01*
X247490Y-272024D01*
X248074Y-272608D01*
X248790Y-273021D01*
X249587Y-273235D01*
X250413D01*
X251210Y-273021D01*
X251926Y-272608D01*
X252510Y-272024D01*
X252923Y-271309D01*
X253136Y-270511D01*
Y-269686D01*
X252923Y-268888D01*
X252510Y-268173D01*
X251926Y-267589D01*
X251210Y-267176D01*
X250413Y-266962D01*
D02*
G37*
G36*
X240413D02*
X239587D01*
X238790Y-267176D01*
X238074Y-267589D01*
X237490Y-268173D01*
X237077Y-268888D01*
X236864Y-269686D01*
Y-270511D01*
X237077Y-271309D01*
X237490Y-272024D01*
X238074Y-272608D01*
X238790Y-273021D01*
X239587Y-273235D01*
X240413D01*
X241211Y-273021D01*
X241926Y-272608D01*
X242510Y-272024D01*
X242922Y-271309D01*
X243136Y-270511D01*
Y-269686D01*
X242922Y-268888D01*
X242510Y-268173D01*
X241926Y-267589D01*
X241211Y-267176D01*
X240413Y-266962D01*
D02*
G37*
G36*
X70087Y-272490D02*
X68900D01*
Y-273677D01*
X69391Y-273473D01*
X69884Y-272981D01*
X70087Y-272490D01*
D02*
G37*
G36*
X67900D02*
X66713D01*
X66916Y-272981D01*
X67409Y-273473D01*
X67900Y-273677D01*
Y-272490D01*
D02*
G37*
G36*
X101300Y-272500D02*
X100113D01*
X100316Y-272991D01*
X100809Y-273484D01*
X101300Y-273687D01*
Y-272500D01*
D02*
G37*
G36*
X68900Y-274240D02*
Y-275427D01*
X70087D01*
X69884Y-274936D01*
X69391Y-274443D01*
X68900Y-274240D01*
D02*
G37*
G36*
X67900D02*
X67409Y-274443D01*
X66916Y-274936D01*
X66713Y-275427D01*
X67900D01*
Y-274240D01*
D02*
G37*
G36*
X70087Y-276427D02*
X68900D01*
Y-277614D01*
X69391Y-277410D01*
X69884Y-276918D01*
X70087Y-276427D01*
D02*
G37*
G36*
X67900D02*
X66713D01*
X66916Y-276918D01*
X67409Y-277410D01*
X67900Y-277614D01*
Y-276427D01*
D02*
G37*
G36*
X76642Y-280113D02*
Y-281300D01*
X77829D01*
X77625Y-280809D01*
X77133Y-280316D01*
X76642Y-280113D01*
D02*
G37*
G36*
X75642D02*
X75151Y-280316D01*
X74658Y-280809D01*
X74455Y-281300D01*
X75642D01*
Y-280113D01*
D02*
G37*
G36*
X205317Y-281491D02*
X204826Y-281695D01*
X204333Y-282187D01*
X204130Y-282678D01*
X205317D01*
Y-281491D01*
D02*
G37*
G36*
X173700Y-281603D02*
Y-282790D01*
X174887D01*
X174684Y-282298D01*
X174191Y-281806D01*
X173700Y-281603D01*
D02*
G37*
G36*
X172700D02*
X172209Y-281806D01*
X171716Y-282298D01*
X171513Y-282790D01*
X172700D01*
Y-281603D01*
D02*
G37*
G36*
X10413Y-276864D02*
X9587D01*
X8789Y-277078D01*
X8074Y-277490D01*
X7490Y-278074D01*
X7078Y-278789D01*
X6864Y-279587D01*
Y-280413D01*
X7078Y-281210D01*
X7490Y-281926D01*
X8074Y-282510D01*
X8789Y-282923D01*
X9587Y-283136D01*
X10413D01*
X11210Y-282923D01*
X11926Y-282510D01*
X12510Y-281926D01*
X12923Y-281210D01*
X13136Y-280413D01*
Y-279587D01*
X12923Y-278789D01*
X12510Y-278074D01*
X11926Y-277490D01*
X11210Y-277078D01*
X10413Y-276864D01*
D02*
G37*
G36*
X413D02*
X-413D01*
X-1211Y-277078D01*
X-1926Y-277490D01*
X-2510Y-278074D01*
X-2922Y-278789D01*
X-3136Y-279587D01*
Y-280413D01*
X-2922Y-281210D01*
X-2510Y-281926D01*
X-1926Y-282510D01*
X-1211Y-282923D01*
X-413Y-283136D01*
X413D01*
X1211Y-282923D01*
X1926Y-282510D01*
X2510Y-281926D01*
X2922Y-281210D01*
X3136Y-280413D01*
Y-279587D01*
X2922Y-278789D01*
X2510Y-278074D01*
X1926Y-277490D01*
X1211Y-277078D01*
X413Y-276864D01*
D02*
G37*
G36*
X250413Y-276962D02*
X249587D01*
X248790Y-277176D01*
X248074Y-277589D01*
X247490Y-278173D01*
X247077Y-278888D01*
X246864Y-279685D01*
Y-280511D01*
X247077Y-281309D01*
X247490Y-282024D01*
X248074Y-282608D01*
X248790Y-283021D01*
X249587Y-283235D01*
X250413D01*
X251210Y-283021D01*
X251926Y-282608D01*
X252510Y-282024D01*
X252923Y-281309D01*
X253136Y-280511D01*
Y-279685D01*
X252923Y-278888D01*
X252510Y-278173D01*
X251926Y-277589D01*
X251210Y-277176D01*
X250413Y-276962D01*
D02*
G37*
G36*
X240413D02*
X239587D01*
X238790Y-277176D01*
X238074Y-277589D01*
X237490Y-278173D01*
X237077Y-278888D01*
X236864Y-279685D01*
Y-280511D01*
X237077Y-281309D01*
X237490Y-282024D01*
X238074Y-282608D01*
X238790Y-283021D01*
X239587Y-283235D01*
X240413D01*
X241211Y-283021D01*
X241926Y-282608D01*
X242510Y-282024D01*
X242922Y-281309D01*
X243136Y-280511D01*
Y-279685D01*
X242922Y-278888D01*
X242510Y-278173D01*
X241926Y-277589D01*
X241211Y-277176D01*
X240413Y-276962D01*
D02*
G37*
G36*
X77829Y-282300D02*
X76642D01*
Y-283487D01*
X77133Y-283284D01*
X77625Y-282791D01*
X77829Y-282300D01*
D02*
G37*
G36*
X75642D02*
X74455D01*
X74658Y-282791D01*
X75151Y-283284D01*
X75642Y-283487D01*
Y-282300D01*
D02*
G37*
G36*
X205317Y-283678D02*
X204130D01*
X204333Y-284170D01*
X204826Y-284662D01*
X205317Y-284865D01*
Y-283678D01*
D02*
G37*
G36*
X174887Y-283790D02*
X173700D01*
Y-284977D01*
X174191Y-284773D01*
X174684Y-284281D01*
X174887Y-283790D01*
D02*
G37*
G36*
X10413Y-286864D02*
X10200D01*
Y-289800D01*
X13136D01*
Y-289587D01*
X12923Y-288790D01*
X12510Y-288074D01*
X11926Y-287490D01*
X11210Y-287077D01*
X10413Y-286864D01*
D02*
G37*
G36*
X9800D02*
X9587D01*
X8789Y-287077D01*
X8074Y-287490D01*
X7490Y-288074D01*
X7078Y-288790D01*
X6864Y-289587D01*
Y-289800D01*
X9800D01*
Y-286864D01*
D02*
G37*
G36*
X148476Y-187714D02*
X147924D01*
X147415Y-187925D01*
X147025Y-188315D01*
X146814Y-188824D01*
Y-188828D01*
X131784Y-203857D01*
X112558D01*
X112336Y-203525D01*
X112387Y-203402D01*
X109013D01*
X109216Y-203893D01*
X109582Y-204259D01*
X102715Y-211126D01*
X102219Y-211332D01*
X101832Y-211719D01*
X101622Y-212226D01*
Y-212774D01*
X101832Y-213281D01*
X102219Y-213668D01*
X102726Y-213878D01*
X103274D01*
X103780Y-213668D01*
X104168Y-213281D01*
X104374Y-212785D01*
X110956Y-206203D01*
X132270D01*
X132719Y-206113D01*
X133099Y-205859D01*
X146701Y-192257D01*
X147040Y-192484D01*
X146915Y-192785D01*
Y-193333D01*
X147125Y-193840D01*
X147512Y-194228D01*
X147679Y-194296D01*
X147922Y-194754D01*
Y-195302D01*
X148040Y-195587D01*
X148019Y-195618D01*
X147512Y-195828D01*
X147125Y-196216D01*
X146915Y-196722D01*
Y-197271D01*
X147125Y-197777D01*
X147512Y-198165D01*
X147679Y-198233D01*
X147922Y-198691D01*
Y-199239D01*
X148040Y-199524D01*
X148019Y-199555D01*
X147512Y-199765D01*
X147125Y-200153D01*
X146915Y-200659D01*
Y-201207D01*
X147125Y-201714D01*
X147512Y-202102D01*
X147686Y-202173D01*
X147922Y-202626D01*
Y-203174D01*
X147679Y-203633D01*
X147512Y-203702D01*
X147125Y-204090D01*
X146915Y-204596D01*
Y-205145D01*
X147125Y-205651D01*
X147512Y-206039D01*
X147679Y-206107D01*
X147922Y-206565D01*
Y-207113D01*
X148132Y-207620D01*
X148484Y-207972D01*
Y-214562D01*
X103683Y-259363D01*
X102933D01*
X102580Y-259011D01*
X102074Y-258801D01*
X101526D01*
X101019Y-259011D01*
X100632Y-259398D01*
X100422Y-259905D01*
Y-260453D01*
X100632Y-260959D01*
X101019Y-261347D01*
X101526Y-261557D01*
X102074D01*
X102580Y-261347D01*
X102933Y-260995D01*
X104021D01*
X104021Y-260995D01*
X104333Y-260932D01*
X104598Y-260756D01*
X149877Y-215477D01*
X149877Y-215477D01*
X150054Y-215212D01*
X150116Y-214900D01*
Y-207972D01*
X150468Y-207620D01*
X150678Y-207113D01*
Y-206565D01*
X150535Y-206220D01*
X150752Y-205820D01*
X151567D01*
X152084Y-206338D01*
Y-215462D01*
X104246Y-263300D01*
X102933D01*
X102580Y-262948D01*
X102074Y-262738D01*
X101526D01*
X101019Y-262948D01*
X100632Y-263335D01*
X100422Y-263842D01*
Y-264390D01*
X100632Y-264896D01*
X101019Y-265284D01*
X101526Y-265494D01*
X102074D01*
X102580Y-265284D01*
X102933Y-264932D01*
X104584D01*
X104584Y-264932D01*
X104896Y-264869D01*
X105161Y-264693D01*
X153477Y-216377D01*
X153654Y-216112D01*
X153716Y-215800D01*
X153716Y-215800D01*
Y-206000D01*
X153716Y-206000D01*
X153654Y-205688D01*
X153477Y-205423D01*
X152481Y-204428D01*
X152216Y-204251D01*
X151904Y-204189D01*
X151904Y-204189D01*
X150928D01*
X150714Y-203789D01*
X150763Y-203716D01*
X153762D01*
X154684Y-204638D01*
Y-216962D01*
X104409Y-267237D01*
X102933D01*
X102580Y-266885D01*
X102074Y-266675D01*
X101526D01*
X101019Y-266885D01*
X100632Y-267272D01*
X100422Y-267779D01*
Y-268327D01*
X100632Y-268833D01*
X101019Y-269221D01*
X101526Y-269431D01*
X102074D01*
X102580Y-269221D01*
X102933Y-268868D01*
X104747D01*
X104747Y-268868D01*
X105059Y-268806D01*
X105324Y-268630D01*
X156077Y-217877D01*
X156077Y-217877D01*
X156254Y-217612D01*
X156316Y-217300D01*
X156316Y-217300D01*
Y-204300D01*
X156316Y-204300D01*
X156254Y-203988D01*
X156077Y-203723D01*
X154677Y-202323D01*
X154617Y-202283D01*
X154738Y-201883D01*
X156029D01*
X157584Y-203438D01*
Y-218989D01*
X103812Y-272762D01*
X103473Y-272535D01*
X103487Y-272500D01*
X102300D01*
Y-273687D01*
X102335Y-273673D01*
X102562Y-274012D01*
X102024Y-274549D01*
X101526D01*
X101019Y-274759D01*
X100632Y-275146D01*
X100422Y-275653D01*
Y-276201D01*
X100632Y-276707D01*
X101019Y-277095D01*
X101526Y-277305D01*
X102074D01*
X102580Y-277095D01*
X102968Y-276707D01*
X103178Y-276201D01*
Y-275702D01*
X158977Y-219904D01*
X158977Y-219904D01*
X159154Y-219639D01*
X159216Y-219327D01*
X159216Y-219327D01*
Y-203100D01*
X159216Y-203100D01*
X159154Y-202788D01*
X158977Y-202523D01*
X156944Y-200491D01*
X156679Y-200314D01*
X156367Y-200252D01*
X156367Y-200252D01*
X150932D01*
X150718Y-199852D01*
X150766Y-199781D01*
X158027D01*
X160284Y-202038D01*
Y-220662D01*
X99962Y-280984D01*
X94991D01*
X94639Y-280632D01*
X94132Y-280422D01*
X93584D01*
X93078Y-280632D01*
X92690Y-281019D01*
X92480Y-281526D01*
Y-282074D01*
X92690Y-282580D01*
X93078Y-282968D01*
X93358Y-283084D01*
X93278Y-283484D01*
X92759D01*
X91299Y-282024D01*
Y-281526D01*
X91089Y-281019D01*
X90702Y-280632D01*
X90195Y-280422D01*
X89647D01*
X89141Y-280632D01*
X88753Y-281019D01*
X88543Y-281526D01*
Y-282074D01*
X88753Y-282580D01*
X89141Y-282968D01*
X89647Y-283178D01*
X90146D01*
X91844Y-284877D01*
X91844Y-284877D01*
X92109Y-285054D01*
X92421Y-285116D01*
X103000D01*
X103000Y-285116D01*
X103312Y-285054D01*
X103577Y-284877D01*
X164677Y-223777D01*
X164677Y-223777D01*
X164854Y-223512D01*
X164916Y-223200D01*
X164916Y-223200D01*
Y-200900D01*
X164916Y-200900D01*
X164854Y-200588D01*
X164823Y-200542D01*
X165134Y-200288D01*
X165984Y-201138D01*
Y-225662D01*
X105562Y-286084D01*
X91422D01*
X87362Y-282024D01*
Y-281526D01*
X87152Y-281019D01*
X86765Y-280632D01*
X86258Y-280422D01*
X85710D01*
X85204Y-280632D01*
X84920Y-280915D01*
X84637Y-280632D01*
X84130Y-280422D01*
X83582D01*
X83076Y-280632D01*
X82688Y-281019D01*
X82478Y-281526D01*
Y-282074D01*
X82688Y-282580D01*
X83076Y-282968D01*
X83173Y-283009D01*
X83167Y-283044D01*
X83175Y-283054D01*
Y-283690D01*
X83175Y-283690D01*
X83237Y-284002D01*
X83413Y-284267D01*
X90223Y-291077D01*
X90223Y-291077D01*
X90488Y-291254D01*
X90800Y-291316D01*
X107200D01*
X107200Y-291316D01*
X107512Y-291254D01*
X107777Y-291077D01*
X170277Y-228577D01*
X170277Y-228577D01*
X170454Y-228312D01*
X170516Y-228000D01*
X170516Y-228000D01*
Y-200500D01*
X170516Y-200500D01*
X170454Y-200188D01*
X170277Y-199923D01*
X170277Y-199923D01*
X162970Y-192617D01*
X162706Y-192440D01*
X162393Y-192378D01*
X162393Y-192378D01*
X150932D01*
X150718Y-191978D01*
X150766Y-191907D01*
X163153D01*
X171284Y-200038D01*
Y-230162D01*
X108762Y-292684D01*
X90038D01*
X80916Y-283562D01*
Y-282933D01*
X81268Y-282580D01*
X81478Y-282074D01*
Y-281526D01*
X81268Y-281019D01*
X80881Y-280632D01*
X80374Y-280422D01*
X79826D01*
X79319Y-280632D01*
X78932Y-281019D01*
X78722Y-281526D01*
Y-282074D01*
X78932Y-282580D01*
X79284Y-282933D01*
Y-283900D01*
X79284Y-283900D01*
X79346Y-284212D01*
X79523Y-284477D01*
X89123Y-294077D01*
X89388Y-294254D01*
X89700Y-294316D01*
X89700Y-294316D01*
X109100D01*
X109100Y-294316D01*
X109412Y-294254D01*
X109677Y-294077D01*
X172677Y-231077D01*
X172677Y-231077D01*
X172854Y-230812D01*
X172916Y-230500D01*
Y-199700D01*
X172916Y-199700D01*
X172854Y-199388D01*
X172677Y-199123D01*
X164068Y-190514D01*
X163803Y-190337D01*
X163491Y-190275D01*
X163491Y-190275D01*
X150433D01*
X150081Y-189923D01*
X149834Y-189821D01*
X149586Y-189376D01*
Y-188824D01*
X149375Y-188315D01*
X148985Y-187925D01*
X148476Y-187714D01*
D02*
G37*
G36*
X13136Y-290200D02*
X10200D01*
Y-293136D01*
X10413D01*
X11210Y-292922D01*
X11926Y-292510D01*
X12510Y-291926D01*
X12923Y-291211D01*
X13136Y-290413D01*
Y-290200D01*
D02*
G37*
G36*
X9800D02*
X6864D01*
Y-290413D01*
X7078Y-291211D01*
X7490Y-291926D01*
X8074Y-292510D01*
X8789Y-292922D01*
X9587Y-293136D01*
X9800D01*
Y-290200D01*
D02*
G37*
G36*
X413Y-286864D02*
X-413D01*
X-1211Y-287077D01*
X-1926Y-287490D01*
X-2510Y-288074D01*
X-2922Y-288790D01*
X-3136Y-289587D01*
Y-290413D01*
X-2922Y-291211D01*
X-2510Y-291926D01*
X-1926Y-292510D01*
X-1211Y-292922D01*
X-413Y-293136D01*
X413D01*
X1211Y-292922D01*
X1926Y-292510D01*
X2510Y-291926D01*
X2922Y-291211D01*
X3136Y-290413D01*
Y-289587D01*
X2922Y-288790D01*
X2510Y-288074D01*
X1926Y-287490D01*
X1211Y-287077D01*
X413Y-286864D01*
D02*
G37*
G36*
X250413Y-286962D02*
X249587D01*
X248790Y-287176D01*
X248074Y-287589D01*
X247490Y-288173D01*
X247077Y-288888D01*
X246864Y-289686D01*
Y-290511D01*
X247077Y-291309D01*
X247490Y-292024D01*
X248074Y-292608D01*
X248790Y-293021D01*
X249587Y-293235D01*
X250413D01*
X251210Y-293021D01*
X251926Y-292608D01*
X252510Y-292024D01*
X252923Y-291309D01*
X253136Y-290511D01*
Y-289686D01*
X252923Y-288888D01*
X252510Y-288173D01*
X251926Y-287589D01*
X251210Y-287176D01*
X250413Y-286962D01*
D02*
G37*
G36*
X240413D02*
X239587D01*
X238790Y-287176D01*
X238074Y-287589D01*
X237490Y-288173D01*
X237077Y-288888D01*
X236864Y-289686D01*
Y-290511D01*
X237077Y-291309D01*
X237490Y-292024D01*
X238074Y-292608D01*
X238790Y-293021D01*
X239587Y-293235D01*
X240413D01*
X241211Y-293021D01*
X241926Y-292608D01*
X242510Y-292024D01*
X242922Y-291309D01*
X243136Y-290511D01*
Y-289686D01*
X242922Y-288888D01*
X242510Y-288173D01*
X241926Y-287589D01*
X241211Y-287176D01*
X240413Y-286962D01*
D02*
G37*
G36*
X26600Y-296310D02*
Y-299300D01*
X29590D01*
X29362Y-298449D01*
X28901Y-297651D01*
X28249Y-296999D01*
X27451Y-296538D01*
X26600Y-296310D01*
D02*
G37*
G36*
X25600D02*
X24749Y-296538D01*
X23951Y-296999D01*
X23299Y-297651D01*
X22839Y-298449D01*
X22611Y-299300D01*
X25600D01*
Y-296310D01*
D02*
G37*
G36*
X10413Y-296864D02*
X9587D01*
X8789Y-297077D01*
X8074Y-297490D01*
X7490Y-298074D01*
X7078Y-298790D01*
X6864Y-299587D01*
Y-300413D01*
X7078Y-301210D01*
X7490Y-301926D01*
X8074Y-302510D01*
X8789Y-302923D01*
X9587Y-303136D01*
X10413D01*
X11210Y-302923D01*
X11926Y-302510D01*
X12510Y-301926D01*
X12923Y-301210D01*
X13136Y-300413D01*
Y-299587D01*
X12923Y-298790D01*
X12510Y-298074D01*
X11926Y-297490D01*
X11210Y-297077D01*
X10413Y-296864D01*
D02*
G37*
G36*
X413D02*
X-413D01*
X-1211Y-297077D01*
X-1926Y-297490D01*
X-2510Y-298074D01*
X-2922Y-298790D01*
X-3136Y-299587D01*
Y-300413D01*
X-2922Y-301210D01*
X-2510Y-301926D01*
X-1926Y-302510D01*
X-1211Y-302923D01*
X-413Y-303136D01*
X413D01*
X1211Y-302923D01*
X1926Y-302510D01*
X2510Y-301926D01*
X2922Y-301210D01*
X3136Y-300413D01*
Y-299587D01*
X2922Y-298790D01*
X2510Y-298074D01*
X1926Y-297490D01*
X1211Y-297077D01*
X413Y-296864D01*
D02*
G37*
G36*
X250413Y-296962D02*
X249587D01*
X248790Y-297176D01*
X248074Y-297589D01*
X247490Y-298173D01*
X247077Y-298888D01*
X246864Y-299686D01*
Y-300511D01*
X247077Y-301309D01*
X247490Y-302024D01*
X248074Y-302608D01*
X248790Y-303021D01*
X249587Y-303235D01*
X250413D01*
X251210Y-303021D01*
X251926Y-302608D01*
X252510Y-302024D01*
X252923Y-301309D01*
X253136Y-300511D01*
Y-299686D01*
X252923Y-298888D01*
X252510Y-298173D01*
X251926Y-297589D01*
X251210Y-297176D01*
X250413Y-296962D01*
D02*
G37*
G36*
X240413D02*
X239587D01*
X238790Y-297176D01*
X238074Y-297589D01*
X237490Y-298173D01*
X237077Y-298888D01*
X236864Y-299686D01*
Y-300511D01*
X237077Y-301309D01*
X237490Y-302024D01*
X238074Y-302608D01*
X238790Y-303021D01*
X239587Y-303235D01*
X240413D01*
X241211Y-303021D01*
X241926Y-302608D01*
X242510Y-302024D01*
X242922Y-301309D01*
X243136Y-300511D01*
Y-299686D01*
X242922Y-298888D01*
X242510Y-298173D01*
X241926Y-297589D01*
X241211Y-297176D01*
X240413Y-296962D01*
D02*
G37*
G36*
X29590Y-300300D02*
X26600D01*
Y-303290D01*
X27451Y-303062D01*
X28249Y-302601D01*
X28901Y-301949D01*
X29362Y-301151D01*
X29590Y-300300D01*
D02*
G37*
G36*
X25600D02*
X22611D01*
X22839Y-301151D01*
X23299Y-301949D01*
X23951Y-302601D01*
X24749Y-303062D01*
X25600Y-303290D01*
Y-300300D01*
D02*
G37*
G36*
X240413Y-306962D02*
X240200D01*
Y-309898D01*
X243136D01*
Y-309685D01*
X242922Y-308888D01*
X242510Y-308173D01*
X241926Y-307589D01*
X241211Y-307176D01*
X240413Y-306962D01*
D02*
G37*
G36*
X239800D02*
X239587D01*
X238790Y-307176D01*
X238074Y-307589D01*
X237490Y-308173D01*
X237077Y-308888D01*
X236864Y-309685D01*
Y-309898D01*
X239800D01*
Y-306962D01*
D02*
G37*
G36*
X250413D02*
X249587D01*
X248790Y-307176D01*
X248074Y-307589D01*
X247490Y-308173D01*
X247077Y-308888D01*
X246864Y-309685D01*
Y-310511D01*
X247077Y-311309D01*
X247490Y-312024D01*
X248074Y-312608D01*
X248790Y-313021D01*
X249587Y-313235D01*
X250413D01*
X251210Y-313021D01*
X251926Y-312608D01*
X252510Y-312024D01*
X252923Y-311309D01*
X253136Y-310511D01*
Y-309685D01*
X252923Y-308888D01*
X252510Y-308173D01*
X251926Y-307589D01*
X251210Y-307176D01*
X250413Y-306962D01*
D02*
G37*
G36*
X243136Y-310298D02*
X240200D01*
Y-313235D01*
X240413D01*
X241211Y-313021D01*
X241926Y-312608D01*
X242510Y-312024D01*
X242922Y-311309D01*
X243136Y-310511D01*
Y-310298D01*
D02*
G37*
G36*
X239800D02*
X236864D01*
Y-310511D01*
X237077Y-311309D01*
X237490Y-312024D01*
X238074Y-312608D01*
X238790Y-313021D01*
X239587Y-313235D01*
X239800D01*
Y-310298D01*
D02*
G37*
G36*
X250413Y-316962D02*
X249587D01*
X248790Y-317176D01*
X248074Y-317589D01*
X247490Y-318173D01*
X247077Y-318888D01*
X246864Y-319686D01*
Y-320511D01*
X247077Y-321309D01*
X247490Y-322024D01*
X248074Y-322608D01*
X248790Y-323021D01*
X249587Y-323235D01*
X250413D01*
X251210Y-323021D01*
X251926Y-322608D01*
X252510Y-322024D01*
X252923Y-321309D01*
X253136Y-320511D01*
Y-319686D01*
X252923Y-318888D01*
X252510Y-318173D01*
X251926Y-317589D01*
X251210Y-317176D01*
X250413Y-316962D01*
D02*
G37*
G36*
X240413D02*
X239587D01*
X238790Y-317176D01*
X238074Y-317589D01*
X237490Y-318173D01*
X237077Y-318888D01*
X236864Y-319686D01*
Y-320511D01*
X237077Y-321309D01*
X237490Y-322024D01*
X238074Y-322608D01*
X238790Y-323021D01*
X239587Y-323235D01*
X240413D01*
X241211Y-323021D01*
X241926Y-322608D01*
X242510Y-322024D01*
X242922Y-321309D01*
X243136Y-320511D01*
Y-319686D01*
X242922Y-318888D01*
X242510Y-318173D01*
X241926Y-317589D01*
X241211Y-317176D01*
X240413Y-316962D01*
D02*
G37*
G36*
X250413Y-326962D02*
X249587D01*
X248790Y-327176D01*
X248074Y-327589D01*
X247490Y-328173D01*
X247077Y-328888D01*
X246864Y-329685D01*
Y-330511D01*
X247077Y-331309D01*
X247490Y-332024D01*
X248074Y-332608D01*
X248790Y-333021D01*
X249587Y-333235D01*
X250413D01*
X251210Y-333021D01*
X251926Y-332608D01*
X252510Y-332024D01*
X252923Y-331309D01*
X253136Y-330511D01*
Y-329685D01*
X252923Y-328888D01*
X252510Y-328173D01*
X251926Y-327589D01*
X251210Y-327176D01*
X250413Y-326962D01*
D02*
G37*
G36*
X240413D02*
X239587D01*
X238790Y-327176D01*
X238074Y-327589D01*
X237490Y-328173D01*
X237077Y-328888D01*
X236864Y-329685D01*
Y-330511D01*
X237077Y-331309D01*
X237490Y-332024D01*
X238074Y-332608D01*
X238790Y-333021D01*
X239587Y-333235D01*
X240413D01*
X241211Y-333021D01*
X241926Y-332608D01*
X242510Y-332024D01*
X242922Y-331309D01*
X243136Y-330511D01*
Y-329685D01*
X242922Y-328888D01*
X242510Y-328173D01*
X241926Y-327589D01*
X241211Y-327176D01*
X240413Y-326962D01*
D02*
G37*
G36*
X250413Y-336962D02*
X249587D01*
X248790Y-337176D01*
X248074Y-337589D01*
X247490Y-338173D01*
X247077Y-338888D01*
X246864Y-339686D01*
Y-340511D01*
X247077Y-341309D01*
X247490Y-342024D01*
X248074Y-342608D01*
X248790Y-343021D01*
X249587Y-343235D01*
X250413D01*
X251210Y-343021D01*
X251926Y-342608D01*
X252510Y-342024D01*
X252923Y-341309D01*
X253136Y-340511D01*
Y-339686D01*
X252923Y-338888D01*
X252510Y-338173D01*
X251926Y-337589D01*
X251210Y-337176D01*
X250413Y-336962D01*
D02*
G37*
G36*
X240413D02*
X239587D01*
X238790Y-337176D01*
X238074Y-337589D01*
X237490Y-338173D01*
X237077Y-338888D01*
X236864Y-339686D01*
Y-340511D01*
X237077Y-341309D01*
X237490Y-342024D01*
X238074Y-342608D01*
X238790Y-343021D01*
X239587Y-343235D01*
X240413D01*
X241211Y-343021D01*
X241926Y-342608D01*
X242510Y-342024D01*
X242922Y-341309D01*
X243136Y-340511D01*
Y-339686D01*
X242922Y-338888D01*
X242510Y-338173D01*
X241926Y-337589D01*
X241211Y-337176D01*
X240413Y-336962D01*
D02*
G37*
%LPD*%
G36*
X239973Y-62835D02*
X239642Y-62839D01*
X239330Y-62861D01*
X239035Y-62899D01*
X238757Y-62953D01*
X238498Y-63024D01*
X238256Y-63112D01*
X238032Y-63216D01*
X237826Y-63336D01*
X237638Y-63473D01*
X237467Y-63627D01*
X236472Y-62631D01*
X236625Y-62461D01*
X236762Y-62272D01*
X236883Y-62066D01*
X236987Y-61842D01*
X237074Y-61601D01*
X237145Y-61341D01*
X237200Y-61064D01*
X237238Y-60769D01*
X237259Y-60456D01*
X237264Y-60126D01*
X239973Y-62835D01*
D02*
G37*
G36*
X2734Y-933D02*
X2764Y-1132D01*
X2814Y-1331D01*
X2883Y-1530D01*
X2973Y-1729D01*
X3083Y-1928D01*
X3212Y-2127D01*
X3361Y-2326D01*
X3530Y-2525D01*
X3719Y-2724D01*
X2724Y-3719D01*
X2525Y-3530D01*
X2326Y-3361D01*
X2127Y-3212D01*
X1928Y-3083D01*
X1729Y-2973D01*
X1530Y-2883D01*
X1331Y-2814D01*
X1132Y-2764D01*
X933Y-2734D01*
X734Y-2724D01*
X2724Y-734D01*
X2734Y-933D01*
D02*
G37*
G36*
X13528Y-147467D02*
X13375Y-147638D01*
X13238Y-147826D01*
X13117Y-148032D01*
X13013Y-148256D01*
X12926Y-148498D01*
X12855Y-148757D01*
X12800Y-149035D01*
X12762Y-149329D01*
X12741Y-149642D01*
X12736Y-149973D01*
X10027Y-147264D01*
X10358Y-147259D01*
X10671Y-147238D01*
X10965Y-147200D01*
X11243Y-147145D01*
X11502Y-147074D01*
X11744Y-146987D01*
X11968Y-146883D01*
X12174Y-146762D01*
X12362Y-146625D01*
X12533Y-146472D01*
X13528Y-147467D01*
D02*
G37*
G36*
X81146Y-248140D02*
X80829Y-248493D01*
X80086Y-247750D01*
X80096Y-247747D01*
X80112Y-247738D01*
X80133Y-247722D01*
X80192Y-247671D01*
X80378Y-247493D01*
X80439Y-247433D01*
X81146Y-248140D01*
D02*
G37*
G36*
X92464Y-248825D02*
X92455Y-248820D01*
X92438Y-248816D01*
X92412Y-248812D01*
X92334Y-248806D01*
X92076Y-248800D01*
X91991Y-248800D01*
Y-247800D01*
X92464Y-247775D01*
Y-248825D01*
D02*
G37*
G36*
X185767Y-259540D02*
X185450Y-259893D01*
X184707Y-259150D01*
X184717Y-259147D01*
X184733Y-259138D01*
X184754Y-259122D01*
X184813Y-259071D01*
X184999Y-258893D01*
X185060Y-258833D01*
X185767Y-259540D01*
D02*
G37*
G36*
X196864Y-259925D02*
X196855Y-259920D01*
X196838Y-259916D01*
X196811Y-259912D01*
X196734Y-259906D01*
X196476Y-259900D01*
X196391Y-259900D01*
Y-258900D01*
X196864Y-258875D01*
Y-259925D01*
D02*
G37*
G36*
X165489Y-247071D02*
X165498Y-247133D01*
X165514Y-247196D01*
X165537Y-247260D01*
X165567Y-247324D01*
X165604Y-247388D01*
X165647Y-247453D01*
X165697Y-247519D01*
X165754Y-247585D01*
X165817Y-247652D01*
X165252Y-248218D01*
X165185Y-248154D01*
X165053Y-248047D01*
X164988Y-248004D01*
X164924Y-247967D01*
X164860Y-247937D01*
X164796Y-247914D01*
X164733Y-247898D01*
X164671Y-247889D01*
X164609Y-247886D01*
X165486Y-247009D01*
X165489Y-247071D01*
D02*
G37*
G36*
X163550Y-249030D02*
X163559Y-249092D01*
X163575Y-249155D01*
X163598Y-249219D01*
X163627Y-249283D01*
X163664Y-249348D01*
X163707Y-249413D01*
X163757Y-249479D01*
X163813Y-249545D01*
X163877Y-249611D01*
X163306Y-250171D01*
X163239Y-250108D01*
X163107Y-250001D01*
X163042Y-249957D01*
X162978Y-249920D01*
X162914Y-249890D01*
X162850Y-249867D01*
X162787Y-249850D01*
X162725Y-249840D01*
X162663Y-249837D01*
X163548Y-248968D01*
X163550Y-249030D01*
D02*
G37*
G36*
X161536Y-250541D02*
X161552Y-250564D01*
X161606Y-250627D01*
X161794Y-250827D01*
X161928Y-250963D01*
X161733Y-251898D01*
X161665Y-251834D01*
X161599Y-251779D01*
X161534Y-251734D01*
X161472Y-251698D01*
X161412Y-251672D01*
X161354Y-251655D01*
X161298Y-251648D01*
X161243Y-251651D01*
X161191Y-251663D01*
X161141Y-251684D01*
X161526Y-250524D01*
X161536Y-250541D01*
D02*
G37*
G36*
X159677Y-252803D02*
X159693Y-252863D01*
X159715Y-252924D01*
X159743Y-252985D01*
X159777Y-253047D01*
X159817Y-253111D01*
X159863Y-253174D01*
X159915Y-253239D01*
X160037Y-253372D01*
X159557Y-254022D01*
X159490Y-253959D01*
X159423Y-253903D01*
X159357Y-253855D01*
X159292Y-253814D01*
X159227Y-253781D01*
X159163Y-253755D01*
X159100Y-253737D01*
X159037Y-253727D01*
X158975Y-253725D01*
X158913Y-253730D01*
X159666Y-252745D01*
X159677Y-252803D01*
D02*
G37*
G36*
X157738Y-254875D02*
X157748Y-254937D01*
X157764Y-255000D01*
X157787Y-255064D01*
X157817Y-255128D01*
X157853Y-255192D01*
X157897Y-255257D01*
X157947Y-255323D01*
X158003Y-255389D01*
X158067Y-255456D01*
X157501Y-256021D01*
X157435Y-255958D01*
X157303Y-255851D01*
X157238Y-255808D01*
X157173Y-255771D01*
X157109Y-255741D01*
X157046Y-255718D01*
X156983Y-255702D01*
X156920Y-255692D01*
X156858Y-255690D01*
X157735Y-254813D01*
X157738Y-254875D01*
D02*
G37*
G36*
X155800Y-256825D02*
X155810Y-256888D01*
X155826Y-256951D01*
X155849Y-257014D01*
X155879Y-257079D01*
X155916Y-257143D01*
X155959Y-257208D01*
X156009Y-257274D01*
X156066Y-257340D01*
X156130Y-257407D01*
X155564Y-257972D01*
X155497Y-257909D01*
X155365Y-257802D01*
X155300Y-257758D01*
X155236Y-257722D01*
X155172Y-257692D01*
X155108Y-257669D01*
X155045Y-257653D01*
X154983Y-257643D01*
X154921Y-257641D01*
X155798Y-256764D01*
X155800Y-256825D01*
D02*
G37*
G36*
X153863Y-258776D02*
X153872Y-258839D01*
X153889Y-258902D01*
X153912Y-258965D01*
X153942Y-259029D01*
X153978Y-259094D01*
X154021Y-259159D01*
X154071Y-259225D01*
X154128Y-259291D01*
X154192Y-259358D01*
X153626Y-259923D01*
X153560Y-259860D01*
X153428Y-259753D01*
X153363Y-259710D01*
X153298Y-259673D01*
X153234Y-259643D01*
X153171Y-259620D01*
X153108Y-259604D01*
X153045Y-259594D01*
X152983Y-259592D01*
X153860Y-258715D01*
X153863Y-258776D01*
D02*
G37*
G36*
X151925Y-260727D02*
X151935Y-260790D01*
X151951Y-260853D01*
X151974Y-260916D01*
X152004Y-260980D01*
X152040Y-261045D01*
X152084Y-261110D01*
X152134Y-261176D01*
X152191Y-261242D01*
X152254Y-261309D01*
X151689Y-261874D01*
X151622Y-261811D01*
X151490Y-261704D01*
X151425Y-261660D01*
X151360Y-261624D01*
X151296Y-261594D01*
X151233Y-261571D01*
X151170Y-261555D01*
X151108Y-261545D01*
X151046Y-261542D01*
X151923Y-260665D01*
X151925Y-260727D01*
D02*
G37*
G36*
X149716Y-262787D02*
X149725Y-262826D01*
X149740Y-262867D01*
X149760Y-262911D01*
X149787Y-262958D01*
X149820Y-263006D01*
X149859Y-263058D01*
X149956Y-263168D01*
X150013Y-263227D01*
X149447Y-263793D01*
X149388Y-263736D01*
X149278Y-263639D01*
X149226Y-263600D01*
X149177Y-263567D01*
X149131Y-263541D01*
X149087Y-263520D01*
X149046Y-263505D01*
X149007Y-263496D01*
X148971Y-263493D01*
X149713Y-262751D01*
X149716Y-262787D01*
D02*
G37*
G36*
X147778Y-264738D02*
X147787Y-264777D01*
X147802Y-264818D01*
X147823Y-264862D01*
X147850Y-264909D01*
X147883Y-264957D01*
X147922Y-265009D01*
X148018Y-265119D01*
X148075Y-265178D01*
X147510Y-265744D01*
X147451Y-265687D01*
X147340Y-265590D01*
X147289Y-265551D01*
X147240Y-265518D01*
X147193Y-265491D01*
X147150Y-265471D01*
X147108Y-265456D01*
X147069Y-265447D01*
X147033Y-265444D01*
X147776Y-264702D01*
X147778Y-264738D01*
D02*
G37*
G36*
X173720Y-266540D02*
X173730Y-266686D01*
X173739Y-266750D01*
X173750Y-266808D01*
X173764Y-266860D01*
X173780Y-266905D01*
X173799Y-266945D01*
X173820Y-266979D01*
X173844Y-267006D01*
X172794D01*
X172818Y-266979D01*
X172839Y-266945D01*
X172858Y-266905D01*
X172874Y-266860D01*
X172888Y-266808D01*
X172899Y-266750D01*
X172908Y-266686D01*
X172918Y-266540D01*
X172919Y-266457D01*
X173719D01*
X173720Y-266540D01*
D02*
G37*
G36*
X145841Y-266689D02*
X145849Y-266728D01*
X145864Y-266769D01*
X145885Y-266813D01*
X145912Y-266859D01*
X145945Y-266908D01*
X145984Y-266960D01*
X146080Y-267070D01*
X146138Y-267129D01*
X145572Y-267695D01*
X145513Y-267638D01*
X145403Y-267541D01*
X145351Y-267502D01*
X145302Y-267469D01*
X145256Y-267442D01*
X145212Y-267422D01*
X145171Y-267407D01*
X145132Y-267398D01*
X145096Y-267395D01*
X145838Y-266653D01*
X145841Y-266689D01*
D02*
G37*
G36*
X206853Y-267586D02*
X206861Y-267624D01*
X206876Y-267666D01*
X206897Y-267709D01*
X206924Y-267756D01*
X206957Y-267805D01*
X206996Y-267856D01*
X207092Y-267967D01*
X207150Y-268026D01*
X206584Y-268591D01*
X206525Y-268534D01*
X206415Y-268438D01*
X206363Y-268399D01*
X206314Y-268366D01*
X206268Y-268339D01*
X206224Y-268318D01*
X206183Y-268303D01*
X206144Y-268294D01*
X206107Y-268292D01*
X206850Y-267549D01*
X206853Y-267586D01*
D02*
G37*
G36*
X143903Y-268640D02*
X143912Y-268679D01*
X143927Y-268720D01*
X143948Y-268764D01*
X143974Y-268810D01*
X144007Y-268859D01*
X144046Y-268911D01*
X144143Y-269021D01*
X144200Y-269080D01*
X143634Y-269646D01*
X143575Y-269589D01*
X143465Y-269492D01*
X143413Y-269453D01*
X143365Y-269420D01*
X143318Y-269393D01*
X143274Y-269372D01*
X143233Y-269358D01*
X143194Y-269349D01*
X143158Y-269346D01*
X143900Y-268604D01*
X143903Y-268640D01*
D02*
G37*
G36*
X172775Y-270486D02*
X172886Y-270583D01*
X172937Y-270622D01*
X172986Y-270655D01*
X173032Y-270682D01*
X173076Y-270703D01*
X173117Y-270717D01*
X173156Y-270726D01*
X173193Y-270729D01*
X172450Y-271471D01*
X172447Y-271435D01*
X172439Y-271396D01*
X172424Y-271355D01*
X172403Y-271311D01*
X172376Y-271265D01*
X172343Y-271216D01*
X172304Y-271164D01*
X172208Y-271054D01*
X172150Y-270995D01*
X172716Y-270429D01*
X172775Y-270486D01*
D02*
G37*
G36*
X141965Y-270591D02*
X141974Y-270630D01*
X141989Y-270671D01*
X142010Y-270715D01*
X142037Y-270761D01*
X142070Y-270810D01*
X142109Y-270862D01*
X142205Y-270972D01*
X142262Y-271031D01*
X141697Y-271597D01*
X141638Y-271540D01*
X141527Y-271443D01*
X141476Y-271404D01*
X141427Y-271371D01*
X141381Y-271344D01*
X141337Y-271323D01*
X141295Y-271309D01*
X141257Y-271300D01*
X141220Y-271297D01*
X141963Y-270555D01*
X141965Y-270591D01*
D02*
G37*
G36*
X206853Y-271523D02*
X206861Y-271561D01*
X206876Y-271603D01*
X206897Y-271646D01*
X206924Y-271693D01*
X206957Y-271742D01*
X206996Y-271793D01*
X207092Y-271904D01*
X207150Y-271963D01*
X206584Y-272529D01*
X206525Y-272471D01*
X206415Y-272375D01*
X206363Y-272336D01*
X206314Y-272303D01*
X206268Y-272276D01*
X206224Y-272255D01*
X206183Y-272240D01*
X206144Y-272231D01*
X206107Y-272229D01*
X206850Y-271486D01*
X206853Y-271523D01*
D02*
G37*
G36*
X140028Y-272542D02*
X140037Y-272581D01*
X140051Y-272622D01*
X140072Y-272666D01*
X140099Y-272712D01*
X140132Y-272761D01*
X140171Y-272813D01*
X140268Y-272923D01*
X140325Y-272982D01*
X139759Y-273548D01*
X139700Y-273491D01*
X139590Y-273394D01*
X139538Y-273355D01*
X139489Y-273322D01*
X139443Y-273295D01*
X139399Y-273274D01*
X139358Y-273259D01*
X139319Y-273251D01*
X139283Y-273248D01*
X140025Y-272506D01*
X140028Y-272542D01*
D02*
G37*
G36*
X172809Y-274417D02*
X172971Y-274553D01*
X173019Y-274587D01*
X173065Y-274615D01*
X173108Y-274636D01*
X173149Y-274652D01*
X173187Y-274662D01*
X173222Y-274666D01*
X172451Y-275379D01*
X172450Y-275342D01*
X172442Y-275303D01*
X172428Y-275261D01*
X172408Y-275216D01*
X172382Y-275169D01*
X172350Y-275120D01*
X172311Y-275068D01*
X172216Y-274958D01*
X172159Y-274899D01*
X172750Y-274359D01*
X172809Y-274417D01*
D02*
G37*
G36*
X138090Y-274493D02*
X138099Y-274532D01*
X138114Y-274573D01*
X138135Y-274617D01*
X138162Y-274663D01*
X138195Y-274712D01*
X138234Y-274763D01*
X138330Y-274874D01*
X138387Y-274933D01*
X137822Y-275499D01*
X137763Y-275441D01*
X137652Y-275345D01*
X137601Y-275306D01*
X137552Y-275273D01*
X137505Y-275246D01*
X137461Y-275225D01*
X137420Y-275210D01*
X137381Y-275202D01*
X137345Y-275199D01*
X138088Y-274457D01*
X138090Y-274493D01*
D02*
G37*
G36*
X206853Y-275460D02*
X206861Y-275498D01*
X206876Y-275540D01*
X206897Y-275584D01*
X206924Y-275630D01*
X206957Y-275679D01*
X206996Y-275730D01*
X207092Y-275841D01*
X207150Y-275900D01*
X206584Y-276466D01*
X206525Y-276408D01*
X206415Y-276312D01*
X206363Y-276273D01*
X206314Y-276240D01*
X206268Y-276213D01*
X206224Y-276192D01*
X206183Y-276177D01*
X206144Y-276168D01*
X206107Y-276166D01*
X206850Y-275423D01*
X206853Y-275460D01*
D02*
G37*
G36*
X135901Y-276963D02*
X135880Y-276997D01*
X135861Y-277036D01*
X135845Y-277082D01*
X135831Y-277134D01*
X135820Y-277192D01*
X135811Y-277256D01*
X135801Y-277402D01*
X135800Y-277484D01*
X135000D01*
X134999Y-277402D01*
X134989Y-277256D01*
X134980Y-277192D01*
X134969Y-277134D01*
X134955Y-277082D01*
X134939Y-277036D01*
X134920Y-276997D01*
X134899Y-276963D01*
X134875Y-276936D01*
X135925D01*
X135901Y-276963D01*
D02*
G37*
G36*
X172775Y-278360D02*
X172886Y-278457D01*
X172937Y-278496D01*
X172986Y-278529D01*
X173032Y-278556D01*
X173076Y-278577D01*
X173117Y-278591D01*
X173156Y-278600D01*
X173193Y-278603D01*
X172450Y-279345D01*
X172447Y-279309D01*
X172439Y-279270D01*
X172424Y-279229D01*
X172403Y-279185D01*
X172376Y-279139D01*
X172343Y-279090D01*
X172304Y-279038D01*
X172208Y-278928D01*
X172150Y-278869D01*
X172716Y-278303D01*
X172775Y-278360D01*
D02*
G37*
G36*
X206853Y-279397D02*
X206861Y-279435D01*
X206876Y-279477D01*
X206897Y-279521D01*
X206924Y-279567D01*
X206957Y-279616D01*
X206996Y-279667D01*
X207092Y-279778D01*
X207150Y-279837D01*
X206584Y-280402D01*
X206525Y-280345D01*
X206415Y-280249D01*
X206363Y-280210D01*
X206314Y-280177D01*
X206268Y-280150D01*
X206224Y-280129D01*
X206183Y-280114D01*
X206144Y-280105D01*
X206107Y-280103D01*
X206850Y-279360D01*
X206853Y-279397D01*
D02*
G37*
G36*
X172775Y-286234D02*
X172886Y-286331D01*
X172937Y-286370D01*
X172986Y-286403D01*
X173032Y-286430D01*
X173076Y-286451D01*
X173117Y-286465D01*
X173156Y-286474D01*
X173193Y-286477D01*
X172450Y-287219D01*
X172447Y-287183D01*
X172439Y-287144D01*
X172424Y-287103D01*
X172403Y-287059D01*
X172376Y-287013D01*
X172343Y-286964D01*
X172304Y-286912D01*
X172208Y-286802D01*
X172150Y-286743D01*
X172716Y-286177D01*
X172775Y-286234D01*
D02*
G37*
G36*
X206601Y-287790D02*
X206580Y-287824D01*
X206561Y-287863D01*
X206545Y-287909D01*
X206531Y-287961D01*
X206520Y-288019D01*
X206511Y-288083D01*
X206501Y-288229D01*
X206500Y-288311D01*
X205700D01*
X205699Y-288229D01*
X205689Y-288083D01*
X205680Y-288019D01*
X205669Y-287961D01*
X205655Y-287909D01*
X205639Y-287863D01*
X205620Y-287824D01*
X205599Y-287790D01*
X205575Y-287762D01*
X206625D01*
X206601Y-287790D01*
D02*
G37*
G36*
X180264Y-293325D02*
X180237Y-293301D01*
X180203Y-293280D01*
X180164Y-293261D01*
X180118Y-293245D01*
X180066Y-293231D01*
X180008Y-293220D01*
X179944Y-293211D01*
X179798Y-293201D01*
X179716Y-293200D01*
Y-292400D01*
X179798Y-292399D01*
X179944Y-292389D01*
X180008Y-292380D01*
X180066Y-292369D01*
X180118Y-292355D01*
X180164Y-292339D01*
X180203Y-292320D01*
X180237Y-292299D01*
X180264Y-292275D01*
Y-293325D01*
D02*
G37*
G36*
X198493Y-293550D02*
X198456Y-293553D01*
X198417Y-293561D01*
X198376Y-293576D01*
X198332Y-293597D01*
X198286Y-293624D01*
X198237Y-293657D01*
X198186Y-293696D01*
X198075Y-293792D01*
X198016Y-293850D01*
X197450Y-293284D01*
X197508Y-293225D01*
X197604Y-293114D01*
X197643Y-293063D01*
X197676Y-293014D01*
X197703Y-292968D01*
X197724Y-292924D01*
X197739Y-292883D01*
X197747Y-292844D01*
X197750Y-292808D01*
X198493Y-293550D01*
D02*
G37*
G36*
X194542D02*
X194506Y-293553D01*
X194467Y-293561D01*
X194426Y-293576D01*
X194382Y-293597D01*
X194335Y-293624D01*
X194287Y-293657D01*
X194235Y-293696D01*
X194125Y-293792D01*
X194066Y-293850D01*
X193500Y-293284D01*
X193557Y-293225D01*
X193654Y-293114D01*
X193693Y-293063D01*
X193726Y-293014D01*
X193753Y-292968D01*
X193773Y-292924D01*
X193788Y-292883D01*
X193797Y-292844D01*
X193800Y-292808D01*
X194542Y-293550D01*
D02*
G37*
G36*
X184792D02*
X184756Y-293553D01*
X184717Y-293561D01*
X184676Y-293576D01*
X184632Y-293597D01*
X184586Y-293624D01*
X184537Y-293657D01*
X184485Y-293696D01*
X184375Y-293792D01*
X184316Y-293850D01*
X183750Y-293284D01*
X183808Y-293225D01*
X183904Y-293114D01*
X183943Y-293063D01*
X183976Y-293014D01*
X184003Y-292968D01*
X184024Y-292924D01*
X184039Y-292883D01*
X184047Y-292844D01*
X184050Y-292808D01*
X184792Y-293550D01*
D02*
G37*
G36*
X188477Y-293584D02*
X188441Y-293587D01*
X188402Y-293595D01*
X188361Y-293610D01*
X188317Y-293631D01*
X188271Y-293658D01*
X188222Y-293691D01*
X188170Y-293730D01*
X188060Y-293826D01*
X188001Y-293884D01*
X187435Y-293318D01*
X187492Y-293259D01*
X187589Y-293148D01*
X187628Y-293097D01*
X187661Y-293048D01*
X187688Y-293002D01*
X187709Y-292958D01*
X187723Y-292917D01*
X187732Y-292878D01*
X187735Y-292842D01*
X188477Y-293584D01*
D02*
G37*
G36*
X190879Y-293535D02*
X190868Y-293543D01*
X190847Y-293562D01*
X190387Y-294012D01*
X190277Y-294122D01*
X189682Y-293585D01*
X189739Y-293526D01*
X189830Y-293416D01*
X189865Y-293365D01*
X189892Y-293316D01*
X189912Y-293270D01*
X189924Y-293227D01*
X189929Y-293187D01*
X189927Y-293149D01*
X189917Y-293114D01*
X190879Y-293535D01*
D02*
G37*
G36*
X149863Y-190590D02*
X149897Y-190611D01*
X149936Y-190630D01*
X149982Y-190646D01*
X150034Y-190660D01*
X150092Y-190671D01*
X150156Y-190680D01*
X150302Y-190690D01*
X150384Y-190691D01*
Y-191491D01*
X150302Y-191492D01*
X150156Y-191502D01*
X150092Y-191511D01*
X150034Y-191522D01*
X149982Y-191536D01*
X149936Y-191552D01*
X149897Y-191571D01*
X149863Y-191592D01*
X149836Y-191616D01*
Y-190566D01*
X149863Y-190590D01*
D02*
G37*
G36*
X148938Y-192668D02*
X148969Y-192694D01*
X149006Y-192718D01*
X149049Y-192738D01*
X149099Y-192755D01*
X149155Y-192769D01*
X149218Y-192779D01*
X149287Y-192787D01*
X149444Y-192793D01*
X149270Y-193593D01*
X149186Y-193594D01*
X148917Y-193613D01*
X148866Y-193622D01*
X148822Y-193632D01*
X148783Y-193643D01*
X148752Y-193657D01*
X148726Y-193672D01*
X148914Y-192639D01*
X148938Y-192668D01*
D02*
G37*
G36*
X149863Y-194527D02*
X149897Y-194548D01*
X149936Y-194567D01*
X149982Y-194583D01*
X150034Y-194597D01*
X150092Y-194608D01*
X150156Y-194617D01*
X150302Y-194627D01*
X150384Y-194628D01*
Y-195428D01*
X150302Y-195429D01*
X150156Y-195439D01*
X150092Y-195448D01*
X150034Y-195459D01*
X149982Y-195473D01*
X149936Y-195489D01*
X149897Y-195508D01*
X149863Y-195529D01*
X149836Y-195553D01*
Y-194503D01*
X149863Y-194527D01*
D02*
G37*
G36*
X148856Y-196495D02*
X148890Y-196516D01*
X148930Y-196535D01*
X148975Y-196551D01*
X149027Y-196565D01*
X149085Y-196576D01*
X149149Y-196585D01*
X149295Y-196595D01*
X149377Y-196596D01*
Y-197396D01*
X149295Y-197398D01*
X149149Y-197408D01*
X149085Y-197416D01*
X149027Y-197428D01*
X148975Y-197441D01*
X148930Y-197458D01*
X148890Y-197476D01*
X148856Y-197498D01*
X148829Y-197521D01*
Y-196471D01*
X148856Y-196495D01*
D02*
G37*
G36*
X149863Y-198464D02*
X149897Y-198485D01*
X149936Y-198504D01*
X149982Y-198520D01*
X150034Y-198534D01*
X150092Y-198545D01*
X150156Y-198554D01*
X150302Y-198564D01*
X150384Y-198565D01*
Y-199365D01*
X150302Y-199366D01*
X150156Y-199376D01*
X150092Y-199385D01*
X150034Y-199396D01*
X149982Y-199410D01*
X149936Y-199426D01*
X149897Y-199445D01*
X149863Y-199466D01*
X149836Y-199490D01*
Y-198440D01*
X149863Y-198464D01*
D02*
G37*
G36*
X148938Y-200542D02*
X148969Y-200568D01*
X149006Y-200591D01*
X149049Y-200612D01*
X149099Y-200629D01*
X149155Y-200643D01*
X149218Y-200653D01*
X149287Y-200661D01*
X149444Y-200667D01*
X149270Y-201467D01*
X149186Y-201468D01*
X148917Y-201487D01*
X148866Y-201496D01*
X148822Y-201506D01*
X148783Y-201517D01*
X148752Y-201531D01*
X148726Y-201546D01*
X148914Y-200513D01*
X148938Y-200542D01*
D02*
G37*
G36*
X149863Y-202399D02*
X149897Y-202420D01*
X149936Y-202439D01*
X149982Y-202455D01*
X150034Y-202469D01*
X150092Y-202480D01*
X150156Y-202489D01*
X150302Y-202499D01*
X150384Y-202500D01*
Y-203300D01*
X150302Y-203301D01*
X150156Y-203311D01*
X150092Y-203320D01*
X150034Y-203331D01*
X149982Y-203345D01*
X149936Y-203361D01*
X149897Y-203380D01*
X149863Y-203401D01*
X149836Y-203425D01*
Y-202375D01*
X149863Y-202399D01*
D02*
G37*
G36*
X148938Y-204479D02*
X148969Y-204505D01*
X149006Y-204528D01*
X149049Y-204549D01*
X149099Y-204566D01*
X149155Y-204579D01*
X149218Y-204590D01*
X149287Y-204598D01*
X149444Y-204604D01*
X149270Y-205404D01*
X149186Y-205405D01*
X148917Y-205424D01*
X148866Y-205433D01*
X148822Y-205443D01*
X148783Y-205454D01*
X148752Y-205468D01*
X148726Y-205483D01*
X148914Y-204450D01*
X148938Y-204479D01*
D02*
G37*
G36*
X149801Y-207402D02*
X149780Y-207436D01*
X149761Y-207475D01*
X149745Y-207521D01*
X149731Y-207573D01*
X149720Y-207631D01*
X149711Y-207695D01*
X149701Y-207841D01*
X149700Y-207923D01*
X148900D01*
X148899Y-207841D01*
X148889Y-207695D01*
X148880Y-207631D01*
X148869Y-207573D01*
X148855Y-207521D01*
X148839Y-207475D01*
X148820Y-207436D01*
X148799Y-207402D01*
X148775Y-207375D01*
X149825D01*
X149801Y-207402D01*
D02*
G37*
G36*
X102363Y-259678D02*
X102397Y-259699D01*
X102436Y-259717D01*
X102482Y-259734D01*
X102534Y-259748D01*
X102592Y-259759D01*
X102656Y-259768D01*
X102802Y-259778D01*
X102884Y-259779D01*
Y-260579D01*
X102802Y-260580D01*
X102656Y-260590D01*
X102592Y-260599D01*
X102534Y-260610D01*
X102482Y-260624D01*
X102436Y-260640D01*
X102397Y-260659D01*
X102363Y-260680D01*
X102336Y-260704D01*
Y-259654D01*
X102363Y-259678D01*
D02*
G37*
G36*
Y-263615D02*
X102397Y-263636D01*
X102436Y-263655D01*
X102482Y-263671D01*
X102534Y-263685D01*
X102592Y-263696D01*
X102656Y-263705D01*
X102802Y-263715D01*
X102884Y-263716D01*
Y-264516D01*
X102802Y-264517D01*
X102656Y-264527D01*
X102592Y-264536D01*
X102534Y-264547D01*
X102482Y-264561D01*
X102436Y-264577D01*
X102397Y-264596D01*
X102363Y-264617D01*
X102336Y-264641D01*
Y-263591D01*
X102363Y-263615D01*
D02*
G37*
G36*
Y-267551D02*
X102397Y-267573D01*
X102436Y-267592D01*
X102482Y-267608D01*
X102534Y-267621D01*
X102592Y-267633D01*
X102656Y-267642D01*
X102802Y-267652D01*
X102884Y-267653D01*
Y-268453D01*
X102802Y-268454D01*
X102656Y-268464D01*
X102592Y-268473D01*
X102534Y-268484D01*
X102482Y-268498D01*
X102436Y-268514D01*
X102397Y-268533D01*
X102363Y-268554D01*
X102336Y-268578D01*
Y-267528D01*
X102363Y-267551D01*
D02*
G37*
G36*
X102850Y-275443D02*
X102792Y-275502D01*
X102696Y-275612D01*
X102657Y-275664D01*
X102624Y-275713D01*
X102597Y-275759D01*
X102576Y-275803D01*
X102561Y-275844D01*
X102553Y-275883D01*
X102550Y-275919D01*
X101807Y-275177D01*
X101844Y-275174D01*
X101883Y-275165D01*
X101924Y-275151D01*
X101968Y-275130D01*
X102014Y-275103D01*
X102063Y-275070D01*
X102114Y-275031D01*
X102225Y-274934D01*
X102284Y-274877D01*
X102850Y-275443D01*
D02*
G37*
G36*
X94421Y-281299D02*
X94455Y-281320D01*
X94495Y-281339D01*
X94540Y-281355D01*
X94592Y-281369D01*
X94650Y-281380D01*
X94714Y-281389D01*
X94860Y-281399D01*
X94943Y-281400D01*
Y-282200D01*
X94860Y-282201D01*
X94714Y-282211D01*
X94650Y-282220D01*
X94592Y-282231D01*
X94540Y-282245D01*
X94495Y-282261D01*
X94455Y-282280D01*
X94421Y-282301D01*
X94394Y-282325D01*
Y-281275D01*
X94421Y-281299D01*
D02*
G37*
G36*
X90674Y-281844D02*
X90683Y-281883D01*
X90697Y-281924D01*
X90718Y-281968D01*
X90745Y-282014D01*
X90778Y-282063D01*
X90817Y-282115D01*
X90914Y-282225D01*
X90971Y-282284D01*
X90405Y-282850D01*
X90346Y-282792D01*
X90236Y-282696D01*
X90184Y-282657D01*
X90135Y-282624D01*
X90089Y-282597D01*
X90045Y-282576D01*
X90004Y-282561D01*
X89965Y-282553D01*
X89929Y-282550D01*
X90671Y-281807D01*
X90674Y-281844D01*
D02*
G37*
G36*
X86737D02*
X86746Y-281883D01*
X86760Y-281924D01*
X86781Y-281968D01*
X86808Y-282014D01*
X86841Y-282063D01*
X86880Y-282115D01*
X86977Y-282225D01*
X87034Y-282284D01*
X86468Y-282850D01*
X86409Y-282792D01*
X86299Y-282696D01*
X86247Y-282657D01*
X86198Y-282624D01*
X86152Y-282597D01*
X86108Y-282576D01*
X86067Y-282561D01*
X86028Y-282553D01*
X85992Y-282550D01*
X86734Y-281807D01*
X86737Y-281844D01*
D02*
G37*
G36*
X80601Y-282363D02*
X80580Y-282397D01*
X80561Y-282436D01*
X80545Y-282482D01*
X80531Y-282534D01*
X80520Y-282592D01*
X80511Y-282656D01*
X80501Y-282802D01*
X80500Y-282884D01*
X79700D01*
X79699Y-282802D01*
X79689Y-282656D01*
X79680Y-282592D01*
X79669Y-282534D01*
X79655Y-282482D01*
X79639Y-282436D01*
X79620Y-282397D01*
X79599Y-282363D01*
X79575Y-282336D01*
X80625D01*
X80601Y-282363D01*
D02*
G37*
G36*
X84454Y-282259D02*
X84440Y-282290D01*
X84429Y-282329D01*
X84418Y-282373D01*
X84410Y-282424D01*
X84397Y-282546D01*
X84391Y-282693D01*
X84390Y-282777D01*
X83590Y-282951D01*
X83589Y-282869D01*
X83576Y-282725D01*
X83565Y-282662D01*
X83552Y-282606D01*
X83534Y-282556D01*
X83514Y-282513D01*
X83491Y-282476D01*
X83465Y-282445D01*
X83435Y-282421D01*
X84469Y-282233D01*
X84454Y-282259D01*
D02*
G37*
D14*
X90482Y-248300D02*
X93000D01*
X88382Y-246200D02*
X90482Y-248300D01*
X80079Y-248500D02*
X82379Y-246200D01*
X88382D01*
X196100Y-259400D02*
X197400D01*
X194622Y-257922D02*
X196100Y-259400D01*
X186678Y-257922D02*
X194622D01*
X184700Y-259900D02*
X186678Y-257922D01*
D75*
X149300Y-191091D02*
X163491D01*
X148293Y-193059D02*
X148427Y-193193D01*
X162393D01*
X194400Y-318500D02*
X215800Y-297100D01*
Y-277242D01*
X206100Y-267542D02*
X215800Y-277242D01*
X160900Y-318500D02*
X194400D01*
X135400Y-293000D02*
Y-276400D01*
Y-293000D02*
X160900Y-318500D01*
X206100Y-290700D02*
Y-287227D01*
X165300Y-310100D02*
X191100D01*
X163500Y-316000D02*
X193000D01*
X208400Y-292800D02*
Y-281653D01*
X213300Y-295700D02*
Y-278679D01*
X191100Y-310100D02*
X208400Y-292800D01*
X193000Y-316000D02*
X213300Y-295700D01*
X164900Y-313400D02*
X191000D01*
X189400Y-307400D02*
X206100Y-290700D01*
X210800Y-293600D02*
Y-280116D01*
X191000Y-313400D02*
X210800Y-293600D01*
X167000Y-307400D02*
X189400D01*
X138400Y-290900D02*
Y-275512D01*
X142600Y-287400D02*
X165300Y-310100D01*
X147100Y-283900D02*
Y-268657D01*
X140700Y-289200D02*
Y-273923D01*
X138400Y-290900D02*
X163500Y-316000D01*
X140700Y-289200D02*
X164900Y-313400D01*
X144500Y-284900D02*
Y-269946D01*
Y-284900D02*
X167000Y-307400D01*
X142600Y-287400D02*
Y-271934D01*
X149500Y-281800D02*
Y-267169D01*
X147100Y-283900D02*
X167900Y-304700D01*
X149500Y-281800D02*
X169800Y-302100D01*
X185250D01*
X167900Y-304700D02*
X186600D01*
X206100Y-271479D02*
X213300Y-278679D01*
X137338Y-274449D02*
X138400Y-275512D01*
X206100Y-275416D02*
X210800Y-280116D01*
X206100Y-279353D02*
X208400Y-281653D01*
X165733Y-271886D02*
X173200Y-279353D01*
X151962Y-280462D02*
Y-265742D01*
X171300Y-299800D02*
X184033D01*
X151962Y-280462D02*
X171300Y-299800D01*
X139275Y-272498D02*
X140700Y-273923D01*
X170600Y-268879D02*
X173200Y-271479D01*
X170600Y-268879D02*
Y-256900D01*
X162600Y-248900D02*
X170600Y-256900D01*
X148293Y-200933D02*
X148427Y-201067D01*
X101800Y-275927D02*
X158400Y-219327D01*
Y-203100D01*
X156367Y-201067D02*
X158400Y-203100D01*
X148427Y-201067D02*
X156367D01*
X168400Y-270575D02*
X173200Y-275375D01*
Y-275416D02*
Y-275375D01*
X161200Y-250800D02*
X168400Y-258000D01*
Y-270575D02*
Y-258000D01*
X190479Y-293355D02*
Y-292968D01*
X190613Y-292834D01*
X148963Y-262743D02*
X151962Y-265742D01*
X184033Y-299800D02*
X190479Y-293355D01*
X80100Y-283900D02*
Y-281800D01*
Y-283900D02*
X89700Y-293500D01*
X163491Y-191091D02*
X172100Y-199700D01*
Y-230500D02*
Y-199700D01*
X109100Y-293500D02*
X172100Y-230500D01*
X89700Y-293500D02*
X109100D01*
X173319Y-267542D02*
Y-255719D01*
X164600Y-247000D02*
X173319Y-255719D01*
X149300Y-202900D02*
X154100D01*
X155500Y-204300D01*
Y-217300D02*
Y-204300D01*
X101800Y-268053D02*
X104747D01*
X155500Y-217300D01*
X83856Y-281800D02*
X83990Y-281934D01*
Y-283690D02*
Y-281934D01*
Y-283690D02*
X90800Y-290500D01*
X162393Y-193193D02*
X169700Y-200500D01*
X90800Y-290500D02*
X107200D01*
X169700Y-228000D02*
Y-200500D01*
X107200Y-290500D02*
X169700Y-228000D01*
X159000Y-252900D02*
X165733Y-259633D01*
Y-271886D02*
Y-259633D01*
X148293Y-204870D02*
X148427Y-205004D01*
X101800Y-264116D02*
X104584D01*
X152900Y-215800D01*
X148427Y-205004D02*
X151904D01*
X152900Y-206000D01*
Y-215800D02*
Y-206000D01*
X85984Y-281800D02*
X91084Y-286900D01*
X105900D01*
X166800Y-226000D02*
Y-200800D01*
X149300Y-195028D02*
X161028D01*
X166800Y-200800D01*
X105900Y-286900D02*
X166800Y-226000D01*
X156850Y-254804D02*
X163202Y-261156D01*
Y-277229D02*
X173200Y-287227D01*
X163202Y-277229D02*
Y-261156D01*
X141213Y-270547D02*
X142600Y-271934D01*
X149300Y-214900D02*
Y-206839D01*
X101800Y-260179D02*
X104021D01*
X149300Y-214900D01*
X89921Y-281800D02*
X92421Y-284300D01*
X103000D01*
X164100Y-223200D01*
X160196Y-196996D02*
X164100Y-200900D01*
X148293Y-196996D02*
X160196D01*
X164100Y-223200D02*
Y-200900D01*
X145088Y-266645D02*
X147100Y-268657D01*
X186600Y-304700D02*
X198500Y-292800D01*
X151037Y-260657D02*
X154863Y-264483D01*
X184219Y-297100D02*
X188485Y-292834D01*
X172300Y-297100D02*
X184219D01*
X154863Y-279663D02*
X172300Y-297100D01*
X154863Y-279663D02*
Y-264483D01*
X147026Y-264694D02*
X149500Y-267169D01*
X185250Y-302100D02*
X194550Y-292800D01*
X154912Y-256755D02*
X160531Y-262374D01*
Y-277531D02*
X175800Y-292800D01*
X160531Y-277531D02*
Y-262374D01*
X175800Y-292800D02*
X180800D01*
X183022Y-294578D02*
X184800Y-292800D01*
X152974Y-258706D02*
X157687Y-263418D01*
X173778Y-294578D02*
X183022D01*
X157687Y-278487D02*
X173778Y-294578D01*
X157687Y-278487D02*
Y-263418D01*
X143150Y-268596D02*
X144500Y-269946D01*
X93858Y-281800D02*
X100300D01*
X161100Y-221000D01*
X158365Y-198965D02*
X161100Y-201700D01*
X149300Y-198965D02*
X158365D01*
X161100Y-221000D02*
Y-201700D01*
D77*
X110470Y-205030D02*
X132270D01*
X103000Y-212500D02*
X110470Y-205030D01*
X132270D02*
X148200Y-189100D01*
X71200Y-278900D02*
X95994Y-254106D01*
X101800D01*
X71200Y-293230D02*
Y-278900D01*
Y-293230D02*
X83194Y-305225D01*
Y-326300D02*
Y-305225D01*
D78*
X96600Y-144800D02*
X113500D01*
X142600Y-115700D02*
X184398D01*
X240000Y-60098D01*
X113500Y-144800D02*
X142600Y-115700D01*
X69724Y-142400D02*
X102424Y-175100D01*
X109517Y-173018D02*
X131030D01*
X102424Y-175100D02*
X134967D01*
X18600Y-82102D02*
X109517Y-173018D01*
X18600Y-82102D02*
Y-10300D01*
X17600Y-142400D02*
X69724D01*
X10000Y-150000D02*
X17600Y-142400D01*
X13521Y-5221D02*
X18600Y-10300D01*
X5221Y-5221D02*
X13521D01*
X0Y0D02*
X5221Y-5221D01*
D100*
X194500Y-215500D02*
D03*
X185000Y-189400D02*
D03*
X113900Y-51700D02*
D03*
X204700Y-189100D02*
D03*
X80000Y-179500D02*
D03*
X224300Y-61100D02*
D03*
X27800Y-60500D02*
D03*
D101*
X240000Y-98D02*
D03*
X0Y0D02*
D03*
D102*
X250000Y-98D02*
D03*
X240000Y-10098D02*
D03*
X250000D02*
D03*
X240000Y-20098D02*
D03*
X250000D02*
D03*
X240000Y-30098D02*
D03*
X250000D02*
D03*
Y-40098D02*
D03*
X240000Y-50098D02*
D03*
X250000D02*
D03*
X240000Y-60098D02*
D03*
X250000D02*
D03*
X240000Y-70098D02*
D03*
X250000D02*
D03*
Y-80098D02*
D03*
X240000Y-100098D02*
D03*
Y-110098D02*
D03*
X250000D02*
D03*
Y-120098D02*
D03*
X240000Y-130098D02*
D03*
X250000D02*
D03*
X240000Y-140098D02*
D03*
X250000D02*
D03*
X240000Y-150098D02*
D03*
X250000D02*
D03*
X240000Y-160098D02*
D03*
X250000D02*
D03*
X240000Y-170098D02*
D03*
X250000D02*
D03*
X240000Y-180098D02*
D03*
X250000D02*
D03*
Y-190098D02*
D03*
X240000Y-200098D02*
D03*
X250000D02*
D03*
X240000Y-210098D02*
D03*
X250000D02*
D03*
X240000Y-220098D02*
D03*
X250000D02*
D03*
X240000Y-230098D02*
D03*
X250000D02*
D03*
X240000Y-240098D02*
D03*
X250000D02*
D03*
X240000Y-250098D02*
D03*
X250000D02*
D03*
X240000Y-260098D02*
D03*
Y-270098D02*
D03*
X250000D02*
D03*
X240000Y-280098D02*
D03*
X250000D02*
D03*
X240000Y-290098D02*
D03*
X250000D02*
D03*
X240000Y-300098D02*
D03*
X250000D02*
D03*
Y-310098D02*
D03*
X240000Y-320098D02*
D03*
X250000D02*
D03*
X240000Y-330098D02*
D03*
X250000D02*
D03*
X240000Y-340098D02*
D03*
X250000D02*
D03*
X240000Y-120098D02*
D03*
Y-80098D02*
D03*
X250000Y-100098D02*
D03*
X240000Y-90098D02*
D03*
Y-310098D02*
D03*
X250000Y-260098D02*
D03*
X240000Y-190098D02*
D03*
X250000Y-90098D02*
D03*
X240000Y-40098D02*
D03*
X10000Y-290000D02*
D03*
X0Y-240000D02*
D03*
X10000Y-90000D02*
D03*
X0D02*
D03*
X10000Y-30000D02*
D03*
Y-100000D02*
D03*
Y-150000D02*
D03*
Y0D02*
D03*
X0Y-10000D02*
D03*
X10000D02*
D03*
X0Y-20000D02*
D03*
X10000D02*
D03*
X0Y-30000D02*
D03*
Y-40000D02*
D03*
X10000D02*
D03*
X0Y-50000D02*
D03*
X10000D02*
D03*
X0Y-60000D02*
D03*
X10000D02*
D03*
X0Y-70000D02*
D03*
X10000D02*
D03*
X0Y-80000D02*
D03*
Y-100000D02*
D03*
Y-110000D02*
D03*
X10000D02*
D03*
X0Y-120000D02*
D03*
X10000D02*
D03*
X0Y-130000D02*
D03*
X10000D02*
D03*
X0Y-140000D02*
D03*
X10000D02*
D03*
X0Y-150000D02*
D03*
Y-160000D02*
D03*
X10000D02*
D03*
X0Y-170000D02*
D03*
X10000D02*
D03*
X0Y-180000D02*
D03*
X10000D02*
D03*
X0Y-190000D02*
D03*
X10000D02*
D03*
X0Y-200000D02*
D03*
X10000D02*
D03*
X0Y-210000D02*
D03*
X10000D02*
D03*
X0Y-220000D02*
D03*
X10000D02*
D03*
X0Y-230000D02*
D03*
X10000D02*
D03*
Y-240000D02*
D03*
X0Y-250000D02*
D03*
X10000D02*
D03*
X0Y-260000D02*
D03*
X10000D02*
D03*
X0Y-270000D02*
D03*
X10000D02*
D03*
X0Y-280000D02*
D03*
X10000D02*
D03*
X0Y-290000D02*
D03*
Y-300000D02*
D03*
X10000D02*
D03*
X0Y-310000D02*
D03*
X10000D02*
D03*
X0Y-320000D02*
D03*
X10000D02*
D03*
X0Y-330000D02*
D03*
X10000D02*
D03*
X0Y-340000D02*
D03*
X10000D02*
D03*
Y-80000D02*
D03*
D103*
X70202Y-313308D02*
D03*
X96187D02*
D03*
Y-339292D02*
D03*
X70202D02*
D03*
X202992Y-2008D02*
D03*
X177008Y-27992D02*
D03*
X202992D02*
D03*
X177008Y-2008D02*
D03*
X72992D02*
D03*
Y-27992D02*
D03*
X47008Y-2008D02*
D03*
Y-27992D02*
D03*
D104*
X83194Y-326300D02*
D03*
X190000Y-15000D02*
D03*
X60000D02*
D03*
D105*
X259000Y-500D02*
D03*
Y-10500D02*
D03*
Y-20500D02*
D03*
Y-30500D02*
D03*
Y-40500D02*
D03*
Y-70500D02*
D03*
Y-80500D02*
D03*
Y-90500D02*
D03*
Y-100500D02*
D03*
Y-110500D02*
D03*
Y-120500D02*
D03*
Y-130500D02*
D03*
Y-140500D02*
D03*
Y-150500D02*
D03*
Y-160500D02*
D03*
Y-170500D02*
D03*
Y-180500D02*
D03*
Y-190500D02*
D03*
Y-200500D02*
D03*
Y-210500D02*
D03*
Y-220500D02*
D03*
Y-230500D02*
D03*
Y-240500D02*
D03*
Y-250500D02*
D03*
Y-260500D02*
D03*
Y-270500D02*
D03*
Y-280500D02*
D03*
Y-290500D02*
D03*
Y-300500D02*
D03*
Y-310500D02*
D03*
Y-320500D02*
D03*
Y-330500D02*
D03*
Y-340500D02*
D03*
X254000Y9500D02*
D03*
X256500Y4500D02*
D03*
Y-5500D02*
D03*
Y-15500D02*
D03*
Y-25500D02*
D03*
Y-35500D02*
D03*
Y-75500D02*
D03*
Y-85500D02*
D03*
Y-95500D02*
D03*
Y-105500D02*
D03*
Y-115500D02*
D03*
Y-125500D02*
D03*
Y-135500D02*
D03*
Y-145500D02*
D03*
Y-155500D02*
D03*
Y-165500D02*
D03*
Y-175500D02*
D03*
Y-185500D02*
D03*
Y-195500D02*
D03*
Y-205500D02*
D03*
Y-215500D02*
D03*
Y-225500D02*
D03*
Y-235500D02*
D03*
Y-245500D02*
D03*
Y-255500D02*
D03*
Y-265500D02*
D03*
Y-275500D02*
D03*
Y-285500D02*
D03*
Y-295500D02*
D03*
Y-305500D02*
D03*
Y-315500D02*
D03*
Y-325500D02*
D03*
Y-335500D02*
D03*
Y-345500D02*
D03*
X254000Y-350500D02*
D03*
X249000Y9500D02*
D03*
X251500Y4500D02*
D03*
Y-5500D02*
D03*
Y-15500D02*
D03*
Y-25500D02*
D03*
Y-35500D02*
D03*
Y-55500D02*
D03*
Y-65500D02*
D03*
Y-75500D02*
D03*
Y-85500D02*
D03*
Y-95500D02*
D03*
Y-105500D02*
D03*
Y-115500D02*
D03*
Y-125500D02*
D03*
Y-135500D02*
D03*
Y-145500D02*
D03*
Y-155500D02*
D03*
Y-165500D02*
D03*
Y-175500D02*
D03*
Y-185500D02*
D03*
Y-195500D02*
D03*
Y-205500D02*
D03*
Y-215500D02*
D03*
Y-225500D02*
D03*
Y-235500D02*
D03*
Y-245500D02*
D03*
Y-255500D02*
D03*
Y-265500D02*
D03*
Y-275500D02*
D03*
Y-285500D02*
D03*
Y-295500D02*
D03*
Y-305500D02*
D03*
Y-315500D02*
D03*
Y-325500D02*
D03*
Y-335500D02*
D03*
Y-345500D02*
D03*
X249000Y-350500D02*
D03*
X244000Y9500D02*
D03*
X246500Y4500D02*
D03*
Y-5500D02*
D03*
Y-15500D02*
D03*
Y-25500D02*
D03*
Y-35500D02*
D03*
Y-75500D02*
D03*
Y-85500D02*
D03*
Y-345500D02*
D03*
X244000Y-350500D02*
D03*
X239000Y9500D02*
D03*
X241500Y4500D02*
D03*
Y-5500D02*
D03*
Y-15500D02*
D03*
Y-25500D02*
D03*
Y-35500D02*
D03*
Y-55500D02*
D03*
Y-65500D02*
D03*
Y-105500D02*
D03*
Y-115500D02*
D03*
Y-125500D02*
D03*
Y-135500D02*
D03*
Y-145500D02*
D03*
Y-155500D02*
D03*
Y-165500D02*
D03*
Y-175500D02*
D03*
Y-185500D02*
D03*
Y-195500D02*
D03*
Y-205500D02*
D03*
Y-215500D02*
D03*
Y-225500D02*
D03*
Y-235500D02*
D03*
Y-245500D02*
D03*
Y-255500D02*
D03*
Y-265500D02*
D03*
Y-275500D02*
D03*
Y-285500D02*
D03*
Y-295500D02*
D03*
Y-305500D02*
D03*
Y-315500D02*
D03*
Y-325500D02*
D03*
Y-335500D02*
D03*
X239000Y-350500D02*
D03*
X234000Y9500D02*
D03*
X236500Y4500D02*
D03*
X234000Y-500D02*
D03*
X236500Y-5500D02*
D03*
X234000Y-10500D02*
D03*
X236500Y-15500D02*
D03*
X234000Y-20500D02*
D03*
X236500Y-25500D02*
D03*
X234000Y-30500D02*
D03*
X236500Y-35500D02*
D03*
X234000Y-40500D02*
D03*
Y-50500D02*
D03*
X236500Y-55500D02*
D03*
X234000Y-60500D02*
D03*
Y-80500D02*
D03*
Y-100500D02*
D03*
X236500Y-115500D02*
D03*
X234000Y-120500D02*
D03*
X236500Y-125500D02*
D03*
X234000Y-130500D02*
D03*
X236500Y-135500D02*
D03*
X234000Y-140500D02*
D03*
X236500Y-145500D02*
D03*
X234000Y-150500D02*
D03*
X236500Y-155500D02*
D03*
X234000Y-160500D02*
D03*
X236500Y-165500D02*
D03*
X234000Y-170500D02*
D03*
X236500Y-175500D02*
D03*
X234000Y-180500D02*
D03*
X236500Y-185500D02*
D03*
X234000Y-190500D02*
D03*
X236500Y-195500D02*
D03*
X234000Y-200500D02*
D03*
X236500Y-205500D02*
D03*
X234000Y-210500D02*
D03*
X236500Y-215500D02*
D03*
X234000Y-220500D02*
D03*
X236500Y-225500D02*
D03*
X234000Y-230500D02*
D03*
X236500Y-235500D02*
D03*
X234000Y-240500D02*
D03*
X236500Y-245500D02*
D03*
X234000Y-250500D02*
D03*
X236500Y-255500D02*
D03*
X234000Y-260500D02*
D03*
X236500Y-265500D02*
D03*
X234000Y-270500D02*
D03*
X236500Y-275500D02*
D03*
X234000Y-280500D02*
D03*
X236500Y-285500D02*
D03*
X234000Y-290500D02*
D03*
X236500Y-295500D02*
D03*
X234000Y-300500D02*
D03*
X236500Y-305500D02*
D03*
X234000Y-310500D02*
D03*
X236500Y-315500D02*
D03*
X234000Y-320500D02*
D03*
X236500Y-325500D02*
D03*
X234000Y-330500D02*
D03*
X236500Y-335500D02*
D03*
X234000Y-340500D02*
D03*
X236500Y-345500D02*
D03*
X234000Y-350500D02*
D03*
X229000Y9500D02*
D03*
X231500Y4500D02*
D03*
X229000Y-500D02*
D03*
X231500Y-5500D02*
D03*
X229000Y-10500D02*
D03*
X231500Y-15500D02*
D03*
X229000Y-20500D02*
D03*
X231500Y-25500D02*
D03*
X229000Y-30500D02*
D03*
X231500Y-35500D02*
D03*
X229000Y-40500D02*
D03*
Y-50500D02*
D03*
X231500Y-55500D02*
D03*
Y-65500D02*
D03*
Y-85500D02*
D03*
X229000Y-90500D02*
D03*
X231500Y-95500D02*
D03*
X229000Y-100500D02*
D03*
X231500Y-105500D02*
D03*
X229000Y-110500D02*
D03*
Y-120500D02*
D03*
X231500Y-125500D02*
D03*
X229000Y-130500D02*
D03*
X231500Y-135500D02*
D03*
X229000Y-140500D02*
D03*
X231500Y-145500D02*
D03*
X229000Y-150500D02*
D03*
X231500Y-155500D02*
D03*
X229000Y-160500D02*
D03*
X231500Y-165500D02*
D03*
X229000Y-170500D02*
D03*
X231500Y-175500D02*
D03*
X229000Y-180500D02*
D03*
X231500Y-185500D02*
D03*
X229000Y-190500D02*
D03*
X231500Y-195500D02*
D03*
X229000Y-200500D02*
D03*
X231500Y-205500D02*
D03*
X229000Y-210500D02*
D03*
X231500Y-215500D02*
D03*
X229000Y-220500D02*
D03*
X231500Y-225500D02*
D03*
X229000Y-230500D02*
D03*
X231500Y-235500D02*
D03*
X229000Y-240500D02*
D03*
X231500Y-245500D02*
D03*
X229000Y-250500D02*
D03*
X231500Y-255500D02*
D03*
X229000Y-260500D02*
D03*
X231500Y-265500D02*
D03*
X229000Y-270500D02*
D03*
X231500Y-275500D02*
D03*
X229000Y-280500D02*
D03*
X231500Y-285500D02*
D03*
X229000Y-290500D02*
D03*
X231500Y-295500D02*
D03*
X229000Y-300500D02*
D03*
X231500Y-305500D02*
D03*
X229000Y-310500D02*
D03*
X231500Y-315500D02*
D03*
X229000Y-320500D02*
D03*
X231500Y-325500D02*
D03*
X229000Y-330500D02*
D03*
X231500Y-335500D02*
D03*
X229000Y-340500D02*
D03*
X231500Y-345500D02*
D03*
X229000Y-350500D02*
D03*
X224000Y-70500D02*
D03*
Y-80500D02*
D03*
X226500Y-85500D02*
D03*
X224000Y-90500D02*
D03*
X226500Y-105500D02*
D03*
X224000Y-110500D02*
D03*
Y-120500D02*
D03*
Y-130500D02*
D03*
Y-140500D02*
D03*
Y-150500D02*
D03*
Y-160500D02*
D03*
Y-170500D02*
D03*
Y-180500D02*
D03*
Y-190500D02*
D03*
X226500Y-205500D02*
D03*
X224000Y-210500D02*
D03*
X226500Y-215500D02*
D03*
X224000Y-220500D02*
D03*
X226500Y-225500D02*
D03*
X224000Y-230500D02*
D03*
X226500Y-235500D02*
D03*
X224000Y-240500D02*
D03*
X226500Y-245500D02*
D03*
X224000Y-250500D02*
D03*
X226500Y-255500D02*
D03*
X224000Y-260500D02*
D03*
X226500Y-265500D02*
D03*
X224000Y-270500D02*
D03*
X226500Y-275500D02*
D03*
X224000Y-280500D02*
D03*
X226500Y-285500D02*
D03*
X224000Y-290500D02*
D03*
X226500Y-295500D02*
D03*
X224000Y-300500D02*
D03*
X226500Y-305500D02*
D03*
X224000Y-310500D02*
D03*
X226500Y-315500D02*
D03*
X224000Y-320500D02*
D03*
X226500Y-325500D02*
D03*
X224000Y-330500D02*
D03*
X226500Y-335500D02*
D03*
X224000Y-340500D02*
D03*
X226500Y-345500D02*
D03*
X224000Y-350500D02*
D03*
X221500Y-45500D02*
D03*
Y-55500D02*
D03*
X219000Y-70500D02*
D03*
X221500Y-75500D02*
D03*
Y-95500D02*
D03*
X219000Y-100500D02*
D03*
X221500Y-105500D02*
D03*
X219000Y-110500D02*
D03*
X221500Y-115500D02*
D03*
X219000Y-120500D02*
D03*
X221500Y-125500D02*
D03*
X219000Y-130500D02*
D03*
X221500Y-135500D02*
D03*
X219000Y-140500D02*
D03*
X221500Y-145500D02*
D03*
X219000Y-150500D02*
D03*
X221500Y-155500D02*
D03*
X219000Y-160500D02*
D03*
X221500Y-165500D02*
D03*
X219000Y-170500D02*
D03*
X221500Y-175500D02*
D03*
X219000Y-180500D02*
D03*
X221500Y-185500D02*
D03*
X219000Y-190500D02*
D03*
X221500Y-195500D02*
D03*
Y-205500D02*
D03*
X219000Y-210500D02*
D03*
X221500Y-215500D02*
D03*
X219000Y-220500D02*
D03*
X221500Y-225500D02*
D03*
X219000Y-230500D02*
D03*
X221500Y-235500D02*
D03*
X219000Y-240500D02*
D03*
X221500Y-245500D02*
D03*
X219000Y-250500D02*
D03*
X221500Y-255500D02*
D03*
X219000Y-260500D02*
D03*
X221500Y-265500D02*
D03*
X219000Y-270500D02*
D03*
X221500Y-275500D02*
D03*
Y-285500D02*
D03*
Y-295500D02*
D03*
X219000Y-300500D02*
D03*
X221500Y-305500D02*
D03*
X219000Y-310500D02*
D03*
X221500Y-315500D02*
D03*
X219000Y-320500D02*
D03*
X221500Y-325500D02*
D03*
X219000Y-330500D02*
D03*
X221500Y-335500D02*
D03*
X219000Y-340500D02*
D03*
X221500Y-345500D02*
D03*
X219000Y-350500D02*
D03*
X216500Y-45500D02*
D03*
X214000Y-50500D02*
D03*
X216500Y-65500D02*
D03*
X214000Y-70500D02*
D03*
X216500Y-75500D02*
D03*
X214000Y-80500D02*
D03*
Y-90500D02*
D03*
X216500Y-95500D02*
D03*
X214000Y-100500D02*
D03*
X216500Y-115500D02*
D03*
X214000Y-120500D02*
D03*
X216500Y-125500D02*
D03*
X214000Y-130500D02*
D03*
X216500Y-135500D02*
D03*
X214000Y-140500D02*
D03*
X216500Y-145500D02*
D03*
X214000Y-150500D02*
D03*
Y-160500D02*
D03*
X216500Y-175500D02*
D03*
X214000Y-180500D02*
D03*
X216500Y-185500D02*
D03*
X214000Y-190500D02*
D03*
X216500Y-195500D02*
D03*
X214000Y-200500D02*
D03*
X216500Y-215500D02*
D03*
X214000Y-220500D02*
D03*
X216500Y-225500D02*
D03*
X214000Y-230500D02*
D03*
X216500Y-235500D02*
D03*
X214000Y-240500D02*
D03*
X216500Y-245500D02*
D03*
X214000Y-250500D02*
D03*
X216500Y-255500D02*
D03*
X214000Y-260500D02*
D03*
X216500Y-265500D02*
D03*
Y-305500D02*
D03*
X214000Y-310500D02*
D03*
X216500Y-315500D02*
D03*
X214000Y-320500D02*
D03*
X216500Y-325500D02*
D03*
X214000Y-330500D02*
D03*
X216500Y-335500D02*
D03*
X214000Y-340500D02*
D03*
X216500Y-345500D02*
D03*
X214000Y-350500D02*
D03*
X211500Y-45500D02*
D03*
X209000Y-50500D02*
D03*
X211500Y-55500D02*
D03*
Y-65500D02*
D03*
X209000Y-70500D02*
D03*
X211500Y-75500D02*
D03*
X209000Y-80500D02*
D03*
X211500Y-85500D02*
D03*
Y-105500D02*
D03*
X209000Y-110500D02*
D03*
X211500Y-115500D02*
D03*
X209000Y-120500D02*
D03*
X211500Y-125500D02*
D03*
X209000Y-130500D02*
D03*
X211500Y-135500D02*
D03*
X209000Y-140500D02*
D03*
X211500Y-145500D02*
D03*
X209000Y-150500D02*
D03*
Y-160500D02*
D03*
X211500Y-175500D02*
D03*
X209000Y-180500D02*
D03*
X211500Y-185500D02*
D03*
Y-195500D02*
D03*
X209000Y-200500D02*
D03*
X211500Y-205500D02*
D03*
Y-215500D02*
D03*
X209000Y-220500D02*
D03*
X211500Y-225500D02*
D03*
X209000Y-230500D02*
D03*
X211500Y-235500D02*
D03*
X209000Y-240500D02*
D03*
X211500Y-245500D02*
D03*
X209000Y-250500D02*
D03*
X211500Y-255500D02*
D03*
X209000Y-260500D02*
D03*
X211500Y-265500D02*
D03*
Y-305500D02*
D03*
X209000Y-310500D02*
D03*
X211500Y-315500D02*
D03*
Y-325500D02*
D03*
Y-335500D02*
D03*
X209000Y-340500D02*
D03*
X211500Y-345500D02*
D03*
X209000Y-350500D02*
D03*
X206500Y-45500D02*
D03*
Y-65500D02*
D03*
X204000Y-70500D02*
D03*
X206500Y-75500D02*
D03*
X204000Y-80500D02*
D03*
X206500Y-85500D02*
D03*
X204000Y-90500D02*
D03*
Y-100500D02*
D03*
X206500Y-105500D02*
D03*
X204000Y-110500D02*
D03*
X206500Y-125500D02*
D03*
X204000Y-130500D02*
D03*
X206500Y-135500D02*
D03*
X204000Y-140500D02*
D03*
X206500Y-145500D02*
D03*
X204000Y-150500D02*
D03*
X206500Y-175500D02*
D03*
X204000Y-180500D02*
D03*
X206500Y-195500D02*
D03*
X204000Y-200500D02*
D03*
X206500Y-205500D02*
D03*
X204000Y-210500D02*
D03*
X206500Y-225500D02*
D03*
X204000Y-230500D02*
D03*
X206500Y-235500D02*
D03*
X204000Y-240500D02*
D03*
X206500Y-245500D02*
D03*
Y-255500D02*
D03*
X204000Y-260500D02*
D03*
X206500Y-315500D02*
D03*
Y-335500D02*
D03*
X204000Y-340500D02*
D03*
X206500Y-345500D02*
D03*
X204000Y-350500D02*
D03*
X201500Y-45500D02*
D03*
X199000Y-70500D02*
D03*
X201500Y-75500D02*
D03*
X199000Y-80500D02*
D03*
X201500Y-85500D02*
D03*
X199000Y-90500D02*
D03*
X201500Y-95500D02*
D03*
Y-115500D02*
D03*
X199000Y-120500D02*
D03*
X201500Y-125500D02*
D03*
X199000Y-130500D02*
D03*
X201500Y-135500D02*
D03*
X199000Y-140500D02*
D03*
X201500Y-145500D02*
D03*
X199000Y-150500D02*
D03*
X201500Y-155500D02*
D03*
X199000Y-170500D02*
D03*
X201500Y-175500D02*
D03*
X199000Y-180500D02*
D03*
X201500Y-195500D02*
D03*
X199000Y-200500D02*
D03*
X201500Y-205500D02*
D03*
X199000Y-210500D02*
D03*
X201500Y-225500D02*
D03*
X199000Y-230500D02*
D03*
X201500Y-235500D02*
D03*
X199000Y-240500D02*
D03*
X201500Y-245500D02*
D03*
Y-315500D02*
D03*
X199000Y-330500D02*
D03*
X201500Y-335500D02*
D03*
X199000Y-340500D02*
D03*
X201500Y-345500D02*
D03*
X199000Y-350500D02*
D03*
X196500Y-45500D02*
D03*
X194000Y-50500D02*
D03*
X196500Y-55500D02*
D03*
X194000Y-60500D02*
D03*
X196500Y-65500D02*
D03*
X194000Y-70500D02*
D03*
X196500Y-75500D02*
D03*
X194000Y-80500D02*
D03*
X196500Y-85500D02*
D03*
X194000Y-90500D02*
D03*
X196500Y-95500D02*
D03*
X194000Y-100500D02*
D03*
X196500Y-115500D02*
D03*
X194000Y-120500D02*
D03*
X196500Y-135500D02*
D03*
X194000Y-140500D02*
D03*
X196500Y-145500D02*
D03*
X194000Y-150500D02*
D03*
Y-160500D02*
D03*
X196500Y-175500D02*
D03*
X194000Y-180500D02*
D03*
X196500Y-185500D02*
D03*
X194000Y-190500D02*
D03*
X196500Y-195500D02*
D03*
X194000Y-200500D02*
D03*
X196500Y-205500D02*
D03*
Y-235500D02*
D03*
X194000Y-240500D02*
D03*
X196500Y-325500D02*
D03*
X194000Y-330500D02*
D03*
X196500Y-335500D02*
D03*
X194000Y-340500D02*
D03*
X196500Y-345500D02*
D03*
X194000Y-350500D02*
D03*
X191500Y-115500D02*
D03*
X189000Y-120500D02*
D03*
X191500Y-125500D02*
D03*
X189000Y-130500D02*
D03*
X191500Y-135500D02*
D03*
X189000Y-140500D02*
D03*
X191500Y-145500D02*
D03*
X189000Y-150500D02*
D03*
Y-160500D02*
D03*
X191500Y-175500D02*
D03*
X189000Y-180500D02*
D03*
X191500Y-185500D02*
D03*
Y-195500D02*
D03*
X189000Y-200500D02*
D03*
X191500Y-205500D02*
D03*
X189000Y-210500D02*
D03*
Y-220500D02*
D03*
X191500Y-225500D02*
D03*
Y-235500D02*
D03*
X189000Y-240500D02*
D03*
X191500Y-325500D02*
D03*
X189000Y-330500D02*
D03*
X191500Y-335500D02*
D03*
X189000Y-340500D02*
D03*
X191500Y-345500D02*
D03*
X189000Y-350500D02*
D03*
X184000Y-120500D02*
D03*
X186500Y-125500D02*
D03*
X184000Y-130500D02*
D03*
Y-140500D02*
D03*
X186500Y-145500D02*
D03*
X184000Y-150500D02*
D03*
Y-160500D02*
D03*
Y-170500D02*
D03*
X186500Y-175500D02*
D03*
X184000Y-180500D02*
D03*
X186500Y-195500D02*
D03*
X184000Y-200500D02*
D03*
X186500Y-205500D02*
D03*
X184000Y-210500D02*
D03*
X186500Y-215500D02*
D03*
X184000Y-220500D02*
D03*
X186500Y-225500D02*
D03*
X184000Y-230500D02*
D03*
X186500Y-325500D02*
D03*
X184000Y-330500D02*
D03*
X186500Y-335500D02*
D03*
X184000Y-340500D02*
D03*
X186500Y-345500D02*
D03*
X184000Y-350500D02*
D03*
X179000Y-130500D02*
D03*
Y-140500D02*
D03*
X181500Y-145500D02*
D03*
X179000Y-150500D02*
D03*
X181500Y-155500D02*
D03*
X179000Y-170500D02*
D03*
X181500Y-175500D02*
D03*
X179000Y-180500D02*
D03*
X181500Y-195500D02*
D03*
X179000Y-200500D02*
D03*
X181500Y-205500D02*
D03*
X179000Y-210500D02*
D03*
X181500Y-215500D02*
D03*
X179000Y-220500D02*
D03*
X181500Y-225500D02*
D03*
X179000Y-230500D02*
D03*
X181500Y-235500D02*
D03*
Y-245500D02*
D03*
Y-325500D02*
D03*
X179000Y-330500D02*
D03*
X181500Y-335500D02*
D03*
X179000Y-340500D02*
D03*
X181500Y-345500D02*
D03*
X179000Y-350500D02*
D03*
X174000Y-130500D02*
D03*
Y-140500D02*
D03*
X176500Y-145500D02*
D03*
X174000Y-150500D02*
D03*
X176500Y-175500D02*
D03*
X174000Y-180500D02*
D03*
X176500Y-185500D02*
D03*
X174000Y-190500D02*
D03*
X176500Y-195500D02*
D03*
X174000Y-200500D02*
D03*
X176500Y-205500D02*
D03*
X174000Y-210500D02*
D03*
X176500Y-215500D02*
D03*
X174000Y-220500D02*
D03*
X176500Y-225500D02*
D03*
X174000Y-230500D02*
D03*
X176500Y-235500D02*
D03*
X174000Y-240500D02*
D03*
Y-250500D02*
D03*
X176500Y-325500D02*
D03*
X174000Y-330500D02*
D03*
X176500Y-335500D02*
D03*
X174000Y-340500D02*
D03*
X176500Y-345500D02*
D03*
X174000Y-350500D02*
D03*
X169000Y-120500D02*
D03*
X171500Y-125500D02*
D03*
X169000Y-130500D02*
D03*
Y-140500D02*
D03*
X171500Y-145500D02*
D03*
X169000Y-150500D02*
D03*
X171500Y-175500D02*
D03*
X169000Y-180500D02*
D03*
X171500Y-185500D02*
D03*
X169000Y-190500D02*
D03*
X171500Y-195500D02*
D03*
Y-235500D02*
D03*
X169000Y-240500D02*
D03*
X171500Y-245500D02*
D03*
Y-325500D02*
D03*
X169000Y-330500D02*
D03*
X171500Y-335500D02*
D03*
X169000Y-340500D02*
D03*
X171500Y-345500D02*
D03*
X169000Y-350500D02*
D03*
X164000Y-120500D02*
D03*
X166500Y-125500D02*
D03*
X164000Y-130500D02*
D03*
Y-140500D02*
D03*
X166500Y-145500D02*
D03*
X164000Y-150500D02*
D03*
X166500Y-175500D02*
D03*
X164000Y-180500D02*
D03*
X166500Y-185500D02*
D03*
Y-245500D02*
D03*
Y-325500D02*
D03*
X164000Y-330500D02*
D03*
X166500Y-335500D02*
D03*
X164000Y-340500D02*
D03*
X166500Y-345500D02*
D03*
X164000Y-350500D02*
D03*
X159000Y-120500D02*
D03*
X161500Y-125500D02*
D03*
X159000Y-130500D02*
D03*
X161500Y-135500D02*
D03*
Y-145500D02*
D03*
X159000Y-150500D02*
D03*
X161500Y-155500D02*
D03*
X159000Y-160500D02*
D03*
X161500Y-165500D02*
D03*
X159000Y-170500D02*
D03*
X161500Y-175500D02*
D03*
Y-185500D02*
D03*
Y-325500D02*
D03*
X159000Y-330500D02*
D03*
X161500Y-335500D02*
D03*
X159000Y-340500D02*
D03*
X161500Y-345500D02*
D03*
X159000Y-350500D02*
D03*
X156500Y-135500D02*
D03*
X154000Y-140500D02*
D03*
Y-150500D02*
D03*
X156500Y-155500D02*
D03*
X154000Y-160500D02*
D03*
X156500Y-165500D02*
D03*
X154000Y-170500D02*
D03*
X156500Y-175500D02*
D03*
Y-325500D02*
D03*
X154000Y-330500D02*
D03*
X156500Y-335500D02*
D03*
X154000Y-340500D02*
D03*
X156500Y-345500D02*
D03*
X154000Y-350500D02*
D03*
X151500Y-135500D02*
D03*
X149000Y-140500D02*
D03*
X151500Y-145500D02*
D03*
Y-155500D02*
D03*
X149000Y-160500D02*
D03*
X151500Y-165500D02*
D03*
X149000Y-170500D02*
D03*
X151500Y-325500D02*
D03*
Y-335500D02*
D03*
X149000Y-340500D02*
D03*
X151500Y-345500D02*
D03*
X149000Y-350500D02*
D03*
X144000Y-120500D02*
D03*
X146500Y-125500D02*
D03*
X144000Y-130500D02*
D03*
X146500Y-135500D02*
D03*
X144000Y-140500D02*
D03*
X146500Y-145500D02*
D03*
X144000Y-150500D02*
D03*
Y-160500D02*
D03*
X146500Y-165500D02*
D03*
X144000Y-170500D02*
D03*
X146500Y-175500D02*
D03*
Y-335500D02*
D03*
X144000Y-340500D02*
D03*
X146500Y-345500D02*
D03*
X144000Y-350500D02*
D03*
X139000Y-50500D02*
D03*
Y-60500D02*
D03*
Y-70500D02*
D03*
Y-80500D02*
D03*
Y-90500D02*
D03*
Y-100500D02*
D03*
X141500Y-125500D02*
D03*
X139000Y-130500D02*
D03*
X141500Y-135500D02*
D03*
X139000Y-140500D02*
D03*
X141500Y-145500D02*
D03*
X139000Y-150500D02*
D03*
X141500Y-155500D02*
D03*
Y-165500D02*
D03*
X139000Y-170500D02*
D03*
Y-320500D02*
D03*
Y-330500D02*
D03*
X141500Y-335500D02*
D03*
X139000Y-340500D02*
D03*
X141500Y-345500D02*
D03*
X139000Y-350500D02*
D03*
X136500Y-45500D02*
D03*
Y-55500D02*
D03*
Y-65500D02*
D03*
X134000Y-70500D02*
D03*
X136500Y-75500D02*
D03*
X134000Y-80500D02*
D03*
X136500Y-85500D02*
D03*
X134000Y-90500D02*
D03*
X136500Y-95500D02*
D03*
X134000Y-100500D02*
D03*
X136500Y-115500D02*
D03*
X134000Y-120500D02*
D03*
X136500Y-125500D02*
D03*
X134000Y-130500D02*
D03*
X136500Y-135500D02*
D03*
X134000Y-140500D02*
D03*
X136500Y-145500D02*
D03*
X134000Y-150500D02*
D03*
X136500Y-155500D02*
D03*
X134000Y-160500D02*
D03*
Y-170500D02*
D03*
Y-320500D02*
D03*
X136500Y-325500D02*
D03*
X134000Y-330500D02*
D03*
X136500Y-335500D02*
D03*
X134000Y-340500D02*
D03*
X136500Y-345500D02*
D03*
X134000Y-350500D02*
D03*
X131500Y-45500D02*
D03*
X129000Y-70500D02*
D03*
X131500Y-75500D02*
D03*
X129000Y-80500D02*
D03*
X131500Y-85500D02*
D03*
X129000Y-90500D02*
D03*
X131500Y-95500D02*
D03*
Y-105500D02*
D03*
Y-115500D02*
D03*
X129000Y-120500D02*
D03*
X131500Y-135500D02*
D03*
X129000Y-140500D02*
D03*
X131500Y-145500D02*
D03*
Y-155500D02*
D03*
Y-165500D02*
D03*
X129000Y-320500D02*
D03*
X131500Y-325500D02*
D03*
X129000Y-330500D02*
D03*
X131500Y-335500D02*
D03*
X129000Y-340500D02*
D03*
X131500Y-345500D02*
D03*
X129000Y-350500D02*
D03*
X126500Y-45500D02*
D03*
X124000Y-70500D02*
D03*
X126500Y-75500D02*
D03*
X124000Y-80500D02*
D03*
X126500Y-85500D02*
D03*
X124000Y-90500D02*
D03*
Y-100500D02*
D03*
X126500Y-105500D02*
D03*
Y-115500D02*
D03*
X124000Y-120500D02*
D03*
X126500Y-125500D02*
D03*
X124000Y-130500D02*
D03*
X126500Y-135500D02*
D03*
Y-145500D02*
D03*
X124000Y-150500D02*
D03*
X126500Y-155500D02*
D03*
X124000Y-160500D02*
D03*
X126500Y-315500D02*
D03*
X124000Y-320500D02*
D03*
X126500Y-325500D02*
D03*
X124000Y-330500D02*
D03*
X126500Y-335500D02*
D03*
X124000Y-340500D02*
D03*
Y-350500D02*
D03*
X121500Y-45500D02*
D03*
Y-55500D02*
D03*
X119000Y-90500D02*
D03*
X121500Y-95500D02*
D03*
X119000Y-100500D02*
D03*
X121500Y-105500D02*
D03*
Y-115500D02*
D03*
X119000Y-120500D02*
D03*
X121500Y-125500D02*
D03*
X119000Y-130500D02*
D03*
X121500Y-145500D02*
D03*
X119000Y-150500D02*
D03*
X121500Y-155500D02*
D03*
X119000Y-310500D02*
D03*
X121500Y-315500D02*
D03*
X119000Y-320500D02*
D03*
X121500Y-325500D02*
D03*
X119000Y-330500D02*
D03*
X121500Y-335500D02*
D03*
Y-345500D02*
D03*
X119000Y-350500D02*
D03*
X116500Y-45500D02*
D03*
X114000Y-60500D02*
D03*
X116500Y-85500D02*
D03*
X114000Y-90500D02*
D03*
X116500Y-95500D02*
D03*
X114000Y-100500D02*
D03*
X116500Y-105500D02*
D03*
Y-115500D02*
D03*
X114000Y-120500D02*
D03*
X116500Y-125500D02*
D03*
Y-145500D02*
D03*
X114000Y-150500D02*
D03*
X116500Y-155500D02*
D03*
Y-305500D02*
D03*
X114000Y-310500D02*
D03*
X116500Y-315500D02*
D03*
X114000Y-320500D02*
D03*
X116500Y-325500D02*
D03*
X114000Y-330500D02*
D03*
Y-340500D02*
D03*
X116500Y-345500D02*
D03*
X114000Y-350500D02*
D03*
X111500Y-45500D02*
D03*
Y-65500D02*
D03*
Y-85500D02*
D03*
X109000Y-90500D02*
D03*
X111500Y-95500D02*
D03*
X109000Y-100500D02*
D03*
X111500Y-105500D02*
D03*
Y-115500D02*
D03*
X109000Y-120500D02*
D03*
Y-150500D02*
D03*
X111500Y-155500D02*
D03*
X109000Y-300500D02*
D03*
X111500Y-305500D02*
D03*
Y-315500D02*
D03*
Y-325500D02*
D03*
Y-335500D02*
D03*
X109000Y-340500D02*
D03*
X111500Y-345500D02*
D03*
X109000Y-350500D02*
D03*
X106500Y-45500D02*
D03*
X104000Y-50500D02*
D03*
X106500Y-55500D02*
D03*
Y-85500D02*
D03*
X104000Y-90500D02*
D03*
X106500Y-95500D02*
D03*
X104000Y-100500D02*
D03*
X106500Y-105500D02*
D03*
Y-115500D02*
D03*
X104000Y-120500D02*
D03*
X106500Y-155500D02*
D03*
X104000Y-170500D02*
D03*
X106500Y-195500D02*
D03*
X104000Y-200500D02*
D03*
X106500Y-205500D02*
D03*
Y-215500D02*
D03*
X104000Y-220500D02*
D03*
X106500Y-225500D02*
D03*
X101500Y-45500D02*
D03*
X99000Y-50500D02*
D03*
X101500Y-55500D02*
D03*
Y-65500D02*
D03*
Y-75500D02*
D03*
Y-85500D02*
D03*
X99000Y-90500D02*
D03*
X101500Y-95500D02*
D03*
X99000Y-100500D02*
D03*
X101500Y-105500D02*
D03*
X99000Y-110500D02*
D03*
Y-120500D02*
D03*
X101500Y-125500D02*
D03*
X99000Y-150500D02*
D03*
Y-180500D02*
D03*
X101500Y-195500D02*
D03*
X99000Y-230500D02*
D03*
X101500Y-235500D02*
D03*
Y-245500D02*
D03*
X96500Y-45500D02*
D03*
X94000Y-50500D02*
D03*
X96500Y-85500D02*
D03*
X94000Y-90500D02*
D03*
X96500Y-95500D02*
D03*
X94000Y-100500D02*
D03*
X96500Y-105500D02*
D03*
X94000Y-110500D02*
D03*
X96500Y-115500D02*
D03*
X94000Y-120500D02*
D03*
Y-150500D02*
D03*
X96500Y-155500D02*
D03*
X94000Y-160500D02*
D03*
Y-170500D02*
D03*
Y-180500D02*
D03*
X96500Y-195500D02*
D03*
X94000Y-200500D02*
D03*
Y-210500D02*
D03*
Y-220500D02*
D03*
Y-230500D02*
D03*
X96500Y-245500D02*
D03*
X91500Y-45500D02*
D03*
X89000Y-50500D02*
D03*
X91500Y-55500D02*
D03*
X89000Y-60500D02*
D03*
X91500Y-65500D02*
D03*
Y-85500D02*
D03*
Y-95500D02*
D03*
X89000Y-100500D02*
D03*
X91500Y-105500D02*
D03*
X89000Y-110500D02*
D03*
X91500Y-115500D02*
D03*
X89000Y-120500D02*
D03*
X91500Y-175500D02*
D03*
X89000Y-190500D02*
D03*
X91500Y-195500D02*
D03*
X89000Y-200500D02*
D03*
X91500Y-205500D02*
D03*
X89000Y-210500D02*
D03*
X91500Y-215500D02*
D03*
X89000Y-220500D02*
D03*
X91500Y-225500D02*
D03*
X89000Y-230500D02*
D03*
X86500Y-45500D02*
D03*
X84000Y-50500D02*
D03*
X86500Y-95500D02*
D03*
X84000Y-100500D02*
D03*
X86500Y-105500D02*
D03*
X84000Y-110500D02*
D03*
X86500Y-115500D02*
D03*
X84000Y-120500D02*
D03*
X86500Y-125500D02*
D03*
X84000Y-130500D02*
D03*
Y-140500D02*
D03*
X86500Y-145500D02*
D03*
X84000Y-150500D02*
D03*
X86500Y-155500D02*
D03*
X84000Y-160500D02*
D03*
X86500Y-165500D02*
D03*
X84000Y-170500D02*
D03*
X86500Y-185500D02*
D03*
X84000Y-190500D02*
D03*
X86500Y-195500D02*
D03*
X84000Y-200500D02*
D03*
X86500Y-205500D02*
D03*
X84000Y-210500D02*
D03*
X86500Y-215500D02*
D03*
X84000Y-220500D02*
D03*
X86500Y-225500D02*
D03*
X84000Y-230500D02*
D03*
X81500Y-45500D02*
D03*
X79000Y-50500D02*
D03*
X81500Y-55500D02*
D03*
X79000Y-60500D02*
D03*
Y-90500D02*
D03*
X81500Y-95500D02*
D03*
X79000Y-100500D02*
D03*
X81500Y-105500D02*
D03*
X79000Y-110500D02*
D03*
X81500Y-115500D02*
D03*
X79000Y-120500D02*
D03*
X81500Y-125500D02*
D03*
X79000Y-130500D02*
D03*
Y-160500D02*
D03*
X81500Y-165500D02*
D03*
X79000Y-170500D02*
D03*
X81500Y-185500D02*
D03*
X79000Y-190500D02*
D03*
X81500Y-195500D02*
D03*
X79000Y-200500D02*
D03*
X81500Y-205500D02*
D03*
X79000Y-210500D02*
D03*
X81500Y-215500D02*
D03*
X79000Y-220500D02*
D03*
X81500Y-225500D02*
D03*
X79000Y-230500D02*
D03*
Y-290500D02*
D03*
X81500Y-295500D02*
D03*
X76500Y-45500D02*
D03*
X74000Y-50500D02*
D03*
X76500Y-55500D02*
D03*
Y-65500D02*
D03*
X74000Y-70500D02*
D03*
X76500Y-85500D02*
D03*
Y-95500D02*
D03*
Y-105500D02*
D03*
X74000Y-110500D02*
D03*
X76500Y-115500D02*
D03*
X74000Y-120500D02*
D03*
X76500Y-125500D02*
D03*
X74000Y-130500D02*
D03*
Y-140500D02*
D03*
X76500Y-145500D02*
D03*
X74000Y-150500D02*
D03*
X76500Y-155500D02*
D03*
X74000Y-160500D02*
D03*
X76500Y-165500D02*
D03*
X74000Y-170500D02*
D03*
X76500Y-185500D02*
D03*
X74000Y-190500D02*
D03*
X76500Y-195500D02*
D03*
Y-205500D02*
D03*
Y-215500D02*
D03*
Y-225500D02*
D03*
X74000Y-230500D02*
D03*
Y-240500D02*
D03*
X76500Y-245500D02*
D03*
X74000Y-290500D02*
D03*
Y-300500D02*
D03*
X71500Y-45500D02*
D03*
X69000Y-50500D02*
D03*
X71500Y-65500D02*
D03*
X69000Y-70500D02*
D03*
X71500Y-105500D02*
D03*
X69000Y-110500D02*
D03*
X71500Y-115500D02*
D03*
X69000Y-120500D02*
D03*
X71500Y-125500D02*
D03*
X69000Y-150500D02*
D03*
X71500Y-155500D02*
D03*
X69000Y-160500D02*
D03*
X71500Y-165500D02*
D03*
X69000Y-170500D02*
D03*
X71500Y-175500D02*
D03*
X69000Y-180500D02*
D03*
X71500Y-185500D02*
D03*
X69000Y-190500D02*
D03*
X71500Y-195500D02*
D03*
X69000Y-230500D02*
D03*
X71500Y-235500D02*
D03*
X69000Y-240500D02*
D03*
Y-250500D02*
D03*
Y-280500D02*
D03*
Y-300500D02*
D03*
X66500Y-45500D02*
D03*
X64000Y-50500D02*
D03*
X66500Y-55500D02*
D03*
X64000Y-60500D02*
D03*
X66500Y-65500D02*
D03*
X64000Y-70500D02*
D03*
Y-90500D02*
D03*
X66500Y-95500D02*
D03*
X64000Y-100500D02*
D03*
X66500Y-105500D02*
D03*
X64000Y-110500D02*
D03*
X66500Y-115500D02*
D03*
X64000Y-120500D02*
D03*
X66500Y-125500D02*
D03*
X64000Y-130500D02*
D03*
X66500Y-145500D02*
D03*
X64000Y-150500D02*
D03*
X66500Y-155500D02*
D03*
X64000Y-160500D02*
D03*
X66500Y-165500D02*
D03*
Y-175500D02*
D03*
Y-185500D02*
D03*
Y-195500D02*
D03*
Y-205500D02*
D03*
Y-215500D02*
D03*
Y-225500D02*
D03*
Y-235500D02*
D03*
Y-245500D02*
D03*
X64000Y-290500D02*
D03*
X66500Y-295500D02*
D03*
X64000Y-300500D02*
D03*
X61500Y-45500D02*
D03*
X59000Y-50500D02*
D03*
X61500Y-55500D02*
D03*
Y-65500D02*
D03*
X59000Y-90500D02*
D03*
X61500Y-105500D02*
D03*
X59000Y-110500D02*
D03*
X61500Y-115500D02*
D03*
X59000Y-130500D02*
D03*
X61500Y-145500D02*
D03*
Y-155500D02*
D03*
Y-165500D02*
D03*
Y-255500D02*
D03*
X59000Y-260500D02*
D03*
X61500Y-265500D02*
D03*
X59000Y-270500D02*
D03*
X61500Y-275500D02*
D03*
X59000Y-280500D02*
D03*
X61500Y-285500D02*
D03*
X59000Y-290500D02*
D03*
X61500Y-295500D02*
D03*
X59000Y-300500D02*
D03*
X56500Y-45500D02*
D03*
X54000Y-50500D02*
D03*
Y-90500D02*
D03*
Y-110500D02*
D03*
X56500Y-115500D02*
D03*
X54000Y-120500D02*
D03*
X56500Y-125500D02*
D03*
X54000Y-130500D02*
D03*
X56500Y-165500D02*
D03*
Y-255500D02*
D03*
X54000Y-260500D02*
D03*
X56500Y-265500D02*
D03*
X54000Y-270500D02*
D03*
X56500Y-275500D02*
D03*
X54000Y-280500D02*
D03*
X56500Y-285500D02*
D03*
X54000Y-290500D02*
D03*
X56500Y-295500D02*
D03*
X54000Y-300500D02*
D03*
X51500Y-45500D02*
D03*
X49000Y-50500D02*
D03*
Y-90500D02*
D03*
Y-100500D02*
D03*
X51500Y-105500D02*
D03*
X49000Y-120500D02*
D03*
X51500Y-125500D02*
D03*
X49000Y-130500D02*
D03*
X51500Y-165500D02*
D03*
Y-255500D02*
D03*
X49000Y-260500D02*
D03*
X51500Y-265500D02*
D03*
X49000Y-270500D02*
D03*
X51500Y-275500D02*
D03*
X49000Y-280500D02*
D03*
X51500Y-285500D02*
D03*
X49000Y-290500D02*
D03*
X51500Y-295500D02*
D03*
X49000Y-300500D02*
D03*
X46500Y-45500D02*
D03*
X44000Y-50500D02*
D03*
X46500Y-55500D02*
D03*
X44000Y-60500D02*
D03*
Y-70500D02*
D03*
Y-110500D02*
D03*
X46500Y-125500D02*
D03*
X44000Y-130500D02*
D03*
X46500Y-145500D02*
D03*
X44000Y-150500D02*
D03*
X46500Y-155500D02*
D03*
X44000Y-160500D02*
D03*
X46500Y-165500D02*
D03*
Y-255500D02*
D03*
Y-265500D02*
D03*
Y-275500D02*
D03*
X44000Y-280500D02*
D03*
X46500Y-285500D02*
D03*
X44000Y-290500D02*
D03*
X46500Y-295500D02*
D03*
X44000Y-300500D02*
D03*
X41500Y-45500D02*
D03*
X39000Y-50500D02*
D03*
X41500Y-55500D02*
D03*
X39000Y-60500D02*
D03*
X41500Y-65500D02*
D03*
X39000Y-70500D02*
D03*
Y-80500D02*
D03*
Y-90500D02*
D03*
Y-110500D02*
D03*
X41500Y-125500D02*
D03*
X39000Y-130500D02*
D03*
X41500Y-145500D02*
D03*
X39000Y-150500D02*
D03*
X41500Y-155500D02*
D03*
X39000Y-160500D02*
D03*
X41500Y-165500D02*
D03*
X39000Y-260500D02*
D03*
X41500Y-275500D02*
D03*
Y-285500D02*
D03*
Y-295500D02*
D03*
X36500Y-45500D02*
D03*
X34000Y-50500D02*
D03*
X36500Y-55500D02*
D03*
X34000Y-60500D02*
D03*
X36500Y-65500D02*
D03*
X34000Y-70500D02*
D03*
X36500Y-75500D02*
D03*
X34000Y-80500D02*
D03*
X36500Y-85500D02*
D03*
X34000Y-90500D02*
D03*
Y-100500D02*
D03*
Y-120500D02*
D03*
X36500Y-125500D02*
D03*
X34000Y-130500D02*
D03*
X36500Y-145500D02*
D03*
X34000Y-150500D02*
D03*
X36500Y-155500D02*
D03*
Y-165500D02*
D03*
Y-255500D02*
D03*
X34000Y-260500D02*
D03*
X36500Y-265500D02*
D03*
X34000Y-270500D02*
D03*
Y-280500D02*
D03*
Y-290500D02*
D03*
Y-300500D02*
D03*
X31500Y-45500D02*
D03*
X29000Y-50500D02*
D03*
X31500Y-55500D02*
D03*
X29000Y-100500D02*
D03*
Y-120500D02*
D03*
X31500Y-125500D02*
D03*
X29000Y-130500D02*
D03*
X31500Y-145500D02*
D03*
Y-165500D02*
D03*
Y-255500D02*
D03*
X29000Y-260500D02*
D03*
X31500Y-265500D02*
D03*
X29000Y-270500D02*
D03*
X31500Y-275500D02*
D03*
X29000Y-280500D02*
D03*
X31500Y-285500D02*
D03*
X29000Y-290500D02*
D03*
X31500Y-295500D02*
D03*
X26500Y-45500D02*
D03*
X24000Y-50500D02*
D03*
Y-70500D02*
D03*
Y-90500D02*
D03*
X26500Y-95500D02*
D03*
X24000Y-100500D02*
D03*
X26500Y-105500D02*
D03*
X24000Y-110500D02*
D03*
Y-120500D02*
D03*
X26500Y-125500D02*
D03*
X24000Y-130500D02*
D03*
Y-150500D02*
D03*
X26500Y-165500D02*
D03*
Y-255500D02*
D03*
X24000Y-260500D02*
D03*
X26500Y-265500D02*
D03*
X24000Y-270500D02*
D03*
X26500Y-275500D02*
D03*
X24000Y-280500D02*
D03*
X26500Y-285500D02*
D03*
X24000Y-290500D02*
D03*
X19000Y9500D02*
D03*
X21500Y4500D02*
D03*
X19000Y-500D02*
D03*
X21500Y-5500D02*
D03*
Y-15500D02*
D03*
Y-25500D02*
D03*
Y-35500D02*
D03*
Y-45500D02*
D03*
Y-55500D02*
D03*
Y-65500D02*
D03*
Y-75500D02*
D03*
X19000Y-90500D02*
D03*
X21500Y-95500D02*
D03*
X19000Y-100500D02*
D03*
X21500Y-105500D02*
D03*
X19000Y-110500D02*
D03*
X21500Y-115500D02*
D03*
X19000Y-120500D02*
D03*
X21500Y-125500D02*
D03*
X19000Y-130500D02*
D03*
X21500Y-145500D02*
D03*
X19000Y-150500D02*
D03*
X21500Y-155500D02*
D03*
X19000Y-160500D02*
D03*
X21500Y-165500D02*
D03*
Y-255500D02*
D03*
X19000Y-260500D02*
D03*
X21500Y-265500D02*
D03*
X19000Y-270500D02*
D03*
X21500Y-275500D02*
D03*
X19000Y-280500D02*
D03*
X21500Y-285500D02*
D03*
X19000Y-290500D02*
D03*
X21500Y-295500D02*
D03*
X19000Y-300500D02*
D03*
X14000Y9500D02*
D03*
X16500Y4500D02*
D03*
Y-15500D02*
D03*
Y-25500D02*
D03*
Y-35500D02*
D03*
Y-45500D02*
D03*
Y-55500D02*
D03*
Y-65500D02*
D03*
Y-75500D02*
D03*
Y-85500D02*
D03*
Y-95500D02*
D03*
Y-105500D02*
D03*
Y-115500D02*
D03*
Y-125500D02*
D03*
Y-155500D02*
D03*
Y-165500D02*
D03*
Y-175500D02*
D03*
Y-185500D02*
D03*
Y-195500D02*
D03*
Y-205500D02*
D03*
Y-215500D02*
D03*
Y-225500D02*
D03*
Y-235500D02*
D03*
Y-245500D02*
D03*
Y-255500D02*
D03*
Y-265500D02*
D03*
Y-275500D02*
D03*
Y-285500D02*
D03*
Y-295500D02*
D03*
X9000Y9500D02*
D03*
X11500Y4500D02*
D03*
Y-15500D02*
D03*
Y-25500D02*
D03*
Y-35500D02*
D03*
Y-45500D02*
D03*
Y-55500D02*
D03*
Y-65500D02*
D03*
Y-75500D02*
D03*
Y-85500D02*
D03*
Y-95500D02*
D03*
Y-105500D02*
D03*
Y-115500D02*
D03*
Y-125500D02*
D03*
Y-145500D02*
D03*
Y-155500D02*
D03*
Y-165500D02*
D03*
Y-175500D02*
D03*
Y-185500D02*
D03*
Y-195500D02*
D03*
Y-205500D02*
D03*
Y-215500D02*
D03*
Y-225500D02*
D03*
Y-235500D02*
D03*
Y-245500D02*
D03*
Y-255500D02*
D03*
Y-265500D02*
D03*
Y-275500D02*
D03*
Y-285500D02*
D03*
Y-295500D02*
D03*
X4000Y9500D02*
D03*
X6500Y4500D02*
D03*
Y-145500D02*
D03*
Y-155500D02*
D03*
Y-165500D02*
D03*
Y-175500D02*
D03*
Y-185500D02*
D03*
Y-195500D02*
D03*
Y-205500D02*
D03*
Y-215500D02*
D03*
Y-225500D02*
D03*
Y-235500D02*
D03*
Y-245500D02*
D03*
Y-255500D02*
D03*
Y-265500D02*
D03*
Y-275500D02*
D03*
Y-285500D02*
D03*
Y-295500D02*
D03*
X-1000Y9500D02*
D03*
X1500Y4500D02*
D03*
Y-5500D02*
D03*
Y-15500D02*
D03*
Y-25500D02*
D03*
Y-35500D02*
D03*
Y-45500D02*
D03*
Y-55500D02*
D03*
Y-65500D02*
D03*
Y-75500D02*
D03*
Y-85500D02*
D03*
Y-95500D02*
D03*
Y-105500D02*
D03*
Y-115500D02*
D03*
Y-125500D02*
D03*
Y-135500D02*
D03*
Y-145500D02*
D03*
Y-155500D02*
D03*
Y-165500D02*
D03*
Y-175500D02*
D03*
Y-185500D02*
D03*
Y-195500D02*
D03*
Y-205500D02*
D03*
Y-215500D02*
D03*
Y-225500D02*
D03*
Y-235500D02*
D03*
Y-245500D02*
D03*
Y-255500D02*
D03*
Y-265500D02*
D03*
Y-275500D02*
D03*
Y-285500D02*
D03*
Y-295500D02*
D03*
X-6000Y9500D02*
D03*
X-3500Y4500D02*
D03*
X-6000Y-500D02*
D03*
X-3500Y-5500D02*
D03*
X-6000Y-10500D02*
D03*
X-3500Y-15500D02*
D03*
X-6000Y-20500D02*
D03*
X-3500Y-25500D02*
D03*
X-6000Y-30500D02*
D03*
X-3500Y-35500D02*
D03*
X-6000Y-40500D02*
D03*
X-3500Y-45500D02*
D03*
X-6000Y-50500D02*
D03*
X-3500Y-55500D02*
D03*
X-6000Y-60500D02*
D03*
X-3500Y-65500D02*
D03*
X-6000Y-70500D02*
D03*
X-3500Y-75500D02*
D03*
X-6000Y-80500D02*
D03*
X-3500Y-85500D02*
D03*
X-6000Y-90500D02*
D03*
X-3500Y-95500D02*
D03*
X-6000Y-100500D02*
D03*
X-3500Y-105500D02*
D03*
X-6000Y-110500D02*
D03*
X-3500Y-115500D02*
D03*
X-6000Y-120500D02*
D03*
X-3500Y-125500D02*
D03*
X-6000Y-130500D02*
D03*
X-3500Y-135500D02*
D03*
X-6000Y-140500D02*
D03*
X-3500Y-145500D02*
D03*
X-6000Y-150500D02*
D03*
X-3500Y-155500D02*
D03*
X-6000Y-160500D02*
D03*
X-3500Y-165500D02*
D03*
X-6000Y-170500D02*
D03*
X-3500Y-175500D02*
D03*
X-6000Y-180500D02*
D03*
X-3500Y-185500D02*
D03*
X-6000Y-190500D02*
D03*
X-3500Y-195500D02*
D03*
X-6000Y-200500D02*
D03*
X-3500Y-205500D02*
D03*
X-6000Y-210500D02*
D03*
X-3500Y-215500D02*
D03*
X-6000Y-220500D02*
D03*
X-3500Y-225500D02*
D03*
X-6000Y-230500D02*
D03*
X-3500Y-235500D02*
D03*
X-6000Y-240500D02*
D03*
X-3500Y-245500D02*
D03*
X-6000Y-250500D02*
D03*
X-3500Y-255500D02*
D03*
X-6000Y-260500D02*
D03*
X-3500Y-265500D02*
D03*
X-6000Y-270500D02*
D03*
X-3500Y-275500D02*
D03*
X-6000Y-280500D02*
D03*
X-3500Y-285500D02*
D03*
X-6000Y-290500D02*
D03*
X-3500Y-295500D02*
D03*
X-6000Y-300500D02*
D03*
X113400Y-125600D02*
D03*
X109700D02*
D03*
X106000D02*
D03*
X92800Y-125700D02*
D03*
X148200Y-189100D02*
D03*
X101800Y-254106D02*
D03*
X109700Y-147200D02*
D03*
X92800Y-144900D02*
D03*
X113500Y-144800D02*
D03*
X96600D02*
D03*
X162662Y-248951D02*
D03*
X160725Y-250902D02*
D03*
X164600Y-247000D02*
D03*
X158787Y-252853D02*
D03*
X156850Y-254804D02*
D03*
X151037Y-260657D02*
D03*
X154912Y-256755D02*
D03*
X152974Y-258706D02*
D03*
D106*
X103000Y-212500D02*
D03*
X149300Y-191091D02*
D03*
X148293Y-193059D02*
D03*
X110700Y-191204D02*
D03*
X76142Y-281800D02*
D03*
X205817Y-283178D02*
D03*
X68400Y-271990D02*
D03*
Y-275927D02*
D03*
Y-264116D02*
D03*
Y-268053D02*
D03*
Y-256242D02*
D03*
Y-260179D02*
D03*
X72657Y-248682D02*
D03*
X87000Y-248300D02*
D03*
X101800Y-272000D02*
D03*
X97200Y-249000D02*
D03*
X110700Y-198965D02*
D03*
Y-202902D02*
D03*
X111707Y-200933D02*
D03*
X110700Y-195028D02*
D03*
X111707Y-193059D02*
D03*
Y-196996D02*
D03*
X177200Y-259800D02*
D03*
X192400D02*
D03*
X200500Y-259900D02*
D03*
X173200Y-283290D02*
D03*
X206100Y-279353D02*
D03*
X93000Y-248300D02*
D03*
X80079Y-248500D02*
D03*
X197400Y-259400D02*
D03*
X184700Y-259900D02*
D03*
X131030Y-173018D02*
D03*
X206100Y-275416D02*
D03*
X139275Y-272498D02*
D03*
X173200Y-271479D02*
D03*
X148293Y-200933D02*
D03*
X101800Y-275927D02*
D03*
X173200Y-275416D02*
D03*
X190613Y-292834D02*
D03*
X148963Y-262743D02*
D03*
X80100Y-281800D02*
D03*
X173319Y-267542D02*
D03*
X149300Y-202900D02*
D03*
X101800Y-268053D02*
D03*
X83856Y-281800D02*
D03*
X206100Y-267542D02*
D03*
X135400Y-276400D02*
D03*
X173200Y-279353D02*
D03*
X148293Y-204870D02*
D03*
X101800Y-264116D02*
D03*
X149300Y-195028D02*
D03*
X85984Y-281800D02*
D03*
X173200Y-287227D02*
D03*
X141213Y-270547D02*
D03*
X149300Y-206839D02*
D03*
X101800Y-260179D02*
D03*
X148293Y-196996D02*
D03*
X89921Y-281800D02*
D03*
X145088Y-266645D02*
D03*
X198500Y-292800D02*
D03*
X134967Y-175100D02*
D03*
X188485Y-292834D02*
D03*
X194550Y-292800D02*
D03*
X147026Y-264694D02*
D03*
X180800Y-292800D02*
D03*
X184800D02*
D03*
X206100Y-287227D02*
D03*
X143150Y-268596D02*
D03*
X149300Y-198965D02*
D03*
X93858Y-281800D02*
D03*
X206100Y-271479D02*
D03*
X137338Y-274449D02*
D03*
D107*
X181800Y-249200D02*
D03*
Y-252700D02*
D03*
X158109Y-184013D02*
D03*
Y-180513D02*
D03*
X102000Y-178500D02*
D03*
X105700Y-162900D02*
D03*
X77300Y-237600D02*
D03*
X97600Y-237500D02*
D03*
X201513Y-249002D02*
D03*
X124996Y-164400D02*
D03*
X125404Y-51100D02*
D03*
X138900Y-174300D02*
D03*
X207488Y-56212D02*
D03*
X102144Y-181997D02*
D03*
X125404Y-66100D02*
D03*
X124996Y-168097D02*
D03*
X97600Y-241000D02*
D03*
X201400Y-252500D02*
D03*
X77300Y-241100D02*
D03*
X174000Y-66200D02*
D03*
X174100Y-51300D02*
D03*
X158200Y-56100D02*
D03*
D108*
X26100Y-299800D02*
D03*
X28500Y-149100D02*
D03*
X30310Y-115596D02*
D03*
X57000Y-104700D02*
D03*
X70750Y-98550D02*
D03*
X85100Y-91000D02*
D03*
X79200Y-70700D02*
D03*
X106200Y-66799D02*
D03*
X178200Y-165100D02*
D03*
X178000Y-125900D02*
D03*
X201100Y-165500D02*
D03*
Y-160000D02*
D03*
X178100Y-159600D02*
D03*
X115300Y-66799D02*
D03*
X106100Y-61300D02*
D03*
X153000Y-125900D02*
D03*
X30184Y-110097D02*
D03*
X53300Y-149100D02*
D03*
X44700Y-313308D02*
D03*
X33800Y-204300D02*
D03*
X25800D02*
D03*
X54700Y-205300D02*
D03*
X45300D02*
D03*
X53383Y-194900D02*
D03*
X28600Y-195000D02*
D03*
X26300Y-246100D02*
D03*
X50300Y-242500D02*
D03*
X153100Y-80200D02*
D03*
X177902D02*
D03*
M02*
