G04*
G04 #@! TF.GenerationSoftware,Altium Limited,Altium Designer,26.7.1 (11)*
G04*
G04 Layer_Color=65535*
G04 Board_Origin=22600000|47050000*
%FSLAX25Y25*%
%MOIN*%
G70*
G04*
G04 #@! TF.SameCoordinates,1440CDCE-C3DE-49C4-9650-C7B8FDE588B4*
G04*
G04*
G04 #@! TF.FilePolarity,Positive*
G04*
G01*
G75*
%ADD10C,0.00500*%
%ADD11C,0.00984*%
%ADD12C,0.00787*%
%ADD13C,0.01575*%
%ADD14C,0.01000*%
D10*
X200760Y-215500D02*
G03*
X200760Y-215500I-6260J0D01*
G01*
X102732Y-333759D02*
G03*
X102732Y-318824I-19455J7468D01*
G01*
X63657Y-318841D02*
G03*
X63657Y-333776I19455J-7468D01*
G01*
X90654Y-306763D02*
G03*
X75718Y-306763I-7468J-19455D01*
G01*
X75784Y-345790D02*
G03*
X90720Y-345790I7468J19455D01*
G01*
X170463Y-7541D02*
G03*
X170463Y-22476I19455J-7468D01*
G01*
X209537Y-22459D02*
G03*
X209537Y-7524I-19455J7468D01*
G01*
X182541Y-34537D02*
G03*
X197476Y-34537I7468J19455D01*
G01*
X197410Y4490D02*
G03*
X182475Y4490I-7468J-19455D01*
G01*
X40463Y-7541D02*
G03*
X40463Y-22476I19455J-7468D01*
G01*
X79537Y-22459D02*
G03*
X79537Y-7524I-19455J7468D01*
G01*
X52541Y-34537D02*
G03*
X67476Y-34537I7468J19455D01*
G01*
X67410Y4490D02*
G03*
X52474Y4490I-7468J-19455D01*
G01*
X210960Y-189100D02*
G03*
X210960Y-189100I-6260J0D01*
G01*
X191260Y-189400D02*
G03*
X191260Y-189400I-6260J0D01*
G01*
X86260Y-179500D02*
G03*
X86260Y-179500I-6260J0D01*
G01*
X230560Y-61100D02*
G03*
X230560Y-61100I-6260J0D01*
G01*
X120160Y-51700D02*
G03*
X120160Y-51700I-6260J0D01*
G01*
X34060Y-60500D02*
G03*
X34060Y-60500I-6260J0D01*
G01*
X146044Y-210042D02*
Y-208270D01*
X144272Y-210042D02*
X146044D01*
X114048D02*
X115819D01*
X114048D02*
Y-208270D01*
Y-179817D02*
Y-178046D01*
X115819D01*
X146044Y-179817D02*
Y-178046D01*
X144272D02*
X146044D01*
X215715Y-164644D02*
Y-160156D01*
X205085Y-164644D02*
Y-160156D01*
X196965Y-164644D02*
Y-160156D01*
X186335Y-164644D02*
Y-160156D01*
X174421Y-164054D02*
Y-160746D01*
X164579Y-164054D02*
Y-160746D01*
X35144Y-310316D02*
Y-308662D01*
X40656Y-310316D02*
Y-308662D01*
X52023Y-215469D02*
Y-214131D01*
X57377Y-215469D02*
Y-214131D01*
X48077Y-215469D02*
Y-214131D01*
X42723Y-215469D02*
Y-214131D01*
X37030Y-248157D02*
X39628D01*
X35179Y-243767D02*
Y-241130D01*
X37030Y-236740D02*
X39628D01*
X23423Y-310217D02*
Y-308879D01*
X28777Y-310217D02*
Y-308879D01*
X108956Y-77466D02*
Y-75734D01*
X103444Y-77466D02*
Y-75734D01*
X88256Y-56785D02*
X92744D01*
X88256Y-67415D02*
X92744D01*
X98556Y-77466D02*
Y-75734D01*
X93044Y-77466D02*
Y-75734D01*
X61921Y-93154D02*
Y-89846D01*
X52079Y-93154D02*
Y-89846D01*
X27143Y-87533D02*
X45057D01*
X27143Y-72467D02*
X45057D01*
X46297Y-114751D02*
Y-110263D01*
X35667Y-114751D02*
Y-110263D01*
X54844Y-54654D02*
X71556D01*
X54844Y-65146D02*
X71556D01*
D11*
X148361Y-209398D02*
G03*
X148361Y-209398I-492J0D01*
G01*
X174864Y-262620D02*
G03*
X174864Y-262620I-492J0D01*
G01*
X70236Y-251321D02*
G03*
X70236Y-251321I-492J0D01*
G01*
D12*
X151700Y-313131D02*
G03*
X151700Y-313131I-394J0D01*
G01*
X48211Y-246582D02*
G03*
X48211Y-246582I-394J0D01*
G01*
X75223Y-76963D02*
G03*
X75223Y-76963I-394J0D01*
G01*
X115409Y-136430D02*
Y-134068D01*
X103991Y-136430D02*
X115409D01*
X103991D02*
Y-134068D01*
X115409D01*
X115999Y-132690D02*
Y-127966D01*
X98556Y-136430D02*
Y-134068D01*
X87139Y-136430D02*
X98556D01*
X87139D02*
Y-134068D01*
X98556D01*
X99146Y-132690D02*
Y-127966D01*
X85700Y-224114D02*
Y-200886D01*
X200507Y-317580D02*
X210822D01*
X139035D02*
X149350D01*
X210822Y-339863D02*
Y-317580D01*
X139035Y-339863D02*
Y-317580D01*
Y-339863D02*
X210822D01*
X36396Y-218146D02*
Y-208304D01*
X23404Y-218146D02*
Y-213619D01*
Y-218146D02*
X27144D01*
X32656D02*
X36396D01*
X198277Y-68856D02*
X203986D01*
X196899Y-68206D02*
Y-48994D01*
X183907D02*
X196899D01*
X183907Y-68206D02*
Y-48994D01*
Y-68206D02*
X196899D01*
X149277Y-68856D02*
X154986D01*
X147899Y-68206D02*
Y-48994D01*
X134907D02*
X147899D01*
X134907Y-68206D02*
Y-48994D01*
Y-68206D02*
X147899D01*
X151327Y-121210D02*
X179673D01*
X151327Y-84990D02*
X179673D01*
Y-110187D02*
Y-96013D01*
X151327Y-110187D02*
Y-90895D01*
X26809Y-153890D02*
X55155D01*
X26809Y-190110D02*
X55155D01*
X26809Y-179087D02*
Y-164913D01*
X55155Y-184205D02*
Y-164913D01*
D13*
X170618Y-118061D02*
G03*
X170618Y-118061I-787J0D01*
G01*
X37439Y-157039D02*
G03*
X37439Y-157039I-787J0D01*
G01*
D14*
X100609Y1195D02*
X96610D01*
X100609Y5193D01*
Y6193D01*
X99609Y7193D01*
X97610D01*
X96610Y6193D01*
X106607Y7193D02*
X102608D01*
Y4194D01*
X104607Y5193D01*
X105607D01*
X106607Y4194D01*
Y2194D01*
X105607Y1195D01*
X103608D01*
X102608Y2194D01*
X118603Y6193D02*
X117603Y7193D01*
X115604D01*
X114604Y6193D01*
Y2194D01*
X115604Y1195D01*
X117603D01*
X118603Y2194D01*
X120602Y7193D02*
Y1195D01*
Y4194D01*
X121602Y5193D01*
X123601D01*
X124601Y4194D01*
Y1195D01*
X127600Y5193D02*
X129599D01*
X130599Y4194D01*
Y1195D01*
X127600D01*
X126600Y2194D01*
X127600Y3194D01*
X130599D01*
X132598Y1195D02*
Y5193D01*
X135597D01*
X136597Y4194D01*
Y1195D01*
X138596D02*
Y5193D01*
X141595D01*
X142595Y4194D01*
Y1195D01*
X147593D02*
X145594D01*
X144594Y2194D01*
Y4194D01*
X145594Y5193D01*
X147593D01*
X148593Y4194D01*
Y3194D01*
X144594D01*
X150592Y1195D02*
X152592D01*
X151592D01*
Y7193D01*
X150592D01*
X102108Y-8403D02*
Y-4404D01*
X104107Y-2405D01*
X106107Y-4404D01*
Y-8403D01*
Y-5404D01*
X102108D01*
X108106Y-8403D02*
Y-4404D01*
X111105D01*
X112105Y-5404D01*
Y-8403D01*
X115104Y-4404D02*
X117103D01*
X118103Y-5404D01*
Y-8403D01*
X115104D01*
X114104Y-7403D01*
X115104Y-6404D01*
X118103D01*
X120102Y-8403D02*
X122102D01*
X121102D01*
Y-2405D01*
X120102D01*
X126100Y-8403D02*
X128100D01*
X129099Y-7403D01*
Y-5404D01*
X128100Y-4404D01*
X126100D01*
X125101Y-5404D01*
Y-7403D01*
X126100Y-8403D01*
X133098Y-10402D02*
X134098D01*
X135097Y-9403D01*
Y-4404D01*
X132098D01*
X131099Y-5404D01*
Y-7403D01*
X132098Y-8403D01*
X135097D01*
X137097Y-4404D02*
Y-7403D01*
X138096Y-8403D01*
X141095D01*
Y-4404D01*
X146094Y-8403D02*
X144095D01*
X143095Y-7403D01*
Y-5404D01*
X144095Y-4404D01*
X146094D01*
X147093Y-5404D01*
Y-6404D01*
X143095D01*
X103108Y-14002D02*
X99109D01*
Y-17001D01*
X101108D01*
X99109D01*
Y-20000D01*
X105107Y-16001D02*
Y-20000D01*
Y-18001D01*
X106107Y-17001D01*
X107106Y-16001D01*
X108106D01*
X112105Y-20000D02*
X114104D01*
X115104Y-19000D01*
Y-17001D01*
X114104Y-16001D01*
X112105D01*
X111105Y-17001D01*
Y-19000D01*
X112105Y-20000D01*
X117103D02*
Y-16001D01*
X120102D01*
X121102Y-17001D01*
Y-20000D01*
X124101Y-15002D02*
Y-16001D01*
X123101D01*
X125101D01*
X124101D01*
Y-19000D01*
X125101Y-20000D01*
X138096Y-14002D02*
X134098D01*
Y-20000D01*
X138096D01*
X134098Y-17001D02*
X136097D01*
X140096Y-20000D02*
Y-16001D01*
X143095D01*
X144095Y-17001D01*
Y-20000D01*
X150092Y-14002D02*
Y-20000D01*
X147093D01*
X146094Y-19000D01*
Y-17001D01*
X147093Y-16001D01*
X150092D01*
X105601Y-193400D02*
X104601Y-194399D01*
Y-196399D01*
X105601Y-197398D01*
X109599D01*
X110599Y-196399D01*
Y-194399D01*
X109599Y-193400D01*
Y-191400D02*
X110599Y-190401D01*
Y-188401D01*
X109599Y-187402D01*
X105601D01*
X104601Y-188401D01*
Y-190401D01*
X105601Y-191400D01*
X106600D01*
X107600Y-190401D01*
Y-187402D01*
X187103Y-200801D02*
X191101D01*
X189102D01*
Y-206799D01*
X193101D02*
Y-200801D01*
X196100D01*
X197099Y-201801D01*
Y-203800D01*
X196100Y-204800D01*
X193101D01*
X199099Y-200801D02*
X203097D01*
Y-201801D01*
X199099Y-205799D01*
Y-206799D01*
X149909Y-169811D02*
X148910Y-170811D01*
Y-172810D01*
X149909Y-173810D01*
X153908D01*
X154908Y-172810D01*
Y-170811D01*
X153908Y-169811D01*
X154908Y-167812D02*
Y-165813D01*
Y-166812D01*
X148910D01*
X149909Y-167812D01*
X154908Y-158815D02*
Y-162814D01*
X150909Y-158815D01*
X149909D01*
X148910Y-159815D01*
Y-161814D01*
X149909Y-162814D01*
X25302Y-223701D02*
Y-229699D01*
X28301D01*
X29300Y-228699D01*
Y-224701D01*
X28301Y-223701D01*
X25302D01*
X35298Y-229699D02*
X31300D01*
X35298Y-225700D01*
Y-224701D01*
X34299Y-223701D01*
X32299D01*
X31300Y-224701D01*
X71603Y-166101D02*
X75601D01*
X73602D01*
Y-172099D01*
X77601D02*
Y-166101D01*
X80600D01*
X81599Y-167101D01*
Y-169100D01*
X80600Y-170100D01*
X77601D01*
X86598Y-172099D02*
Y-166101D01*
X83599Y-169100D01*
X87597D01*
X216303Y-47301D02*
X220301D01*
X218302D01*
Y-53299D01*
X222301D02*
Y-47301D01*
X225300D01*
X226299Y-48301D01*
Y-50300D01*
X225300Y-51300D01*
X222301D01*
X228299Y-48301D02*
X229298Y-47301D01*
X231298D01*
X232297Y-48301D01*
Y-49300D01*
X231298Y-50300D01*
X230298D01*
X231298D01*
X232297Y-51300D01*
Y-52299D01*
X231298Y-53299D01*
X229298D01*
X228299Y-52299D01*
X105703Y-37201D02*
X109701D01*
X107702D01*
Y-43199D01*
X111701D02*
Y-37201D01*
X114700D01*
X115699Y-38201D01*
Y-40200D01*
X114700Y-41200D01*
X111701D01*
X121697Y-43199D02*
X117699D01*
X121697Y-39200D01*
Y-38201D01*
X120698Y-37201D01*
X118698D01*
X117699Y-38201D01*
X20502Y-45401D02*
X24501D01*
X22502D01*
Y-51399D01*
X26500D02*
Y-45401D01*
X29499D01*
X30499Y-46401D01*
Y-48400D01*
X29499Y-49400D01*
X26500D01*
X32498Y-51399D02*
X34498D01*
X33498D01*
Y-45401D01*
X32498Y-46401D01*
X197803Y-174801D02*
X201801D01*
X199802D01*
Y-180799D01*
X203801D02*
Y-174801D01*
X206800D01*
X207799Y-175801D01*
Y-177800D01*
X206800Y-178800D01*
X203801D01*
X213797Y-174801D02*
X211798Y-175801D01*
X209799Y-177800D01*
Y-179799D01*
X210798Y-180799D01*
X212798D01*
X213797Y-179799D01*
Y-178800D01*
X212798Y-177800D01*
X209799D01*
X177003Y-175001D02*
X181001D01*
X179002D01*
Y-180999D01*
X183001D02*
Y-175001D01*
X186000D01*
X186999Y-176001D01*
Y-178000D01*
X186000Y-179000D01*
X183001D01*
X192997Y-175001D02*
X188999D01*
Y-178000D01*
X190998Y-177000D01*
X191998D01*
X192997Y-178000D01*
Y-179999D01*
X191998Y-180999D01*
X189998D01*
X188999Y-179999D01*
X74302Y-137401D02*
Y-143399D01*
X77301D01*
X78300Y-142399D01*
Y-141400D01*
X77301Y-140400D01*
X74302D01*
X77301D01*
X78300Y-139400D01*
Y-138401D01*
X77301Y-137401D01*
X74302D01*
X80300Y-138401D02*
X81299Y-137401D01*
X83299D01*
X84298Y-138401D01*
Y-139400D01*
X83299Y-140400D01*
X82299D01*
X83299D01*
X84298Y-141400D01*
Y-142399D01*
X83299Y-143399D01*
X81299D01*
X80300Y-142399D01*
X36402Y-145001D02*
Y-149999D01*
X37401Y-150999D01*
X39401D01*
X40400Y-149999D01*
Y-145001D01*
X42400Y-146001D02*
X43399Y-145001D01*
X45399D01*
X46398Y-146001D01*
Y-147000D01*
X45399Y-148000D01*
X44399D01*
X45399D01*
X46398Y-149000D01*
Y-149999D01*
X45399Y-150999D01*
X43399D01*
X42400Y-149999D01*
X33402Y-250501D02*
Y-255499D01*
X34401Y-256499D01*
X36401D01*
X37400Y-255499D01*
Y-250501D01*
X42399Y-256499D02*
Y-250501D01*
X39400Y-253500D01*
X43398D01*
X28999Y-327698D02*
X23001D01*
Y-324699D01*
X24001Y-323700D01*
X26000D01*
X27000Y-324699D01*
Y-327698D01*
Y-325699D02*
X28999Y-323700D01*
X23001Y-317702D02*
Y-321700D01*
X26000D01*
X25000Y-319701D01*
Y-318701D01*
X26000Y-317702D01*
X27999D01*
X28999Y-318701D01*
Y-320701D01*
X27999Y-321700D01*
X40899Y-327998D02*
X34901D01*
Y-324999D01*
X35901Y-324000D01*
X37900D01*
X38900Y-324999D01*
Y-327998D01*
Y-325999D02*
X40899Y-324000D01*
X34901Y-318002D02*
X35901Y-320001D01*
X37900Y-322000D01*
X39899D01*
X40899Y-321001D01*
Y-319001D01*
X39899Y-318002D01*
X38900D01*
X37900Y-319001D01*
Y-322000D01*
X56999Y-232998D02*
X51001D01*
Y-229999D01*
X52001Y-229000D01*
X54000D01*
X55000Y-229999D01*
Y-232998D01*
Y-230999D02*
X56999Y-229000D01*
Y-224001D02*
X51001D01*
X54000Y-227000D01*
Y-223002D01*
X47899Y-232898D02*
X41901D01*
Y-229899D01*
X42901Y-228900D01*
X44900D01*
X45900Y-229899D01*
Y-232898D01*
Y-230899D02*
X47899Y-228900D01*
X42901Y-226900D02*
X41901Y-225901D01*
Y-223901D01*
X42901Y-222902D01*
X43900D01*
X44900Y-223901D01*
Y-224901D01*
Y-223901D01*
X45900Y-222902D01*
X46899D01*
X47899Y-223901D01*
Y-225901D01*
X46899Y-226900D01*
X107301Y-219801D02*
X106301Y-218801D01*
X104302D01*
X103302Y-219801D01*
Y-223799D01*
X104302Y-224799D01*
X106301D01*
X107301Y-223799D01*
X109300Y-224799D02*
X111300D01*
X110300D01*
Y-218801D01*
X109300Y-219801D01*
X114299D02*
X115299Y-218801D01*
X117298D01*
X118298Y-219801D01*
Y-220800D01*
X117298Y-221800D01*
X116298D01*
X117298D01*
X118298Y-222800D01*
Y-223799D01*
X117298Y-224799D01*
X115299D01*
X114299Y-223799D01*
X194001Y-238799D02*
X193001Y-239798D01*
Y-241798D01*
X194001Y-242798D01*
X197999D01*
X198999Y-241798D01*
Y-239798D01*
X197999Y-238799D01*
X198999Y-236800D02*
Y-234800D01*
Y-235800D01*
X193001D01*
X194001Y-236800D01*
X193001Y-231801D02*
Y-227802D01*
X194001D01*
X197999Y-231801D01*
X198999D01*
X185101Y-238799D02*
X184101Y-239798D01*
Y-241798D01*
X185101Y-242798D01*
X189099D01*
X190099Y-241798D01*
Y-239798D01*
X189099Y-238799D01*
X190099Y-236800D02*
Y-234800D01*
Y-235800D01*
X184101D01*
X185101Y-236800D01*
X184101Y-227802D02*
X185101Y-229802D01*
X187100Y-231801D01*
X189099D01*
X190099Y-230802D01*
Y-228802D01*
X189099Y-227802D01*
X188100D01*
X187100Y-228802D01*
Y-231801D01*
X149702Y-210901D02*
X151701D01*
X150702D01*
Y-216899D01*
X149702D01*
X151701D01*
X158699Y-211901D02*
X157700Y-210901D01*
X155700D01*
X154701Y-211901D01*
Y-215899D01*
X155700Y-216899D01*
X157700D01*
X158699Y-215899D01*
X160699Y-216899D02*
X162698D01*
X161698D01*
Y-210901D01*
X160699Y-211901D01*
X160302Y-76201D02*
Y-81199D01*
X161301Y-82199D01*
X163301D01*
X164300Y-81199D01*
Y-76201D01*
X170298Y-82199D02*
X166300D01*
X170298Y-78200D01*
Y-77201D01*
X169299Y-76201D01*
X167299D01*
X166300Y-77201D01*
X76001Y-96699D02*
X80999D01*
X81999Y-95699D01*
Y-93700D01*
X80999Y-92700D01*
X76001D01*
X81999Y-90701D02*
Y-88701D01*
Y-89701D01*
X76001D01*
X77001Y-90701D01*
X108899Y-94898D02*
X102901D01*
Y-91899D01*
X103901Y-90900D01*
X105900D01*
X106900Y-91899D01*
Y-94898D01*
Y-92899D02*
X108899Y-90900D01*
Y-84902D02*
Y-88900D01*
X104900Y-84902D01*
X103901D01*
X102901Y-85901D01*
Y-87901D01*
X103901Y-88900D01*
X98699Y-92499D02*
X92701D01*
Y-89500D01*
X93701Y-88500D01*
X95700D01*
X96700Y-89500D01*
Y-92499D01*
Y-90499D02*
X98699Y-88500D01*
Y-86501D02*
Y-84501D01*
Y-85501D01*
X92701D01*
X93701Y-86501D01*
X217000Y-29501D02*
X215001D01*
X216001D01*
Y-34499D01*
X215001Y-35499D01*
X214001D01*
X213002Y-34499D01*
X222998Y-35499D02*
X219000D01*
X222998Y-31500D01*
Y-30501D01*
X221999Y-29501D01*
X219999D01*
X219000Y-30501D01*
X89000Y-28501D02*
X87001D01*
X88000D01*
Y-33499D01*
X87001Y-34499D01*
X86001D01*
X85001Y-33499D01*
X90999Y-34499D02*
X92999D01*
X91999D01*
Y-28501D01*
X90999Y-29501D01*
X111200Y-331201D02*
X109201D01*
X110201D01*
Y-336199D01*
X109201Y-337199D01*
X108201D01*
X107202Y-336199D01*
X113200Y-332201D02*
X114199Y-331201D01*
X116199D01*
X117198Y-332201D01*
Y-333200D01*
X116199Y-334200D01*
X115199D01*
X116199D01*
X117198Y-335200D01*
Y-336199D01*
X116199Y-337199D01*
X114199D01*
X113200Y-336199D01*
X219700Y-331701D02*
X217701D01*
X218701D01*
Y-336699D01*
X217701Y-337699D01*
X216701D01*
X215702Y-336699D01*
X224699Y-337699D02*
Y-331701D01*
X221700Y-334700D01*
X225698D01*
X41900Y-65101D02*
X37901D01*
Y-68100D01*
X39901D01*
X37901D01*
Y-71099D01*
X43899D02*
X45899D01*
X44899D01*
Y-65101D01*
X43899Y-66101D01*
X28000Y-93501D02*
X24001D01*
Y-99499D01*
X28000D01*
X24001Y-96500D02*
X26001D01*
X29999Y-99499D02*
X31999D01*
X30999D01*
Y-93501D01*
X29999Y-94501D01*
X50700Y-44602D02*
Y-50600D01*
X53699D01*
X54699Y-49600D01*
Y-45602D01*
X53699Y-44602D01*
X50700D01*
X56698Y-50600D02*
X58697D01*
X57698D01*
Y-44602D01*
X56698Y-45602D01*
X89000Y-49501D02*
X88001Y-48501D01*
X86001D01*
X85002Y-49501D01*
Y-53499D01*
X86001Y-54499D01*
X88001D01*
X89000Y-53499D01*
X94998Y-54499D02*
X91000D01*
X94998Y-50500D01*
Y-49501D01*
X93999Y-48501D01*
X91999D01*
X91000Y-49501D01*
X102701Y-242699D02*
X101701Y-243699D01*
Y-245698D01*
X102701Y-246698D01*
X106699D01*
X107699Y-245698D01*
Y-243699D01*
X106699Y-242699D01*
X107699Y-240700D02*
Y-238700D01*
Y-239700D01*
X101701D01*
X102701Y-240700D01*
X101701Y-231702D02*
Y-235701D01*
X104700D01*
X103700Y-233702D01*
Y-232702D01*
X104700Y-231702D01*
X106699D01*
X107699Y-232702D01*
Y-234701D01*
X106699Y-235701D01*
X38501Y-126700D02*
X37501Y-127700D01*
Y-129699D01*
X38501Y-130699D01*
X42499D01*
X43499Y-129699D01*
Y-127700D01*
X42499Y-126700D01*
X43499Y-124701D02*
Y-122701D01*
Y-123701D01*
X37501D01*
X38501Y-124701D01*
X68801Y-242699D02*
X67801Y-243699D01*
Y-245698D01*
X68801Y-246698D01*
X72799D01*
X73799Y-245698D01*
Y-243699D01*
X72799Y-242699D01*
X73799Y-240700D02*
Y-238700D01*
Y-239700D01*
X67801D01*
X68801Y-240700D01*
X73799Y-232702D02*
X67801D01*
X70800Y-235701D01*
Y-231702D01*
X113401Y-91000D02*
X112401Y-91999D01*
Y-93999D01*
X113401Y-94998D01*
X117399D01*
X118399Y-93999D01*
Y-91999D01*
X117399Y-91000D01*
X112401Y-85002D02*
Y-89000D01*
X115400D01*
X114400Y-87001D01*
Y-86001D01*
X115400Y-85002D01*
X117399D01*
X118399Y-86001D01*
Y-88001D01*
X117399Y-89000D01*
X208301Y-147800D02*
X207301Y-148799D01*
Y-150799D01*
X208301Y-151798D01*
X212299D01*
X213299Y-150799D01*
Y-148799D01*
X212299Y-147800D01*
X208301Y-145800D02*
X207301Y-144801D01*
Y-142801D01*
X208301Y-141802D01*
X209300D01*
X210300Y-142801D01*
X211300Y-141802D01*
X212299D01*
X213299Y-142801D01*
Y-144801D01*
X212299Y-145800D01*
X211300D01*
X210300Y-144801D01*
X209300Y-145800D01*
X208301D01*
X210300Y-144801D02*
Y-142801D01*
X189951Y-147900D02*
X188951Y-148899D01*
Y-150899D01*
X189951Y-151898D01*
X193949D01*
X194949Y-150899D01*
Y-148899D01*
X193949Y-147900D01*
X188951Y-145900D02*
Y-141902D01*
X189951D01*
X193949Y-145900D01*
X194949D01*
X167801Y-147800D02*
X166801Y-148799D01*
Y-150799D01*
X167801Y-151798D01*
X171799D01*
X172799Y-150799D01*
Y-148799D01*
X171799Y-147800D01*
X166801Y-141802D02*
X167801Y-143801D01*
X169800Y-145800D01*
X171799D01*
X172799Y-144801D01*
Y-142801D01*
X171799Y-141802D01*
X170800D01*
X169800Y-142801D01*
Y-145800D01*
X68701Y-109500D02*
X67701Y-110499D01*
Y-112499D01*
X68701Y-113498D01*
X72699D01*
X73699Y-112499D01*
Y-110499D01*
X72699Y-109500D01*
X73699Y-104501D02*
X67701D01*
X70700Y-107500D01*
Y-103502D01*
X55101Y-114100D02*
X54101Y-115099D01*
Y-117099D01*
X55101Y-118098D01*
X59099D01*
X60099Y-117099D01*
Y-115099D01*
X59099Y-114100D01*
X55101Y-112100D02*
X54101Y-111101D01*
Y-109101D01*
X55101Y-108102D01*
X56100D01*
X57100Y-109101D01*
Y-110101D01*
Y-109101D01*
X58100Y-108102D01*
X59099D01*
X60099Y-109101D01*
Y-111101D01*
X59099Y-112100D01*
X99301Y-168299D02*
X98301Y-169299D01*
Y-171298D01*
X99301Y-172298D01*
X103299D01*
X104299Y-171298D01*
Y-169299D01*
X103299Y-168299D01*
X104299Y-166299D02*
Y-164300D01*
Y-165300D01*
X98301D01*
X99301Y-166299D01*
Y-161301D02*
X98301Y-160301D01*
Y-158302D01*
X99301Y-157302D01*
X103299D01*
X104299Y-158302D01*
Y-160301D01*
X103299Y-161301D01*
X99301D01*
X128401Y-167299D02*
X127401Y-168299D01*
Y-170298D01*
X128401Y-171298D01*
X132399D01*
X133399Y-170298D01*
Y-168299D01*
X132399Y-167299D01*
X133399Y-165300D02*
Y-163301D01*
Y-164300D01*
X127401D01*
X128401Y-165300D01*
X133399Y-160301D02*
Y-158302D01*
Y-159302D01*
X127401D01*
X128401Y-160301D01*
X194402Y-71101D02*
Y-77099D01*
X197401D01*
X198400Y-76099D01*
Y-75100D01*
X197401Y-74100D01*
X194402D01*
X197401D01*
X198400Y-73100D01*
Y-72101D01*
X197401Y-71101D01*
X194402D01*
X204398Y-77099D02*
X200400D01*
X204398Y-73100D01*
Y-72101D01*
X203399Y-71101D01*
X201399D01*
X200400Y-72101D01*
X104402Y-272701D02*
Y-278699D01*
X107401D01*
X108400Y-277699D01*
Y-276700D01*
X107401Y-275700D01*
X104402D01*
X107401D01*
X108400Y-274700D01*
Y-273701D01*
X107401Y-272701D01*
X104402D01*
X114398D02*
X110400D01*
Y-275700D01*
X112399Y-274700D01*
X113399D01*
X114398Y-275700D01*
Y-277699D01*
X113399Y-278699D01*
X111399D01*
X110400Y-277699D01*
X119102Y-137401D02*
Y-143399D01*
X122101D01*
X123100Y-142399D01*
Y-141400D01*
X122101Y-140400D01*
X119102D01*
X122101D01*
X123100Y-139400D01*
Y-138401D01*
X122101Y-137401D01*
X119102D01*
X128099Y-143399D02*
Y-137401D01*
X125100Y-140400D01*
X129098D01*
X127904Y-72001D02*
Y-77999D01*
X130903D01*
X131903Y-76999D01*
Y-76000D01*
X130903Y-75000D01*
X127904D01*
X130903D01*
X131903Y-74000D01*
Y-73001D01*
X130903Y-72001D01*
X127904D01*
X133903Y-77999D02*
X135902D01*
X134902D01*
Y-72001D01*
X133903Y-73001D01*
X208902Y-286001D02*
Y-291999D01*
X211901D01*
X212900Y-290999D01*
Y-290000D01*
X211901Y-289000D01*
X208902D01*
X211901D01*
X212900Y-288000D01*
Y-287001D01*
X211901Y-286001D01*
X208902D01*
X218898D02*
X216899Y-287001D01*
X214900Y-289000D01*
Y-290999D01*
X215899Y-291999D01*
X217899D01*
X218898Y-290999D01*
Y-290000D01*
X217899Y-289000D01*
X214900D01*
M02*
