M48
;Layer_Color=9474304
;FILE_FORMAT=2:5
INCH
;TYPE=PLATED
T01F00S00C0.00787
T02F00S00C0.02000
T03F00S00C0.02800
T04F00S00C0.04094
T05F00S00C0.04921
T06F00S00C0.06299
T07F00S00C0.08622
%
T01
X0335000Y0120000
X0340000
X0345000
X0350000
X0355000
X0360000
X0365000
X0370000
X0375000
X0380000
X0385000
X0390000
X0395000
X0400000
X0405000
X0410000
X0415000
X0420000
X0425000
X0430000
X0435000
X0440000
X0445000
X0450000
X0455000
X0460000
X0465000
X0462500Y0125000
X0457500
X0452500
X0447500
X0442500
X0437500
X0432500
X0427500
X0422500
X0417500
X0412500
X0407500
X0402500
X0397500
X0392500
X0387500
X0382500
X0377500
X0372500
X0367500
X0362500
X0357500
X0360000Y0130000
X0365000
X0370000
X0375000
X0380000
X0385000
X0390000
X0395000
X0400000
X0405000
X0410000
X0415000
X0420000
X0425000
X0430000
X0435000
X0440000
X0445000
X0450000
X0455000
X0460000
X0462500Y0135000
X0467500
Y0145000
X0462500
X0457500
X0452500
X0447500
X0442500
X0437500
X0440000Y0150000
X0445000
X0450000
X0455000
X0460000
X0462500Y0155000
X0467500
X0457500
X0452500
X0447500
X0442500
X0437500
X0432500
X0427500
X0422500Y0145000
X0417500
X0412500
X0407500
X0402500
X0397500
X0392500
X0387500
X0382500
X0377500
X0380000Y0140000
X0385000
X0390000
X0395000
X0400000
X0405000
X0410000
X0415000
X0420000
X0425000
X0427500Y0135000
X0432500
X0437500
X0442500
X0447500
X0452500
X0457500
X0460000Y0140000
X0455000
X0450000
X0445000
X0440000
X0422500Y0135000
X0417500
X0412500
X0407500
X0402500
X0397500
X0392500
X0387500
X0382500
X0377500
X0372500
X0367500
X0362500
X0357500
X0352500
X0347500
X0350000Y0140000
X0355000
X0360000
X0365000
X0362500Y0145000
X0357500
X0352500
X0347500
X0342500
X0337500
X0340000Y0150000
X0345000
X0350000
X0355000
X0360000
X0365000
X0352500Y0155000
X0347500
X0342500
X0337500
X0340000Y0140000
X0345000
X0337500Y0135000
X0340000Y0130000
X0335000
X0337500Y0125000
X0342500
X0347500
X0350000Y0130000
X0355000
X0472500Y0125000
X0477500
X0482500
X0485000Y0130000
X0482500Y0135000
X0477500
Y0145000
X0482500
X0485000Y0150000
X0482500Y0155000
X0477500
X0485000Y0140000
X0480000Y0120000
X0475000
X0470000
X0477500Y0165000
X0482500
X0485000Y0170000
X0482500Y0175000
X0477500
Y0185000
X0482500
X0485000Y0190000
X0482500Y0195000
X0477500
Y0205000
X0482500
X0485000Y0210000
X0482500Y0215000
X0477500
Y0225000
X0482500
X0485000Y0230000
X0482500Y0235000
X0477500
Y0245000
X0482500
X0485000Y0250000
X0482500Y0255000
X0477500
Y0265000
X0482500
X0485000Y0270000
X0482500Y0275000
X0477500
Y0285000
X0482500
X0485000Y0290000
X0482500Y0295000
X0477500
Y0305000
X0482500
X0485000Y0310000
Y0300000
Y0280000
Y0260000
Y0240000
Y0220000
Y0200000
Y0180000
Y0160000
X0467500Y0165000
X0462500
X0457500
X0452500
X0447500
X0442500
X0437500
X0440000Y0160000
X0445000
X0450000
X0455000
X0460000
Y0170000
X0455000
X0450000
X0445000
X0447500Y0175000
X0452500
X0457500
X0462500
X0467500
Y0185000
X0462500
X0457500
X0452500
X0447500
X0450000Y0190000
X0455000
X0460000
X0462500Y0195000
X0467500
Y0205000
X0462500
X0457500
X0452500
X0447500
X0442500
X0437500
X0432100Y0202958
Y0199021
Y0195084
Y0191147
X0431817Y0187322
X0432100Y0183273
X0424500Y0177700
X0420550
X0416613Y0177666
X0414485
X0410800Y0177700
X0406800
X0399200Y0183273
Y0187210
Y0191147
Y0195084
Y0199021
X0399319Y0202958
X0403200Y0210700
X0410700Y0210600
X0418400Y0210700
X0423400Y0211100
X0426500Y0210600
X0430000Y0210000
X0435000
X0440000
X0445000
X0450000
X0455000
X0460000
X0462500Y0215000
X0467500
Y0225000
X0462500
X0457500
X0452500
X0447500
X0442500
X0437500
X0432500
X0427500
X0430000Y0230000
X0435000
X0440000
X0445000
X0450000
X0455000
X0460000
X0462500Y0235000
X0467500
Y0245000
X0462500
X0457500
X0452500
X0447500
X0442500
X0437500
X0432500
X0427500
X0430000Y0240000
X0435000
X0440000
X0445000
X0450000
X0455000
X0460000
X0457500Y0235000
X0452500
X0447500
X0442500
X0437500
X0432500
X0427500
X0422500
X0417500
X0420000Y0230000
X0425000
Y0240000
X0417500Y0245000
X0412500
X0407500
X0402500
X0405000Y0250000
X0410000
X0415000
X0412500Y0255000
X0407500
X0402500
X0405000Y0260000
X0410000
X0415000
X0417500Y0265000
X0422500
X0427500
X0432500
X0437500
X0440000Y0270000
X0435000
X0430000
X0425000
X0420000
X0415000
X0410000
X0405000
X0400000
X0402500Y0275000
X0407500
X0412500
X0417500
X0422500
X0427500
X0432500
X0437500
X0442500
X0447500
X0450000Y0280000
X0455000
X0460000
X0462500Y0285000
X0467500
Y0295000
X0462500
X0457500
X0460000Y0300000
X0455000
X0450000
X0445000
X0447500Y0305000
X0450000Y0310000
X0455000
X0460000
X0462500Y0305000
X0467500
X0457500
X0460000Y0290000
X0455000
X0450000
X0445000
X0440000
X0435000
X0430000
X0425000
X0420000
X0415000
X0410000
X0405000
X0400000
X0395000
X0390000
X0392500Y0295000
X0397500
X0402500
X0407500
X0412500
X0417500
X0422500
X0427500
X0432500
X0437500
X0442500
X0447500
Y0285000
X0442500
X0437500
X0440000Y0280000
X0445000
X0457500Y0285000
Y0275000
X0462500
X0467500
Y0265000
X0462500
X0457500
X0452500
X0447500
X0450000Y0260000
X0455000
X0460000
X0462500Y0255000
X0467500
X0457500
X0452500
X0447500
X0442500
X0437500
X0440000Y0250000
X0445000
X0450000
X0455000
X0460000
Y0270000
X0455000
X0445000Y0260000
X0430000
X0425000
X0412500Y0265000
X0407500
X0402500
X0400000Y0260000
Y0250000
Y0240000
X0405000
X0410000
X0407500Y0235000
X0402500
X0397500
X0400000Y0230000
X0395000
X0397500Y0225000
X0392500
X0390600Y0223500
X0388662Y0221549
X0386725Y0219598
X0384787Y0217647
X0382850Y0215696
X0380912Y0213745
X0378974Y0211794
X0377037Y0209843
X0374963Y0207757
X0373026Y0205806
X0371088Y0203855
X0369150Y0201904
X0367213Y0199953
X0365275Y0198002
X0363338Y0196051
X0361400Y0194100
X0327800Y0194573
Y0198500
Y0202447
Y0206384
Y0210321
Y0216394
X0327500Y0225000
X0322500
X0323200Y0221500
X0319000Y0222200
X0313000
X0315000Y0240000
X0320000
X0325000
X0327500Y0235000
X0332500Y0245000
X0330000Y0250000
X0332500Y0255000
X0329000Y0258000
X0332500Y0265000
X0336700Y0267598
X0337707Y0269567
X0336700Y0271535
X0337707Y0273504
X0336700Y0275472
X0337707Y0277441
X0336700Y0279296
X0332500Y0275000
X0327500
X0322500
X0317500
X0312500
X0315000Y0280000
X0312500Y0285000
X0320000Y0290000
X0325000
X0317500Y0295000
X0320000Y0300000
X0330000
X0320000Y0310000
X0312500Y0305000
X0315000Y0270000
X0320000
X0317500Y0265000
X0312500
X0315000Y0260000
X0320000
X0317500Y0255000
X0312500
X0315000Y0250000
X0320000
X0317500Y0245000
X0312500
X0330000Y0270000
X0374293Y0269567
X0375300Y0267600
X0374293Y0265630
X0375300Y0263661
Y0271535
X0374293Y0273504
X0375300Y0275472
X0374293Y0277441
X0375300Y0279409
X0374200Y0281400
X0372500Y0295000
X0375000Y0300000
X0380000
X0385000
X0387500Y0305000
X0382500
X0377500
X0372500
X0367500
X0370000Y0310000
X0375000
X0380000
X0385000
X0387500Y0295000
X0382500
X0387500Y0285000
X0392500
X0397500
X0402500
X0400000Y0280000
X0395000
X0397500Y0275000
X0420000Y0280000
X0422500Y0285000
X0417500
X0425000Y0300000
X0420000Y0310000
X0415000
X0410000
Y0300000
X0405000
X0370000
X0365000
X0360000
X0357030Y0297482
X0360967Y0295400
X0357500Y0305000
X0360000Y0310000
X0350000
X0435000
X0440000
X0445000
X0435000Y0250000
Y0220000
X0440000
X0445000
X0450000
X0455000
X0460000
X0457500Y0215000
X0452500
X0447500
X0442500
X0437500
X0432500
X0445000Y0200000
X0450000
X0455000
X0460000
X0457500Y0195000
X0452500
X0447500
X0450000Y0180000
X0455000
X0460000
X0435000Y0160000
X0415000Y0230000
X0407500Y0225000
X0400000Y0220000
X0319858Y0188700
X0315921
X0335000Y0170000
X0337500Y0165000
X0342500
X0345000Y0160000
X0340000
X0307500Y0175000
X0305000Y0180000
X0300000
Y0170000
X0295000
X0290000
X0285000
X0280000
X0275000
X0270000
X0272500Y0175000
X0277500
X0282500
X0287500
X0292500
X0290000Y0180000
X0285000
X0280000
X0275000
X0270000
X0272500Y0185000
X0277500
X0282500
X0287500
X0285000Y0190000
X0280000
X0275000
X0270000
X0272500Y0195000
X0277500
X0282500
X0287500
X0294400Y0194573
Y0198510
Y0202447
Y0206384
Y0210321
Y0214258
X0295000Y0220000
X0298657Y0221818
X0302500Y0225000
X0306079Y0222000
X0300000Y0230000
X0295000
X0297500Y0235000
X0292500
X0295000Y0240000
X0300000
X0305000
X0310000
X0307500Y0245000
X0302500
X0305000Y0250000
X0310000
X0307500Y0255000
X0302500
X0305000Y0260000
X0310000
X0307500Y0265000
X0302500
X0305000Y0270000
X0310000
X0307500Y0275000
X0302500
X0297500
X0292500
X0295000Y0280000
X0300000
X0305000
X0310000
X0307500Y0285000
X0302500
X0297500
X0292500
X0295000Y0290000
X0297500Y0295000
X0292500
X0295000Y0300000
X0300000
X0305000
X0310000
X0307500Y0305000
X0302500
X0297500
X0292500
X0287500
X0282500
X0277500
X0272500
X0267500
X0262500
X0257500
X0252500
X0247500
X0242500
X0237500
X0232500
X0227500
X0222500
X0220000Y0310000
Y0300000
X0222500Y0295000
X0227500
X0232500
X0237500
X0242500
Y0285000
X0237500
X0232500
X0227500
X0222500
X0220000Y0290000
Y0280000
X0222500Y0275000
X0227500
X0232500
X0237500
X0242500
Y0265000
X0237500
X0232500
X0227500
X0222500
X0220000Y0270000
Y0260000
X0222500Y0255000
X0227500
X0232500
X0237500
X0242500
Y0245000
X0237500
X0232500
X0227500
X0222500
X0220000Y0250000
Y0240000
X0222500Y0235000
X0227500
X0232500
X0237500
X0242500
Y0225000
X0237500
X0232500
X0227500
X0222500
X0220000Y0230000
Y0220000
X0222500Y0215000
X0227500
X0232500
X0237500
X0242500
X0247500
X0252500
X0257500
X0262500
X0265000Y0210000
X0260000
X0255000
X0250000
X0245000
X0247500Y0205000
X0252500
X0257500
X0262500
X0260000Y0200000
X0255000
X0250000
X0245000
X0247500Y0195000
X0252500
X0257500
X0260000Y0190000
X0255000
X0250000
X0245000
X0247500Y0185000
X0252500
X0257500
X0260000Y0180000
X0255000
X0250000
X0245000
X0247500Y0175000
X0242500
X0237500
X0232500
X0227500
X0222500
X0220000Y0180000
X0222500Y0185000
X0227500
X0232500
X0237500
X0242500
Y0195000
X0237500
X0232500
X0227500
X0222500
X0220000Y0200000
X0222500Y0205000
X0227500
X0232500
X0237500
X0242500
X0220000Y0210000
Y0190000
Y0170000
X0245000
X0260000
X0257500Y0175000
X0267500
Y0185000
Y0195000
X0275000Y0200000
X0280000
X0285000
X0287500Y0205000
X0282500
X0277500
X0272500
X0275000Y0210000
X0280000
X0285000
X0287500Y0215000
X0282500
X0277500
X0272500
X0292500Y0225000
Y0245000
Y0255000
Y0265000
X0295000Y0310000
X0300000
X0305000
X0310000
X0290000
X0270000
X0265000
X0245000
X0295000Y0190000
X0302142Y0188700
X0306100
X0309856
X0311984
X0310000Y0320000
Y0330000
Y0340000
X0305000
X0300000
X0302500Y0345000
X0307500
X0310000Y0350000
X0305000
X0300000
X0295000
X0290000
X0292500Y0355000
X0297500
X0302500
X0307500
X0310000Y0360000
X0305000
X0300000
X0295000
X0290000
X0285000
X0280000
X0282500Y0355000
X0287500
Y0365000
X0292500
X0297500
X0302500
X0307500
X0310000Y0370000
X0305000
X0307500Y0375000
X0302500
X0305000Y0380000
X0302500Y0385000
X0300000Y0400000
X0295000
X0290000
X0292500Y0405000
X0297500
X0302500
X0305000Y0410000
X0307500Y0415000
X0302500
X0305000Y0420000
X0310000
X0307500Y0425000
X0302500
X0297500
X0292500
X0287500
X0282500
X0277500
X0272500
X0267500
X0262500
X0257500
X0252500
X0247500
X0242500
X0237500
Y0435000
X0242500
X0247500
Y0445000
X0242500
X0237500
Y0455000
X0242500
X0247500
Y0465000
X0227500
X0222500
X0220000Y0460000
X0222500Y0455000
X0227500
Y0445000
X0222500
X0220000Y0450000
Y0440000
X0222500Y0435000
X0227500
Y0425000
X0222500
X0220000Y0430000
Y0420000
X0222500Y0415000
X0227500
X0237500
X0242500
X0247500
X0250000Y0420000
X0255000
X0260000
X0265000
X0270000
X0275000
X0280000
X0285000
X0290000
X0295000
X0300000
X0292500Y0415000
X0287500
X0290000Y0410000
X0287500Y0405000
X0267500
X0262500
X0265000Y0410000
X0270000
X0272500Y0415000
X0267500
X0262500
X0257500
X0260000Y0410000
Y0400000
X0265000
X0270000
X0262500Y0395000
X0265000Y0390000
X0260000
X0262500Y0385000
X0265000Y0380000
X0260000
Y0370000
X0255000
X0250000
X0245000
X0247500Y0375000
X0252500
X0250000Y0380000
X0245000
X0242500Y0385000
X0237500
Y0395000
X0242500
X0247500
X0250000Y0400000
X0247500Y0405000
X0242500
X0237500
X0227500
X0222500
X0220000Y0410000
Y0400000
X0222500Y0395000
X0227500
Y0385000
X0222500
X0220000Y0390000
Y0380000
X0222500Y0375000
X0227500
X0237500
X0242500
Y0365000
X0247500
X0252500
X0250000Y0360000
X0245000
X0247500Y0355000
X0242500
X0237500
Y0365000
X0227500
X0222500
X0220000Y0370000
Y0360000
X0222500Y0355000
X0227500
Y0345000
X0222500
X0220000Y0350000
Y0340000
X0222500Y0335000
X0227500
Y0325000
X0232500
X0237500
X0247500
X0250000Y0320000
X0245000
X0247500Y0315000
X0242500
X0237500
X0232500
X0227500
X0222500
X0220000Y0320000
X0222500Y0325000
X0220000Y0330000
X0237500Y0345000
X0242500
X0247500
X0252500
X0257500
X0262500
X0267500
X0272500
X0277500
X0282500
X0285000Y0340000
X0290000
X0292500Y0345000
X0297500
X0300000Y0330000
X0302500Y0325000
X0300000Y0320000
X0295000
X0290000
X0292500Y0325000
X0287500
Y0315000
X0292500
X0297500
X0302500
X0272500
X0267500
X0262500
X0265000Y0320000
X0270000
X0272500Y0325000
X0267500
X0262500
X0257500
X0260000Y0320000
Y0340000
X0265000
X0270000
X0275000
X0280000
Y0350000
X0275000
X0270000Y0360000
X0265000
X0260000Y0350000
X0255000
X0250000
X0245000
Y0340000
X0250000
X0255000
X0277500Y0365000
X0275000Y0370000
Y0380000
X0280000
X0285000
X0290000
X0292500Y0375000
X0290000Y0370000
X0315000
X0320000
X0325000
X0330000
X0335000
X0340000
X0345000
X0350000
X0352500Y0365000
X0357500
X0360000Y0370000
X0365000
X0362500Y0375000
X0357500
X0360000Y0380000
X0365000
X0362500Y0385000
X0357500
X0352500
X0355000Y0390000
X0360000
X0365000
X0362500Y0395000
X0357500
X0352500
X0355000Y0400000
X0360000
X0365000
X0362500Y0405000
X0365000Y0410000
X0362500Y0415000
X0365000Y0420000
X0362500Y0425000
X0357500
X0352500
X0347500
X0342500
X0337500
X0332500
X0327500
X0322500
X0317500
X0312500
X0315000Y0420000
X0320000
X0325000
X0330000
X0332500Y0415000
X0327500
Y0405000
X0337500
X0340000Y0410000
X0347500Y0415000
X0350000Y0400000
Y0390000
Y0380000
X0355000
X0345000
X0340000
X0335000
X0330000
X0325000
X0320000
X0322500Y0385000
X0327500
X0332500
X0337500
X0342500
Y0375000
X0347500
Y0365000
X0342500
X0337500
X0332500
X0327500
X0322500
X0317500
X0312500
X0315000Y0360000
X0320000
X0325000
X0322500Y0355000
X0317500
X0312500
X0315000Y0350000
X0320000
X0325000
X0330000
X0335000
X0340000
X0345000
X0350000
X0355000
X0360000
X0362500Y0355000
X0357500
X0352500
X0347500
X0342500
X0337500
X0332500
X0332000Y0344900
X0335700
X0339400
X0342500Y0345000
X0347500
X0352500
X0350000Y0340000
X0345000
X0352500Y0335000
X0357500
X0362500
X0367500
X0372500
X0377500
X0382500
X0387500
X0390000Y0340000
X0395000
X0400000
X0405000
X0410000
X0415000
X0417500Y0345000
X0412500
X0415000Y0350000
X0420000
X0425000
X0427500Y0355000
X0422500
X0417500
X0410000Y0350000
X0395000
X0390000
X0385000
X0387500Y0345000
X0392500
X0397500
X0400000Y0330000
X0405000
X0410000
X0415000
X0420000
X0425000
X0430000
X0435000
X0440000
X0445000
X0450000
X0455000
X0460000
X0462500Y0335000
X0467500
Y0345000
X0462500
X0457500
X0460000Y0350000
X0455000
X0450000
X0445000
X0440000
X0435000
X0437500Y0355000
X0442500
X0447500
X0450000Y0360000
X0455000
X0457500Y0365000
X0452500
X0447500
X0445000Y0370000
X0440000
X0442500Y0375000
X0447500
X0450000Y0380000
X0455000
X0457500Y0385000
X0452500
X0450000Y0390000
X0447500Y0395000
X0442500
X0437500
X0432500
X0427500
X0422500
X0425000Y0400000
X0430000
X0435000
X0440000
X0445000
X0450000
X0457500Y0405000
X0460000Y0410000
X0462500Y0415000
X0467500
Y0405000
X0457500Y0415000
X0460000Y0420000
X0455000
Y0430000
X0460000
X0462500Y0435000
X0467500
Y0445000
X0462500
X0457500
X0460000Y0450000
X0455000
X0457500Y0455000
X0462500
X0467500
Y0465000
X0462500
X0457500
X0460000Y0460000
X0455000
Y0440000
X0460000
X0457500Y0435000
X0447500Y0425000
X0442500
X0437500
X0432500
X0427500
X0422500
X0420000Y0420000
X0422500Y0415000
X0420000Y0410000
X0422500Y0405000
X0420000Y0400000
Y0390000
X0425000
X0430000
X0435000
X0440000
X0437500Y0385000
X0432500
X0427500
X0422500
X0425000Y0380000
X0430000
X0427500Y0375000
X0422500
X0420000Y0380000
Y0370000
X0430000
X0432500Y0365000
X0437500
X0435000Y0360000
X0430000
X0445000
X0447500Y0345000
X0442500
X0437500
X0432500
X0427500
X0430000Y0340000
X0435000
X0440000
X0445000
X0450000
X0455000
X0460000
X0457500Y0335000
Y0325000
X0462500
X0467500
Y0315000
X0462500
X0457500
X0460000Y0320000
X0455000
X0450000
X0445000
X0440000
X0435000
X0430000
X0425000
X0420000
X0415000
X0410000
X0405000
X0400000
X0395000
X0390000
X0385000
X0380000
X0382500Y0315000
X0387500
Y0325000
X0392500
X0397500
X0402500
X0407500
X0412500
X0417500
X0422500
X0427500
X0432500
X0437500
X0442500
X0447500
Y0335000
X0442500
X0437500
X0432500
X0427500
X0422500
X0417500
X0425000Y0340000
X0427500Y0315000
X0447500
X0407500
X0395000Y0330000
X0390000
X0380000
X0375000
X0370000
X0365000
X0360000
X0355000
X0357500Y0325000
X0362500
X0367500
X0372500
X0377500
Y0315000
X0367500
X0362500
X0357500
X0352500
X0347500
X0342500
X0337500
X0332500
X0335000Y0320000
X0335700Y0323300
X0339500Y0325700
X0342500Y0325000
X0347500
X0352500
X0350000Y0320000
X0345000
X0340000
X0325000
X0320000
X0318800Y0325600
X0322600Y0325700
X0322500Y0315000
X0312500
Y0325000
Y0345000
X0318800Y0344800
X0327500Y0345000
Y0375000
X0332500
X0337500
X0322500
X0317500
X0312500
X0317500Y0385000
X0327500Y0395000
X0317500Y0405000
X0315000Y0410000
X0317500Y0415000
X0362500Y0345000
X0367500
X0372500
X0370000Y0350000
Y0340000
X0365000
X0360000
Y0320000
X0365000
X0370000
X0385000Y0340000
X0462500Y0355000
X0467500
Y0365000
X0460000Y0370000
X0455000
X0457500Y0375000
X0460000Y0390000
X0440000Y0380000
X0442500Y0405000
X0437500
X0432500
X0437500Y0415000
X0440000Y0420000
X0435000
X0447500Y0415000
X0477500
Y0405000
Y0395000
X0482500
X0485000Y0400000
Y0390000
X0482500Y0385000
X0477500
X0472500
Y0395000
X0477500Y0375000
X0482500
X0485000Y0380000
Y0370000
X0482500Y0365000
X0477500
Y0355000
X0482500
X0485000Y0360000
Y0350000
X0482500Y0345000
X0477500
Y0335000
X0482500
X0485000Y0340000
Y0330000
X0482500Y0325000
X0477500
Y0315000
X0482500
X0485000Y0320000
Y0430000
X0482500Y0435000
X0477500
X0472500
Y0445000
X0477500
X0482500
X0485000Y0450000
X0482500Y0455000
X0477500
X0472500
Y0465000
X0477500
X0482500
X0485000Y0460000
Y0440000
Y0470000
X0482500Y0475000
X0477500
X0472500
X0475000Y0480000
X0480000
X0470000
X0465000
X0460000
X0455000
X0457500Y0475000
X0462500
X0467500
X0460000Y0470000
X0455000
X0245000
X0247500Y0475000
X0242500
X0237500
X0232500
X0227500
X0222500
X0225000Y0480000
X0230000
X0235000
X0240000
X0245000
X0220000
Y0470000
T02
X0323600Y0229500
Y0233000
X0328144Y0288503
X0328000Y0292000
X0331700Y0307600
X0350996Y0306100
Y0302403
X0364900Y0296200
X0384109Y0289987
Y0286487
X0407800Y0221300
Y0217800
X0427400Y0218000
X0427513Y0221498
X0303300Y0229400
Y0232900
X0351404Y0404400
Y0419400
X0384200Y0414400
X0400100Y0419200
X0400000Y0404300
X0433488Y0414288
T03
X0404200Y0305400
X0404100Y0310900
X0427100Y0310500
Y0305000
X0279383Y0275600
X0280700Y0265200
X0271300
X0259800Y0266200
X0251800
X0254600Y0275500
X0252300Y0224400
X0276300Y0228000
X0270700Y0157192
X0252100Y0170700
X0254500Y0321400
X0279300
X0283000Y0365800
X0296750Y0371950
X0311100Y0379500
X0305200Y0399800
X0256184Y0360403
X0256310Y0354904
X0332200Y0403701
X0332100Y0409200
X0341300Y0403701
X0379100Y0390300
X0403902
X0404000Y0344600
X0379000
T04
X0226000Y0130500
Y0140500
Y0150500
X0236000
Y0140500
Y0130500
X0466000Y0130402
Y0140402
Y0150402
X0476000
Y0140402
Y0130402
Y0160402
Y0170402
Y0180402
Y0190402
Y0200402
Y0210402
Y0220402
Y0230402
Y0240402
Y0250402
Y0260402
Y0270402
Y0280402
Y0290402
Y0300402
Y0310402
X0466000
Y0300402
Y0290402
Y0280402
Y0270402
Y0260402
Y0250402
Y0240402
Y0230402
Y0220402
Y0210402
Y0200402
Y0190402
Y0180402
Y0170402
Y0160402
X0236000Y0160500
Y0170500
Y0180500
Y0190500
Y0200500
Y0210500
Y0220500
Y0230500
X0226000
Y0240500
Y0250500
Y0260500
Y0270500
Y0280500
Y0290500
Y0300500
Y0310500
X0236000
Y0300500
Y0290500
Y0280500
Y0270500
Y0260500
Y0250500
Y0240500
X0226000Y0220500
Y0210500
Y0200500
Y0190500
Y0180500
Y0170500
Y0160500
Y0320500
X0236000
Y0330500
Y0340500
Y0350500
Y0360500
Y0370500
Y0380500
X0226000
Y0390500
Y0400500
Y0410500
Y0420500
Y0430500
Y0440500
X0236000
Y0450500
Y0460500
X0226000
Y0450500
X0236000Y0430500
Y0420500
Y0410500
Y0400500
Y0390500
X0226000Y0370500
Y0360500
Y0350500
Y0340500
Y0330500
X0466000Y0330402
Y0340402
Y0350402
Y0360402
Y0370402
Y0380402
Y0390402
Y0400402
Y0410402
Y0420402
Y0430402
Y0440402
Y0450402
Y0460402
Y0320402
X0476000
Y0330402
Y0340402
Y0350402
Y0360402
Y0370402
Y0380402
Y0390402
Y0400402
Y0410402
Y0420402
Y0430402
Y0440402
Y0450402
Y0460402
Y0470402
X0466000
X0236000Y0470500
X0226000
T05
X0309194Y0144200
X0286000Y0455500
X0416000
T06
X0420500Y0255000
X0411000Y0281100
X0430700Y0281400
X0306000Y0291000
X0253800Y0410000
X0339900Y0418800
X0450300Y0409400
T07
X0296202Y0131208
X0322187
Y0157192
X0296202
X0298992Y0442508
Y0468492
X0273008
Y0442508
X0403008
X0428992
Y0468492
X0403008
M30
