M48
;Layer_Color=9474304
;FILE_FORMAT=2:5
INCH
;TYPE=PLATED
T01F00S00C0.01181
T02F00S00C0.02000
T03F00S00C0.02800
T04F00S00C0.04094
T05F00S00C0.04921
T06F00S00C0.06299
T07F00S00C0.08622
%
T01
X0338583Y0125984
X0346457
X0354331
X0362205
X0370079
X0377953
X0385827
X0393701
X0401575
X0409449
X0417323
X0425197
X0433071
X0440945
X0448819
X0456693
X0464567
X0460630Y0133858
X0452756
X0444882
X0437008
X0429134
X0421260
X0413386
X0405512
X0397638
X0389764
X0381890
X0374016
X0366142
X0358268
X0350394
X0354331Y0141732
X0362205
X0358268Y0149606
X0350394
X0342520
X0346457Y0141732
X0338583
X0334646Y0133858
X0377953Y0141732
X0385827
X0393701
X0401575
X0409449
X0417323
X0440945
X0448819
X0456693
X0460630Y0149606
X0452756
X0444882
X0484252
X0480315Y0141732
X0484252Y0133858
X0480315Y0125984
Y0157480
X0484252Y0165354
X0476378
X0480315Y0173228
X0484252Y0181103
X0480315Y0188977
X0484252Y0196851
X0480315Y0204725
X0484252Y0212598
X0480315Y0220473
X0484252Y0228347
X0480315Y0236221
X0484252Y0244095
X0480315Y0251969
X0484252Y0259843
X0480315Y0267717
X0484252Y0275591
X0476378
X0480315Y0283465
X0484252Y0291339
X0480315Y0299213
X0484252Y0307087
X0460630
X0456693Y0299213
X0448819
X0444882Y0307087
Y0291339
X0437008
X0429134
X0421260
X0413386
X0405512
X0397638
X0389764
X0393701Y0283465
X0401575
X0405512Y0275591
X0397638
X0401575Y0267717
X0409449
X0417323
X0425197
X0433071
X0440945
X0448819
X0456693
X0460630Y0275591
X0456693Y0283465
X0448819
X0440945
X0444882Y0275591
X0437008
X0421260
X0429134Y0259843
X0433071Y0251969
X0440945
X0448819
X0456693
X0460630Y0259843
X0452756
X0444882
Y0244095
X0452756
X0460630
X0468504
X0464567Y0236221
X0456693
X0448819
X0440945
X0433071
X0425197
X0417323
X0409449
X0401575
X0405512Y0244095
X0413386
X0409449Y0251969
X0401575
X0405512Y0259843
X0413386
X0429134Y0244095
X0437008
Y0228347
X0444882
X0452756
X0460630
X0456693Y0220473
X0448819
X0440945
X0433071
X0437008Y0212598
X0444882
X0452756
X0460630
X0464567Y0204725
X0456693
X0448819
X0440945
X0432100Y0202965
X0433185Y0199015
X0432100Y0195078
Y0191128
X0432000Y0187400
X0432200Y0183267
X0429134Y0181103
X0424499Y0176500
X0420550Y0176300
X0416600Y0175700
X0414700Y0177500
X0410750Y0177400
X0406700Y0177715
X0399200Y0183273
Y0187423
X0399207Y0190828
X0399200Y0194978
Y0199128
X0399207Y0203277
X0403200Y0210700
X0410800Y0210800
X0417600Y0210700
X0423500Y0211000
X0427100Y0210700
X0429134Y0228347
X0397638
X0389764
X0390600Y0223500
X0388662Y0221549
X0386725Y0219598
X0384787Y0217647
X0382850Y0215696
X0380912Y0213745
X0378974Y0211794
X0377037Y0209843
X0374963Y0207757
X0373026Y0205806
X0371088Y0203855
X0369150Y0201904
X0367213Y0199953
X0365275Y0198002
X0363338Y0196051
X0361400Y0194100
X0327800Y0194467
X0327895Y0198617
X0327800Y0202235
Y0206384
Y0210534
Y0217200
X0323200Y0221500
X0319014Y0222137
X0313000Y0222098
X0326772Y0228347
X0334646
Y0244095
X0330709Y0251969
X0329000Y0258000
X0330709Y0267717
X0336701Y0267538
X0336847Y0271682
X0336773Y0275546
X0336807Y0279099
X0326772Y0275591
X0318898
X0314961Y0283465
X0318898Y0291339
X0314961Y0267717
X0318898Y0259843
X0314961Y0251969
X0318898Y0244095
X0315928Y0188128
X0321914Y0187714
X0342520Y0165354
X0346457Y0157480
X0338583
X0433071
X0440945
X0448819
X0456693
X0460630Y0165354
X0452756
X0444882
X0448819Y0173228
X0456693
X0460630Y0181103
X0452756
X0456693Y0188977
X0448819
X0452756Y0196851
X0460630
X0468504
X0444882
X0460630Y0291339
X0409449Y0299213
X0385827
X0377953
X0370079
X0374016Y0307087
X0381890
X0358268
X0357000Y0297500
X0360900Y0295200
X0374800Y0281400
Y0277447
X0374700Y0273497
X0374800Y0269548
Y0265598
X0377100Y0267573
Y0271522
Y0275472
Y0279422
X0376900Y0263400
X0374016Y0259843
X0311024
X0303150
X0307087Y0267717
X0311024Y0275591
X0303150
X0295276
X0299213Y0283465
X0307087
Y0299213
X0299213
X0303150Y0307087
X0311024
X0295276
X0287402
X0271654
X0263780
X0240158
X0232284
X0220473Y0299213
Y0283465
X0224410Y0275591
X0232284
X0240158
X0220473Y0267717
Y0251969
Y0236221
X0228347
X0232284Y0244095
X0240158
Y0228347
Y0212598
X0248032
X0255906
X0263780
X0259843Y0204725
X0251969
X0244095
X0248032Y0196851
X0255906
X0259843Y0188977
X0267717
X0275591
X0283465
X0287402Y0196851
X0279528
X0271654
X0275591Y0204725
X0283465
X0287402Y0212598
X0279528
X0294400Y0214292
Y0210321
Y0206384
Y0202481
Y0198544
Y0194607
X0301800Y0188500
X0306300Y0185100
X0312000Y0186000
X0310000Y0188500
X0303150Y0181103
X0307087Y0173228
X0291339
X0283465
X0275591
X0267717
X0259843
X0255906Y0181103
X0248032
X0251969Y0188977
X0244095
X0240158Y0196851
X0232284
X0228347Y0204725
X0220473
Y0220473
Y0188977
Y0173228
X0244095
X0271654Y0181103
X0279528
X0287402
X0298657Y0221818
X0306113Y0222000
X0295276Y0228347
X0299213Y0236221
X0303150Y0244095
X0311024
X0307087Y0251969
X0295276Y0244095
Y0291339
X0299213Y0314961
X0291339
X0295276Y0322835
X0287402
X0291339Y0330709
X0283465
X0275591
X0267717
X0259843
X0251969
X0244095
X0248032Y0338583
X0255906
X0263780
X0271654
X0279528
X0287402
X0291339Y0346457
X0299213
X0307087
X0311024Y0354331
X0303150
X0295276
X0287402
X0291339Y0362205
X0299213
X0307087
X0311024Y0370079
X0303150
Y0338583
X0311024
X0307087Y0330709
X0271654Y0322835
X0263780
X0267717Y0314961
X0244095
X0236221
X0228347
X0220473
Y0330709
Y0346457
X0228347
X0244095
X0251969
X0259843
X0267717
X0275591
Y0362205
Y0377953
X0259843
X0263780Y0385827
X0259843Y0393701
X0263780Y0401575
X0267717Y0409449
X0271654Y0417323
X0279528
X0287402
X0295276
X0303150
X0311024
X0307087Y0425197
X0299213
X0291339
X0283465
X0275591
X0267717
X0259843
X0251969
X0255906Y0417323
X0263780
X0248032
X0240158
X0236221Y0425197
X0228347
X0220473
Y0440945
Y0456693
X0228347
X0224410Y0464567
X0248032
Y0448819
X0240158
Y0433071
X0248032
Y0401575
X0240158Y0385827
X0244095Y0377953
X0248032Y0370079
X0255906
X0251969Y0362205
X0244095
X0248032Y0354331
X0240158
Y0338583
X0248032Y0322835
X0232284
X0220473Y0362205
Y0377953
Y0393701
Y0409449
X0287402Y0401575
X0295276
X0326772
Y0417323
X0318898
X0322835Y0425197
X0330709
X0338583
X0346457
X0354331
X0362205
Y0409449
Y0393701
X0354331
X0358268Y0385827
X0350394
X0342520
X0334646
X0326772
X0318898
X0322835Y0377953
X0330709
X0338583
X0342520Y0370079
X0350394
X0354331Y0377953
X0362205
X0358268Y0354331
X0350394
X0342520
X0334646
X0335700Y0344900
X0332000
X0339400
X0346457Y0346457
X0354331
X0358268Y0338583
X0366142
X0374016
X0381890
X0389764
X0397638
X0405512
X0413386
X0421260
X0429134
X0437008
X0444882
X0448819Y0346457
X0456693
X0460630Y0354331
X0468504
X0456693Y0362205
X0448819
X0452756Y0370079
X0444882
X0448819Y0377953
X0460630Y0385827
X0452756Y0401575
X0444882
X0437008
X0440945Y0393701
X0433071
X0425197
X0429134Y0385827
X0437008
X0421260
X0425197Y0377953
X0421260Y0370079
Y0354331
X0429134
X0437008
X0444882
X0440945Y0346457
X0433071
Y0362205
X0413386Y0354331
X0417323Y0346457
Y0330709
X0425197
X0433071
X0440945
X0448819
X0456693
X0460630Y0338583
Y0322835
X0464567Y0314961
X0456693
X0448819
X0444882Y0322835
X0437008
X0429134
X0421260
X0413386
X0405512
X0397638
X0389764
X0393701Y0330709
X0401575
X0409449
Y0314961
X0425197
X0385827
X0377953
X0374016Y0322835
X0366142
X0358268
X0350394
X0342520
X0339470Y0325730
X0335700Y0323300
X0326772Y0322835
X0322600Y0325700
X0318800Y0325600
X0318898Y0322835
X0322835Y0314961
X0330709
X0338583
X0346457
X0362205
Y0330709
X0370079
X0377953
X0385827Y0346457
X0393701
X0370079
X0354331Y0330709
X0342520Y0338583
X0326772
X0318800Y0344800
X0314961Y0346457
X0318898Y0354331
X0322835Y0362205
X0330709
X0334646Y0370079
X0326772
X0318898
X0314961Y0362205
Y0425197
X0338583Y0409449
X0421260Y0417323
X0425197Y0425197
X0433071
X0440945
X0448819
X0452756Y0417323
X0460630
X0456693Y0409449
X0460630Y0433071
X0456693Y0440945
X0460630Y0448819
X0456693Y0456693
X0460630Y0464567
X0468504
X0437008Y0417323
X0421260Y0401575
X0472441Y0393701
X0480315
X0484252Y0401575
X0480315Y0409449
X0484252Y0433071
X0480315Y0440945
X0484252Y0448819
X0480315Y0456693
X0472441
X0484252Y0464567
Y0385827
Y0370079
X0480315Y0362205
X0484252Y0354331
X0480315Y0346457
X0484252Y0338583
X0480315Y0330709
X0484252Y0322835
X0480315Y0314961
Y0472441
X0456693
X0244095
X0220473
T02
X0323600Y0229500
Y0233000
X0328144Y0288503
X0328000Y0292000
X0331700Y0307600
X0350996Y0306100
Y0302403
X0364900Y0296200
X0384109Y0289987
Y0286487
X0407800Y0221300
Y0217800
X0427400Y0218000
X0427513Y0221498
X0303300Y0229400
Y0232900
X0351404Y0404400
Y0419400
X0384200Y0414400
X0400100Y0419200
X0400000Y0404300
X0433488Y0414288
T03
X0404200Y0305400
X0404100Y0310900
X0427100Y0310500
Y0305000
X0279383Y0275600
X0280700Y0265200
X0271300
X0259800Y0266200
X0251800
X0254600Y0275500
X0252300Y0224400
X0276300Y0228000
X0270700Y0157192
X0252100Y0170700
X0254500Y0321400
X0279300
X0283000Y0365800
X0296750Y0371950
X0311100Y0379500
X0305200Y0399800
X0256184Y0360403
X0256310Y0354904
X0332200Y0403701
X0332100Y0409200
X0341300Y0403701
X0379100Y0390300
X0403902
X0404000Y0344600
X0379000
T04
X0226000Y0130500
Y0140500
Y0150500
X0236000
Y0140500
Y0130500
X0466000Y0130402
Y0140402
Y0150402
X0476000
Y0140402
Y0130402
Y0160402
Y0170402
Y0180402
Y0190402
Y0200402
Y0210402
Y0220402
Y0230402
Y0240402
Y0250402
Y0260402
Y0270402
Y0280402
Y0290402
Y0300402
Y0310402
X0466000
Y0300402
Y0290402
Y0280402
Y0270402
Y0260402
Y0250402
Y0240402
Y0230402
Y0220402
Y0210402
Y0200402
Y0190402
Y0180402
Y0170402
Y0160402
X0236000Y0160500
Y0170500
Y0180500
Y0190500
Y0200500
Y0210500
Y0220500
Y0230500
X0226000
Y0240500
Y0250500
Y0260500
Y0270500
Y0280500
Y0290500
Y0300500
Y0310500
X0236000
Y0300500
Y0290500
Y0280500
Y0270500
Y0260500
Y0250500
Y0240500
X0226000Y0220500
Y0210500
Y0200500
Y0190500
Y0180500
Y0170500
Y0160500
Y0320500
X0236000
Y0330500
Y0340500
Y0350500
Y0360500
Y0370500
Y0380500
X0226000
Y0390500
Y0400500
Y0410500
Y0420500
Y0430500
Y0440500
X0236000
Y0450500
Y0460500
X0226000
Y0450500
X0236000Y0430500
Y0420500
Y0410500
Y0400500
Y0390500
X0226000Y0370500
Y0360500
Y0350500
Y0340500
Y0330500
X0466000Y0330402
Y0340402
Y0350402
Y0360402
Y0370402
Y0380402
Y0390402
Y0400402
Y0410402
Y0420402
Y0430402
Y0440402
Y0450402
Y0460402
Y0320402
X0476000
Y0330402
Y0340402
Y0350402
Y0360402
Y0370402
Y0380402
Y0390402
Y0400402
Y0410402
Y0420402
Y0430402
Y0440402
Y0450402
Y0460402
Y0470402
X0466000
X0236000Y0470500
X0226000
T05
X0309194Y0144200
X0286000Y0455500
X0416000
T06
X0420500Y0255000
X0411000Y0281100
X0430700Y0281400
X0306000Y0291000
X0253800Y0410000
X0339900Y0418800
X0450300Y0409400
T07
X0296202Y0131208
X0322187
Y0157192
X0296202
X0298992Y0442508
Y0468492
X0273008
Y0442508
X0403008
X0428992
Y0468492
X0403008
M30
