G04*
G04 #@! TF.GenerationSoftware,Altium Limited,Altium Designer,26.7.1 (11)*
G04*
G04 Layer_Physical_Order=3*
G04 Layer_Color=128*
G04 Board_Origin=22600000|47050000*
%FSLAX25Y25*%
%MOIN*%
G70*
G04*
G04 #@! TF.SameCoordinates,7F35501D-8451-418E-9A1C-AEB09D659892*
G04*
G04*
G04 #@! TF.FilePolarity,Negative*
G04*
G01*
G75*
%ADD14C,0.01000*%
%ADD107C,0.04000*%
G04:AMPARAMS|DCode=109|XSize=94.614mil|YSize=94.614mil|CornerRadius=0mil|HoleSize=0mil|Usage=FLASHONLY|Rotation=0.000|XOffset=0mil|YOffset=0mil|HoleType=Round|Shape=Relief|Width=4mil|Gap=4mil|Entries=4|*
%AMTHD109*
7,0,0,0.09461,0.08661,0.00400,45*
%
%ADD109THD109*%
%ADD110C,0.07099*%
%ADD111C,0.04895*%
%ADD113C,0.05721*%
%ADD114C,0.01981*%
%ADD115C,0.03600*%
%ADD116C,0.02800*%
%ADD117C,0.09422*%
G36*
X-12500Y-346000D02*
Y-304900D01*
X104800D01*
Y-353400D01*
X-5000D01*
X-5020Y-353445D01*
X-5756D01*
X-7202Y-353157D01*
X-8563Y-352593D01*
X-9788Y-351775D01*
X-10830Y-350733D01*
X-11649Y-349508D01*
X-12212Y-348147D01*
X-12500Y-346701D01*
Y-345965D01*
Y-346000D01*
D02*
G37*
D14*
X19100Y-253500D02*
X63900D01*
X19100Y-170000D02*
X63900D01*
Y-253500D02*
Y-170000D01*
X19100Y-253500D02*
Y-170000D01*
X129100Y-278900D02*
Y-255000D01*
X85500Y-278900D02*
X129100D01*
X191600Y-301000D02*
Y-235200D01*
X176900D02*
X191600D01*
Y-301000D02*
X220300D01*
X-12500Y-346000D02*
Y-304900D01*
X-5000Y-353400D02*
X104800D01*
Y-304900D01*
X-12500D02*
X104800D01*
X141600Y-135800D02*
X220200D01*
X141600D02*
Y-103000D01*
X220300Y-301000D02*
Y-135900D01*
X129100Y-255000D02*
Y-235200D01*
X176900D01*
X85500Y-278900D02*
Y-245500D01*
X141600Y-103000D02*
X190300D01*
X190600Y-102700D02*
Y-42600D01*
X225000D01*
Y12800D01*
X141600Y-103000D02*
Y-42500D01*
X25000D02*
X141600D01*
X25000D02*
Y13400D01*
X-12600Y-95000D02*
X85500D01*
Y-245500D02*
Y-95000D01*
D107*
X-4921Y13681D02*
G03*
X-12500Y6004I49J-7628D01*
G01*
X262402Y5709D02*
G03*
X254429Y13681I-7972J0D01*
G01*
X254134Y-353445D02*
G03*
X262402Y-345177I0J8268D01*
G01*
X-12500Y-345965D02*
G03*
X-5020Y-353445I7480J0D01*
G01*
X-12500Y-345965D02*
Y6004D01*
X-4921Y13681D02*
X254429D01*
X262402Y-345177D02*
Y5709D01*
X-5020Y-353445D02*
X254134D01*
D109*
X204700Y-189100D02*
D03*
D110*
X185000Y-189400D02*
D03*
X194500Y-215500D02*
D03*
X113900Y-51700D02*
D03*
X80000Y-179500D02*
D03*
X224300Y-61100D02*
D03*
X27800Y-60500D02*
D03*
D111*
X240000Y-40098D02*
D03*
X250000Y-90098D02*
D03*
X240000Y-190098D02*
D03*
X250000Y-260098D02*
D03*
X240000Y-310098D02*
D03*
X10000Y-100000D02*
D03*
Y-30000D02*
D03*
X0Y-90000D02*
D03*
X10000D02*
D03*
X0Y-240000D02*
D03*
X10000Y-290000D02*
D03*
X240000Y-98D02*
D03*
X250000D02*
D03*
X240000Y-10098D02*
D03*
X250000D02*
D03*
X240000Y-20098D02*
D03*
X250000D02*
D03*
X240000Y-30098D02*
D03*
X250000D02*
D03*
Y-40098D02*
D03*
X240000Y-50098D02*
D03*
X250000D02*
D03*
X240000Y-60098D02*
D03*
X250000D02*
D03*
X240000Y-70098D02*
D03*
X250000D02*
D03*
Y-80098D02*
D03*
X240000Y-100098D02*
D03*
Y-110098D02*
D03*
X250000D02*
D03*
Y-120098D02*
D03*
X240000Y-130098D02*
D03*
X250000D02*
D03*
X240000Y-140098D02*
D03*
X250000D02*
D03*
X240000Y-150098D02*
D03*
X250000D02*
D03*
X240000Y-160098D02*
D03*
X250000D02*
D03*
X240000Y-170098D02*
D03*
X250000D02*
D03*
X240000Y-180098D02*
D03*
X250000D02*
D03*
Y-190098D02*
D03*
X240000Y-200098D02*
D03*
X250000D02*
D03*
X240000Y-210098D02*
D03*
X250000D02*
D03*
X240000Y-220098D02*
D03*
X250000D02*
D03*
X240000Y-230098D02*
D03*
X250000D02*
D03*
X240000Y-240098D02*
D03*
X250000D02*
D03*
X240000Y-250098D02*
D03*
X250000D02*
D03*
X240000Y-260098D02*
D03*
Y-270098D02*
D03*
X250000D02*
D03*
X240000Y-280098D02*
D03*
X250000D02*
D03*
X240000Y-290098D02*
D03*
X250000D02*
D03*
X240000Y-300098D02*
D03*
X250000D02*
D03*
Y-310098D02*
D03*
X240000Y-320098D02*
D03*
X250000D02*
D03*
X240000Y-330098D02*
D03*
X250000D02*
D03*
X240000Y-340098D02*
D03*
X250000D02*
D03*
X240000Y-120098D02*
D03*
Y-80098D02*
D03*
X250000Y-100098D02*
D03*
X240000Y-90098D02*
D03*
X10000Y-150000D02*
D03*
Y0D02*
D03*
X0D02*
D03*
Y-10000D02*
D03*
X10000D02*
D03*
X0Y-20000D02*
D03*
X10000D02*
D03*
X0Y-30000D02*
D03*
Y-40000D02*
D03*
X10000D02*
D03*
X0Y-50000D02*
D03*
X10000D02*
D03*
X0Y-60000D02*
D03*
X10000D02*
D03*
X0Y-70000D02*
D03*
X10000D02*
D03*
X0Y-80000D02*
D03*
Y-100000D02*
D03*
Y-110000D02*
D03*
X10000D02*
D03*
X0Y-120000D02*
D03*
X10000D02*
D03*
X0Y-130000D02*
D03*
X10000D02*
D03*
X0Y-140000D02*
D03*
X10000D02*
D03*
X0Y-150000D02*
D03*
Y-160000D02*
D03*
X10000D02*
D03*
X0Y-170000D02*
D03*
X10000D02*
D03*
X0Y-180000D02*
D03*
X10000D02*
D03*
X0Y-190000D02*
D03*
X10000D02*
D03*
X0Y-200000D02*
D03*
X10000D02*
D03*
X0Y-210000D02*
D03*
X10000D02*
D03*
X0Y-220000D02*
D03*
X10000D02*
D03*
X0Y-230000D02*
D03*
X10000D02*
D03*
Y-240000D02*
D03*
X0Y-250000D02*
D03*
X10000D02*
D03*
X0Y-260000D02*
D03*
X10000D02*
D03*
X0Y-270000D02*
D03*
X10000D02*
D03*
X0Y-280000D02*
D03*
X10000D02*
D03*
X0Y-290000D02*
D03*
Y-300000D02*
D03*
X10000D02*
D03*
X0Y-310000D02*
D03*
X10000D02*
D03*
X0Y-320000D02*
D03*
X10000D02*
D03*
X0Y-330000D02*
D03*
X10000D02*
D03*
X0Y-340000D02*
D03*
X10000D02*
D03*
Y-80000D02*
D03*
D113*
X83194Y-326300D02*
D03*
X190000Y-15000D02*
D03*
X60000D02*
D03*
D114*
X254315Y1941D02*
D03*
X258252Y-5933D02*
D03*
X254315Y-13807D02*
D03*
X258252Y-21681D02*
D03*
X254315Y-29555D02*
D03*
X258252Y-37429D02*
D03*
X254315Y-61051D02*
D03*
X258252Y-68925D02*
D03*
X254315Y-76799D02*
D03*
X258252Y-84673D02*
D03*
Y-100421D02*
D03*
X254315Y-108295D02*
D03*
X258252Y-116169D02*
D03*
X254315Y-124043D02*
D03*
X258252Y-131917D02*
D03*
X254315Y-139791D02*
D03*
X258252Y-147665D02*
D03*
X254315Y-155539D02*
D03*
X258252Y-163413D02*
D03*
X254315Y-171287D02*
D03*
X258252Y-179161D02*
D03*
X254315Y-187035D02*
D03*
X258252Y-194909D02*
D03*
X254315Y-202783D02*
D03*
X258252Y-210657D02*
D03*
X254315Y-218531D02*
D03*
X258252Y-226405D02*
D03*
X254315Y-234279D02*
D03*
X258252Y-242153D02*
D03*
X254315Y-250027D02*
D03*
X258252Y-257902D02*
D03*
X254315Y-265775D02*
D03*
X258252Y-273650D02*
D03*
X254315Y-281523D02*
D03*
X258252Y-289398D02*
D03*
X254315Y-297272D02*
D03*
X258252Y-305146D02*
D03*
X254315Y-313020D02*
D03*
X258252Y-320894D02*
D03*
X254315Y-328768D02*
D03*
X258252Y-336642D02*
D03*
X254315Y-344516D02*
D03*
X246441Y-13807D02*
D03*
Y-76799D02*
D03*
X250378Y-194909D02*
D03*
Y-305146D02*
D03*
X242504Y-5933D02*
D03*
Y-116169D02*
D03*
X238567Y-155539D02*
D03*
X242504Y-226405D02*
D03*
X238567Y-234279D02*
D03*
Y-265775D02*
D03*
X242504Y-273650D02*
D03*
X238567Y-344516D02*
D03*
X230693Y1941D02*
D03*
X234630Y-5933D02*
D03*
X230693Y-13807D02*
D03*
X234630Y-21681D02*
D03*
X230693Y-29555D02*
D03*
X234630Y-37429D02*
D03*
Y-53177D02*
D03*
X230693Y-61051D02*
D03*
X234630Y-84673D02*
D03*
X230693Y-108295D02*
D03*
X234630Y-116169D02*
D03*
X230693Y-124043D02*
D03*
X234630Y-131917D02*
D03*
X230693Y-139791D02*
D03*
X234630Y-147665D02*
D03*
X230693Y-155539D02*
D03*
X234630Y-163413D02*
D03*
X230693Y-171287D02*
D03*
X234630Y-179161D02*
D03*
X230693Y-187035D02*
D03*
X234630Y-194909D02*
D03*
X230693Y-202783D02*
D03*
X234630Y-210657D02*
D03*
X230693Y-218531D02*
D03*
X234630Y-226405D02*
D03*
X230693Y-234279D02*
D03*
X234630Y-242153D02*
D03*
X230693Y-250027D02*
D03*
X234630Y-257902D02*
D03*
X230693Y-265775D02*
D03*
X234630Y-273650D02*
D03*
X230693Y-281523D02*
D03*
X234630Y-289398D02*
D03*
X230693Y-297272D02*
D03*
X234630Y-305146D02*
D03*
X230693Y-313020D02*
D03*
X234630Y-320894D02*
D03*
X230693Y-328768D02*
D03*
X234630Y-336642D02*
D03*
X230693Y-344516D02*
D03*
X222819Y-45303D02*
D03*
X226756Y-53177D02*
D03*
Y-68925D02*
D03*
X222819Y-92547D02*
D03*
X226756Y-100421D02*
D03*
X222819Y-108295D02*
D03*
Y-124043D02*
D03*
Y-139791D02*
D03*
Y-155539D02*
D03*
Y-171287D02*
D03*
Y-187035D02*
D03*
Y-202783D02*
D03*
X226756Y-210657D02*
D03*
X222819Y-218531D02*
D03*
X226756Y-226405D02*
D03*
X222819Y-234279D02*
D03*
X226756Y-242153D02*
D03*
X222819Y-250027D02*
D03*
X226756Y-257902D02*
D03*
X222819Y-265775D02*
D03*
X226756Y-273650D02*
D03*
X222819Y-281523D02*
D03*
X226756Y-289398D02*
D03*
X222819Y-297272D02*
D03*
X226756Y-305146D02*
D03*
X222819Y-313020D02*
D03*
X226756Y-320894D02*
D03*
X222819Y-328768D02*
D03*
X226756Y-336642D02*
D03*
X222819Y-344516D02*
D03*
X214945Y-45303D02*
D03*
X218882Y-68925D02*
D03*
X214945Y-76799D02*
D03*
X218882Y-100421D02*
D03*
Y-116169D02*
D03*
X214945Y-124043D02*
D03*
X218882Y-131917D02*
D03*
X214945Y-139791D02*
D03*
X218882Y-147665D02*
D03*
Y-163413D02*
D03*
Y-179161D02*
D03*
X214945Y-187035D02*
D03*
X218882Y-194909D02*
D03*
X214945Y-202783D02*
D03*
X218882Y-210657D02*
D03*
X214945Y-218531D02*
D03*
X218882Y-226405D02*
D03*
X214945Y-234279D02*
D03*
X218882Y-242153D02*
D03*
X214945Y-250027D02*
D03*
X218882Y-257902D02*
D03*
X214945Y-265775D02*
D03*
X218882Y-273650D02*
D03*
Y-305146D02*
D03*
X214945Y-313020D02*
D03*
X218882Y-320894D02*
D03*
X214945Y-328768D02*
D03*
X218882Y-336642D02*
D03*
X214945Y-344516D02*
D03*
X207071Y-45303D02*
D03*
X211008Y-53177D02*
D03*
Y-68925D02*
D03*
X207071Y-76799D02*
D03*
X211008Y-84673D02*
D03*
X207071Y-108295D02*
D03*
X211008Y-116169D02*
D03*
X207071Y-124043D02*
D03*
X211008Y-131917D02*
D03*
X207071Y-139791D02*
D03*
X211008Y-147665D02*
D03*
Y-179161D02*
D03*
Y-194909D02*
D03*
X207071Y-202783D02*
D03*
Y-218531D02*
D03*
X211008Y-226405D02*
D03*
X207071Y-234279D02*
D03*
X211008Y-242153D02*
D03*
X207071Y-250027D02*
D03*
X211008Y-257902D02*
D03*
X207071Y-313020D02*
D03*
X211008Y-336642D02*
D03*
X207071Y-344516D02*
D03*
X199197Y-45303D02*
D03*
Y-76799D02*
D03*
X203134Y-84673D02*
D03*
X199197Y-92547D02*
D03*
X203134Y-116169D02*
D03*
Y-131917D02*
D03*
X199197Y-139791D02*
D03*
X203134Y-147665D02*
D03*
X199197Y-155539D02*
D03*
X203134Y-179161D02*
D03*
X199197Y-202783D02*
D03*
X203134Y-210657D02*
D03*
Y-226405D02*
D03*
X199197Y-234279D02*
D03*
X203134Y-242153D02*
D03*
Y-289398D02*
D03*
Y-336642D02*
D03*
X199197Y-344516D02*
D03*
X195260Y-53177D02*
D03*
Y-68925D02*
D03*
Y-84673D02*
D03*
Y-100421D02*
D03*
Y-116169D02*
D03*
X191323Y-124043D02*
D03*
X195260Y-131917D02*
D03*
X191323Y-139791D02*
D03*
X195260Y-147665D02*
D03*
Y-179161D02*
D03*
Y-194909D02*
D03*
X191323Y-202783D02*
D03*
Y-234279D02*
D03*
Y-328768D02*
D03*
X195260Y-336642D02*
D03*
X191323Y-344516D02*
D03*
X187386Y-116169D02*
D03*
Y-131917D02*
D03*
X183449Y-139791D02*
D03*
X187386Y-147665D02*
D03*
X183449Y-155539D02*
D03*
Y-171287D02*
D03*
X187386Y-179161D02*
D03*
X183449Y-202783D02*
D03*
X187386Y-210657D02*
D03*
X183449Y-218531D02*
D03*
X187386Y-226405D02*
D03*
X183449Y-234279D02*
D03*
Y-328768D02*
D03*
X187386Y-336642D02*
D03*
X183449Y-344516D02*
D03*
X179512Y-131917D02*
D03*
X175575Y-139791D02*
D03*
X179512Y-147665D02*
D03*
Y-179161D02*
D03*
X175575Y-187035D02*
D03*
X179512Y-194909D02*
D03*
X175575Y-202783D02*
D03*
X179512Y-210657D02*
D03*
X175575Y-218531D02*
D03*
X179512Y-226405D02*
D03*
X175575Y-234279D02*
D03*
Y-328768D02*
D03*
X179512Y-336642D02*
D03*
X175575Y-344516D02*
D03*
X167701Y-124043D02*
D03*
X171638Y-131917D02*
D03*
X167701Y-139791D02*
D03*
X171638Y-147665D02*
D03*
Y-179161D02*
D03*
X167701Y-187035D02*
D03*
X171638Y-194909D02*
D03*
Y-242153D02*
D03*
X167701Y-328768D02*
D03*
X171638Y-336642D02*
D03*
X167701Y-344516D02*
D03*
X159827Y-124043D02*
D03*
X163764Y-131917D02*
D03*
Y-147665D02*
D03*
X159827Y-155539D02*
D03*
Y-171287D02*
D03*
X163764Y-179161D02*
D03*
Y-242153D02*
D03*
X159827Y-328768D02*
D03*
X163764Y-336642D02*
D03*
X159827Y-344516D02*
D03*
X155890Y-131917D02*
D03*
X151953Y-139791D02*
D03*
Y-155539D02*
D03*
X155890Y-163413D02*
D03*
X151953Y-171287D02*
D03*
Y-328768D02*
D03*
X155890Y-336642D02*
D03*
X151953Y-344516D02*
D03*
X144079Y-124043D02*
D03*
X148016Y-131917D02*
D03*
X144079Y-139791D02*
D03*
X148016Y-147665D02*
D03*
Y-163413D02*
D03*
X144079Y-171287D02*
D03*
X148016Y-210657D02*
D03*
Y-336642D02*
D03*
X144079Y-344516D02*
D03*
X136205Y-45303D02*
D03*
Y-61051D02*
D03*
Y-76799D02*
D03*
Y-92547D02*
D03*
X140142Y-131917D02*
D03*
X136205Y-139791D02*
D03*
X140142Y-147665D02*
D03*
X136205Y-155539D02*
D03*
Y-328768D02*
D03*
X140142Y-336642D02*
D03*
X136205Y-344516D02*
D03*
X128331Y-45303D02*
D03*
Y-76799D02*
D03*
X132268Y-84673D02*
D03*
X128331Y-92547D02*
D03*
X132268Y-116169D02*
D03*
X128331Y-124043D02*
D03*
X132268Y-131917D02*
D03*
X128331Y-139791D02*
D03*
X132268Y-147665D02*
D03*
Y-163413D02*
D03*
Y-320894D02*
D03*
X128331Y-328768D02*
D03*
X132268Y-336642D02*
D03*
X128331Y-344516D02*
D03*
X120457Y-45303D02*
D03*
X124394Y-84673D02*
D03*
Y-100421D02*
D03*
Y-116169D02*
D03*
X120457Y-124043D02*
D03*
X124394Y-147665D02*
D03*
X120457Y-155539D02*
D03*
Y-313020D02*
D03*
X124394Y-320894D02*
D03*
X120457Y-328768D02*
D03*
X124394Y-336642D02*
D03*
X120457Y-344516D02*
D03*
X112583Y-45303D02*
D03*
Y-61051D02*
D03*
X116520Y-84673D02*
D03*
X112583Y-92547D02*
D03*
X116520Y-100421D02*
D03*
Y-116169D02*
D03*
Y-131917D02*
D03*
Y-147665D02*
D03*
X112583Y-155539D02*
D03*
X116520Y-305146D02*
D03*
X112583Y-313020D02*
D03*
X116520Y-320894D02*
D03*
X112583Y-328768D02*
D03*
Y-344516D02*
D03*
X104709Y-45303D02*
D03*
X108646Y-84673D02*
D03*
X104709Y-92547D02*
D03*
X108646Y-100421D02*
D03*
X104709Y-108295D02*
D03*
X108646Y-116169D02*
D03*
X104709Y-155539D02*
D03*
Y-202783D02*
D03*
Y-218531D02*
D03*
X108646Y-226405D02*
D03*
Y-242153D02*
D03*
Y-336642D02*
D03*
X96835Y-45303D02*
D03*
X100772Y-53177D02*
D03*
Y-68925D02*
D03*
Y-84673D02*
D03*
X96835Y-92547D02*
D03*
X100772Y-100421D02*
D03*
X96835Y-108295D02*
D03*
X100772Y-131917D02*
D03*
Y-147665D02*
D03*
X96835Y-155539D02*
D03*
X100772Y-194909D02*
D03*
Y-242153D02*
D03*
X88961Y-45303D02*
D03*
X92898Y-53177D02*
D03*
Y-84673D02*
D03*
Y-100421D02*
D03*
X88961Y-108295D02*
D03*
X92898Y-116169D02*
D03*
X88961Y-124043D02*
D03*
X92898Y-147665D02*
D03*
Y-179161D02*
D03*
X88961Y-187035D02*
D03*
X92898Y-194909D02*
D03*
X88961Y-202783D02*
D03*
X92898Y-210657D02*
D03*
X88961Y-218531D02*
D03*
X92898Y-226405D02*
D03*
X81087Y-45303D02*
D03*
X85024Y-53177D02*
D03*
Y-100421D02*
D03*
X81087Y-108295D02*
D03*
X85024Y-116169D02*
D03*
X81087Y-124043D02*
D03*
X85024Y-131917D02*
D03*
X81087Y-139791D02*
D03*
X85024Y-163413D02*
D03*
X81087Y-171287D02*
D03*
Y-187035D02*
D03*
X85024Y-194909D02*
D03*
X81087Y-202783D02*
D03*
X85024Y-210657D02*
D03*
X81087Y-218531D02*
D03*
X85024Y-226405D02*
D03*
X81087Y-297272D02*
D03*
X73213Y-45303D02*
D03*
X77150Y-53177D02*
D03*
Y-100421D02*
D03*
X73213Y-108295D02*
D03*
X77150Y-116169D02*
D03*
X73213Y-124043D02*
D03*
X77150Y-131917D02*
D03*
X73213Y-155539D02*
D03*
X77150Y-163413D02*
D03*
X73213Y-171287D02*
D03*
Y-187035D02*
D03*
X77150Y-194909D02*
D03*
Y-210657D02*
D03*
Y-226405D02*
D03*
X73213Y-234279D02*
D03*
X77150Y-289398D02*
D03*
X65339Y-45303D02*
D03*
X69276Y-53177D02*
D03*
Y-68925D02*
D03*
X65339Y-108295D02*
D03*
X69276Y-116169D02*
D03*
X65339Y-124043D02*
D03*
Y-139791D02*
D03*
X69276Y-147665D02*
D03*
X65339Y-155539D02*
D03*
X69276Y-163413D02*
D03*
Y-179161D02*
D03*
Y-194909D02*
D03*
Y-226405D02*
D03*
Y-242153D02*
D03*
X65339Y-297272D02*
D03*
X57465Y-45303D02*
D03*
X61402Y-53177D02*
D03*
Y-68925D02*
D03*
Y-116169D02*
D03*
Y-131917D02*
D03*
X57465Y-139791D02*
D03*
X61402Y-147665D02*
D03*
Y-163413D02*
D03*
Y-257902D02*
D03*
X57465Y-265775D02*
D03*
X61402Y-273650D02*
D03*
X57465Y-281523D02*
D03*
X61402Y-289398D02*
D03*
X57465Y-297272D02*
D03*
X49591Y-45303D02*
D03*
X53528Y-53177D02*
D03*
X49591Y-92547D02*
D03*
Y-108295D02*
D03*
Y-124043D02*
D03*
X53528Y-131917D02*
D03*
X49591Y-139791D02*
D03*
X53528Y-257902D02*
D03*
X49591Y-265775D02*
D03*
X53528Y-273650D02*
D03*
X49591Y-281523D02*
D03*
X53528Y-289398D02*
D03*
X49591Y-297272D02*
D03*
X41717Y-45303D02*
D03*
X45654Y-53177D02*
D03*
X41717Y-61051D02*
D03*
Y-124043D02*
D03*
X45654Y-131917D02*
D03*
X41717Y-139791D02*
D03*
X45654Y-147665D02*
D03*
X41717Y-155539D02*
D03*
X45654Y-163413D02*
D03*
Y-273650D02*
D03*
X41717Y-281523D02*
D03*
X45654Y-289398D02*
D03*
X41717Y-297272D02*
D03*
X33843Y-45303D02*
D03*
X37780Y-53177D02*
D03*
Y-68925D02*
D03*
X33843Y-76799D02*
D03*
X37780Y-84673D02*
D03*
X33843Y-92547D02*
D03*
Y-124043D02*
D03*
X37780Y-131917D02*
D03*
X33843Y-139791D02*
D03*
X37780Y-147665D02*
D03*
Y-163413D02*
D03*
Y-257902D02*
D03*
X33843Y-265775D02*
D03*
Y-281523D02*
D03*
Y-297272D02*
D03*
X25969Y-45303D02*
D03*
X29906Y-53177D02*
D03*
Y-100421D02*
D03*
X25969Y-108295D02*
D03*
Y-124043D02*
D03*
X29906Y-131917D02*
D03*
X25969Y-139791D02*
D03*
X29906Y-257902D02*
D03*
X25969Y-265775D02*
D03*
X29906Y-273650D02*
D03*
X25969Y-281523D02*
D03*
X29906Y-289398D02*
D03*
X18095Y1941D02*
D03*
X22032Y-5933D02*
D03*
Y-21681D02*
D03*
Y-37429D02*
D03*
Y-53177D02*
D03*
Y-68925D02*
D03*
X18095Y-92547D02*
D03*
X22032Y-100421D02*
D03*
X18095Y-108295D02*
D03*
X22032Y-116169D02*
D03*
X18095Y-124043D02*
D03*
X22032Y-131917D02*
D03*
X18095Y-139791D02*
D03*
X22032Y-147665D02*
D03*
X18095Y-155539D02*
D03*
X22032Y-257902D02*
D03*
X18095Y-265775D02*
D03*
X22032Y-273650D02*
D03*
X18095Y-281523D02*
D03*
X22032Y-289398D02*
D03*
X18095Y-297272D02*
D03*
X14158Y-21681D02*
D03*
Y-37429D02*
D03*
X10221Y-45303D02*
D03*
X14158Y-53177D02*
D03*
Y-84673D02*
D03*
Y-116169D02*
D03*
Y-131917D02*
D03*
X10221Y-155539D02*
D03*
X14158Y-163413D02*
D03*
Y-194909D02*
D03*
Y-226405D02*
D03*
Y-242153D02*
D03*
Y-257902D02*
D03*
Y-273650D02*
D03*
X2347Y-13807D02*
D03*
Y-45303D02*
D03*
Y-124043D02*
D03*
X6284Y-147665D02*
D03*
X2347Y-155539D02*
D03*
X6284Y-163413D02*
D03*
Y-194909D02*
D03*
Y-226405D02*
D03*
X2347Y-234279D02*
D03*
Y-265775D02*
D03*
X6284Y-273650D02*
D03*
X-5527Y1941D02*
D03*
X-1590Y-5933D02*
D03*
X-5527Y-13807D02*
D03*
Y-29555D02*
D03*
Y-45303D02*
D03*
Y-61051D02*
D03*
Y-76799D02*
D03*
Y-92547D02*
D03*
Y-108295D02*
D03*
Y-124043D02*
D03*
Y-139791D02*
D03*
Y-155539D02*
D03*
Y-171287D02*
D03*
Y-187035D02*
D03*
X-1590Y-194909D02*
D03*
X-5527Y-202783D02*
D03*
Y-218531D02*
D03*
Y-234279D02*
D03*
Y-250027D02*
D03*
Y-265775D02*
D03*
Y-281523D02*
D03*
Y-297272D02*
D03*
X101800Y-259966D02*
D03*
X206100Y-275422D02*
D03*
X207185Y-271485D02*
D03*
X206100Y-267535D02*
D03*
Y-279372D02*
D03*
X206000Y-283100D02*
D03*
X206200Y-287233D02*
D03*
X180700Y-292785D02*
D03*
X184750Y-293100D02*
D03*
X188700Y-293000D02*
D03*
X190600Y-294800D02*
D03*
X198499Y-294000D02*
D03*
X194550Y-294200D02*
D03*
X173200Y-271372D02*
D03*
Y-283077D02*
D03*
Y-287227D02*
D03*
X173207Y-279672D02*
D03*
X173200Y-275522D02*
D03*
X173207Y-267223D02*
D03*
X201100Y-259800D02*
D03*
X191600D02*
D03*
X177200D02*
D03*
X75800Y-282000D02*
D03*
X109700Y-125600D02*
D03*
X106000D02*
D03*
X92800Y-125700D02*
D03*
X110701Y-202962D02*
D03*
X110847Y-198818D02*
D03*
X110774Y-194955D02*
D03*
X110807Y-191401D02*
D03*
X101895Y-271883D02*
D03*
X97200Y-249000D02*
D03*
X87000Y-248402D02*
D03*
X72657Y-248682D02*
D03*
X68400Y-256208D02*
D03*
Y-264116D02*
D03*
Y-260179D02*
D03*
Y-271956D02*
D03*
Y-268019D02*
D03*
Y-275893D02*
D03*
X184800Y-259700D02*
D03*
X80113Y-248500D02*
D03*
X160725Y-250902D02*
D03*
X86000Y-284500D02*
D03*
X84000Y-282000D02*
D03*
X95914Y-282786D02*
D03*
X89928Y-282372D02*
D03*
X80300Y-285400D02*
D03*
X113470Y-144770D02*
D03*
X134900Y-175300D02*
D03*
X131000Y-173000D02*
D03*
X101800Y-276033D02*
D03*
Y-268265D02*
D03*
Y-264116D02*
D03*
Y-253300D02*
D03*
X135400Y-276400D02*
D03*
X148800Y-204902D02*
D03*
X103000Y-212500D02*
D03*
X151100Y-195028D02*
D03*
X148700Y-197003D02*
D03*
X148800Y-200952D02*
D03*
X151100Y-198978D02*
D03*
Y-202927D02*
D03*
X148800Y-193053D02*
D03*
X150900Y-207100D02*
D03*
X151100Y-191078D02*
D03*
X148800Y-189100D02*
D03*
X96600Y-144800D02*
D03*
X139275Y-272498D02*
D03*
X162662Y-248951D02*
D03*
X148963Y-262743D02*
D03*
X164600Y-247000D02*
D03*
X158787Y-252853D02*
D03*
X156850Y-254804D02*
D03*
X141213Y-270547D02*
D03*
X145088Y-266645D02*
D03*
X151037Y-260657D02*
D03*
X147026Y-264694D02*
D03*
X154912Y-256755D02*
D03*
X152974Y-258706D02*
D03*
X143150Y-268596D02*
D03*
X137338Y-274449D02*
D03*
D115*
X201100Y-165500D02*
D03*
X178200Y-165100D02*
D03*
X178000Y-125900D02*
D03*
X106200Y-66799D02*
D03*
X79200Y-70700D02*
D03*
X85100Y-91000D02*
D03*
X70750Y-98550D02*
D03*
X57000Y-104700D02*
D03*
X30310Y-115596D02*
D03*
X28500Y-149100D02*
D03*
X26100Y-299800D02*
D03*
X44700Y-313308D02*
D03*
X25800Y-204300D02*
D03*
X54700Y-205300D02*
D03*
X28600Y-195000D02*
D03*
X50300Y-242500D02*
D03*
X177902Y-80200D02*
D03*
D116*
X207488Y-56212D02*
D03*
X158109Y-184013D02*
D03*
X138900Y-174300D02*
D03*
X125404Y-51100D02*
D03*
X124996Y-164400D02*
D03*
X105700Y-162900D02*
D03*
X102000Y-178500D02*
D03*
X201513Y-249002D02*
D03*
X181800Y-249200D02*
D03*
X97600Y-237500D02*
D03*
X77300Y-237600D02*
D03*
X174100Y-51300D02*
D03*
X158200Y-56100D02*
D03*
D117*
X70202Y-313308D02*
D03*
X96187D02*
D03*
Y-339292D02*
D03*
X70202D02*
D03*
X202992Y-2008D02*
D03*
X177008Y-27992D02*
D03*
X202992D02*
D03*
X177008Y-2008D02*
D03*
X72992D02*
D03*
Y-27992D02*
D03*
X47008Y-2008D02*
D03*
Y-27992D02*
D03*
M02*
